<svg version="1.1" xmlns="http://www.w3.org/2000/svg" xmlns:xlink="http://www.w3.org/1999/xlink" width="51.44387" height="59.22137" viewBox="0,0,51.44387,59.22137"><g transform="translate(-185.7047,-139.10795)"><g data-paper-data="{&quot;isPaintingLayer&quot;:true}" fill-rule="nonzero" stroke="none" stroke-linecap="butt" stroke-linejoin="miter" stroke-miterlimit="10" stroke-dasharray="" stroke-dashoffset="0" style="mix-blend-mode: normal"><path d="M235.12956,139.1179c2.35642,0.18923 1.99976,2.76656 1.99976,2.76656l-0.18187,1.31419c-0.72156,5.15245 -2.04484,10.76511 -3.97435,15.74527c0.22926,5.1311 -1.81696,10.85629 -6.10213,14.00267c-0.34441,0.25288 -0.99977,0.46845 -1.77632,0.6503c4.63653,6.01945 5.71494,13.38492 5.31572,21.82084l0.01188,-0.00031c0,0 0.11238,2.56439 -2.26824,2.88428c-2.38062,0.3199 -2.493,-2.2445 -2.493,-2.2445l-0.01061,-0.51319c0.39998,-8.06399 -0.56641,-15.06409 -6.02389,-20.40629c0,0 -0.24442,-0.24192 -0.45523,-0.64998c-4.26828,0.56671 -8.47105,0.94747 -11.81787,-2.26784c-0.74388,-0.71466 -1.49464,-1.45442 -2.13315,-2.28531c-0.87241,0.20834 -1.64422,-0.20973 -1.64422,-0.20973c-3.14623,-1.70503 -6.14839,-3.90329 -9.41939,-5.34297c-2.57269,-1.13233 -4.98866,-1.79309 -7.38649,-3.33886l-1.06462,-2.43644c0,0 -0.11238,-2.56439 2.26824,-2.88428c1.40649,-0.18899 2.02124,0.62877 2.28884,1.32967c1.92957,1.08403 3.87962,1.59141 5.96522,2.51596c2.44198,1.08253 4.73532,2.54886 7.04736,3.94397c-0.03265,-3.37575 0.92206,-7.21884 2.68483,-9.99387c-0.51908,-1.13845 0.17217,-2.44044 0.17217,-2.44044l1.49706,-1.93917c4.9348,-2.78297 15.09628,-5.44396 19.51317,-1.53935c0.20469,0.18096 1.83019,2.51212 3.19805,4.49409c0.86268,-3.0988 1.48804,-6.29868 1.89411,-9.273l0.18187,-1.31419c0,0 0.35668,-2.57733 2.7131,-2.3881zM227.92606,158.90311c0.09596,-0.21329 0.1904,-0.42871 0.28335,-0.6461c-0.04966,-0.22455 -0.11038,-0.44086 -0.18254,-0.64745c-1.38245,-1.95671 -2.46462,-4.19873 -4.08409,-5.92421c-1.40044,-1.4921 -2.01865,-0.82026 -3.84188,-0.53808c-1.70267,0.26352 -3.36613,0.3949 -4.99744,0.66143c0.16377,2.35592 -2.07277,2.8592 -2.07277,2.8592c-0.7075,0.11582 -1.46413,0.00681 -2.12251,0.34746c-2.60865,1.34965 -3.48412,8.73096 -2.3348,10.83891c2.53549,4.6503 6.92001,3.96765 11.36198,3.3717c1.5647,-0.20993 3.37243,0.37973 4.69363,-0.64016c1.83982,-1.42026 3.17187,-4.19559 3.60303,-6.85064c-1.0646,-1.11305 -0.30593,-2.83209 -0.30593,-2.83209z" fill="#000000" stroke-width="0.5"/><path d="M227.97565,158.89649c0,0 -0.7588,1.73315 0.3058,2.8462c-0.43116,2.65505 -1.78208,5.46243 -3.6219,6.88269c-1.3212,1.01989 -3.14981,0.43971 -4.71451,0.64964c-4.44197,0.59595 -8.87923,1.25496 -11.41472,-3.39534c-1.14932,-2.10795 -0.27145,-9.54377 2.3372,-10.89342c0.65838,-0.34065 1.4217,-0.23923 2.1292,-0.35505c0,0 2.25343,-0.51359 2.08966,-2.86951c1.63131,-0.26653 3.32236,-0.3998 5.02503,-0.66332c1.82323,-0.28218 2.45904,-0.94649 3.85948,0.54561c1.61947,1.72548 2.72189,3.99616 4.10434,5.95287c0.07216,0.20659 0.13361,0.4261 0.18327,0.65065c-0.09295,0.21739 -0.18692,0.43572 -0.28288,0.64901z" data-paper-data="{&quot;noHover&quot;:false,&quot;origItem&quot;:[&quot;Path&quot;,{&quot;applyMatrix&quot;:true,&quot;segments&quot;:[[[227.92606,158.90311],[0,0],[0.09596,-0.21329]],[[228.20941,158.25701],[-0.09295,0.21739],[-0.04966,-0.22455]],[[228.02687,157.60956],[0.07216,0.20659],[-1.38245,-1.95671]],[[223.94278,151.68535],[1.61947,1.72548],[-1.40044,-1.4921]],[[220.1009,151.14727],[1.82323,-0.28218],[-1.70267,0.26352]],[[215.10346,151.8087],[1.63131,-0.26653],[0.16377,2.35592]],[[213.03069,154.6679],[0,0],[-0.7075,0.11582]],[[210.90818,155.01536],[0.65838,-0.34065],[-2.60865,1.34965]],[[208.57338,165.85427],[-1.14932,-2.10795],[2.53549,4.6503]],[[219.93536,169.22597],[-4.44197,0.59595],[1.5647,-0.20993]],[[224.62899,168.58581],[-1.3212,1.01989],[1.83982,-1.42026]],[[228.23202,161.73517],[-0.43116,2.65505],[-1.0646,-1.11305]],[227.92609,158.90308]],&quot;closed&quot;:true,&quot;fillColor&quot;:[0,0,0],&quot;strokeWidth&quot;:0.5}]}" fill="#ffffff" stroke-width="0.25"/></g></g></svg>