<svg version="1.1" xmlns="http://www.w3.org/2000/svg" xmlns:xlink="http://www.w3.org/1999/xlink" width="54.49147" height="56.51629" viewBox="0,0,54.49147,56.51629"><g transform="translate(-188.125,-141.60871)"><g data-paper-data="{&quot;isPaintingLayer&quot;:true}" fill-rule="nonzero" stroke="none" stroke-linecap="butt" stroke-linejoin="miter" stroke-miterlimit="10" stroke-dasharray="" stroke-dashoffset="0" style="mix-blend-mode: normal"><path d="M240.61529,141.67355c2.45145,0.49029 1.96116,2.94174 1.96116,2.94174l-0.25,1.25c-0.98904,4.8997 -2.62734,10.16705 -4.86961,14.74245c0.00459,5.00283 -2.39361,10.28509 -7.01127,12.77644c-0.37113,0.20023 -1.06519,0.32381 -1.88423,0.39892c4.56513,6.43778 5.35399,13.7167 4.55125,21.84066l0.01241,0.00124c0,0 0,2.5 -2.5,2.5c-2.5,0 -2.5,-2.5 -2.5,-2.5l0.01241,-0.49876c0.78653,-7.76338 0.0979,-14.67362 -5.35529,-20.56193c0,0 -0.24411,-0.2663 -0.44552,-0.68924c-4.48201,-0.00662 -8.88712,-0.18494 -12.23408,-3.73703c-0.74392,-0.78952 -1.49386,-1.60425 -2.12244,-2.49269c-0.92033,0.0883 -1.70697,-0.4174 -1.70697,-0.4174c-3.20666,-2.06223 -6.24033,-4.58372 -9.58938,-6.40502c-2.63407,-1.43248 -5.12612,-2.38752 -7.55873,-4.19793l-1,-2.5c0,0 0,-2.5 2.5,-2.5c1.47702,0 2.0814,0.87263 2.32871,1.58678c1.96487,1.30191 3.97751,2.04763 6.11256,3.21529c2.4999,1.3672 4.82705,3.087 7.17699,4.74022c0.12037,-3.27597 1.29291,-6.87629 3.26021,-9.33623c-0.48983,-1.17096 0.2914,-2.34281 0.2914,-2.34281l1.65165,-1.68444c5.27926,-2.05453 16.00958,-3.31016 20.44216,1.04935c0.20542,0.20203 1.79578,2.67305 3.13314,4.77209c1.04242,-2.89096 1.8417,-5.91077 2.40172,-8.74055l0.25,-1.25c0,0 0.49029,-2.45145 2.94174,-1.96116zM232.18961,159.91089c0.10994,-0.19423 0.2184,-0.3907 0.32538,-0.58928c-0.04157,-0.22409 -0.09506,-0.44165 -0.16094,-0.65127c-1.35376,-2.07646 -2.38095,-4.39031 -3.99274,-6.27352c-1.39379,-1.6285 -2.06994,-1.05788 -3.98631,-1.02184c-1.78964,0.03366 -3.53231,-0.05565 -5.24759,-0.00978c0.06318,2.30464 -2.29479,2.50115 -2.29479,2.50115c-0.74393,0.02011 -1.52886,-0.18407 -2.2318,0.06033c-2.78518,0.96832 -4.03688,8.00815 -2.93344,10.20082c2.43428,4.83719 7.04295,4.74659 11.70762,4.74749c1.64315,0.00032 3.50344,0.80722 4.92943,-0.00917c1.98575,-1.13688 3.50338,-3.65321 4.075,-6.17029c-1.06051,-1.2174 -0.18982,-2.78465 -0.18982,-2.78465z" fill="#000000" stroke-width="0.5"/><path d="M232.23958,159.90929c0,0 -0.87198,1.58025 0.18853,2.79765c-0.57162,2.51708 -2.1081,5.06214 -4.09385,6.19902c-1.42599,0.81639 -3.30765,0.01864 -4.9508,0.01832c-4.66467,-0.0009 -9.32854,0.05819 -11.76282,-4.779c-1.10344,-2.19267 0.1572,-9.283 2.94238,-10.25132c0.70294,-0.2444 1.49458,-0.04665 2.23851,-0.06676c0,0 2.37419,-0.20508 2.31101,-2.50972c1.71528,-0.04587 3.48631,0.04303 5.27595,0.00937c1.91637,-0.03604 2.61085,-0.59708 4.00464,1.03142c1.61179,1.88321 2.65661,4.22821 4.01037,6.30467c0.06588,0.20962 0.11974,0.43029 0.16131,0.65438c-0.10698,0.19858 -0.21528,0.39776 -0.32522,0.59199z" data-paper-data="{&quot;noHover&quot;:false,&quot;origItem&quot;:[&quot;Path&quot;,{&quot;applyMatrix&quot;:true,&quot;segments&quot;:[[[232.18961,159.91089],[0,0],[0.10994,-0.19423]],[[232.51499,159.32161],[-0.10698,0.19858],[-0.04157,-0.22409]],[[232.35405,158.67034],[0.06588,0.20962],[-1.35376,-2.07646]],[[228.36131,152.39682],[1.61179,1.88321],[-1.39379,-1.6285]],[[224.375,151.37498],[1.91637,-0.03604],[-1.78964,0.03366]],[[219.12741,151.3652],[1.71528,-0.04587],[0.06318,2.30464]],[[216.83262,153.86635],[0,0],[-0.74393,0.02011]],[[214.60082,153.92668],[0.70294,-0.2444],[-2.78518,0.96832]],[[211.66738,164.1275],[-1.10344,-2.19267],[2.43428,4.83719]],[[223.375,168.87499],[-4.66467,-0.0009],[1.64315,0.00032]],[[228.30443,168.86582],[-1.42599,0.81639],[1.98575,-1.13688]],[[232.37943,162.69553],[-0.57162,2.51708],[-1.06051,-1.2174]],[232.18961,159.91088]],&quot;closed&quot;:true,&quot;fillColor&quot;:[0,0,0],&quot;strokeWidth&quot;:0.5}]}" fill="#ffffff" stroke-width="0.25"/></g></g></svg>