<svg version="1.1" xmlns="http://www.w3.org/2000/svg" xmlns:xlink="http://www.w3.org/1999/xlink" width="574.08148" height="517.41609" viewBox="0,0,574.08148,517.41609"><g transform="translate(44.56348,13.09994)"><g data-paper-data="{&quot;isPaintingLayer&quot;:true}" fill-rule="nonzero" stroke-linejoin="miter" stroke-miterlimit="10" stroke-dasharray="" stroke-dashoffset="0" style="mix-blend-mode: normal"><path d="M-19.39998,374.90006v-388h517v388z" fill="#ffffff" stroke="none" stroke-width="0" stroke-linecap="butt"/><path d="M-44.56348,300.31615c0,-112.66609 127.37499,-204 284.5,-204c157.12501,0 284.5,91.33391 284.5,204c0,112.66609 -127.37499,204 -284.5,204c-157.12501,0 -284.5,-91.33391 -284.5,-204z" fill="#e5e5e5" stroke="none" stroke-width="0" stroke-linecap="butt"/><path d="M156.35688,341.22664v-122.44663h166.42394v122.44663z" fill="#b3b3b3" stroke="none" stroke-width="0" stroke-linecap="butt"/><path d="M153.76997,368.82028v-41.39041h173.32235v41.39041z" fill="#9c9c9c" stroke="none" stroke-width="0" stroke-linecap="butt"/><path d="M169.47074,270.10303v-34.96264h34.96265v34.96264z" fill="#9c9c9c" stroke="none" stroke-width="0" stroke-linecap="butt"/><path d="M167.12787,272.62613v-5.22638h40.36925v5.22638z" fill="#7d7d7d" stroke="none" stroke-width="0" stroke-linecap="butt"/><path d="M223.3175,270.37094v-34.96264h34.96265v34.96265z" fill="#9c9c9c" stroke="none" stroke-width="0" stroke-linecap="butt"/><path d="M220.97464,272.89401v-5.22638h40.36924v5.22638z" fill="#7d7d7d" stroke="none" stroke-width="0" stroke-linecap="butt"/><path d="M276.7801,270.37094v-34.96264h34.96265v34.96265z" fill="#9c9c9c" stroke="none" stroke-width="0" stroke-linecap="butt"/><path d="M274.43725,272.89401v-5.22638h40.36925v5.22638z" fill="#7d7d7d" stroke="none" stroke-width="0" stroke-linecap="butt"/><path d="M168.60844,317.52953v-34.96264h34.96265v34.96265z" fill="#9c9c9c" stroke="none" stroke-width="0" stroke-linecap="butt"/><path d="M166.26557,320.05263v-5.22638h40.36925v5.22638z" fill="#7d7d7d" stroke="none" stroke-width="0" stroke-linecap="butt"/><path d="M222.4552,317.79747v-34.96264h34.96265v34.96265z" fill="#9c9c9c" stroke="none" stroke-width="0" stroke-linecap="butt"/><path d="M220.11235,320.32052v-5.22638h40.36924v5.22638z" fill="#7d7d7d" stroke="none" stroke-width="0" stroke-linecap="butt"/><path d="M275.91778,317.79747v-34.96264h34.96265v34.96265z" fill="#9c9c9c" stroke="none" stroke-width="0" stroke-linecap="butt"/><path d="M273.57495,320.32052v-5.22638h40.36925v5.22638z" fill="#7d7d7d" stroke="none" stroke-width="0" stroke-linecap="butt"/><path d="M209.80609,140.74183v-31.90511h60.36102v31.90511z" fill="#7d7d7d" stroke="none" stroke-width="0" stroke-linecap="butt"/><path d="M156.35688,231.71629v-101.75321h166.42394v101.75321z" fill="#b3b3b3" stroke="#000000" stroke-width="0" stroke-linecap="butt"/><path d="M168.60842,174.3877v-34.96265h34.96265v34.96265z" fill="#9c9c9c" stroke="none" stroke-width="0" stroke-linecap="butt"/><path d="M166.26556,176.9108v-5.22638h40.36924v5.22638z" fill="#7d7d7d" stroke="none" stroke-width="0" stroke-linecap="butt"/><path d="M222.4552,174.6556v-34.96265h34.96265v34.96265z" fill="#9c9c9c" stroke="none" stroke-width="0" stroke-linecap="butt"/><path d="M220.11234,177.17869v-5.22638h40.36925v5.22638z" fill="#7d7d7d" stroke="none" stroke-width="0" stroke-linecap="butt"/><path d="M275.91782,174.6556v-34.96264h34.96265v34.96265z" fill="#9c9c9c" stroke="none" stroke-width="0" stroke-linecap="butt"/><path d="M273.57495,177.17869v-5.22638h40.36925v5.22638z" fill="#7d7d7d" stroke="none" stroke-width="0" stroke-linecap="butt"/><path d="M168.60842,219.22733v-34.96264h34.96265v34.96264z" fill="#9c9c9c" stroke="none" stroke-width="0" stroke-linecap="butt"/><path d="M166.26556,221.75042v-5.22638h40.36925v5.22638z" fill="#7d7d7d" stroke="none" stroke-width="0" stroke-linecap="butt"/><path d="M222.4552,219.49523v-34.96264h34.96265v34.96265z" fill="#9c9c9c" stroke="none" stroke-width="0" stroke-linecap="butt"/><path d="M220.11234,222.01831v-5.22638h40.36924v5.22638z" fill="#7d7d7d" stroke="none" stroke-width="0" stroke-linecap="butt"/><path d="M275.91778,219.49523v-34.96264h34.96265v34.96265z" fill="#9c9c9c" stroke="none" stroke-width="0" stroke-linecap="butt"/><path d="M273.57495,222.01831v-5.22638h40.36925v5.22638z" fill="#7d7d7d" stroke="none" stroke-width="0" stroke-linecap="butt"/><path d="M152.90768,138.87349v-9.4853h173.32235v9.4853z" fill="#9c9c9c" stroke="none" stroke-width="0" stroke-linecap="butt"/><path d="M68.23235,385.99543c-7.07107,7.07107 -14.14214,0 -14.14214,0l-0.18624,-0.56456c-1.85274,-0.45391 -3.43452,-1.66142 -5.13621,-2.52336c-1.23,-0.62302 -2.70238,-0.73357 -3.86379,-1.47664c-1.95774,-1.25256 -3.28672,-3.29778 -5.08258,-4.77309c-1.55734,-1.27936 -4.53383,-2.36012 -5.91742,-3.22691c-2.1534,-1.34906 -3.84957,-3.41504 -6.1362,-4.52336c-3.39737,-1.64668 -7.23536,-3.45045 -9.113,-6.72584c-1.42993,-2.4944 -2.29847,-5.38873 -2.49349,-8.25731c-0.14346,-2.11024 0.92356,-4.131 1.51316,-6.16228c1.97585,-6.80714 6.59756,-11.09058 11.41577,-15.90879c0.79431,-0.79431 2.06944,-1.17793 2.56456,-2.18624c0.4646,-0.94617 0.44436,-2.10425 1,-3c0.72856,-1.17451 1.91542,-1.99877 2.77309,-3.08258c2.968,-3.75055 4.99354,-8.26353 8,-12c0.54778,-0.68078 4.79718,-4.0782 5.22691,-4.91742c0.56209,-1.09769 0.49081,-2.53502 1.30375,-3.46237c2.91673,-3.32722 8.12428,-7.05335 11.86287,-10.01374c0.11227,-0.08889 0.22383,-0.1802 0.33504,-0.27302c-3.02591,-0.60636 -6.01598,-1.4634 -9.15743,-2.50672c-1.91293,-0.63531 -6.88473,-2.24457 -8.09503,-2.98032c-4.85041,-2.94862 -7.08261,-7.98344 -10.47611,-12.16662c-1.82846,-2.25394 -3.91492,-4.3692 -5.24974,-6.94637c-4.65678,-8.99104 -5.1168,-19.76114 -4.94192,-29.61535c2.3994,-10.10242 6.37037,-20.58164 14.58519,-27.51158c3.9079,-3.29666 8.16639,-5.72504 12.49278,-8.379c3.69297,-2.2654 4.35969,-7.18157 8.5898,-9.39409c4.98423,-2.60697 8.94982,-2.74713 12.92911,-1.37412c0.80589,-0.11937 1.3282,-0.11937 1.3282,-0.11937c3,0 8,0 11,0c2.56073,0.07185 5.08887,0.63154 7.60182,1.12912c2.75373,0.54526 6.18487,-0.46492 9,0c0.90919,0.15016 8.23894,2.53626 9.03925,3.01308c6.0394,3.59825 8.99308,8.27497 13.09235,13.51791c2.10939,2.69789 5.55924,4.54967 7.379,7.49278c1.46773,2.37376 2.7354,4.90263 3.62007,7.54958c0.39077,1.16919 -0.06824,2.48038 0.13838,3.69571c0.17668,1.03918 0.88753,1.95192 1,3c0.67205,6.26254 -0.82621,13.32016 -2.26967,19.39769c-0.60748,1.50219 -0.39016,3.22168 -0.73033,4.80595c-0.67269,3.1329 -2.39652,5.95551 -3.88772,8.7917c-0.7912,1.50482 -0.9768,3.3466 -2.03609,4.67642c-1.3996,1.75704 -3.89784,2.44932 -5.21364,4.26995c-2.37684,3.28875 -4.94136,6.95094 -8.47611,9.16662c-2.40363,1.50666 -5.24883,2.16716 -7.78517,3.43776c-2.90366,1.45461 -5.5015,3.57542 -8.5743,4.62665c-1.35821,0.46465 -2.88056,0.06097 -4.29602,0.29996c-1.81247,0.30602 -3.53209,1.03329 -5.2946,1.56261c0.00883,0.01284 0.01328,0.01952 0.01328,0.01952c1.44576,2.25525 2.51891,4.73104 3.66265,7.15348c1.03039,2.18238 2.97644,3.80568 4.31533,5.81363c1.99774,2.99604 4.06947,5.96794 5.68467,9.18637c0.32883,0.65524 0.14154,1.51035 0.52335,2.13621c0.49102,0.80485 1.51493,1.19155 2,2c0.54233,0.90388 0.47907,2.08362 1,3c0.25236,0.44394 0.91703,0.51153 1.22691,0.91742c1.62321,2.12618 2.63837,4.66021 3.77309,7.08258c1.16935,2.49629 4.79124,2.97862 6.44056,5.18737c1.45142,1.94374 1.17467,4.82086 2.55944,6.81263c0.5382,0.77411 1.33334,1.33333 2,2c0.33334,1 0.53539,2.05383 1,3c0.49512,1.00831 1.88528,1.29158 2.56456,2.18624c1.65742,2.18293 4.35117,4.05032 4.66142,6.77354c0.43196,3.79163 -0.79613,7.79257 -2.62007,11.14463c-1.31778,2.42184 -4.14054,3.64933 -6.3367,5.31629c-2.37174,1.80023 -5.21374,2.89857 -7.94889,4.0754c-6.37013,2.74081 -13.11885,5.79678 -20.04619,7.11248c-1.98549,1.97764 -5.33749,3.94448 -10.056,2.12363c-1.39984,0.91668 -3.25803,1.52509 -5.72463,1.52509c-3.10947,0 -5.25206,-0.96688 -6.72842,-2.29934c-0.34481,0.45553 -0.74307,0.91297 -1.20051,1.37041zM69.06381,312.99655c-0.88412,0.57426 -2.03548,0.82885 -2.69976,1.64749c-0.55268,0.68111 -0.21795,1.80237 -0.69625,2.53763c-1.83823,2.8258 -4.73669,4.50916 -6.77309,7.08258c-5.69674,7.19905 -9.23329,15.30212 -15.66235,21.73118c-1.5746,1.57461 -4.31524,3.4642 -5.6473,5.51771c1.1547,0.68673 2.24909,1.47974 3.35195,2.24782c3.76259,2.62041 7.96134,4.58011 11.56417,7.42998c1.13728,0.8996 1.60428,2.61179 2.91742,3.22691c2.93378,1.37428 5.89044,2.81161 9,4l2.59829,2.34055c0.97658,-2.79291 2.0414,-5.22843 3.57348,-7.73188c0.07675,-0.12541 -0.40893,0.04348 -0.42908,-0.10216c-0.27402,-1.98114 0,-4 0,-6c0,-3.75322 -0.06639,-7.01526 1.12913,-10.60182c-0.67979,-7.36088 -0.12913,-15.00415 -0.12913,-22.39818c0,-2.43012 0.45801,-5.38533 0.07492,-7.77817c-0.22024,-1.37567 -0.49316,-2.72897 -0.80712,-4.06683c-0.45267,0.3138 -0.90792,0.62011 -1.36528,0.91718zM91.999,362.43753c4.28558,-1.42852 8.19818,-2.98706 12.33545,-4.75196c0.28178,-0.1202 0.56361,-0.24095 0.84481,-0.36332c-0.62903,-0.99149 -1.15686,-2.03771 -1.52448,-3.14057c-1.9175,-1.9175 -3.25472,-4.48216 -3.98032,-7.09503c-0.04885,-0.17588 0.70285,-0.01035 0.53977,-0.09234c-2.84044,-1.42797 -5.75116,-3.9863 -7.55944,-6.81263c-0.70752,-1.10584 -0.94692,-2.48645 -1.4778,-3.68422c0.00128,4.3437 -0.02299,8.68714 -0.14481,13.02873c-1.44654,4.33961 -0.61465,8.95761 -0.60435,13.49431c0.51006,-0.19833 1.02934,-0.40235 1.5712,-0.58297zM80.35755,211.92436c-4.22329,3.6522 -9.13979,1.70915 -10.98902,0.75173c-0.85775,1.12288 -1.78672,1.99595 -3.13618,3.31933c-3.02966,2.97109 -6.5906,4.02969 -9.73118,6.66235c-1.63569,1.37115 -3.27011,2.74977 -5,4c-0.82469,0.59601 -1.67292,2.28497 -2.01938,2.81358c-2.63811,4.02498 -4.09689,7.01561 -5.39543,11.67484c0.26623,6.31838 0.44347,12.46493 3.05808,18.38465c0.46001,1.04149 2.27598,2.45467 2.75026,3.05363c1.20414,1.52067 3.57035,6.78745 5.52389,7.83338c1.18601,0.63499 2.62924,0.59267 3.90497,1.01968c4.53552,1.51809 8.16455,2.48683 12.83772,2.48683c3.77808,0 7.04437,-0.4554 10.77817,-0.92507c2.28203,-0.28706 4.35047,-1.57265 6.62001,-1.9458c0.56909,-0.09357 1.15178,0.46635 1.70398,0.29995c0.44389,-0.13376 0.48485,-0.83339 0.87857,-1.07818c1.44188,-0.89647 3.0281,-1.53673 4.54713,-2.29517c2.00477,-1.00096 4.19003,-1.60244 6.21483,-2.56224c0.8384,-0.39742 3.32049,-4.59226 3.52389,-4.83338c1.0315,-1.22276 2.13172,-2.41019 3.39353,-3.39353c0.37674,-0.29359 1.09058,0.03332 1.39283,-0.33652c0.2793,-0.34175 -0.21862,-0.92173 -0.03609,-1.32358c0.52953,-1.16577 2.0675,-1.92868 2.11228,-3.2083c0.08517,-2.43359 0.56412,-4.86343 1.26967,-7.19405c0.48933,-1.75573 0.41836,-3.62164 0.67612,-5.42596c0.24903,-1.74317 1.44313,-3.45897 1.0542,-5.17634c-0.39565,-1.74704 -0.70515,-3.51987 -0.86162,-5.30429c-0.05286,-0.60285 -0.90069,-0.80876 -1.33858,-1.22646c-0.24744,-0.23603 -5.29557,-5.28032 -5.66235,-5.73118c-1.34692,-1.6557 -2.67654,-3.32548 -4,-5c-1.43386,-1.8142 -0.98599,-2.56341 -2.90765,-3.4821c-3.72333,-1.78001 -7.97897,-0.3955 -11.96075,-0.98692c-1.47831,-0.21958 -2.90999,-1.00831 -4.39818,-0.87087c-1.60125,0 -3.20248,0 -4.80373,0z" fill="#000000" stroke="none" stroke-width="0.5" stroke-linecap="butt"/><path d="M85.16914,211.87498c1.48819,-0.13744 2.92681,0.65292 4.40512,0.8725c3.98178,0.59142 8.25213,-0.7857 11.97546,0.99431c1.92166,0.91869 1.47859,1.6719 2.91245,3.4861c1.32346,1.67452 2.6591,3.35113 4.00603,5.00683c0.36678,0.45086 5.42033,5.50453 5.66777,5.74056c0.43789,0.4177 1.28657,0.62564 1.33943,1.22849c0.15646,1.78442 0.46807,3.56405 0.86371,5.31109c0.38893,1.71738 -0.80409,3.43994 -1.05311,5.18311c-0.25776,1.80432 -0.18669,3.67802 -0.67602,5.43374c-0.70556,2.33062 -1.18632,4.77093 -1.27148,7.20452c-0.04478,1.27963 -1.58454,2.04772 -2.11407,3.21349c-0.18253,0.40185 0.31469,0.98347 0.03539,1.32522c-0.30225,0.36984 -1.01665,0.04413 -1.39339,0.33773c-1.26181,0.98334 -2.36561,2.17701 -3.39711,3.39976c-0.2034,0.24111 -2.69146,4.44323 -3.52985,4.84065c-2.02479,0.9598 -4.2181,1.56785 -6.22286,2.56881c-1.51904,0.75844 -3.11274,1.40275 -4.55462,2.29922c-0.39372,0.24478 -0.43655,0.9452 -0.88044,1.07896c-0.5522,0.1664 -1.13725,-0.39267 -1.70633,-0.29911c-2.26954,0.37315 -4.34923,1.66108 -6.63126,1.94814c-3.7338,0.46967 -7.01716,0.92367 -10.79524,0.92367c-4.67318,0 -8.31917,-0.97681 -12.85469,-2.4949c-1.27573,-0.42701 -2.72289,-0.38789 -3.9089,-1.02288c-1.95354,-1.04593 -4.32821,-6.32263 -5.53235,-7.8433c-0.47429,-0.59896 -2.29299,-2.01689 -2.75299,-3.05839c-2.61461,-5.91971 -2.79711,-12.09116 -3.06334,-18.40954c1.29854,-4.65922 2.76145,-7.66745 5.39956,-11.69243c0.34647,-0.52861 1.197,-2.22216 2.02168,-2.81817c1.72989,-1.25023 3.3698,-2.63668 5.00549,-4.00784c3.14058,-2.63266 6.71648,-3.70315 9.74614,-6.67425c1.34947,-1.32339 2.2846,-2.19915 3.14235,-3.32203c1.84923,0.95741 6.78283,2.89752 11.00612,-0.75467c1.60125,0 3.21013,0.00062 4.81138,0.00062z" data-paper-data="{&quot;noHover&quot;:false,&quot;origItem&quot;:[&quot;Path&quot;,{&quot;applyMatrix&quot;:true,&quot;segments&quot;:[[[160.7151,423.84872],[3.20249,0],[-8.44657,7.30439]],[[138.73707,425.35219],[3.69845,1.91483],[-1.7155,2.24577]],[[132.4647,431.99086],[2.69894,-2.64677],[-6.05932,5.94219]],[[113.00234,445.31556],[6.28116,-5.26532],[-3.27138,2.74231]],[[103.00234,453.31556],[3.45977,-2.50045],[-1.64937,1.19203]],[[98.96357,458.94272],[0.69294,-1.05722],[-5.27621,8.04996]],[[88.17271,482.29239],[2.59709,-9.31844],[0.53246,12.63676]],[[94.28887,519.06169],[-5.22922,-11.83943],[0.92001,2.08299]],[[99.7894,525.16894],[-0.94857,-1.19792],[2.40827,3.04133]],[[110.83718,540.8357],[-3.90707,-2.09185],[2.37202,1.26998]],[[118.64712,542.87505],[-2.55147,-0.85401],[9.07104,3.03618]],[[144.32256,547.84872],[-9.34635,0],[7.55616,0]],[[165.87889,545.99857],[-7.46759,0.93934],[4.56407,-0.57411]],[[179.11892,542.10697],[-4.53909,0.74629],[1.13817,-0.18713]],[[182.52688,542.70688],[-1.1044,0.3328],[0.88778,-0.26752]],[[184.28402,540.55052],[-0.78743,0.48957],[2.88377,-1.79294]],[[193.37829,535.96018],[-3.03807,1.51688],[4.00953,-2.00192]],[[205.80794,530.8357],[-4.04959,1.9196],[1.67679,-0.79484]],[[212.85572,521.16894],[-0.4068,0.48223],[2.06301,-2.44551]],[[219.64278,514.38188],[-2.52362,1.96668],[0.75348,-0.58719]],[[222.42843,513.70885],[-0.6045,0.73967],[0.55859,-0.68349]],[[222.35625,511.06169],[-0.36506,0.80369],[1.05907,-2.33155]],[[226.58081,504.64508],[-0.08956,2.55925],[0.17033,-4.86718]],[[229.12016,490.25697],[-1.41111,4.66125],[0.97866,-3.51145]],[[230.47241,479.40505],[-0.51552,3.60864],[0.49805,-3.48634]],[[232.58081,469.05236],[0.77785,3.43476],[-0.79129,-3.49407]],[[230.85758,458.44378],[0.31293,3.56885],[-0.10572,-1.2057]],[[228.18042,455.99086],[0.87579,0.83539],[-0.49488,-0.47205]],[[216.85572,444.5285],[0.73356,0.90173],[-2.69385,-3.3114]],[[208.85572,434.5285],[2.64693,3.34903],[-2.86773,-3.62839]],[[203.04043,427.56431],[3.84331,1.83737],[-7.44665,-3.56002]],[[179.11892,425.59047],[7.96356,1.18285],[-2.95661,-0.43916]],[[170.32256,423.84872],[2.97638,-0.27488],[-3.20249,0]]],&quot;closed&quot;:true}]}" fill="#ffffff" stroke="none" stroke-width="0.5" stroke-linecap="butt"/><g fill="#a02222" stroke="#7e1a1a" stroke-width="10.5"><path d="M491.28725,350.42524c0,0 7.82515,6.45703 7.43999,13.6037c-0.74009,13.73263 -11.56171,62.87573 -11.56171,62.87573c0,0 -0.94855,5.6072 -8.45351,5.20273c-3.63374,-0.19583 -13.22394,4.79546 -20.97684,4.12622c-14.34146,-1.23794 0.37184,-6.39071 -18.55367,-9.19749c-9.74427,-1.44516 -37.97095,-0.41346 -53.61146,-4.28501c-10.36287,-2.56515 -8.14365,-10.60589 -16.78096,-10.97611c-3.75953,-0.16112 -3.22243,11.19883 -6.47667,10.9921c-16.94769,-1.07663 -23.09071,-3.8356 -23.09071,-3.8356c0,0 -11.13443,-3.38049 -10.946,-6.87694c0.14839,-2.75341 -0.1854,-8.57501 -0.45785,-15.73774c-0.47314,-12.44014 -0.7612,-28.92566 1.98352,-40.40869c2.04977,-8.57569 13.54206,-13.45609 13.54206,-13.45609c0,0 11.9581,-5.64257 22.27865,-5.08636c3.3935,0.18289 6.83634,-3.15191 14.71561,-2.41886c15.79306,1.46932 40.56306,7.42186 56.55767,7.78332c1.36189,0.03076 8.59279,11.6673 9.76099,11.63893c6.70538,-0.16278 2.69849,-8.4337 5.04761,-12.29428c1.86232,-3.06052 9.92416,-2.00415 14.90641,-1.44248c15.12013,1.70459 24.67689,9.79283 24.67689,9.79283z" stroke-linecap="butt"/><path d="M430.27144,381.63689l8.01807,-0.03941" stroke-linecap="round"/><path d="M375.44283,392.82777l-11.35986,0.80236" stroke-linecap="round"/><path d="M467.87581,410.06896l-7.8407,-3.25172" stroke-linecap="round"/><path d="M464.00759,376.85366l7.96738,0.90091" stroke-linecap="round"/><path d="M420.47129,362.24768l-6.08675,-0.79956" stroke-linecap="round"/><path d="M365.40057,369.18179l-4.13009,-2.10869" stroke-linecap="round"/><path d="M406.71555,398.7569l-1.43582,0.39414" stroke-linecap="round"/><path d="M350.48772,400.91339l5.56591,1.71454" stroke-linecap="round"/><path d="M403.37654,416.96645l-18.70507,-2.89418" stroke-linecap="round"/><path d="M440.96404,419.4637l-9.77202,-2.41275" stroke-linecap="round"/><path d="M390.15017,347.41085l9.79736,1.94259" stroke-linecap="round"/><path d="M475.3027,368.5034l13.18983,0.23931" stroke-linecap="round"/><path d="M327.09232,388.80744l12.74501,-0.25618" stroke-linecap="round"/><path d="M435.07721,397.45624l6.13742,-0.14077" stroke-linecap="round"/><path d="M392.77122,368.77077l-6.60758,0.11543" stroke-linecap="round"/><path d="M477.64503,395.03509l6.21343,-1.55124" stroke-linecap="round"/></g><g stroke-width="10.5"><path d="M497.8924,316.92902c0,0 7.82514,6.45702 7.43999,13.6037c-0.7401,13.73264 -11.56171,62.87573 -11.56171,62.87573c0,0 -0.94856,5.60719 -8.45352,5.20273c-3.63374,-0.19583 -13.22393,4.79546 -20.97684,4.12622c-14.34146,-1.23794 0.37184,-6.39071 -18.55367,-9.19749c-9.74427,-1.44516 -37.97095,-0.41346 -53.61146,-4.28501c-10.36287,-2.56515 -8.14365,-10.60589 -16.78095,-10.9761c-3.75952,-0.16112 -3.22243,11.19883 -6.47667,10.99209c-16.9477,-1.07663 -23.09071,-3.83559 -23.09071,-3.83559c0,0 -11.13444,-3.38049 -10.946,-6.87694c0.14839,-2.75341 -0.1854,-8.57501 -0.45785,-15.73774c-0.47315,-12.44013 -0.7612,-28.92566 1.98352,-40.40869c2.04978,-8.57569 13.54206,-13.45609 13.54206,-13.45609c0,0 11.95811,-5.64257 22.27866,-5.08636c3.3935,0.18289 6.83634,-3.15191 14.7156,-2.41886c15.79305,1.46933 40.56306,7.42186 56.55766,7.78332c1.36188,0.03078 8.59279,11.66731 9.76099,11.63894c6.70538,-0.16277 2.69849,-8.4337 5.04762,-12.29429c1.86232,-3.06052 9.92416,-2.00415 14.9064,-1.44247c15.12013,1.70459 24.67689,9.79282 24.67689,9.79282z" fill="#e06446" stroke="#a02222" stroke-linecap="butt"/><path d="M436.8766,348.14065l8.01807,-0.03941" fill="none" stroke="#d64a42" stroke-linecap="round"/><path d="M382.04799,359.33155l-11.35987,0.80236" fill="none" stroke="#d64a42" stroke-linecap="round"/><path d="M466.64027,373.32102l7.8407,3.25172" fill="none" stroke="#d64a42" stroke-linecap="round"/><path d="M478.58012,344.25835l-7.96739,-0.90092" fill="none" stroke="#d64a42" stroke-linecap="round"/><path d="M420.98969,327.95189l6.08675,0.79956" fill="none" stroke="#d64a42" stroke-linecap="round"/><path d="M372.00571,335.68556l-4.13009,-2.10869" fill="none" stroke="#d64a42" stroke-linecap="round"/><path d="M411.88487,365.65482l1.43582,-0.39414" fill="none" stroke="#d64a42" stroke-linecap="round"/><path d="M362.65879,369.1317l-5.56591,-1.71454" fill="none" stroke="#d64a42" stroke-linecap="round"/><path d="M409.98169,383.47024l-18.70507,-2.89418" fill="none" stroke="#a02222" stroke-linecap="round"/><path d="M447.5692,385.96747l-9.77202,-2.41275" fill="none" stroke="#a02222" stroke-linecap="round"/><path d="M396.75533,313.91461l9.79735,1.94259" fill="none" stroke="#a02222" stroke-linecap="round"/><path d="M481.90785,335.00718l13.18983,0.23931" fill="none" stroke="#a02222" stroke-linecap="round"/><path d="M346.44248,355.05502l-12.74501,0.25618" fill="none" stroke="#a02222" stroke-linecap="round"/><path d="M447.81979,363.81925l-6.13743,0.14076" fill="none" stroke="#a02222" stroke-linecap="round"/><path d="M399.37639,335.27455l-6.60758,0.11543" fill="none" stroke="#a02222" stroke-linecap="round"/><path d="M490.46363,359.98763l-6.21344,1.55124" fill="none" stroke="#a02222" stroke-linecap="round"/></g><g fill="#a02222" stroke="#7e1a1a" stroke-width="10.5"><path d="M458.03206,174.80571c0,0 8.55448,-5.45409 15.23453,-2.885c12.836,4.93659 56.25141,30.37779 56.25141,30.37779c0,0 5.04188,2.63056 2.34399,9.64552c-1.30625,3.39648 0.48626,14.05819 -2.53992,21.22739c-5.59786,13.26175 -5.965,-2.32342 -14.46817,14.81569c-4.37809,8.82449 -12.09635,35.99503 -20.59999,49.68088c-5.63422,9.06778 -12.59954,4.47836 -15.61383,12.58109c-1.312,3.52685 9.66047,6.51715 8.46082,9.54925c-6.24766,15.79082 -10.76567,20.78445 -10.76567,20.78445c0,0 -6.64767,9.55049 -9.91583,8.29359c-2.57363,-0.98979 -8.21471,-2.46653 -15.11271,-4.41496c-11.98036,-3.38407 -27.75212,-8.19103 -37.83019,-14.34132c-7.52645,-4.5931 -8.62723,-17.03011 -8.62723,-17.03011c0,0 -1.68227,-13.11505 2.02776,-22.76175c1.21989,-3.17193 -0.89144,-7.47498 2.23439,-14.74475c6.26537,-14.57137 19.56249,-36.3009 24.83605,-51.40545c0.44901,-1.28611 13.7477,-4.5785 14.08076,-5.69858c1.91181,-6.42912 -7.19143,-5.16647 -10.14005,-8.59111c-2.33754,-2.71494 1.15214,-10.05874 3.22205,-14.62533c6.28178,-13.85869 16.92177,-20.45733 16.92177,-20.45733z" stroke-linecap="butt"/><path d="M468.9186,242.47091l2.43376,-7.63988" stroke-linecap="round"/><path d="M462.66597,298.07951l-2.73792,11.05414" stroke-linecap="round"/><path d="M507.55659,215.46023l-5.51,6.45679" stroke-linecap="round"/><path d="M478.07872,201.60101l-3.31268,7.30185" stroke-linecap="round"/><path d="M447.45278,245.81802l-2.63663,5.54401" stroke-linecap="round"/><path d="M433.79702,303.62409l3.27897,-3.27911" stroke-linecap="round"/><path d="M477.87744,271.64402l0.06758,-1.4874" stroke-linecap="round"/><path d="M462.66655,324.31183l3.34654,-4.76651" stroke-linecap="round"/><path d="M494.23899,278.94544l-8.51838,16.90246" stroke-linecap="round"/><path d="M502.89237,252.51011l5.30713,-8.55267" stroke-linecap="round"/><path d="M423.99296,270.09021l4.86767,-8.72168" stroke-linecap="round"/><path d="M474.59645,183.11001l-4.2929,12.47397" stroke-linecap="round"/><path d="M443.93925,342.83714l3.68443,-12.20352" stroke-linecap="round"/><path d="M487.20672,236.89275l-1.7577,5.88203" stroke-linecap="round"/><path d="M443.19417,280.50159l1.92672,-6.32149" stroke-linecap="round"/><path d="M496.26556,201.533l0.43932,-6.38906" stroke-linecap="round"/></g><g stroke-width="10.5"><path d="M428.20226,158.19824c0,0 8.55447,-5.45408 15.23453,-2.885c12.83601,4.9366 56.25141,30.37779 56.25141,30.37779c0,0 5.04187,2.63057 2.34399,9.64553c-1.30625,3.39648 0.48626,14.05818 -2.53992,21.22739c-5.59786,13.26175 -5.965,-2.32342 -14.46817,14.81569c-4.37809,8.82449 -12.09635,35.99503 -20.59999,49.68088c-5.63422,9.06778 -12.59954,4.47836 -15.61382,12.58109c-1.312,3.52684 9.66047,6.51715 8.46081,9.54925c-6.24767,15.79083 -10.76566,20.78445 -10.76566,20.78445c0,0 -6.64767,9.5505 -9.91583,8.29359c-2.57363,-0.98979 -8.21471,-2.46653 -15.11271,-4.41496c-11.98036,-3.38406 -27.75212,-8.19103 -37.83019,-14.34132c-7.52645,-4.59311 -8.62723,-17.03011 -8.62723,-17.03011c0,0 -1.68227,-13.11506 2.02776,-22.76176c1.21989,-3.17193 -0.89144,-7.47498 2.23439,-14.74474c6.26537,-14.57136 19.56249,-36.3009 24.83605,-51.40544c0.44902,-1.2861 13.74771,-4.5785 14.08077,-5.69857c1.91182,-6.42912 -7.19143,-5.16647 -10.14005,-8.59112c-2.33754,-2.71494 1.15214,-10.05874 3.22206,-14.62531c6.28178,-13.85869 16.92176,-20.45733 16.92176,-20.45733z" fill="#e06446" stroke="#a02222" stroke-linecap="butt"/><path d="M439.08879,225.86343l2.43376,-7.63988" fill="none" stroke="#d64a42" stroke-linecap="round"/><path d="M432.83618,281.47204l-2.73792,11.05415" fill="none" stroke="#d64a42" stroke-linecap="round"/><path d="M477.72679,198.85275l-5.51,6.45679" fill="none" stroke="#d64a42" stroke-linecap="round"/><path d="M448.24892,184.99354l-3.31269,7.30186" fill="none" stroke="#d64a42" stroke-linecap="round"/><path d="M417.62298,229.21055l-2.63663,5.54401" fill="none" stroke="#d64a42" stroke-linecap="round"/><path d="M407.24618,283.73751l-3.27897,3.27911" fill="none" stroke="#d64a42" stroke-linecap="round"/><path d="M448.04764,255.03656l0.06758,-1.4874" fill="none" stroke="#d64a42" stroke-linecap="round"/><path d="M436.1833,302.93785l-3.34654,4.76651" fill="none" stroke="#d64a42" stroke-linecap="round"/><path d="M464.40919,262.33798l-8.51838,16.90246" fill="none" stroke="#a02222" stroke-linecap="round"/><path d="M478.36971,227.34997l-5.30713,8.55267" fill="none" stroke="#a02222" stroke-linecap="round"/><path d="M394.16316,253.48272l4.86766,-8.72167" fill="none" stroke="#a02222" stroke-linecap="round"/><path d="M440.47375,178.97651l4.2929,-12.47397" fill="none" stroke="#a02222" stroke-linecap="round"/><path d="M417.79386,314.02614l-3.68443,12.20352" fill="none" stroke="#a02222" stroke-linecap="round"/><path d="M455.61922,226.16731l1.75771,-5.88203" fill="none" stroke="#a02222" stroke-linecap="round"/><path d="M415.29109,257.57261l-1.92672,6.32149" fill="none" stroke="#a02222" stroke-linecap="round"/><path d="M466.87509,178.53646l-0.43932,6.38907" fill="none" stroke="#a02222" stroke-linecap="round"/></g></g></g></svg>