<svg version="1.1" xmlns="http://www.w3.org/2000/svg" xmlns:xlink="http://www.w3.org/1999/xlink" width="35.8679" height="80.22829" viewBox="0,0,35.8679,80.22829"><g transform="translate(-215.78823,-146.89339)"><g data-paper-data="{&quot;isPaintingLayer&quot;:true}" fill-rule="nonzero" stroke="none" stroke-linecap="butt" stroke-linejoin="miter" stroke-miterlimit="10" stroke-dasharray="" stroke-dashoffset="0" style="mix-blend-mode: normal"><path d="M249.47337,200.53345c-2.23607,1.11803 -3.3541,-1.11803 -3.3541,-1.11803l-0.95159,-2.05924c-1.10015,-4.76796 -2.56577,-9.38051 -4.24458,-13.92378c0.02497,4.52452 -0.02749,9.0522 -0.02749,13.54952l-0.38665,1.73298c2.1198,2.58196 4.48971,6.18518 5.04262,9.27371c0.80089,4.47373 -1.43061,8.46266 -1.79002,12.72782c1.91274,0.38698 3.8029,0.73287 5.70483,1.31228l0.75866,0.3413c0,0 2.23607,1.11803 1.11803,3.3541v0.00003c-1.11803,2.23607 -3.3541,1.11803 -3.3541,1.11803l0.00698,-0.03454c-2.36478,-0.73603 -4.73426,-1.0575 -7.14506,-1.59959c-0.80958,-0.08706 -1.31239,-0.4644 -1.62467,-0.89953c-0.35295,-0.4012 -0.60721,-0.97426 -0.51183,-1.77975v-0.55354c0.04032,-4.35597 2.62725,-8.70356 1.92121,-13.07381c-0.28045,-1.73593 -1.5861,-3.91626 -2.92127,-5.70055c-0.08709,0.10566 -0.17391,0.21148 -0.26052,0.31743c-1.12952,-1.21538 -2.55778,-2.14932 -4.16796,-2.68494c0.74703,-0.96543 1.50376,-1.92444 2.31164,-2.84655l0.29811,-1.00488c0,-4.97959 0.06993,-9.99866 0.0219,-15.00833c-1.45443,4.88085 -2.57884,9.82952 -3.31549,14.98607l-0.23744,1.00446c0,0 -0.60634,2.42536 -3.0317,1.81902c-2.42536,-0.60634 -1.81902,-3.0317 -1.81902,-3.0317l0.1384,-0.49889c1.25339,-8.7737 3.57796,-16.98725 6.72174,-25.24208c-0.33176,-0.05551 -0.65822,-0.13272 -0.97588,-0.24608c-6.89599,-2.46081 -8.69316,-9.98093 -7.00712,-16.3132c0.69819,-2.6222 1.01746,-4.5137 3.54431,-6.19682c1,-0.6661 5.09236,-1.18948 6.3267,-1.3031c8.67171,-0.79825 13.74449,6.78974 12.06462,14.78713c-1.43411,4.621 -3.00218,6.76715 -7.31469,8.58467c0.03852,0.0731 0.05734,0.11703 0.05734,0.11703c3.60652,8.42421 6.90502,16.84337 8.97033,25.79178l0.55177,0.94747c0,0 1.11803,2.23607 -1.11803,3.3541zM236.87645,166.19883c0.7004,-0.46856 1.51916,-0.46856 1.51916,-0.46856l0.23007,0.16664c3.33447,-1.24694 3.84768,-2.0896 4.87245,-5.45667c1.67835,-6.29828 -5.11034,-11.20718 -10.92411,-7.93879c-0.90642,0.50957 -1.17782,2.54228 -1.3416,3.19915c-1.29769,5.20467 0.33265,9.60149 5.64404,10.49824z" fill="#370000" stroke-width="0.5"/><path d="M236.87371,166.24876c-5.31139,-0.89675 -6.98339,-5.36646 -5.6857,-10.57113c0.16378,-0.65687 0.44974,-2.70673 1.35616,-3.2163c5.81377,-3.26839 12.68071,1.69317 11.00236,7.99145c-1.02477,3.36707 -1.57705,4.2463 -4.91152,5.49324l-0.23144,-0.1664c0,0 -0.82947,0.00056 -1.52987,0.46912z" data-paper-data="{&quot;noHover&quot;:false,&quot;origItem&quot;:[&quot;Path&quot;,{&quot;applyMatrix&quot;:true,&quot;segments&quot;:[[[236.87645,166.19883],[0,0],[0.7004,-0.46856]],[238.39561,165.73027],[[238.62568,165.89691],[0,0],[3.33447,-1.24694]],[[243.49813,160.44024],[-1.02477,3.36707],[1.67835,-6.29828]],[[232.57402,152.50145],[5.81377,-3.26839],[-0.90642,0.50957]],[[231.23242,155.7006],[0.16378,-0.65687],[-1.29769,5.20467]],[[236.87646,166.19884],[-5.31139,-0.89675],[0,0]]],&quot;closed&quot;:true,&quot;fillColor&quot;:[0.21569,0,0],&quot;strokeWidth&quot;:0.5}]}" fill="#ffffff" stroke-width="0.25"/><path d="M238.09626,199.72425c1.76777,1.76777 0,3.53553 0,3.53553l-0.28338,0.10194c-1.60454,3.20508 -3.55244,5.91786 -5.56941,8.85712c-0.73624,1.0729 -1.00116,2.64697 -2.14979,3.25838c-2.83945,1.51143 -4.88229,0.10475 -7.33662,-0.71496c-0.64366,-0.21497 -1.34697,-0.27339 -1.97369,-0.52254c-0.08108,1.30752 -1.1672,2.34289 -2.49514,2.34289c-1.38071,0 -2.5,-1.11929 -2.5,-2.5v-2.63087c0,0 0,-2.5 2.5,-2.5c0.03986,0 0.07908,0.00064 0.11768,0.00189c1.96781,-0.21704 4.46476,0.577 5.93697,1.06678c1.07313,0.35702 2.32203,1.89301 3.18687,1.16423c0.4326,-0.36454 0.21144,-1.13021 0.48108,-1.62753c1.58999,-2.93246 3.81474,-5.39709 5.32991,-8.43147l1.21998,-1.40141c0,0 1.76777,-1.76777 3.53553,0z" fill="#370000" stroke-width="0.5"/></g></g></svg>