<svg version="1.1" xmlns="http://www.w3.org/2000/svg" xmlns:xlink="http://www.w3.org/1999/xlink" width="139.71962" height="139.71962" viewBox="0,0,139.71962,139.71962"><g transform="translate(-170.14019,-110.14019)"><g data-paper-data="{&quot;isPaintingLayer&quot;:true}" fill-rule="nonzero" stroke="none" stroke-linecap="butt" stroke-linejoin="miter" stroke-miterlimit="10" stroke-dasharray="" stroke-dashoffset="0" style="mix-blend-mode: normal"><path d="M256.48484,160.38588c2.0189,1.00944 1.00944,3.02834 1.00944,3.02834l-0.09367,-0.3455c-0.03666,1.48689 -0.31381,2.11865 0.60784,3.38217c0.46112,0.63216 1.23414,1.00334 1.65987,1.65987c0.92032,1.41927 0.84157,3.33277 1.73617,4.76839c1.02034,1.63741 3.09385,2.61041 3.71772,4.43607c0.58139,1.70136 1.66088,3.74495 0.81563,5.33183c-0.60267,1.13145 -5.48849,0.93786 -6.81072,0.93739c-3.49634,-0.00126 -6.9102,-0.46226 -10.39345,-0.66626c-2.09536,-0.12272 -4.18687,0.18978 -6.28949,0.29859c-0.06875,8.35456 -0.31004,16.73939 -0.31425,25.11094c1.34484,6.83179 1.77731,13.63485 2.6383,20.52369c0.39366,3.14973 0.06493,6.79602 1.71187,9.45125l0.84188,1.09346c0,0 1.35432,1.80576 -0.45144,3.16007c-1.80576,1.35432 -3.16007,-0.45144 -3.16007,-0.45144l-1.14995,-1.56233c-1.92088,-3.55046 -1.77421,-7.15073 -2.27181,-11.13107c-0.34361,-2.7485 -0.61562,-5.4835 -0.90595,-8.21202c-0.11747,0.31437 -0.23234,0.63674 -0.34331,0.96968c-0.98634,2.9595 -1.52194,6.43526 -2.28853,9.50164c-0.42998,1.71991 -1.98774,4.90842 -1.92627,6.66516c0.04176,1.19333 1.5001,2.554 2.13445,3.29339l0.51395,0.23087c0,0 1.8781,1.25207 0.62604,3.13016c-1.25207,1.8781 -3.13016,0.62604 -3.13016,0.62604l-1.47788,-1.09702c-1.65141,-2.02535 -2.93727,-3.07084 -3.17713,-6.00184c-0.03723,-0.4549 1.20565,-4.58262 1.40288,-5.32228c1.07417,-4.02837 1.70601,-8.44985 3.01361,-12.37216c1.01028,-3.03046 2.30023,-4.86133 2.92892,-8.06897c0,0 0.10779,-0.53897 0.48296,-1.0318c-0.52679,-0.65767 -0.52679,-1.51329 -0.52679,-1.51329v-1.65987c0,-8.54007 0.27276,-17.10285 0.32413,-25.62623c-6.93676,0.01562 -13.98634,0.13344 -20.83282,0.98925l-0.14026,-0.03891v0.04327h-2.32381c-1.24661,0 -2.25719,-1.01058 -2.25719,-2.25719c0,-0.51636 0.17339,-0.99224 0.46512,-1.37256l1.97815,-2.63755l0.00776,0.00582c0.42464,-0.61432 1.01698,-1.21982 2.02683,-2.05695c1.82136,-1.50985 3.45433,-2.96689 5.22049,-4.56881c0.62895,-0.57046 2.70286,-1.95848 3.0243,-3.00575c0.45225,-1.47348 -0.10768,-3.0814 -0.10768,-4.62273v-1.99184c0,0 0,-2.25719 2.25719,-2.25719c0.50349,0 0.89467,0.11231 1.19859,0.28682c1.20799,-3.5289 3.12982,-6.28761 6.64918,-7.71966c0.24054,-0.19748 0.43802,-0.29621 0.43802,-0.29621l0.78424,-0.38777c7.44982,-3.05737 17.1284,-0.91523 19.35264,7.86358c0.10745,0.42409 0.19515,0.85087 0.26414,1.27947c0.17127,0.04556 0.35138,0.11351 0.54034,0.20799zM256.56512,179.07199c0.06036,0.00303 2.68494,-0.0029 4.18812,-0.00394c-0.35185,-0.54474 -0.67738,-1.18713 -1.02461,-1.5934c-0.69251,-0.81023 -1.66005,-1.39614 -2.21497,-2.30615c-1.18765,-1.94761 -0.38633,-2.79233 -1.58357,-4.52686c-0.35024,-0.50744 -0.67159,-0.9601 -0.96333,-1.38288c-0.84003,2.40975 -2.06682,4.67409 -3.46989,6.62105c-1.25432,1.07489 -2.49164,2.09076 -3.83241,2.90965c2.94265,0.04625 5.87687,0.13073 8.90066,0.28252zM225.1281,174.3627c-1.50959,1.37542 -3.08243,3.30962 -4.8588,4.67348c4.04338,-0.36827 8.13906,-0.52151 12.22324,-0.58514c-2.48648,-1.34007 -4.56943,-3.24422 -5.55231,-5.61035c-0.55932,0.47125 -1.1688,0.93585 -1.81214,1.52201zM240.37527,154.50847c-0.57375,0.70164 -1.51129,0.83557 -1.51129,0.83557c-5.18242,0.63064 -6.17195,4.68511 -7.07088,9.17197c-0.36669,1.83023 -1.31036,4.59132 -0.72603,6.49516c0.28279,0.92135 2.22809,2.38851 2.85265,2.86388c4.63507,3.52795 10.13326,2.48407 14.2471,-1.04328c0.34784,-0.49269 2.27614,-3.11527 2.51142,-3.83739c1.2607,-3.86942 1.53146,-11.54814 -2.65502,-13.93946c-1.56059,-0.8914 -4.1336,-0.66845 -5.82675,-0.68413c-0.60446,-0.0056 -1.21741,0.03859 -1.8212,0.13766z" fill="#ffffff" stroke-width="0.5"/><path d="M242.20066,154.32585c1.69314,0.01567 4.28719,-0.19977 5.84778,0.69163c4.18648,2.39132 3.93243,10.12421 2.67174,13.99364c-0.23527,0.72212 -2.17502,3.36126 -2.52287,3.85396c-4.11385,3.52734 -9.67152,4.57251 -14.30659,1.04456c-0.62455,-0.47537 -2.58002,-1.95467 -2.86281,-2.87602c-0.58434,-1.90384 0.35349,-4.6907 0.72017,-6.52093c0.89893,-4.48686 1.92313,-8.58196 7.10555,-9.2126c0,0 0.94447,-0.135 1.51823,-0.83664c0.6038,-0.09907 1.22435,-0.1432 1.82881,-0.1376z" data-paper-data="{&quot;noHover&quot;:false,&quot;origItem&quot;:[&quot;Path&quot;,{&quot;applyMatrix&quot;:true,&quot;segments&quot;:[[[239.70928,149.07626],[0.66875,-0.10973],[-0.63547,0.77712]],[[238.03542,150.00171],[0,0],[-5.73989,0.69848]],[[230.20393,160.16031],[0.99563,-4.96951],[-0.40613,2.02711]],[[229.3998,167.35416],[-0.6472,-2.10863],[0.31321,1.02046]],[[232.55931,170.52611],[-0.69173,-0.52651],[5.13366,3.90745]],[[248.33897,169.37061],[-4.55638,3.90678],[0.38526,-0.54569]],[[251.12054,165.12043],[-0.26058,0.7998],[1.39631,-4.28565]],[[248.17991,149.68151],[4.63682,2.64855],[-1.72846,-0.98729]],[[241.72639,148.92379],[1.87527,0.01736],[-0.66948,-0.0062]]],&quot;closed&quot;:true}]}" fill="#000000" stroke-width="0.5"/><path d="M257.51707,133.3736c2.14136,0.71379 1.42758,2.85515 1.42758,2.85515l-0.63658,1.5941c-1.96759,2.67849 -1.94334,3.76865 -2.24462,7.19171c0,0 -0.20436,2.24792 -2.45228,2.04356c-2.24792,-0.20436 -2.04356,-2.45228 -2.04356,-2.45228c0.3801,-4.06569 0.73804,-6.07541 3.06695,-9.40694l0.02737,-0.39774c0,0 0.71379,-2.14136 2.85515,-1.42758z" fill="#ffffff" stroke-width="0.5"/><path d="M265.69994,150.78571c0,2.25719 -2.25719,2.25719 -2.25719,2.25719c-0.77461,0 -3.87302,0 -4.64762,0c0,0 -2.25719,0 -2.25719,-2.25719c0,-2.25719 2.25719,-2.25719 2.25719,-2.25719c0.77461,0 1.5492,0 2.32381,0h2.32381c0,0 2.25719,0 2.25719,2.25719z" fill="#ffffff" stroke-width="0.5"/><path d="M270.34756,160.41294c0,1.9115 -1.61875,2.20425 -2.11458,2.24909c-1.46946,0.60951 -2.97374,1.14153 -4.50211,1.58113c0,0 -2.17035,0.6201 -2.79044,-1.55025c-0.6201,-2.17035 1.55025,-2.79044 1.55025,-2.79044c1.49108,-0.42282 2.95518,-0.95099 4.37857,-1.56421l1.22112,-0.18251c0,0 2.25719,0 2.25719,2.25719z" fill="#ffffff" stroke-width="0.5"/><path d="M170.14019,249.85981v-139.71962h139.71962v139.71962z" fill="none" stroke-width="0"/></g></g></svg>