<svg version="1.1" xmlns="http://www.w3.org/2000/svg" xmlns:xlink="http://www.w3.org/1999/xlink" width="37.20174" height="104.0195" viewBox="0,0,37.20174,104.0195"><g transform="translate(-221.22662,-121.82825)"><g data-paper-data="{&quot;isPaintingLayer&quot;:true}" fill-rule="nonzero" stroke="none" stroke-linecap="butt" stroke-linejoin="miter" stroke-miterlimit="10" stroke-dasharray="" stroke-dashoffset="0" style="mix-blend-mode: normal"><path d="M256.14663,195.78479c-2.18539,1.21411 -3.3995,-0.97129 -3.3995,-0.97129l-0.91365,-1.6457c-3.04343,-5.23263 -6.71868,-10.46172 -10.21272,-15.40707c-0.7185,-1.01695 -1.48331,-1.95363 -2.25018,-2.87278c0.11063,0.89852 0.23576,1.80886 0.36972,2.74237c0.88927,6.19708 -0.76915,12.74181 0,18.97987c0.16739,1.35762 1.24902,2.43559 1.93909,3.61667c1.88123,3.21983 3.91668,6.56724 4.71288,10.20943c1.12588,2.20334 2.4398,4.29228 3.47934,6.54075c0.3412,0.73799 0.77684,1.45113 1.00798,2.22725c0.39214,-0.52115 0.91069,-0.94989 1.34557,-1.43979l1.97455,-1.78175c0,0 1.85823,-1.67241 3.53064,0.18582l0.00001,0.00002c1.67241,1.85824 -0.18582,3.53064 -0.18582,3.53064l-1.78384,1.60081c-1.43818,1.57906 -3.69285,4.57803 -6.27759,4.05044c-1.51887,-0.31002 -2.12956,-2.27341 -2.98481,-3.56632c-1.85985,-2.81158 -3.32365,-6.6433 -4.82417,-9.69283c-1.13174,-5.39666 -5.99026,-9.32394 -6.87823,-14.73765c-1.01702,-6.20049 0.94612,-12.82467 0,-18.97987c-0.05288,-0.34404 -0.10401,-0.68567 -0.15322,-1.02529c-0.25344,0.51144 -0.50688,1.02626 -0.75816,1.54706c-2.41425,5.00362 -4.25592,10.5003 -7.31482,15.15097l-0.0155,0.84685c0,0 -0.54233,2.44047 -2.98279,1.89814c-2.44047,-0.54233 -1.89814,-2.98279 -1.89814,-2.98279l0.73618,-2.5357c1.55507,-2.2937 2.143,-4.68702 3.44716,-7.12315c2.94036,-5.49252 5.94726,-11.1465 7.91227,-17.08604c0,0 0.04659,-0.13978 0.15109,-0.34016c0.00585,-0.20064 0.01296,-0.40208 0.02135,-0.60438c-0.2491,-0.05564 -0.4027,-0.09426 -0.42226,-0.09972c-2.42672,-0.67825 -3.55201,-1.43519 -5.45413,-3.0818c-2.93837,-2.54367 -3.68798,-5.01209 -4.47204,-8.81974c-0.5133,-9.78809 7.81254,-16.39198 16.73471,-15.28129l-0.16563,-0.02651c0,0 0.91878,0 1.64236,0.58792c9.99615,4.16924 12.15418,21.18434 1.22739,26.29213c-0.51353,0.24006 -1.87744,0.69957 -3.60924,0.8812c1.64472,3.2036 4.20182,5.37393 6.27149,8.28938c3.59201,5.05991 7.327,10.43366 10.45842,15.78756l0.96554,1.73685c0,0 1.21411,2.18539 -0.97129,3.3995zM228.54312,153.37538c0.49652,2.49566 0.73809,3.84466 2.6689,5.46146c1.37261,1.14938 1.85086,1.62099 3.566,2.0753c1.82519,0.48346 4.4855,0.75255 6.27257,-0.06739c6.83839,-3.1376 4.99397,-14.75313 -1.43593,-16.67528c0,0 -0.16117,-0.05234 -0.38691,-0.17402c-5.15229,-0.73135 -11.23711,3.52661 -10.68463,9.37993z" fill="#003c20" stroke-width="0.5"/><path d="M239.24051,143.94711c0.22574,0.12168 0.38917,0.17467 0.38917,0.17467c6.4299,1.92215 8.28167,13.63008 1.44328,16.76768c-1.78707,0.81994 -4.48243,0.5545 -6.30762,0.07104c-1.71514,-0.45431 -2.21468,-0.93759 -3.58729,-2.08697c-1.93081,-1.6168 -2.18823,-2.99815 -2.68475,-5.49381c-0.55248,-5.85332 5.59491,-10.16397 10.7472,-9.43262z" data-paper-data="{&quot;noHover&quot;:false,&quot;origItem&quot;:[&quot;Path&quot;,{&quot;applyMatrix&quot;:true,&quot;segments&quot;:[[[228.54312,153.37538],[-0.55248,-5.85332],[0.49652,2.49566]],[[231.21202,158.83684],[-1.93081,-1.6168],[1.37261,1.14938]],[[234.77802,160.91214],[-1.71514,-0.45431],[1.82519,0.48346]],[[241.05059,160.84475],[-1.78707,0.81994],[6.83839,-3.1376]],[[239.61466,144.16947],[6.4299,1.92215],[0,0]],[[239.22775,143.99545],[0.22574,0.12168],[-5.15229,-0.73135]]],&quot;closed&quot;:true,&quot;fillColor&quot;:[0.21569,0,0],&quot;strokeWidth&quot;:0.5}]}" fill="#000000" stroke-width="0.25"/><path d="M229.31118,225.18882c-1.89814,1.62698 -3.52512,-0.27116 -3.52512,-0.27116l-1.08761,-1.27c-1.17102,-1.32678 -2.16628,-2.82576 -2.9668,-4.40798c-0.27017,-0.33873 -0.46483,-0.80308 -0.4908,-1.43962c-0.04514,-0.45393 0.00362,-1.01486 0.34428,-1.52436c0.31985,-0.52282 0.80871,-0.80216 1.23978,-0.95139c0.03232,-0.01335 0.06439,-0.02602 0.0962,-0.03803c1.1771,-1.17606 2.49898,-2.22708 3.94945,-3.0267c1.60942,-0.88726 4.57299,-1.61544 5.65617,-3.27543c0.5247,-0.8041 0.49713,-3.36585 0.56427,-3.99972c0.38536,-3.63808 0.72565,-7.04521 1.55319,-10.63172c0,0 0.56215,-2.43598 2.99813,-1.87383c2.43598,0.56215 1.87383,2.99813 1.87383,2.99813c-0.78407,3.39714 -1.07998,6.58828 -1.45353,10.03942c-0.23823,2.20099 -0.00304,4.13588 -1.31493,6.14793c-2.27368,3.48717 -6.75402,4.14609 -9.79983,6.70863c0.43009,0.6878 0.92022,1.33801 1.46705,1.92986l1.16742,1.36087c0,0 1.62698,1.89814 -0.27116,3.52512z" fill="#003c20" stroke-width="0.5"/><path d="M222.02891,126.97385c-0.00235,-3.59088 4.40463,-4.81391 6.91299,-3.9145c1.05813,0.37941 1.4981,1.67633 2.24715,2.5145l0.47728,1.95818c0,0 0.05813,1.54807 -1.21765,2.10324l0.22423,0.59702c1.37846,3.68341 2.33578,7.29923 2.969,11.17649c0,0 0.35693,2.18554 -1.82861,2.54247c-2.18554,0.35693 -2.54247,-1.82861 -2.54247,-1.82861c-0.58598,-3.58804 -1.45848,-6.92363 -2.74411,-10.33312l-0.16119,-0.42918c-2.04668,-0.60952 -4.33465,-1.3885 -4.33661,-4.38651z" fill="#003c20" stroke-width="0.5"/><path d="M238.23993,124.90144c0.89893,-3.55916 5.57321,-3.66508 7.83326,-2.1442c0.95338,0.64157 1.06388,2.03725 1.59582,3.05587l-0.01849,2.06035c0,0 -0.33094,1.54873 -1.73458,1.77869l0.07237,0.64793c0.44157,3.99624 0.48275,7.81979 0.13713,11.82109c0,0 -0.19482,2.25546 -2.45028,2.06064c-2.25546,-0.19482 -2.06064,-2.45028 -2.06064,-2.45028c0.31984,-3.70282 0.29238,-7.22738 -0.12595,-10.92886l-0.05202,-0.46577c-1.87528,-1.11772 -3.94714,-2.46394 -3.19663,-5.43546z" fill="#003c20" stroke-width="0.5"/></g></g></svg>