<svg version="1.1" xmlns="http://www.w3.org/2000/svg" xmlns:xlink="http://www.w3.org/1999/xlink" width="31.08146" height="109.38527" viewBox="0,0,31.08146,109.38527"><g transform="translate(-222.02891,-121.82824)"><g data-paper-data="{&quot;isPaintingLayer&quot;:true}" fill-rule="nonzero" stroke="none" stroke-linecap="butt" stroke-linejoin="miter" stroke-miterlimit="10" stroke-dasharray="" stroke-dashoffset="0" style="mix-blend-mode: normal"><path d="M235.57682,201.3343c-2.5,0 -2.5,-2.5 -2.5,-2.5v-0.75168c0.00608,-10.39634 -0.23139,-20.75454 0.38016,-31.15351c0,0 0.02025,-0.34431 0.1736,-0.76963c-2.83517,-0.72577 -5.43699,-2.02474 -7.01463,-3.73197c-2.17076,-2.34908 -2.05192,-3.9307 -2.3608,-6.9344c-0.51953,-5.05218 -0.05894,-10.57339 3.97418,-14.26783c2.38658,-2.18616 6.05113,-2.52088 9.0604,-2.7378c0,0 0.34287,-0.02285 0.78284,0.0755v0.00001c0.66823,-0.15381 1.26104,-0.01701 1.26104,-0.01701l2.91797,0.72503c7.34419,5.17746 11.10002,13.10576 6.71673,21.64584c-1.54067,2.09689 -2.04976,3.22153 -4.43061,4.58901c-1.23531,0.70952 -2.79437,1.11373 -4.49018,1.25162c0.61857,9.66114 1.40804,19.38209 1.56998,29.0693c1.14387,0.96174 0.68527,2.56682 0.68527,2.56682c-0.13635,0.46718 -0.25075,0.93323 -0.34683,1.39849c1.78529,5.82978 3.50463,11.81805 4.36444,17.85817c0.23501,1.65092 0.75529,3.24884 1.09256,4.88194c0.14001,0.67794 -0.14614,1.39878 -0.0062,2.07673c0.1876,0.90884 2.2502,0.29045 2.26403,0.28913h0.93959c0,0 2.5,0 2.5,2.5l0.00001,0.00001c0,2.5 -2.5,2.5 -2.5,2.5h-0.93959c-3.39103,-0.15957 -4.61388,0.5322 -6.75611,-3.09342c-0.54394,-0.92059 -0.13759,-2.14405 -0.38204,-3.18501c-0.41093,-1.7499 -0.90741,-3.4864 -1.16248,-5.26571c-0.16973,-1.18398 -0.37404,-2.36556 -0.60632,-3.54403c-0.17911,0.89076 -0.35446,1.78204 -0.44394,2.68471c-0.26001,2.62273 -0.18876,6.08272 -0.95449,8.57758c-0.11602,0.378 -0.85639,0.36182 -0.91692,0.75256c-0.0531,0.34278 0.59007,-0.36482 0.88511,-0.54722l0.75329,-0.06402c0,0 2.5,0 2.5,2.5c0,2.5 -2.5,2.5 -2.5,2.5l-1.87759,-0.06402c-1.3336,-0.55824 -3.2107,-0.464 -4.0008,-1.67473c-1.00338,-1.53758 0.70708,-8.05022 0.95599,-9.9134c0.80182,-6.00182 0.5108,-12.37966 1.44846,-18.40547c-0.2859,0.11167 -0.62765,0.17842 -1.03612,0.17842zM238.10259,143.38806c-0.28154,0.07512 -0.48028,0.08837 -0.48028,0.08837c-1.574,0.09447 -4.69084,0.10255 -5.97316,1.39643c-2.83157,2.8571 -2.72102,6.44147 -2.41508,10.16171c0.11462,1.39377 -0.06879,2.88267 1.02175,3.96492c1.53777,1.52609 4.07778,1.83838 6.05193,2.28041c4.01784,0.89962 5.9778,0.39539 8.42793,-3.02478c3.19575,-5.46551 -0.11837,-11.03717 -4.55844,-14.4347l-1.96794,-0.40248c0,0 -0.03928,-0.00907 -0.10671,-0.02988z" fill="#003c20" stroke-width="0.5"/><path d="M238.21294,143.36807l1.97877,0.40449c4.44007,3.39753 7.77884,9.0482 4.58309,14.51371c-2.45013,3.42017 -4.45621,3.94276 -8.47405,3.04314c-1.97415,-0.44203 -4.54455,-0.77064 -6.08232,-2.29673c-1.09054,-1.08225 -0.91761,-2.58991 -1.03223,-3.98368c-0.30594,-3.72024 -0.39912,-7.35865 2.43245,-10.21575c1.28232,-1.29388 4.43009,-1.31234 6.00409,-1.40681c0,0 0.20136,-0.01316 0.4829,-0.08828c0.06743,0.02081 0.1073,0.02992 0.1073,0.02992z" data-paper-data="{&quot;noHover&quot;:false,&quot;origItem&quot;:[&quot;Path&quot;,{&quot;applyMatrix&quot;:true,&quot;segments&quot;:[[[238.10259,143.38806],[0.06743,0.02081],[-0.28154,0.07512]],[[237.62231,143.47643],[0,0],[-1.574,0.09447]],[[231.64915,144.87286],[1.28232,-1.29388],[-2.83157,2.8571]],[[229.23407,155.03457],[-0.30594,-3.72024],[0.11462,1.39377]],[[230.25582,158.99949],[-1.09054,-1.08225],[1.53777,1.52609]],[[236.30775,161.2799],[-1.97415,-0.44203],[4.01784,0.89962]],[[244.73568,158.25512],[-2.45013,3.42017],[3.19575,-5.46551]],[[240.17724,143.82042],[4.44007,3.39753],[0,0]],[238.2093,143.41794]],&quot;closed&quot;:true,&quot;fillColor&quot;:[0.21569,0,0],&quot;strokeWidth&quot;:0.5}]}" fill="#000000" stroke-width="0.25"/><path d="M243.69993,199.7563c-2.42536,0.60634 -3.0317,-1.81902 -3.0317,-1.81902l-0.26256,-1.35802c0.0025,-4.59324 -0.41958,-9.16755 -0.74539,-13.72882c-0.24181,-3.38534 -0.02111,-7.13986 -0.86825,-10.45837c-0.46198,-1.80972 -1.1608,-3.55923 -1.53244,-5.38963c0,0 -0.49029,-2.45145 1.96116,-2.94174c2.45145,-0.49029 2.94174,1.96116 2.94174,1.96116c0.34327,1.74704 1.04969,3.40477 1.47427,5.13386c0.89363,3.63931 0.74637,7.63634 1.01094,11.34028c0.33426,4.6797 0.75556,9.37162 0.75797,14.08326l0.11328,0.14534c0,0 0.60634,2.42536 -1.81902,3.0317z" fill="#003c20" stroke-width="0.5"/><path d="M222.02891,126.97385c-0.00235,-3.59088 4.40462,-4.81391 6.91299,-3.9145c1.05813,0.37941 1.4981,1.67633 2.24715,2.5145l0.47728,1.95819c0,0 0.05812,1.54807 -1.21766,2.10323l0.22423,0.59703c1.37846,3.68341 2.33578,7.29923 2.969,11.17649c0,0 0.35693,2.18554 -1.82861,2.54247c-2.18554,0.35693 -2.54247,-1.82861 -2.54247,-1.82861c-0.58598,-3.58804 -1.45848,-6.92363 -2.74411,-10.33311l-0.16119,-0.42918c-2.04668,-0.60952 -4.33465,-1.3885 -4.33661,-4.38651z" fill="#003c20" stroke-width="0.5"/><path d="M238.23993,124.90144c0.89893,-3.55916 5.57322,-3.66509 7.83327,-2.1442c0.95338,0.64157 1.06388,2.03725 1.59582,3.05588l-0.0185,2.06035c0,0 -0.33094,1.54873 -1.73458,1.77869l0.07237,0.64793c0.44157,3.99624 0.48275,7.81979 0.13713,11.82109c0,0 -0.19483,2.25546 -2.45028,2.06064c-2.25546,-0.19482 -2.06063,-2.45028 -2.06063,-2.45028c0.31984,-3.70282 0.29238,-7.22738 -0.12595,-10.92886l-0.05203,-0.46577c-1.87528,-1.11772 -3.94715,-2.46394 -3.19663,-5.43546z" fill="#003c20" stroke-width="0.5"/></g></g></svg>