<svg version="1.1" xmlns="http://www.w3.org/2000/svg" xmlns:xlink="http://www.w3.org/1999/xlink" width="25.74796" height="50.87918" viewBox="0,0,25.74796,50.87918"><g transform="translate(-227.12603,-154.56041)"><g data-paper-data="{&quot;isPaintingLayer&quot;:true}" fill-rule="nonzero" stroke="none" stroke-linecap="butt" stroke-linejoin="miter" stroke-miterlimit="10" stroke-dasharray="" stroke-dashoffset="0" style="mix-blend-mode: normal"><path d="M242.1318,205.27078c-2.0879,0.82715 -2.78386,-1.6543 -2.78386,-1.6543l-0.33302,-1.61185c0.01277,-2.8121 -0.73365,-4.7394 -1.07709,-7.46719c-0.44034,-3.49752 -0.63121,-7.4297 -0.52398,-11.04099c-4.54245,-1.22703 -8.89295,-4.5979 -9.99298,-9.60809c-1.24814,-5.68476 1.58422,-14.31994 6.27094,-17.22389l1.32455,-1.46244c3.06341,-0.42476 6.85231,-1.28223 9.86982,0.16536c1.86079,0.89269 3.03948,3.16272 4.25836,5.05725c0.67943,1.05605 1.62267,1.85825 2.24991,2.95895c2.7935,4.90217 1.15343,8.87502 -0.99206,13.47303c-1.39132,2.89175 -3.24815,5.90532 -6.21365,6.75467c-0.75003,0.21481 -1.55079,0.34177 -2.38094,0.3844c-0.06291,6.11488 1.58608,11.91484 1.6088,18.00893l0.10715,-0.04245c0,0 0.69597,2.48145 -1.39193,3.30859zM242.94283,160.11385c-0.01721,0.09276 -0.03836,0.18812 -0.06374,0.28614c-0.64723,2.50001 -2.75074,1.73077 -2.75074,1.73077c-0.17596,-0.06645 -3.10868,-1.43658 -3.92051,-1.07217c-0.09129,0.04097 -0.18165,0.08602 -0.27102,0.13495c-0.11536,0.17428 -0.59165,0.83558 -1.30447,1.04744c-2.25431,2.42926 -3.53801,7.30904 -2.95053,10.33516c0.9424,4.85437 7.91659,6.81083 11.40281,5.97109c1.67858,-0.40433 2.76993,-2.67054 3.47002,-4.23115c1.2112,-2.58611 3.033,-5.1487 1.20878,-7.97547c-0.6467,-1.00212 -1.5094,-1.78945 -2.15176,-2.79552c-1.0088,-1.58001 -0.74233,-2.66887 -2.34414,-3.31289c-0.1068,-0.04294 -0.21507,-0.08231 -0.32467,-0.11833z" fill="#000000" stroke-width="0.5"/><path d="M242.95775,160.06614c0.1096,0.03602 0.21955,0.07595 0.32635,0.11889c1.60181,0.64402 1.35316,1.74377 2.36196,3.32378c0.64236,1.00607 1.5171,1.81115 2.1638,2.81327c1.82422,2.82677 -0.00403,5.43791 -1.21523,8.02402c-0.70009,1.56061 -1.81559,3.84423 -3.49417,4.24856c-3.48622,0.83974 -10.52303,-1.1465 -11.46543,-6.00087c-0.58748,-3.02612 0.71294,-7.9635 2.96725,-10.39276c0.71282,-0.21186 1.19688,-0.87796 1.31224,-1.05224c0.08937,-0.04893 0.18121,-0.09469 0.2725,-0.13566c0.81183,-0.36441 3.76598,1.00119 3.94194,1.06764c0,0 2.1179,0.77154 2.76513,-1.72847c0.02538,-0.09802 0.01662,-0.09796 0.03383,-0.19072z" data-paper-data="{&quot;noHover&quot;:false,&quot;origItem&quot;:[&quot;Path&quot;,{&quot;applyMatrix&quot;:true,&quot;segments&quot;:[[[242.94283,160.11385],[0,0],[-0.01721,0.09276]],[[242.87909,160.39999],[0.02538,-0.09802],[-0.64723,2.50001]],[[240.12835,162.13076],[0,0],[-0.17596,-0.06645]],[[236.20784,161.05859],[0.81183,-0.36441],[-0.09129,0.04097]],[[235.93682,161.19354],[0.08937,-0.04893],[-0.11536,0.17428]],[[234.63235,162.24098],[0.71282,-0.21186],[-2.25431,2.42926]],[[231.68182,172.57614],[-0.58748,-3.02612],[0.9424,4.85437]],[[243.08463,178.54723],[-3.48622,0.83974],[1.67858,-0.40433]],[[246.55465,174.31608],[-0.70009,1.56061],[1.2112,-2.58611]],[[247.76343,166.34061],[1.82422,2.82677],[-0.6467,-1.00212]],[[245.61167,163.54509],[0.64236,1.00607],[-1.0088,-1.58001]],[[243.26753,160.2322],[1.60181,0.64402],[-0.1068,-0.04294]],[[242.94286,160.11387],[0.1096,0.03602],[0,0]]],&quot;closed&quot;:true,&quot;fillColor&quot;:[0,0,0],&quot;strokeWidth&quot;:0.5}]}" fill="#ffffff" stroke-width="0.25"/></g></g></svg>