<svg version="1.1" xmlns="http://www.w3.org/2000/svg" xmlns:xlink="http://www.w3.org/1999/xlink" width="322" height="322.75" viewBox="0,0,322,322.75"><g transform="translate(-79,-19)"><g data-paper-data="{&quot;isPaintingLayer&quot;:true}" fill-rule="nonzero" stroke-linejoin="miter" stroke-miterlimit="10" stroke-dasharray="" stroke-dashoffset="0" style="mix-blend-mode: normal"><path d="M79,341v-322h322v322z" fill="#ffffff" stroke="none" stroke-width="0" stroke-linecap="butt"/><g fill="#a02222" stroke="#7e1a1a" stroke-width="10.5"><path d="M332.65825,95.50779c0,0 5.79261,-4.50575 10.77708,-3.10662c9.57788,2.68848 42.56383,18.07924 42.56383,18.07924c0,0 3.80882,1.55404 2.33954,6.78841c-0.71139,2.53436 1.2996,10.09188 -0.39569,15.45952c-3.13597,9.92917 -4.4529,-1.27049 -9.41943,11.64736c-2.55715,6.65107 -6.28093,26.74056 -11.481,37.1714c-3.44539,6.91112 -8.77175,4.07621 -10.39544,10.11537c-0.70672,2.62865 7.3976,4.04125 6.73838,6.30599c-3.43316,11.79449 -6.34979,15.69602 -6.34979,15.69602c0,0 -4.14268,7.32721 -6.58129,6.6427c-1.92038,-0.53904 -6.08281,-1.22163 -11.18234,-2.15904c-8.8568,-1.62813 -20.54027,-4.02499 -28.21385,-7.77382c-5.73074,-2.79966 -7.36344,-11.68247 -7.36344,-11.68247c0,0 -2.09728,-9.33186 -0.07679,-16.52997c0.66436,-2.36681 -1.14683,-5.32329 0.61345,-10.77007c3.52827,-10.91744 11.63739,-27.46506 14.41535,-38.69951c0.23652,-0.95658 9.5919,-4.22587 9.75613,-5.05504c0.9427,-4.75937 -5.52819,-3.23524 -7.88306,-5.50253c-1.86685,-1.79744 0.15047,-7.32212 1.33282,-10.75077c3.58821,-10.40527 10.80551,-15.87617 10.80551,-15.87617z" stroke-linecap="butt"/><path d="M345.06841,143.50511l1.23684,-5.66661" stroke-linecap="round"/><path d="M343.09539,192.12283l1.22533,-8.1461" stroke-linecap="round"/><path d="M367.53914,126.46492l3.53225,-5.0223" stroke-linecap="round"/><path d="M348.90545,113.45196l-1.89267,5.48251" stroke-linecap="round"/><path d="M328.31027,151.53623l1.5245,-4.17086" stroke-linecap="round"/><path d="M326.04379,187.3365l-2.14007,2.58306" stroke-linecap="round"/><path d="M353.49074,163.91058l-0.05178,-1.07579" stroke-linecap="round"/><path d="M348.18098,199.21038l-2.08828,3.65885" stroke-linecap="round"/><path d="M360.77398,180.81256l4.99346,-12.74844" stroke-linecap="round"/><path d="M370.21434,148.44097l3.2446,-6.51805" stroke-linecap="round"/><path d="M314.57817,166.43054l2.91669,-6.61009" stroke-linecap="round"/><path d="M345.14875,100.3699l-2.24934,9.27368" stroke-linecap="round"/><path d="M333.85636,217.47588l1.82938,-9.03781" stroke-linecap="round"/><path d="M357.86282,138.25265l-0.86866,4.35495" stroke-linecap="round"/><path d="M330.07072,167.94923l-0.96071,4.68286" stroke-linecap="round"/><path d="M361.99903,112.17476l-0.11508,-4.63107" stroke-linecap="round"/></g><path d="M104.76098,340.88591c0.89722,-1.34583 1.40045,-2.91752 2.17008,-4.34016c0.97597,-1.80405 2.45959,-3.28314 3.68075,-4.93114c0.96842,-1.30691 1.00103,-3.12121 1.81375,-4.53023c0.34075,-0.59076 1.05751,-0.88669 1.44672,-1.44672c1.22518,-1.76288 1.21619,-4.1653 2.31303,-6.01076c0.42194,-0.70992 1.4313,-0.93591 1.85036,-1.64753c0.32367,-0.54962 -0.02519,-1.31767 0.23799,-1.89868c1.01525,-2.2413 2.75181,-4.0964 3.84795,-6.29927c0.47057,-0.94568 0.59666,-2.05406 1.15435,-2.95113c0.99427,-1.59934 2.65154,-2.72314 3.6168,-4.34016c2.35569,-3.94629 4.10071,-7.96914 6.67843,-11.8357c1.77019,-2.60678 2.8946,-5.44725 4.871,-7.95053c0.86551,-1.09625 2.38143,-1.64138 3.06072,-2.86182c0.52925,-0.95086 0.58651,-2.11669 1.11286,-3.06917c1.93959,-3.50992 4.57514,-6.7277 6.57222,-10.23556c1.62987,-2.86286 1.5056,-4.12257 3.93537,-7.23248c0.46161,-0.59083 1.4351,-0.5942 1.92725,-1.15984c0.22536,-0.25901 -0.10952,-0.6977 -0.02216,-1.02972c0.27338,-1.03895 0.62011,-2.06707 1.09109,-3.03263c0.38114,-0.78137 0.973,-1.44111 1.44672,-2.17008c0.5708,-0.87835 0.99022,-1.90526 1.47241,-2.86964c-0.22953,-0.44713 -0.43666,-0.89362 -0.63376,-1.33905c-1.70489,0.02225 -3.40057,-0.01981 -5.01485,-0.25409c-0.75459,-0.10952 -1.41822,-0.5965 -2.17008,-0.72336c-3.69776,-0.62393 -7.64261,-0.83366 -11.41553,-1.29489c-0.91339,-0.70295 -1.78985,-1.45668 -2.74016,-2.10886c-0.0748,-0.05134 0.14418,0.28588 0.05555,0.26646c-1.36125,-0.29822 -2.7482,-0.5737 -4.02338,-1.13573c-1.36651,-0.60228 -4.01209,-2.58186 -5.51739,-3.52189c-1.03712,-0.64765 -6.66265,-3.95606 -7.44373,-4.47726c-2.82136,-1.88262 -5.34336,-4.14167 -7.92079,-6.29781c-1.03449,-0.8654 -2.33476,-1.43435 -3.21615,-2.45527c-0.89563,-1.03741 -1.26605,-2.43521 -2.00338,-3.59051c-0.85568,-1.34075 -2.44062,-2.07706 -3.4085,-3.3392c-0.85556,-1.11568 -1.35477,-2.47138 -2.17008,-3.6168c-0.58447,-0.82111 -1.51041,-1.38304 -2.01135,-2.25761c-1.54131,-2.69094 -1.65658,-6.707 -3.21107,-9.23753c-0.69069,-1.12438 -1.79928,-1.99366 -2.32523,-3.2039c-0.78095,-1.79702 -1.02217,-3.78311 -1.53325,-5.67465c0.03054,-1.589 -0.471,-3.14371 -0.67435,-4.71993c-0.57137,-4.42884 -0.11676,-9.29058 -0.11676,-13.74549c0,-4.19688 -0.56609,-8.88179 0.11676,-13.02213c0.23888,-1.44841 2.07282,-6.54998 2.68038,-7.64545c0.33077,-0.5964 1.03919,-0.89988 1.44672,-1.44672c1.02485,-1.37517 0.63654,-3.38138 1.18026,-5.00797c0.49855,-1.49147 0.96506,-3.01248 1.71318,-4.39571c0.32445,-0.59987 1.03919,-0.89988 1.44672,-1.44672c1.0831,-1.45334 1.22144,-3.4164 1.95257,-5.07494c3.7007,-3.01389 6.45927,-6.44709 10.13354,-9.46109c2.41011,-1.97702 4.11783,-4.73902 6.76575,-6.48591c0.63646,-0.41989 1.53161,-0.30654 2.17008,-0.72336c0.52834,-0.34493 0.70942,-1.06364 1.19122,-1.47105c0.26751,-0.22622 5.07557,-3.46334 5.53427,-3.7214c1.84861,-1.04002 3.92931,-1.61019 5.82368,-2.56433c4.55872,-2.29611 7.91904,-4.7236 13.18029,-5.774c1.41978,-0.28346 2.89454,-0.07783 4.34181,-0.11675c0,0 5.76,0 8.08543,4.59729c0.45599,-0.02535 0.89712,-0.06999 1.3166,-0.14038c0.75198,-0.12618 1.41073,-0.65435 2.17008,-0.72336c2.65342,-0.24112 5.43263,-0.11918 7.96026,0.72336c2.06244,-0.33366 4.46169,-0.11675 6.5086,-0.11675c2.81807,0 5.9113,-0.2407 8.68196,0.11675c0.75622,0.09757 1.41822,0.5965 2.17008,0.72336c2.43321,0.41056 5.00491,0.40785 7.27313,1.37957c1.5452,0.66197 2.91373,1.69629 4.24463,2.7232c0.49954,0.38544 0.66288,1.12613 1.19122,1.47105c0.63847,0.41682 1.52329,0.31957 2.17008,0.72336c3.40359,2.12488 5.88424,5.41381 8.93583,7.93263c1.04017,0.85857 2.33475,1.43435 3.21614,2.45527c0.89563,1.03741 1.17812,2.49629 2.00338,3.59051c1.40452,1.86227 3.21015,3.41051 4.52831,5.33488c1.08381,1.70213 2.01484,3.51158 2.76925,5.38314c0.50534,1.25366 3.95253,4.34781 4.08594,4.58116c0.63826,1.11637 0.61758,2.50844 1.12405,3.69045c0.48495,1.1318 1.50243,2.02135 1.83171,3.20783c0.7615,2.7439 -0.2559,5.16923 0.27122,7.6821c0.91884,4.38029 1.42128,9.5822 0.77238,14.12691c-0.26433,1.85128 -1.12865,3.57344 -1.49574,5.40711c-0.18937,0.94595 0.11676,1.92707 0.11676,2.89179c0,2.41207 -0.06117,4.82383 -0.11676,7.23525c-0.76629,2.29887 -0.28992,4.84946 -0.72336,7.2336c-0.29431,1.61884 -0.85972,3.1899 -1.52604,4.69433c-0.16568,0.37406 -0.8173,0.42048 -0.91526,0.81769c-0.23095,0.93642 0.29943,1.97662 0,2.89344c-0.69461,2.12679 -2.33197,3.8388 -3.19374,5.90352c-1.32015,3.16294 -1.67828,7.07295 -3.55558,9.97375c-2.2745,3.51455 -5.75341,4.73289 -8.53153,7.42688c-0.98546,0.95562 -1.49343,2.40031 -2.63175,3.16749c-1.30573,0.88001 -3.01392,0.94258 -4.4441,1.60132c-0.68596,0.31595 -1.17523,0.9721 -1.85544,1.30025c-0.72092,0.34778 -4.03224,1.42681 -5.20271,1.81446c-4.88922,1.96179 -9.89996,4.25115 -15.11611,5.30347c1.5422,2.42315 2.52349,5.98075 4.65586,8.02361c0.71725,0.68713 1.66996,1.08651 2.42412,1.73292c1.25619,1.07674 1.9482,2.81683 3.39337,3.62234c2.15331,1.20021 4.63129,1.89165 6.54187,3.44952c0.91331,0.7447 1.51177,1.8349 2.44787,2.55075c0.62239,0.47595 1.46508,0.57195 2.14491,0.96145c2.20505,1.26337 4.02096,3.11412 6.12167,4.54428c1.52031,1.03502 3.32465,1.57575 4.95737,2.42242c1.38628,0.71888 2.87298,1.28148 4.13669,2.19888c1.00424,0.72903 1.55598,1.985 2.58403,2.68006c0.83309,0.56324 1.89917,0.66199 2.84875,0.99299c2.89072,1.88385 6.01172,3.22669 8.75664,5.34997c0.40879,0.31622 0.8804,0.62155 1.19734,1.02555c1.6654,-0.18224 3.81329,1.46274 4.68491,1.75458c2.16082,0.72352 4.98295,1.35475 7.19423,1.79742c0.58735,0.11758 1.26724,-0.18501 1.8802,-0.28905c1.78108,-1.06453 3.84008,-1.63432 5.58007,-2.76645c5.25988,-3.42235 10.76186,-6.61173 15.70473,-10.42915c0.97983,-0.35141 1.86916,-0.96569 2.88023,-1.20862c0.3048,-0.71587 0.57324,-1.45263 0.98282,-2.11259c0.70238,-1.13174 2.29107,-1.79649 2.50827,-3.11064c0.14767,-0.89348 -0.17128,-1.86471 0.14609,-2.71288c0.77607,-2.07403 2.46931,-3.69486 3.4249,-5.69255c0.8749,-1.82902 1.89676,-3.59072 3.00679,-5.28736c0.63551,-0.97135 0.43269,-2.2858 0.77453,-3.3951c0.62788,-2.03749 1.72849,-3.902 2.72892,-5.78475c0.67867,-1.27722 0.39781,-2.26203 0.59504,-3.64241c0.14061,-0.98417 0.54616,-1.9152 0.72336,-2.89344c0.2714,-1.49824 0.0359,-3.11961 0.62053,-4.52552c0.59642,-1.43426 1.87192,-2.47935 2.80788,-3.71903c1.39091,-1.46988 2.37473,-3.48101 4.17274,-4.40965c1.81059,-0.93514 3.98405,-0.82162 6.02622,-1.02427c0.28176,-0.32569 0.8778,-0.71306 1.93074,-1.14581c2.47586,-1.01756 6.43992,-1.16324 9.33006,-1.0699c0.44538,0.01439 3.49468,-0.31378 2.28666,-0.2451l7.11702,-2.64834c0,0 9.042,0 9.042,9.042c0,5.0718 -2.84485,7.29875 -5.34311,8.27656c-0.43717,0.39559 -0.89738,0.75785 -1.414,1.03851c-2.4749,1.3445 -5.28805,2.06454 -8.07014,2.50361c-1.19203,0.18812 -2.41186,0.09512 -3.61845,0.11676c-0.32442,0.00582 -0.69283,0.09526 -1.06084,0.18195c-0.31635,0.40343 -0.78411,0.75434 -1.18286,0.91823c-1.63289,0.6711 -3.4337,0.78087 -5.20826,0.9419c-0.09034,0.28684 -0.1689,0.5759 -0.21107,0.8711c-0.11851,0.82963 0.10241,1.68941 -0.04901,2.51367c-0.619,3.36956 -2.07903,6.1284 -3.69612,9.03449c-0.60396,1.08537 -0.51496,2.43415 -0.88788,3.61893c-0.40875,1.29863 -0.75832,2.6354 -1.39555,3.8385c-0.56429,1.06539 -1.56957,1.84804 -2.17008,2.89344c-0.33864,0.58952 -0.29884,1.34177 -0.61001,1.94624c-0.58114,1.12891 -1.25846,2.21701 -2.04589,3.21306c-0.08024,0.1015 -0.30052,-0.35374 -0.31609,-0.22529c-0.06556,0.54065 0.31897,1.11084 0.14609,1.62728c-1.02562,3.06387 -3.00576,5.72774 -4.72534,8.46312c-0.68694,1.09273 -1.03692,2.38799 -1.80305,3.42673c-2.18471,2.96205 -5.30185,5.22855 -8.80109,6.27255c-2.60231,2.17987 -5.21123,3.50281 -7.98576,5.36759c-3.70362,2.48921 -7.36546,5.19519 -11.36438,7.20161c-0.3609,0.18108 -0.84643,-0.00419 -1.19468,0.20017c-0.99406,0.58332 -1.64701,1.74356 -2.74016,2.10886c-4.49126,1.50083 -10.26002,0.825 -14.66858,-0.39567c-2.27887,-0.63099 -4.67241,-0.83074 -6.91667,-1.57554c-0.74766,-0.24813 -1.27847,-0.98449 -2.03641,-1.19919c-0.87132,-0.24681 -1.8741,0.19531 -2.71288,-0.14609c-2.50874,-1.02112 -4.66792,-2.79764 -6.7291,-4.5549c-1.64013,-1.39831 -3.90931,-2.09289 -5.71057,-3.33035c-1.46161,-0.63348 -3.05527,-1.02304 -4.38485,-1.90046c-1.24142,-0.81924 -2.03193,-2.18964 -3.20285,-3.10682c-2.25213,-1.76409 -5.85469,-2.47386 -8.26659,-4.05901c-1.44641,-0.95062 -2.70171,-2.16488 -4.08065,-3.21097c-1.5324,-1.1625 -3.46748,-1.71259 -5.01341,-2.85706c-1.24574,-0.92224 -2.19918,-2.18581 -3.33902,-3.23613c-0.1933,-0.17812 -0.40206,-0.33235 -0.62242,-0.46877c0.05695,0.47552 0.08962,0.95285 0.08962,1.43153c0.90547,2.05899 1.01817,2.1357 1.49573,5.40711c0.04332,0.29677 -0.37799,0.58537 -0.26034,0.86125c0.55153,1.29327 1.77792,2.26664 2.17008,3.6168c0.42648,1.46829 0.02648,3.06429 0.21134,4.58205c0.22609,1.85634 1.23474,3.55535 1.49573,5.40711c0.1346,0.95504 -0.11143,1.93542 0,2.89344c0.3259,2.80215 1.69415,5.56584 2.12107,8.33673c0.32671,2.12048 -0.25628,3.92547 0.37611,5.82264c1.04551,3.13653 1.42552,6.45656 1.84298,9.71151c0.10354,0.80734 0.27143,1.65179 0.2152,2.46108c1.58024,1.62407 1.29666,6.57933 1.29927,6.60066c0,2.89867 -0.38802,6.14515 -0.06775,9.02226c0.00619,0.05563 0.01329,0.11107 0.02124,0.16634c-6.04957,0 -12.09914,0 -18.14871,0c-0.13674,-2.70441 0.05985,-5.56179 0.1031,-8.24228c-0.35225,-0.2833 -0.62688,-0.69368 -0.75033,-1.1029c-1.05424,-3.49456 -0.93351,-8.48318 -1.29489,-12.13889c-0.15002,-1.51758 -1.2207,-2.83203 -1.44672,-4.34016c-0.25016,-1.6692 0.34404,-3.41112 0,-5.06352c-0.61519,-2.95468 -1.81971,-5.98452 -2.21909,-9.02391c-0.12565,-0.95626 0.0947,-1.93362 0,-2.89344c-0.1611,-1.63292 -1.18925,-3.09239 -1.39771,-4.71993c-0.11265,-0.87947 0.47579,-1.80525 0.21134,-2.65156c-0.41934,-1.34197 -1.71449,-2.2867 -2.17008,-3.6168c-0.37682,-1.10014 -0.09957,-2.3272 -0.26034,-3.47891c-0.22685,-1.62509 -0.92965,-3.14726 -1.39771,-4.71993c0,-2.77186 -0.93437,-5.34127 -1.82283,-7.99272c-0.16932,-0.5053 -0.14744,-1.08734 -0.23854,-1.61667c-0.57692,0.37966 -1.29139,0.62517 -1.76551,1.12456c-0.22103,0.23281 -0.01196,0.65785 -0.1379,0.95313c-0.4965,1.16416 -1.0845,2.28997 -1.71361,3.38816c-1.3856,2.41874 -2.99751,5.09818 -4.46909,7.44884c-0.5737,0.9164 -1.45212,1.62567 -1.97917,2.56968c-0.73595,1.31818 -0.95008,2.90369 -1.78058,4.16443c-1.10822,1.68233 -2.88391,2.82358 -4.17288,4.37179c-1.53875,1.84824 -2.47044,4.48417 -3.80932,6.51667c-2.43148,3.64723 -3.96631,7.61254 -6.34205,11.31183c-0.91321,1.42195 -1.94898,2.76587 -3.03085,4.06411c-0.13822,0.16587 -0.48522,0.08508 -0.58595,0.27605c-0.22076,0.4185 -0.08,0.96622 -0.29237,1.38903c-0.93777,1.86691 -2.55251,3.3586 -3.38565,5.27449c-0.54125,1.24466 -0.54376,2.70501 -1.20873,3.8882c-0.59893,1.06568 -1.80642,1.67905 -2.4898,2.69264c-1.1033,1.63642 -1.0571,3.84423 -2.02713,5.563c-0.3352,0.59393 -1.07543,0.87466 -1.44672,1.44672c-0.15947,0.24571 0.05929,0.60966 -0.06123,0.87664c-0.65932,1.4606 -1.35459,2.91443 -2.19026,4.28167c-7.03268,0 -14.06536,0 -21.09804,0c0.09919,-0.28857 0.19982,-0.5766 0.3018,-0.86409zM144.52886,128.34504c-1.1075,0.68533 -2.1904,1.39506 -3.27279,1.93335c-1.38945,0.69099 -2.96574,0.98917 -4.30336,1.77582c-2.40023,1.41156 -4.0039,3.38718 -6.295,4.93459c-0.63187,0.42676 -1.47247,0.41558 -2.17008,0.72336c-0.07438,0.03282 0.24603,0.08692 0.19328,0.1488c-0.66365,0.77849 -1.44221,1.45126 -2.17008,2.17008c-0.93925,0.92756 -1.82189,1.9182 -2.83122,2.76898c-0.73083,0.61603 -1.8123,0.84782 -2.35677,1.63341c-0.49523,0.71454 -0.88303,1.50822 -1.44672,2.17008c-0.70015,0.82209 -1.46414,1.96192 -2.40712,2.43531c-0.08241,0.95076 -3.00507,4.79581 -3.4041,5.26615c-0.05869,0.06919 0.28088,-0.14513 0.26646,-0.05555c-0.15803,0.98152 -0.44881,1.93794 -0.72336,2.89344c-0.43456,1.51238 -1.91308,5.62193 -2.43654,6.5658c-0.33077,0.5964 -1.03919,0.89988 -1.44672,1.44672c-0.12772,0.17138 -0.11227,1.36123 -0.0963,1.75658c0.06809,1.68647 0,3.37568 0,5.06352c0,3.85793 0,7.71584 0,11.57376c0,1.20568 -0.31627,2.42609 -0.11676,3.61515c0.30129,1.79557 0.74481,3.58666 0.77237,5.40711c-0.67453,0.87483 1.40125,1.72442 1.92841,2.6952c0.4035,0.74306 2.63116,7.46009 2.73886,7.84737c0.83406,2.99916 4.81822,5.67581 6.71421,8.42278c0.44873,0.65013 0.41028,1.5688 0.89006,2.19637c0.24423,0.31947 0.8009,0.19879 1.12402,0.43818c2.23424,1.65525 4.19474,3.70998 6.54641,5.27595c2.27093,1.5122 4.71032,2.75628 7.02347,4.20306c1.09943,0.68765 1.95599,1.79079 3.16294,2.26499c1.81753,0.71409 4.88372,0.18576 5.97783,1.93223c1.79741,-0.15791 3.47834,0.73161 5.21282,0.97936c2.87814,0.41112 5.4889,0.58419 8.31276,0.63685c3.23715,-1.57224 5.93376,-0.86435 7.86117,0.29437c0.54453,-0.01472 1.06071,-0.06177 1.527,-0.15886c8.00079,-1.66583 15.27932,-3.74569 22.93255,-6.79866c1.15084,-0.38557 2.40322,-0.51437 3.47761,-1.07899c0.87093,-0.45769 1.56375,-1.24704 2.48472,-1.59319c0.42175,-0.15851 0.96235,0.396 1.34279,0.1546c0.33817,-0.21458 -0.01583,-0.8839 0.26169,-1.17267c0.80677,-0.83947 1.9293,-1.30933 2.83122,-2.04562c0.07211,-0.05887 1.98763,-1.4311 3.0705,-2.18088c0.04897,-0.63193 1.30386,-4.49557 1.31764,-4.53629c0.93832,-2.77457 1.25159,-4.01291 2.92756,-6.74261c0.11562,-0.18831 0.57093,-0.03499 0.61321,-0.25188c0.18456,-0.94666 -0.28417,-1.97177 0,-2.89344c0.37615,-1.22 1.19483,-2.25455 1.86876,-3.34298c-0.40288,-2.44457 -0.01741,-4.74633 0.75345,-7.05892c-0.1734,-3.22052 -0.50204,-6.94601 0,-10.12704c0.25579,-1.62078 1.16531,-3.09563 1.39771,-4.71993c0.25451,-1.77888 0.41979,-5.08298 0.04901,-6.85053c-0.52989,-2.52607 -1.43859,-5.30549 -0.84012,-7.95861c0.00111,-0.00492 0.00251,-0.00921 0.00417,-0.0129c-0.48695,-0.69696 -0.75466,-1.5651 -0.93133,-2.41164c0.01023,0.10158 0.00451,0.17457 -0.0413,0.13788c-0.76422,-0.61204 -1.45045,-1.33043 -2.04562,-2.10785c-1.9146,-2.50089 -2.39972,-4.90275 -4.14764,-7.22717c-1.12695,-1.78804 -2.88885,-3.0976 -4.15201,-4.79217c-0.47212,-0.63335 -0.41028,-1.5688 -0.89006,-2.19637c-0.24424,-0.31947 -0.80516,-0.19314 -1.12401,-0.43818c-2.23559,-1.71813 -4.33694,-3.97898 -6.51024,-5.78688c-0.22602,-0.18802 -0.21108,-0.6045 -0.46785,-0.74769c-0.66594,-0.37137 -1.53821,-0.2966 -2.17008,-0.72336c-1.22805,-0.82942 -1.88424,-2.45131 -3.24447,-3.03935c-0.87344,-0.37759 -1.91502,0.08767 -2.85392,-0.06716c-0.75232,-0.12406 -1.4181,-0.59718 -2.17008,-0.72336c-1.18906,-0.19952 -2.40947,0.11676 -3.61515,0.11676c-3.86263,0 -7.71472,0.00782 -11.57541,-0.11676c-0.72336,-0.24112 -1.44683,-0.48191 -2.17008,-0.72336c-0.72226,-0.24112 -1.41159,0.62593 -2.16678,0.72336c-3.71342,0.47908 -7.82207,0.11676 -11.57541,0.11676h-1.44672c0,0 -3.34795,0 -5.96942,-2.03721z" fill="#000000" stroke="none" stroke-width="0.5" stroke-linecap="butt"/><path d="" fill="#000000" stroke="none" stroke-width="0.5" stroke-linecap="butt"/><g stroke-width="10.5"><path d="M310.05324,85.56159c0,0 5.7926,-4.50575 10.77708,-3.10662c9.57789,2.68848 42.56383,18.07924 42.56383,18.07924c0,0 3.80881,1.55405 2.33954,6.78842c-0.71139,2.53436 1.2996,10.09187 -0.39569,15.45952c-3.13597,9.92917 -4.4529,-1.27049 -9.41943,11.64736c-2.55715,6.65107 -6.28093,26.74056 -11.481,37.1714c-3.44539,6.91112 -8.77175,4.07621 -10.39544,10.11537c-0.70672,2.62864 7.3976,4.04125 6.73837,6.30599c-3.43316,11.7945 -6.34979,15.69602 -6.34979,15.69602c0,0 -4.14268,7.32722 -6.58129,6.6427c-1.92038,-0.53904 -6.08281,-1.22163 -11.18234,-2.15904c-8.8568,-1.62812 -20.54027,-4.02499 -28.21385,-7.77382c-5.73074,-2.79967 -7.36344,-11.68247 -7.36344,-11.68247c0,0 -2.09728,-9.33187 -0.07679,-16.52998c0.66436,-2.36681 -1.14683,-5.32329 0.61345,-10.77007c3.52827,-10.91743 11.63739,-27.46506 14.41535,-38.69951c0.23653,-0.95657 9.59191,-4.22587 9.75614,-5.05504c0.94271,-4.75937 -5.52819,-3.23524 -7.88306,-5.50254c-1.86685,-1.79744 0.15047,-7.32212 1.33283,-10.75076c3.58821,-10.40527 10.8055,-15.87617 10.8055,-15.87617z" fill="#e06446" stroke="#a02222" stroke-linecap="butt"/><path d="M322.4634,133.5589l1.23684,-5.66661" fill="none" stroke="#d64a42" stroke-linecap="round"/><path d="M321.71572,174.03053l-1.22533,8.14611" fill="none" stroke="#d64a42" stroke-linecap="round"/><path d="M348.46639,111.49643l-3.53225,5.0223" fill="none" stroke="#d64a42" stroke-linecap="round"/><path d="M326.30045,103.50576l-1.89268,5.48252" fill="none" stroke="#d64a42" stroke-linecap="round"/><path d="M305.70525,141.59002l1.5245,-4.17086" fill="none" stroke="#d64a42" stroke-linecap="round"/><path d="M301.29871,179.97336l2.14007,-2.58306" fill="none" stroke="#d64a42" stroke-linecap="round"/><path d="M330.88574,153.96439l-0.05178,-1.07579" fill="none" stroke="#d64a42" stroke-linecap="round"/><path d="M325.57598,189.26417l-2.08828,3.65885" fill="none" stroke="#d64a42" stroke-linecap="round"/><path d="M343.16243,158.11792l-4.99346,12.74844" fill="none" stroke="#a02222" stroke-linecap="round"/><path d="M347.60933,138.49477l3.2446,-6.51805" fill="none" stroke="#a02222" stroke-linecap="round"/><path d="M291.97316,156.48433l2.91669,-6.61009" fill="none" stroke="#a02222" stroke-linecap="round"/><path d="M320.29441,99.69737l2.24934,-9.27368" fill="none" stroke="#a02222" stroke-linecap="round"/><path d="M313.08073,198.49188l-1.82938,9.03781" fill="none" stroke="#a02222" stroke-linecap="round"/><path d="M334.38915,132.66139l0.86867,-4.35495" fill="none" stroke="#a02222" stroke-linecap="round"/><path d="M307.46572,158.00302l-0.96071,4.68286" fill="none" stroke="#a02222" stroke-linecap="round"/><path d="M339.39403,102.22856l-0.11508,-4.63108" fill="none" stroke="#a02222" stroke-linecap="round"/></g></g></g></svg>