<svg version="1.1" xmlns="http://www.w3.org/2000/svg" xmlns:xlink="http://www.w3.org/1999/xlink" width="71.1872" height="59.28102" viewBox="0,0,71.1872,59.28102"><g transform="translate(-176.81666,-122.95002)"><g data-paper-data="{&quot;isPaintingLayer&quot;:true}" fill-rule="nonzero" stroke-linejoin="miter" stroke-miterlimit="10" stroke-dasharray="" stroke-dashoffset="0" style="mix-blend-mode: normal"><path d="M181.06353,179.20001c0.99052,-23.0145 24.33712,-51.37271 55.09104,-53.17242c1.25716,9.52643 4.32876,54.37242 4.32876,54.37242c0,0 -41.77898,-1.5306 -59.4198,-1.2z" data-paper-data="{&quot;index&quot;:null}" fill="#ffff87" stroke="none" stroke-width="0" stroke-linecap="butt"/><path d="M215.03146,131.80607c5.68988,-4.38808 23.64029,-7.81133 31.78978,-6.94515c-0.57617,9.6931 -6.33791,55.53909 -6.33791,55.53909c0,0 -16.76068,-32.0262 -25.45187,-48.59394z" data-paper-data="{&quot;index&quot;:null}" fill="#ff8282" stroke="none" stroke-width="0" stroke-linecap="butt"/><path d="M181.06353,179.20001c0.35962,-8.35556 3.66599,-17.41548 9.20375,-25.65309c7.75745,4.57076 50.21605,26.85309 50.21605,26.85309c0,0 -41.77898,-1.5306 -59.4198,-1.2z" data-paper-data="{&quot;index&quot;:null}" fill="#83ff93" stroke="none" stroke-width="0" stroke-linecap="butt"/><path d="M247.00386,123.95002l-5.9561,57.26666l-63.2311,-1" data-paper-data="{&quot;index&quot;:null}" fill="none" stroke="#000000" stroke-width="2" stroke-linecap="round"/></g></g></svg>