<svg version="1.1" xmlns="http://www.w3.org/2000/svg" xmlns:xlink="http://www.w3.org/1999/xlink" width="68.96067" height="20.5212" viewBox="0,0,68.96067,20.5212"><defs><radialGradient cx="241.30936" cy="187.6092" r="31.42511" gradientUnits="userSpaceOnUse" id="color-1"><stop offset="0" stop-color="#000000"/><stop offset="1" stop-color="#000000" stop-opacity="0"/></radialGradient><radialGradient cx="236.94478" cy="187.20681" r="31.42511" gradientUnits="userSpaceOnUse" id="color-2"><stop offset="0" stop-color="#000000"/><stop offset="1" stop-color="#000000" stop-opacity="0"/></radialGradient><radialGradient cx="243.05518" cy="188.41397" r="31.42511" gradientUnits="userSpaceOnUse" id="color-3"><stop offset="0" stop-color="#000000"/><stop offset="1" stop-color="#000000" stop-opacity="0"/></radialGradient></defs><g transform="translate(-205.51967,-177.54979)"><g data-paper-data="{&quot;isPaintingLayer&quot;:true}" fill-rule="nonzero" stroke="none" stroke-width="0" stroke-linecap="butt" stroke-linejoin="miter" stroke-miterlimit="10" stroke-dasharray="" stroke-dashoffset="0" style="mix-blend-mode: normal"><path d="M209.88425,187.6092c0,-5.33344 14.06951,-9.65702 31.42511,-9.65702c17.3556,0 31.42511,4.3236 31.42511,9.65702c0,5.33344 -14.06951,9.65702 -31.42511,9.65702c-17.3556,0 -31.42511,-4.3236 -31.42511,-9.65702z" fill="url(#color-1)"/><path d="M205.51967,187.20681c0,-5.33344 14.06951,-9.65702 31.42511,-9.65702c17.3556,0 31.42511,4.3236 31.42511,9.65702c0,5.33344 -14.06951,9.65702 -31.42511,9.65702c-17.3556,0 -31.42511,-4.3236 -31.42511,-9.65702z" fill="url(#color-2)"/><path d="M211.63011,188.41397c0,-5.33344 14.06951,-9.65702 31.42511,-9.65702c17.3556,0 31.42511,4.3236 31.42511,9.65702c0,5.33344 -14.06951,9.65702 -31.42511,9.65702c-17.3556,0 -31.42511,-4.3236 -31.42511,-9.65702z" fill="url(#color-3)"/></g></g></svg>