<svg version="1.1" xmlns="http://www.w3.org/2000/svg" xmlns:xlink="http://www.w3.org/1999/xlink" width="90.37832" height="15.98073" viewBox="0,0,90.37832,15.98073"><g transform="translate(-194.81084,-172.00963)"><g data-paper-data="{&quot;isPaintingLayer&quot;:true}" fill="#000000" fill-rule="nonzero" stroke="none" stroke-width="0.5" stroke-linecap="butt" stroke-linejoin="miter" stroke-miterlimit="10" stroke-dasharray="" stroke-dashoffset="0" style="mix-blend-mode: normal"><path d="M252.38219,186.41425c-0.63571,-1.58928 0.25199,-2.52566 0.87501,-2.95817c-0.28404,-0.02705 -0.56327,-0.05537 -0.83735,-0.08501c-3.4865,0.69546 -7.15911,1.39336 -10.6001,1.09862c-1.38996,-0.11906 -4.54225,-0.27246 -6.47087,-1.55443c-0.53866,0.00737 -1.07501,0.00756 -1.59068,0.00021c-0.32707,0.80453 -1.06102,1.40027 -1.94642,1.53179l-2.45115,0.40852c-3.12683,1.00227 -5.46882,0.68094 -8.68578,0.92694c-5.10959,0.39073 -9.67912,0.79284 -14.84547,0.44259c-0.62766,-0.04255 -6.87378,-0.75752 -7.39634,-1.30649c-0.67471,-0.70881 -1.19408,-1.34815 -1.57764,-1.92479c-0.60528,-0.14382 -1.08424,-0.2897 -1.4047,-0.43187c-0.85056,-0.37733 -0.61026,-0.76207 -0.60364,-1.14991c0.00489,-0.28683 0.38067,-0.59565 1.1364,-0.88903c0.21581,-2.83038 6.10093,-2.82855 9.5562,-2.80823c0.42261,-0.78177 1.24963,-1.31283 2.20069,-1.31283l2.47861,0c2.35234,-0.3881 4.66209,-0.49733 6.97996,-0.42396c0.31215,-1.02489 1.26495,-1.77057 2.39191,-1.77057h2.63344c0.58352,0.01604 1.22086,0.07218 1.87127,0.17412c0.43898,-0.38184 1.01248,-0.61303 1.63998,-0.61303c0.48518,0 0.93808,0.13821 1.32147,0.37741l0.84674,0.50805c0.14304,0.00053 0.22668,0.00086 0.23252,0.00088l0.18896,0.1205l0.01583,-0.095l2.2455,0.37425c0.78097,-0.06003 1.75836,0.03064 3.04929,0.03064c5.48714,0 10.97145,0.35136 16.48618,0.42534c0.25842,-0.0264 0.52997,-0.08687 0.79929,-0.1415c-0.0228,-0.1357 -0.03467,-0.2751 -0.03467,-0.41728c0,-1.25484 0.92451,-2.29374 2.12954,-2.47274l2.5929,-0.43215l0.01379,0.08271l0.19101,-0.10821c0.99292,-0.00298 6.18496,-0.10057 6.70483,0.31598c1.94724,1.56026 2.53958,3.17118 2.29115,4.65953c3.47794,-0.5206 7.22354,-0.69533 10.48366,-0.12377c1.11458,0.19541 4.28612,1.21482 5.93304,2.64679c0.7618,0.09664 1.43069,0.2022 1.97294,0.31548c2.34628,0.49012 2.21788,1.08523 1.62003,1.6269c-0.45197,0.40951 -0.26644,0.75463 -1.79306,1.1353c-0.41827,0.1043 -0.89105,0.20289 -1.4111,0.29572c-1.00617,1.3365 -2.97221,2.15989 -4.52649,2.85863c-1.68574,0.75784 -3.68779,-0.5573 -5.52985,-0.40614c-5.08099,0.41696 -9.51825,1.76192 -14.66114,1.76192l-1.26606,0.69901c0,0 -2.32119,0.92848 -3.24967,-1.39272z"/></g></g></svg>