<svg version="1.1" xmlns="http://www.w3.org/2000/svg" xmlns:xlink="http://www.w3.org/1999/xlink" width="29.39213" height="48.60698" viewBox="0,0,29.39213,48.60698"><g transform="translate(-217.27695,-148.10183)"><g data-paper-data="{&quot;isPaintingLayer&quot;:true}" fill-rule="nonzero" stroke="none" stroke-linecap="butt" stroke-linejoin="miter" stroke-miterlimit="10" stroke-dasharray="" stroke-dashoffset="0" style="mix-blend-mode: normal"><path d="M231.83473,196.61061c-2.42464,0.60921 -3.03385,-1.81542 -3.03385,-1.81542l-0.26087,-1.56474c0.21743,-2.67897 -0.48893,-4.57981 -0.68106,-7.20898c-0.24634,-3.37108 -0.17872,-7.13501 0.20338,-10.56755c-5.05663,-1.55907 -9.7411,-5.14486 -10.62548,-10.01418c-1.00345,-5.52492 2.82798,-13.51171 8.34617,-15.87728l1.60586,-1.28016c3.50055,-0.14204 7.85409,-0.63424 11.1675,1.00423c2.04326,1.01039 3.21452,3.27496 4.45839,5.18509c0.69337,1.06475 1.70386,1.91019 2.33489,3.01302c2.81035,4.91163 0.66592,8.55727 -2.09611,12.75535c-1.78465,2.63663 -4.10536,5.34943 -7.52566,5.90452c-0.86505,0.14039 -1.78123,0.1927 -2.72461,0.16211c-0.5126,5.82239 0.93658,11.49148 0.52247,17.30139l0.12443,-0.03126c0,0 0.60921,2.42464 -1.81542,3.03385zM236.0126,153.64344c-0.02619,0.08693 -0.05703,0.176 -0.09285,0.26724c-0.91355,2.32711 -3.24066,1.41355 -3.24066,1.41355c-0.19451,-0.07842 -3.41748,-1.63579 -4.36334,-1.35813c-0.10636,0.03122 -0.21196,0.0664 -0.31672,0.10536c-0.14324,0.1562 -0.73047,0.7456 -1.55316,0.88636c-2.72876,2.12183 -4.535,6.66238 -4.08798,9.59681c0.71708,4.70729 8.47547,7.17014 12.48488,6.66887c1.93049,-0.24136 3.33022,-2.30755 4.23584,-3.73484c1.55857,-2.3608 3.80705,-4.64679 1.9448,-7.49733c-0.66018,-1.01054 -1.58053,-1.83491 -2.2355,-2.84885c-1.02862,-1.59236 -0.64821,-2.60724 -2.41608,-3.35843c-0.11787,-0.05008 -0.23766,-0.09689 -0.35921,-0.14063z" fill="#000000" stroke-width="0.5"/><path d="M236.03329,153.59789c0.12155,0.04374 0.24313,0.09141 0.361,0.14149c1.76787,0.75119 1.40433,1.77987 2.43295,3.37223c0.65497,1.01394 1.58421,1.85595 2.24439,2.86649c1.86225,2.85054 -0.39369,5.17872 -1.95226,7.53952c-0.90562,1.42729 -2.33072,3.51209 -4.26121,3.75345c-4.00941,0.50127 -11.83206,-1.99857 -12.54914,-6.70586c-0.44702,-2.93443 1.37832,-7.52573 4.10708,-9.64756c0.82269,-0.14076 1.41814,-0.7351 1.56138,-0.8913c0.10476,-0.03896 0.21199,-0.07488 0.31835,-0.1061c0.94586,-0.27766 4.19343,1.27579 4.38794,1.35421c0,0 2.34323,0.91787 3.25678,-1.40924c0.03582,-0.09124 0.02521,-0.08931 0.0514,-0.17624z" data-paper-data="{&quot;noHover&quot;:false,&quot;origItem&quot;:[&quot;Path&quot;,{&quot;applyMatrix&quot;:true,&quot;segments&quot;:[[[236.0126,153.64344],[0,0],[-0.02619,0.08693]],[[235.91975,153.91068],[0.03582,-0.09124],[-0.91355,2.32711]],[[232.67909,155.32423],[0,0],[-0.19451,-0.07842]],[[228.31575,153.9661],[0.94586,-0.27766],[-0.10636,0.03122]],[[227.99903,154.07146],[0.10476,-0.03896],[-0.14324,0.1562]],[[226.44587,154.95782],[0.82269,-0.14076],[-2.72876,2.12183]],[[222.35789,164.55463],[-0.44702,-2.93443],[0.71708,4.70729]],[[234.84277,171.2235],[-4.00941,0.50127],[1.93049,-0.24136]],[[239.07861,167.48866],[-0.90562,1.42729],[1.55857,-2.3608]],[[241.02341,159.99133],[1.86225,2.85054],[-0.66018,-1.01054]],[[238.78791,157.14248],[0.65497,1.01394],[-1.02862,-1.59236]],[[236.37183,153.78405],[1.76787,0.75119],[-0.11787,-0.05008]],[[236.01262,153.64342],[0.12155,0.04374],[0,0]]],&quot;closed&quot;:true,&quot;fillColor&quot;:[0,0,0],&quot;strokeWidth&quot;:0.5}]}" fill="#ffffff" stroke-width="0.25"/></g></g></svg>