<svg version="1.1" xmlns="http://www.w3.org/2000/svg" xmlns:xlink="http://www.w3.org/1999/xlink" width="95.0134" height="115.58647" viewBox="0,0,95.0134,115.58647"><g transform="translate(-191.8699,-115.74841)"><g data-paper-data="{&quot;isPaintingLayer&quot;:true}" fill-rule="nonzero" stroke="none" stroke-linecap="butt" stroke-linejoin="miter" stroke-miterlimit="10" stroke-dasharray="" stroke-dashoffset="0" style="mix-blend-mode: normal"><path d="M231.34987,172.14645c0.35355,2.47487 -2.12132,2.82843 -2.12132,2.82843l-2.10355,0.27513c-0.48538,0 -1.34626,0.0887 -2.3121,0.17188c0.49538,1.34533 0.89558,2.90958 1.1851,3.79143c0.34193,1.04147 1.21839,2.01441 1.08908,3.10293c-0.01732,0.14576 -0.03964,0.2903 -0.06641,0.43376h0.10433v1.26257c0.00041,-0.00005 0.00083,-0.00011 0.00124,-0.00016c7.19334,-0.71909 14.41784,-0.63535 21.6233,-0.2593c2.24411,0.11712 3.55022,-0.28449 5.51318,0.73083c0.07453,-0.77764 0.11277,-1.51322 0.11527,-2.11183c0.00531,-1.27271 -0.85634,-2.72173 -0.20118,-3.81287c0.74299,-1.23743 2.51315,-1.42029 3.76972,-2.13043l2.17848,-0.17881c0,0 2.5,0 2.5,2.5c0,2.5 -2.5,2.5 -2.5,2.5l-0.32152,-0.17881c-0.41009,-0.04348 -1.07439,-0.51222 -1.23028,-0.13043c-0.1803,0.44157 0.73945,0.71388 0.79882,1.18713c0.19557,1.55896 -0.24143,4.58151 -0.81086,6.83597c0.72305,1.06934 1.37645,2.12445 1.89397,2.89939c0.96103,1.43906 1.95144,2.85636 2.92163,4.28143c4.91118,-0.55693 9.9828,0.35237 14.31257,2.9787c4.75042,2.88147 9.44724,9.13843 9.18334,14.98459c-0.18755,4.15475 -2.90851,8.0884 -5.72991,10.9098c-2.17937,2.17936 -4.51543,3.64005 -7.24363,5.01283c-6.35695,2.44641 -13.60243,1.0456 -19.99251,-0.88603c-3.20269,-0.96813 -6.01138,-2.06677 -8.05974,-4.93279c-1.31623,-1.84164 -1.87797,-3.9898 -2.02291,-6.19958c-0.8387,0.01557 -1.66844,0.04342 -2.49747,0.06811c-0.48247,0.71692 -1.00507,1.28727 -1.46977,1.5952c-1.07524,0.71249 -2.56788,0.3832 -3.85628,0.32139c-1.99913,-0.0959 -3.33732,-0.24187 -4.29314,-1.0217c-0.10385,2.30789 -0.53798,4.47045 -2.56456,6.54257c-2.35919,2.41221 -5.59302,3.13969 -8.769,3.46983c-7.05104,0.73296 -13.43587,-0.03844 -19.64194,-3.60346c-3.70564,-4.82737 -9.09921,-7.39531 -8.85383,-14.50624c0.41135,-11.92031 14.86187,-22.42918 25.98784,-17.1748c0.17089,-0.34112 0.33828,-0.68319 0.50136,-1.02653c0.32303,-0.68007 2.10956,-5.48611 2.23666,-5.64793c0.53151,-0.67671 0.99149,-1.18051 1.42139,-1.55964l-0.56214,-2.0612l0.04375,-0.01193l-0.06991,-0.09284c-0.38086,-2.09047 -0.84517,-4.11399 -1.39861,-6.13997c-0.2619,-0.30458 -0.62042,-0.54547 -1.11927,-0.69618l-2.26531,-0.22653c-1.27708,-0.11199 -2.27874,-1.18419 -2.27874,-2.49034c0,-1.10109 0.71184,-2.03592 1.70042,-2.3694l2.69522,-0.98008l0.03354,0.09224c0.12685,-0.07172 0.25579,-0.14014 0.38706,-0.20484c1.56704,-0.77243 6.12474,-0.03792 7.93376,-0.03792l1.39645,-0.22487c0,0 2.47487,-0.35355 2.82843,2.12132zM245.4329,198.67575c2.17268,-2.67233 5.86221,-5.72117 7.53559,-8.90037c-0.25694,-0.28109 -0.51588,-0.52774 -0.77438,-0.72536c-1.12095,-0.85693 -4.89596,-0.49061 -6.19365,-0.55312c-5.44281,-0.26218 -11.01032,-0.14709 -16.45611,0.31346c2.23889,5.18111 2.90003,11.0486 5.5419,16.0233c0.5879,1.10703 1.00298,2.11647 1.50156,3.04854c0.72268,0.07556 1.46484,0.2464 2.14965,0.51786c2.17694,-3.26316 4.18047,-6.63096 6.69544,-9.72429zM242.96306,213.05291c0.36506,-0.01693 0.73118,-0.03015 1.09917,-0.03914c0.02865,-0.21251 0.05884,-0.42383 0.0903,-0.63374c0.14515,-0.96871 0.65422,-3.48099 1.15988,-4.96179c-0.91441,1.39248 -1.80805,2.79518 -2.73308,4.18248c0.23228,0.43501 0.35244,0.92822 0.38373,1.45218zM248.34634,203.46025c-0.01742,-0.12902 -0.02326,-0.25294 -0.01924,-0.37175c-0.36846,0.48701 -0.72696,0.97892 -1.07801,1.47449c0.34838,-0.37256 0.71842,-0.74127 1.09725,-1.10274zM251.94653,199.92881c0.78793,-0.31359 1.57586,-0.62717 2.36379,-0.94076c1.22193,-0.66207 2.50306,-1.22019 3.8231,-1.6687c-0.62141,-0.89182 -1.24009,-1.78332 -1.83854,-2.68259c-0.09007,-0.13535 -0.18356,-0.27976 -0.28016,-0.43143c-1.726,2.32634 -3.99393,4.51132 -5.83,6.59662zM248.875,215.5c0,0.33047 -0.04369,0.61726 -0.11951,0.86614c-0.06071,1.77778 0.16345,3.58465 1.14761,4.92209c1.40242,1.90584 3.29463,2.4292 5.44026,3.06721c4.9957,1.48548 11.54236,3.21788 16.50749,1.11397c2.18078,-1.08163 4.01851,-2.2493 5.75637,-3.98717c1.91176,-1.91175 4.13868,-4.732 4.27009,-7.5902c0.21972,-4.779 -4.72049,-9.98933 -8.89458,-11.55668c-2.1674,-0.81385 -4.33846,-1.25145 -6.48539,-1.32043c1.33321,2.28789 2.48504,4.67372 3.27221,7.26671l0.50925,1.78157c0,0 0.6868,2.40381 -1.71701,3.09061c-2.40381,0.6868 -3.09062,-1.71701 -3.09062,-1.71701l-0.49075,-1.71843c-0.8607,-2.90982 -2.28921,-5.54523 -3.91229,-8.07867c-1.57407,0.41888 -3.12088,1.04405 -4.62846,1.87225c-0.48997,0.19687 -0.97994,0.39374 -1.46991,0.59061c-0.21916,0.3251 -0.43387,0.51596 -0.43387,0.51596c-1.11115,0.98544 -3.71322,3.18327 -4.48728,4.36651c-0.23666,0.36176 -0.91975,3.92584 -0.95116,4.13493c-0.09034,0.60146 -0.1836,1.25625 -0.25129,1.93447c0.01879,0.13891 0.02882,0.28723 0.02882,0.44556zM224.625,217.25c0,0 -0.58655,0 -1.19143,-0.28411c-2.58265,0.11056 -5.18003,0.15254 -7.55491,-0.22806c-1.34873,-0.21615 -2.95897,-0.18472 -3.93636,-1.13891c-2.16764,-2.11618 -1.6742,-5.14826 -0.95851,-7.57838c0.89377,-3.03478 2.33319,-5.87157 3.85051,-8.66815c-0.22296,-0.0702 -0.44871,-0.13938 -0.67767,-0.20782l-0.53163,0.10543c0,0 -2.21587,0 -2.4753,-2.08615c-0.96255,0.14705 -1.97501,0.5353 -3.25056,1.11675c-5.97414,2.72326 -10.512,5.77507 -11.02712,12.84151c-0.36649,5.02744 4.66244,7.09229 7.14617,10.49376c5.03878,2.63405 10.2908,2.9267 15.85806,2.39654c2.06411,-0.19656 4.13744,-0.50394 5.731,-2.03017c1.24509,-1.19249 1.40876,-2.92758 1.36341,-4.68219c-0.80203,-0.02902 -1.58861,-0.05086 -2.34564,-0.05005zM222.88282,194.82344c-0.31568,0.66806 -0.64445,1.32924 -0.981,1.98628c0.47711,0.23726 0.95514,0.48818 1.43729,0.75489c1.5592,0.86623 3.3237,1.69429 4.91053,2.72787c-0.99268,-3.44484 -1.93428,-6.92296 -3.51539,-10.05871c-0.8217,1.08444 -0.98767,2.76171 -1.85144,4.58968zM216.9395,206.69503c-0.38249,0.93173 -0.83787,1.83475 -1.17329,2.78444c-0.2736,0.77465 -1.15353,1.98357 -0.45851,2.42162c1.07731,0.67899 2.54387,-0.14827 3.8173,-0.15108c2.69475,-0.00596 5.38958,-0.00252 8.08436,-0.0008c0.39099,-1.68061 0.92531,-3.59016 0.52291,-5.02474c-0.64808,-2.31039 -5.01951,-3.78803 -6.82137,-4.78906c-0.4531,-0.25295 -0.90002,-0.48817 -1.34507,-0.70855c-0.94414,1.7883 -1.85619,3.59215 -2.62632,5.46819z" fill="#000000" stroke-width="0.5"/><path d="M259.69619,180.42848c-0.92848,2.32119 -3.24967,1.39272 -3.24967,1.39272l-1.85637,-0.84781c-4.81352,-3.74436 -9.45657,-7.6875 -12.81272,-12.86316c-2.12388,-3.27533 -2.72474,-7.06984 -4.58184,-10.3854c-1.56552,-2.79501 -3.16756,-5.28605 -4.57504,-7.90071c-0.92699,4.36293 -2.30294,8.67567 -3.63533,12.50014c-0.55957,1.60619 -0.97407,3.2593 -1.46386,4.88813c-0.24682,0.82079 -0.6291,1.59488 -0.96807,2.3821c-0.12335,0.28648 -0.5947,0.58006 -0.41808,0.83715c0.67027,0.97564 2.11938,1.05893 3.21167,1.51503c2.7406,1.14438 4.9123,1.39423 7.38833,3.20578c2.97091,1.64466 6.43602,3.36853 8.96403,5.65547c0.98831,0.89406 2.34831,1.60887 2.78591,2.86768c0.21326,0.61346 -0.7183,6.03566 -0.90112,7.02512c-1.18887,6.4346 -4.12434,12.84282 -7.27364,18.5134l-0.90086,2.05124c0,0 -1.01535,2.28453 -3.29988,1.26918c-2.28453,-1.01535 -1.26918,-3.29988 -1.26918,-3.29988l1.09914,-2.44876c2.88169,-5.18541 5.67394,-11.09184 6.72636,-16.9866c0.17689,-0.99082 0.25611,-2.00097 0.49614,-2.97841c0.12825,-0.52225 0.75118,-0.97959 0.60274,-1.49647c-0.12595,-0.43857 -0.83308,-0.38125 -1.21409,-0.63232c-0.62223,-0.41001 -1.15921,-0.94148 -1.78597,-1.34453c-2.18325,-1.40395 -4.48046,-2.73491 -6.75,-4c-3.27784,-2.5345 -10.43707,-2.5549 -12.4,-6.77919c-1.37158,-2.95168 1.65131,-9.0529 2.64999,-11.89262c2.16453,-6.15473 4.66144,-14.06746 4.48903,-20.84869c-0.50045,-0.19928 -1.08803,-0.48592 -1.83813,-0.88903c-7.18176,-3.85953 -8.06818,-14.47194 -2.23552,-20.02586c3.2075,-3.05422 7.10587,-3.18239 11.19483,-3.16219c3.55527,0.01757 6.85938,0.38688 9.10244,3.64732c0.29734,0.43221 1.68706,5.35583 1.87106,5.98965c-0.03528,7.27154 -4.14521,12.06349 -11.00513,14.2576l-1.21837,0.10543c0,0 -0.0534,0 -0.14459,-0.0078c-0.24902,0.1113 -0.47929,0.17399 -0.63822,0.2081c0.3249,0.45254 0.44473,0.89191 0.44473,0.89191c1.53645,5.65089 4.52357,9.4625 7.2675,14.43298c1.79728,3.25569 2.36362,6.93108 4.41816,10.1146c3.03918,4.70921 7.31906,8.23981 11.68728,11.63684l0.64363,0.15219c0,0 2.32119,0.92848 1.39272,3.24967zM233.48549,135.01039c0.58608,-0.26039 1.13951,-0.26039 1.13951,-0.26039l-0.21837,0.10543c4.19258,-1.13386 7.5333,-4.27315 7.49487,-8.7424c-0.41471,-1.32538 -0.4477,-2.80018 -1.12894,-4.01035c-0.92575,-1.64455 -3.42524,-1.36109 -4.89756,-1.35268c-2.90883,0.01662 -5.45221,-0.28163 -7.80517,1.83781c-4.94385,4.45321 -1.54684,13.29892 5.05641,12.4246c0,0 0.14101,-0.0141 0.35925,-0.00202z" fill="#370000" stroke-width="0.5"/><path d="M233.12146,135.06218c-6.60325,0.87432 -10.03218,-8.05512 -5.08833,-12.50833c2.35296,-2.11944 4.94692,-1.83526 7.85575,-1.85188c1.47232,-0.00841 3.99636,-0.27582 4.92211,1.36873c0.68124,1.21017 0.72463,2.70618 1.13934,4.03156c0.03843,4.46925 -3.34683,7.66913 -7.53941,8.80299l0.22,-0.1056c0,0 -0.56162,0.0003 -1.1477,0.26069c-0.21824,-0.01208 -0.36176,0.00184 -0.36176,0.00184z" data-paper-data="{&quot;noHover&quot;:false,&quot;origItem&quot;:[&quot;Path&quot;,{&quot;applyMatrix&quot;:true,&quot;segments&quot;:[[[233.48549,135.01039],[-0.21824,-0.01208],[0.58608,-0.26039]],[234.625,134.75],[[234.40663,134.85543],[0,0],[4.19258,-1.13386]],[[241.9015,126.11303],[0.03843,4.46925],[-0.41471,-1.32538]],[[240.77256,122.10268],[0.68124,1.21017],[-0.92575,-1.64455]],[[235.875,120.75],[1.47232,-0.00841],[-2.90883,0.01662]],[[228.06983,122.58781],[2.35296,-2.11944],[-4.94385,4.45321]],[[233.12624,135.01241],[-6.60325,0.87432],[0,0]]],&quot;closed&quot;:true,&quot;fillColor&quot;:[0,0,0,1],&quot;strokeWidth&quot;:0.5}]}" fill="#ffffff" stroke-width="0.25"/></g></g></svg>