<svg version="1.1" xmlns="http://www.w3.org/2000/svg" xmlns:xlink="http://www.w3.org/1999/xlink" width="30.03001" height="92.72834" viewBox="0,0,30.03001,92.72834"><g transform="translate(-224.0815,-138.48516)"><g data-paper-data="{&quot;isPaintingLayer&quot;:true}" fill-rule="nonzero" stroke="none" stroke-linecap="butt" stroke-linejoin="miter" stroke-miterlimit="10" stroke-dasharray="" stroke-dashoffset="0" style="mix-blend-mode: normal"><path d="M241.22214,169.48381c0.26817,0.85265 0.41408,1.81763 0.89956,3.00166c0.25947,0.63281 0.41497,1.28657 0.65376,1.91799c0.15289,0.4043 0.37242,1.62904 0.47099,1.20818c0.47635,-2.03389 1.36051,-9.15659 3.08688,-9.85644c1.43831,-0.58308 2.14171,-0.00231 3.34524,0.02083c0.88046,0.01693 2.93346,-0.06545 3.48132,0.84765c3.23061,5.38436 -2.74612,3.5097 -3.40989,4.15235c-0.37527,0.36333 -2.46629,8.39275 -3.09173,9.86693c-0.44544,1.0499 -0.77227,3.48818 -2.41202,3.39708c-1.02109,-0.05673 -2.04021,-0.74268 -2.98362,-1.77635c0.32684,5.52668 0.5708,11.05658 0.58411,16.57236c0.05376,0.12414 0.07791,0.20262 0.07791,0.20262c1.86669,6.06674 3.69884,12.31094 4.59574,18.61157c0.23501,1.65092 0.75529,3.24884 1.09256,4.88194c0.14001,0.67794 -0.14614,1.39878 -0.0062,2.07673c0.1876,0.90884 2.2502,0.29045 2.26403,0.28913h0.93959c0,0 2.5,0 2.5,2.5l0.00001,0.00001c0,2.5 -2.5,2.5 -2.5,2.5h-0.93959c-3.39103,-0.15957 -4.61388,0.5322 -6.75611,-3.09342c-0.54394,-0.92059 -0.13759,-2.14405 -0.38204,-3.18501c-0.41093,-1.7499 -0.90741,-3.4864 -1.16248,-5.26571c-0.85319,-5.95159 -2.58009,-11.84292 -4.34292,-17.57985c-0.37994,-0.66404 -0.37994,-1.37601 -0.37994,-1.37601v-0.18792c0.00592,-10.88739 -0.9262,-21.84193 -1.62517,-32.70793c-3.42959,-0.60214 -6.73684,-2.05183 -8.60618,-4.07471c-2.17076,-2.34908 -2.05192,-3.9307 -2.3608,-6.9344c-0.51953,-5.05218 -0.05894,-10.57339 3.97418,-14.26783c2.38658,-2.18616 6.05113,-2.52088 9.0604,-2.7378c0,0 0.34287,-0.02285 0.78284,0.0755v0.00001c0.66823,-0.15381 1.26104,-0.01701 1.26104,-0.01701l2.91797,0.72503c7.34419,5.17746 11.10002,13.10576 6.71673,21.64584c-1.54067,2.09689 -2.04976,3.22153 -4.43061,4.58901c-1.18686,0.68169 -2.67258,1.08155 -4.2913,1.23416c0.02296,0.35866 0.04615,0.7174 0.06954,1.07622c0.46912,0.52509 0.71783,1.06862 0.90621,1.66758zM238.10259,143.38805c-0.28154,0.07512 -0.48028,0.08837 -0.48028,0.08837c-1.574,0.09447 -4.69084,0.10255 -5.97316,1.39643c-2.83157,2.8571 -2.72102,6.44147 -2.41508,10.16171c0.11462,1.39377 -0.06879,2.88267 1.02175,3.96492c1.53777,1.52609 4.07778,1.83838 6.05193,2.28041c4.01784,0.89962 5.9778,0.39539 8.42793,-3.02478c3.19575,-5.46551 -0.11837,-11.03717 -4.55844,-14.4347l-1.96794,-0.40248c0,0 -0.03928,-0.00907 -0.10671,-0.02988z" fill="#370000" stroke-width="0.5"/><path d="M238.21293,143.36807l1.97877,0.40449c4.44007,3.39753 7.77884,9.0482 4.58309,14.51371c-2.45013,3.42017 -4.45621,3.94276 -8.47405,3.04314c-1.97415,-0.44203 -4.54455,-0.77064 -6.08232,-2.29673c-1.09054,-1.08225 -0.91761,-2.58991 -1.03223,-3.98368c-0.30594,-3.72024 -0.39912,-7.35865 2.43245,-10.21575c1.28232,-1.29388 4.43009,-1.31234 6.00409,-1.40681c0,0 0.20136,-0.01316 0.4829,-0.08828c0.06743,0.02081 0.1073,0.02992 0.1073,0.02992z" data-paper-data="{&quot;noHover&quot;:false,&quot;origItem&quot;:[&quot;Path&quot;,{&quot;applyMatrix&quot;:true,&quot;segments&quot;:[[[238.10259,143.38805],[0.06743,0.02081],[-0.28154,0.07512]],[[237.62231,143.47642],[0,0],[-1.574,0.09447]],[[231.64915,144.87285],[1.28232,-1.29388],[-2.83157,2.8571]],[[229.23407,155.03456],[-0.30594,-3.72024],[0.11462,1.39377]],[[230.25582,158.99948],[-1.09054,-1.08225],[1.53777,1.52609]],[[236.30775,161.27989],[-1.97415,-0.44203],[4.01784,0.89962]],[[244.73568,158.25511],[-2.45013,3.42017],[3.19575,-5.46551]],[[240.17724,143.82041],[4.44007,3.39753],[0,0]],[238.2093,143.41793]],&quot;closed&quot;:true,&quot;fillColor&quot;:[0.21569,0,0],&quot;strokeWidth&quot;:0.5}]}" fill="#ffffff" stroke-width="0.25"/><path d="M242.58688,228.7135c0,2.5 -2.5,2.5 -2.5,2.5l-1.87759,-0.06402c-1.3336,-0.55824 -3.2107,-0.464 -4.0008,-1.67473c-1.00338,-1.53758 0.70708,-8.05022 0.95599,-9.9134c0.9882,-7.39694 0.31645,-15.36504 2.33067,-22.54136c0,0 0.6868,-2.40381 3.09061,-1.71701c2.40381,0.6868 1.71701,3.09061 1.71701,3.09061c-1.31343,4.50039 -0.59165,8.89631 -1.04524,13.48262c-0.18687,1.88948 -0.75033,3.72896 -0.93764,5.61839c-0.26001,2.62273 -0.18876,6.08272 -0.95449,8.57758c-0.11602,0.378 -0.85639,0.36182 -0.91692,0.75256c-0.0531,0.34278 0.59007,-0.36482 0.88511,-0.54722l0.75329,-0.06402c0,0 2.5,0 2.5,2.5z" fill="#370000" stroke-width="0.5"/></g></g></svg>