<svg version="1.1" xmlns="http://www.w3.org/2000/svg" xmlns:xlink="http://www.w3.org/1999/xlink" width="39.38466" height="27.51703" viewBox="0,0,39.38466,27.51703"><g transform="translate(-224.05381,-175.45583)"><g data-paper-data="{&quot;isPaintingLayer&quot;:true}" fill-rule="nonzero" stroke="none" stroke-linecap="butt" stroke-linejoin="miter" stroke-miterlimit="10" stroke-dasharray="" stroke-dashoffset="0" style="mix-blend-mode: normal"><path d="M229.4655,188.84846c0.21335,0.46105 0.28421,1.05811 0.03121,1.81711c-0.79057,2.37171 -3.16228,1.58114 -3.16228,1.58114l-2.28062,-3.55018c2.79734,-6.91895 10.03013,-16.16386 18.49237,-11.03604c5.8152,-5.28692 14.3518,-0.0133 18.4487,4.80514c0.76823,0.90353 1.80751,1.66827 2.22037,2.78006c0.42155,1.1352 0.1065,2.41954 0.15974,3.62932c-0.00628,2.36298 0.1689,4.52198 -0.6399,6.82458c-3.17462,9.03791 -18.23634,9.37417 -23.75707,2.55377c-2.63334,-3.25327 -2.95008,-6.65717 -2.04496,-10.66405c0.43122,-1.90898 1.36617,-3.99641 2.65005,-5.61796c-3.94016,-2.48056 -8.05933,2.78683 -10.11762,6.87712zM242.375,188.375c-0.20596,0 -0.39495,-0.01697 -0.56838,-0.04811c-0.52165,1.78786 -0.64302,3.66321 -0.28132,4.84914c1.72945,5.67052 12.26149,6.09141 15.70123,2.32237c1.53709,-1.68424 1.15466,-4.59363 1.14847,-6.6234c0.23424,-2.74311 -2.59173,-5.86995 -5.79758,-7.36287c-0.33933,1.66403 -2.20366,1.85047 -2.20366,1.85047c-1.60368,0.15846 -3.26087,-0.18924 -4.83143,0.17169c-0.2492,0.05727 -0.48906,0.14835 -0.71912,0.26889l0.05179,2.07182c0,0 0,2.5 -2.5,2.5z" fill="#000000" stroke-width="0.5"/><path d="M244.83543,185.84444l-0.04462,-2.07933c0.23006,-0.12054 0.4737,-0.21454 0.7229,-0.27181c1.57056,-0.36093 3.26032,-0.02208 4.864,-0.18054c0,0 1.87603,-0.18409 2.21536,-1.84812c3.20585,1.49292 6.06592,4.66224 5.83168,7.40535c0.00619,2.02977 0.37822,4.97502 -1.15887,6.65926c-3.43974,3.76904 -14.05735,3.33638 -15.7868,-2.33414c-0.3617,-1.18593 -0.24337,-3.08894 0.27828,-4.8768c0.17343,0.03114 0.36248,0.04779 0.56844,0.04779c2.5,0 2.50963,-2.52165 2.50963,-2.52165z" data-paper-data="{&quot;noHover&quot;:false,&quot;origItem&quot;:[&quot;Path&quot;,{&quot;applyMatrix&quot;:true,&quot;segments&quot;:[[[242.375,188.375],[2.5,0],[-0.20596,0]],[[241.80662,188.32689],[0.17343,0.03114],[-0.52165,1.78786]],[[241.5253,193.17603],[-0.3617,-1.18593],[1.72945,5.67052]],[[257.22653,195.4984],[-3.43974,3.76904],[1.53709,-1.68424]],[[258.375,188.875],[0.00619,2.02977],[0.23424,-2.74311]],[[252.57742,181.51213],[3.20585,1.49292],[-0.33933,1.66403]],[[250.37376,183.3626],[0,0],[-1.60368,0.15846]],[[245.54233,183.53429],[1.57056,-0.36093],[-0.2492,0.05727]],[[244.82321,183.80318],[0.23006,-0.12054],[0,0]],[244.875,185.875]],&quot;closed&quot;:true,&quot;fillColor&quot;:[0,0,0],&quot;strokeWidth&quot;:0.5}]}" fill="#ffffff" stroke-width="0.25"/></g></g></svg>