<svg version="1.1" xmlns="http://www.w3.org/2000/svg" xmlns:xlink="http://www.w3.org/1999/xlink" width="95.0134" height="109.35585" viewBox="0,0,95.0134,109.35585"><g transform="translate(-192.4933,-125.32207)"><g data-paper-data="{&quot;isPaintingLayer&quot;:true}" fill-rule="nonzero" stroke="none" stroke-linecap="butt" stroke-linejoin="miter" stroke-miterlimit="10" stroke-dasharray="" stroke-dashoffset="0" style="mix-blend-mode: normal"><path d="M231.97327,175.48949c0.35355,2.47487 -2.12132,2.82843 -2.12132,2.82843l-2.10355,0.27513c-0.48538,0 -1.34626,0.0887 -2.3121,0.17188c0.49538,1.34533 0.89558,2.90958 1.1851,3.79143c0.34193,1.04147 1.21839,2.01441 1.08908,3.10293c-0.01732,0.14576 -0.03964,0.2903 -0.06641,0.43376h0.10433v1.26257c0.00041,-0.00005 0.00083,-0.00011 0.00124,-0.00016c7.19334,-0.71909 14.41784,-0.63535 21.6233,-0.2593c2.24411,0.11712 3.55022,-0.28449 5.51318,0.73083c0.07453,-0.77764 0.11277,-1.51322 0.11527,-2.11183c0.00531,-1.27271 -0.85634,-2.72173 -0.20118,-3.81287c0.74299,-1.23743 2.51315,-1.42029 3.76972,-2.13043l2.17848,-0.17881c0,0 2.5,0 2.5,2.5c0,2.5 -2.5,2.5 -2.5,2.5l-0.32152,-0.17881c-0.41009,-0.04348 -1.07439,-0.51222 -1.23028,-0.13043c-0.1803,0.44157 0.73945,0.71388 0.79882,1.18713c0.19557,1.55896 -0.24143,4.58151 -0.81086,6.83597c0.72305,1.06934 1.37645,2.12445 1.89397,2.89939c0.96103,1.43906 1.95144,2.85636 2.92163,4.28143c4.91118,-0.55693 9.9828,0.35237 14.31257,2.9787c4.75042,2.88147 9.44724,9.13843 9.18334,14.98459c-0.18755,4.15475 -2.90851,8.0884 -5.72991,10.9098c-2.17937,2.17936 -4.51543,3.64005 -7.24363,5.01283c-6.35695,2.44641 -13.60243,1.0456 -19.99251,-0.88603c-3.20269,-0.96813 -6.01138,-2.06677 -8.05974,-4.93279c-1.31623,-1.84164 -1.87797,-3.9898 -2.02291,-6.19958c-0.8387,0.01557 -1.66844,0.04342 -2.49747,0.06811c-0.48247,0.71692 -1.00507,1.28727 -1.46977,1.5952c-1.07524,0.71249 -2.56788,0.3832 -3.85628,0.32139c-1.99913,-0.0959 -3.33732,-0.24187 -4.29314,-1.0217c-0.10385,2.30789 -0.53798,4.47045 -2.56456,6.54257c-2.35919,2.41221 -5.59302,3.13969 -8.769,3.46983c-7.05104,0.73296 -13.43587,-0.03844 -19.64194,-3.60346c-3.70564,-4.82737 -9.09921,-7.39531 -8.85383,-14.50624c0.41135,-11.92031 14.86187,-22.42918 25.98784,-17.1748c0.17089,-0.34112 0.33828,-0.68319 0.50136,-1.02653c0.32303,-0.68007 2.10956,-5.48611 2.23666,-5.64793c0.53151,-0.67671 0.99149,-1.18051 1.42139,-1.55964l-0.56214,-2.0612l0.04375,-0.01193l-0.06991,-0.09284c-0.38086,-2.09047 -0.84517,-4.11399 -1.39861,-6.13997c-0.2619,-0.30458 -0.62042,-0.54547 -1.11927,-0.69618l-2.26531,-0.22653c-1.27708,-0.11199 -2.27874,-1.18419 -2.27874,-2.49034c0,-1.10109 0.71184,-2.03592 1.70042,-2.3694l2.69522,-0.98008l0.03354,0.09224c0.12685,-0.07172 0.25579,-0.14014 0.38706,-0.20484c1.56704,-0.77243 6.12474,-0.03792 7.93376,-0.03792l1.39645,-0.22487c0,0 2.47487,-0.35355 2.82843,2.12132zM246.0563,202.01879c2.17268,-2.67233 5.86221,-5.72117 7.53559,-8.90037c-0.25694,-0.28109 -0.51588,-0.52774 -0.77438,-0.72536c-1.12095,-0.85693 -4.89596,-0.49061 -6.19365,-0.55312c-5.44281,-0.26218 -11.01032,-0.14709 -16.45611,0.31346c2.23889,5.18111 2.90003,11.0486 5.5419,16.0233c0.5879,1.10703 1.00298,2.11647 1.50156,3.04854c0.72268,0.07556 1.46484,0.2464 2.14965,0.51786c2.17694,-3.26316 4.18047,-6.63096 6.69544,-9.72429zM243.58646,216.39595c0.36506,-0.01693 0.73118,-0.03015 1.09917,-0.03914c0.02865,-0.21251 0.05884,-0.42383 0.0903,-0.63374c0.14515,-0.96871 0.65422,-3.48099 1.15988,-4.96179c-0.91441,1.39248 -1.80805,2.79518 -2.73308,4.18248c0.23228,0.43501 0.35244,0.92822 0.38373,1.45218zM248.96974,206.80329c-0.01742,-0.12902 -0.02326,-0.25294 -0.01924,-0.37175c-0.36846,0.48701 -0.72696,0.97892 -1.07801,1.47449c0.34838,-0.37256 0.71842,-0.74127 1.09725,-1.10274zM252.56993,203.27185c0.78793,-0.31359 1.57586,-0.62717 2.36379,-0.94076c1.22193,-0.66207 2.50306,-1.22019 3.8231,-1.6687c-0.62141,-0.89182 -1.24009,-1.78332 -1.83854,-2.68259c-0.09007,-0.13535 -0.18356,-0.27976 -0.28016,-0.43143c-1.726,2.32634 -3.99393,4.51132 -5.83,6.59662zM249.4984,218.84304c0,0.33047 -0.04369,0.61726 -0.11951,0.86614c-0.06071,1.77778 0.16345,3.58465 1.14761,4.92209c1.40242,1.90584 3.29463,2.4292 5.44026,3.06721c4.9957,1.48548 11.54236,3.21788 16.50749,1.11397c2.18078,-1.08163 4.01851,-2.2493 5.75637,-3.98717c1.91176,-1.91175 4.13868,-4.732 4.27009,-7.5902c0.21972,-4.779 -4.72049,-9.98933 -8.89458,-11.55668c-2.1674,-0.81385 -4.33846,-1.25145 -6.48539,-1.32043c1.33321,2.28789 2.48504,4.67372 3.27221,7.26671l0.50925,1.78157c0,0 0.6868,2.40381 -1.71701,3.09061c-2.40381,0.6868 -3.09062,-1.71701 -3.09062,-1.71701l-0.49075,-1.71843c-0.8607,-2.90982 -2.28921,-5.54523 -3.91229,-8.07867c-1.57407,0.41888 -3.12088,1.04405 -4.62846,1.87225c-0.48997,0.19687 -0.97994,0.39374 -1.46991,0.59061c-0.21916,0.3251 -0.43387,0.51596 -0.43387,0.51596c-1.11115,0.98544 -3.71322,3.18327 -4.48728,4.36651c-0.23666,0.36176 -0.91975,3.92584 -0.95116,4.13493c-0.09034,0.60146 -0.1836,1.25625 -0.25129,1.93447c0.01879,0.13891 0.02882,0.28723 0.02882,0.44556zM225.2484,220.59304c0,0 -0.58655,0 -1.19143,-0.28411c-2.58265,0.11056 -5.18003,0.15254 -7.55491,-0.22806c-1.34873,-0.21615 -2.95897,-0.18472 -3.93636,-1.13891c-2.16764,-2.11618 -1.6742,-5.14826 -0.95851,-7.57838c0.89377,-3.03478 2.33319,-5.87157 3.85051,-8.66815c-0.22296,-0.0702 -0.44871,-0.13938 -0.67767,-0.20782l-0.53163,0.10543c0,0 -2.21587,0 -2.4753,-2.08615c-0.96255,0.14705 -1.97501,0.5353 -3.25056,1.11675c-5.97414,2.72326 -10.512,5.77507 -11.02712,12.84151c-0.36649,5.02744 4.66244,7.09229 7.14617,10.49376c5.03878,2.63405 10.2908,2.9267 15.85806,2.39654c2.06411,-0.19656 4.13744,-0.50394 5.731,-2.03017c1.24509,-1.19249 1.40876,-2.92758 1.36341,-4.68219c-0.80203,-0.02902 -1.58861,-0.05086 -2.34564,-0.05005zM223.50622,198.16648c-0.31568,0.66806 -0.64445,1.32924 -0.981,1.98628c0.47711,0.23726 0.95514,0.48818 1.43729,0.75489c1.5592,0.86623 3.3237,1.69429 4.91053,2.72787c-0.99268,-3.44484 -1.93428,-6.92296 -3.51539,-10.05871c-0.8217,1.08444 -0.98767,2.76171 -1.85144,4.58968zM217.5629,210.03807c-0.38249,0.93173 -0.83787,1.83475 -1.17329,2.78444c-0.2736,0.77465 -1.15353,1.98357 -0.45851,2.42162c1.07731,0.67899 2.54387,-0.14827 3.8173,-0.15108c2.69475,-0.00596 5.38958,-0.00252 8.08436,-0.0008c0.39099,-1.68061 0.92531,-3.59016 0.52291,-5.02474c-0.64808,-2.31039 -5.01951,-3.78803 -6.82137,-4.78906c-0.4531,-0.25295 -0.90002,-0.48817 -1.34507,-0.70855c-0.94414,1.7883 -1.85619,3.59215 -2.62632,5.46819z" fill="#000000" stroke-width="0.5"/><path d="M235.44834,212.86466c-2.46598,-0.40026 -2.05499,-2.80183 -2.05499,-2.80183l0.20862,-1.21785c0.8072,-4.95568 3.52957,-9.35717 4.50382,-14.24799c0.73609,-3.69523 0.40034,-8.24623 -0.39593,-11.89996c-1.57785,-1.61465 -3.26187,-2.89981 -5.46904,-3.63468c-3.94447,-1.31328 -7.35139,-0.46704 -9.77499,-4.84771c-0.71357,-1.28978 -0.02075,-5.22428 0.26035,-6.63908c0.92703,-4.66576 3.13092,-7.22534 6.41195,-10.58019c3.25316,-3.32635 5.93142,-6.02191 9.44611,-7.58664c-7.21168,-8.78898 1.25738,-21.14908 10.31213,-23.97736c0,0 2.01333,-0.6011 3.03004,1.01598h0.00001c2.12302,0.20443 4.05177,0.27328 6.04235,1.32401c3.32781,1.75656 6.87402,8.08532 7.18938,11.90466c0.10827,1.31127 -0.46606,2.5902 -0.69908,3.88529c-4.01102,7.26933 -10.57789,11.35483 -19.11495,9.56404c-0.3744,-0.07853 -0.73623,-0.16051 -1.08681,-0.24946c-5.21489,0.54248 -7.71475,3.60823 -11.50055,7.47978c-1.75669,1.79648 -3.75672,3.30475 -4.56702,5.75665c-0.35191,1.06486 -1.67021,5.06027 -1.14719,6.14159c0.78575,1.62449 5.66815,1.81029 6.88272,2.22369c3.55192,1.20895 5.77675,3.23455 8.19883,5.93251c1.30746,4.70927 1.83897,10.27568 0.88543,15.13772c-0.94578,4.82245 -3.72525,9.16721 -4.46572,14.03759l-0.2185,1.27794c0,0 -0.411,2.40157 -2.87698,2.00131zM247.71719,131.84391c-4.77347,2.93492 -8.75009,9.56168 -4.68883,14.41604c1.31357,1.57008 3.84845,1.68869 5.69722,1.78117c4.92325,0.24626 8.25934,-2.17864 10.63141,-6.34618c0.58106,-2.28233 -1.53888,-8.08945 -3.83782,-9.09436c-1.55131,-0.67811 -2.80811,-0.64711 -4.48149,-0.80514l-0.88544,0.45031c0,0 -1.39256,0.39595 -2.43505,-0.40184z" fill="#370000" stroke-width="0.5"/><path d="M250.15062,132.19578l0.89096,-0.45018c1.67338,0.15803 2.95491,0.13589 4.50622,0.814c2.29894,1.00491 4.4393,6.8627 3.85824,9.14503c-2.37207,4.16754 -5.76732,6.63172 -10.69057,6.38546c-1.84877,-0.09248 -4.41147,-0.22748 -5.72504,-1.79756c-4.06126,-4.85436 -0.06247,-11.56116 4.711,-14.49608c1.04249,0.79779 2.44919,0.39932 2.44919,0.39932z" data-paper-data="{&quot;noHover&quot;:false,&quot;origItem&quot;:[&quot;Path&quot;,{&quot;applyMatrix&quot;:true,&quot;segments&quot;:[[[247.71719,131.84391],[1.04249,0.79779],[-4.77347,2.93492]],[[243.02836,146.25995],[-4.06126,-4.85436],[1.31357,1.57008]],[[248.72558,148.04112],[-1.84877,-0.09248],[4.92325,0.24626]],[[259.35699,141.69494],[-2.37207,4.16754],[0.58106,-2.28233]],[[255.51917,132.60058],[2.29894,1.00491],[-1.55131,-0.67811]],[[251.03768,131.79544],[1.67338,0.15803],[0,0]],[250.15224,132.24575]],&quot;closed&quot;:true,&quot;fillColor&quot;:[0,0,0,1],&quot;strokeWidth&quot;:0.5}]}" fill="#ffffff" stroke-width="0.25"/><path d="M210.16159,159.85576c-0.04545,0.51822 -0.35694,2.29437 -2.49224,2.29437c-2.5,0 -2.5,-2.4347 -2.5,-2.4347l0.65015,-2.46968c8.27788,-8.8165 21.49449,-11.02469 33.22142,-10.14898c0,0 2.49264,0.18673 2.30089,2.61426c-0.19174,2.42753 -2.68438,2.24079 -2.68438,2.24079c-7.25708,-0.54544 -12.01294,0.0797 -18.81563,2.56457c-4.07407,1.48817 -6.74761,2.42633 -9.68021,5.33935z" fill="#370000" stroke-width="0.5"/><path d="M260.52107,183.90289c-0.49029,2.38742 -2.94174,1.90993 -2.94174,1.90993l-3.20705,-0.9022c-3.143,-2.47433 -5.11682,-5.42861 -7.49673,-8.56602c-5.65534,-7.45539 -13.65947,-17.73388 -4.77538,-25.72826c0,0 1.86853,-1.61753 3.52944,0.2022c1.66091,1.81972 -0.20762,3.43724 -0.20762,3.43724c-3.77799,3.08035 -2.65358,6.68033 -0.35053,10.48104c3.36825,5.55859 7.16001,12.32205 12.4243,16.37145l1.06416,-0.07028c0,0 2.45145,0.47749 1.96116,2.8649z" fill="#370000" stroke-width="0.5"/><path d="M219.61295,132.25536c-0.99306,-2.23437 1.30124,-3.2015 1.30124,-3.2015l2.40331,-0.96885c0.83546,-0.18681 1.67093,-0.3736 2.5064,-0.56042c0,0 2.43661,-0.54482 2.99603,1.82815c0.55942,2.37297 -1.87718,2.91777 -1.87718,2.91777c-0.83546,0.18681 -1.67093,0.3736 -2.5064,0.56042l-1.53603,0.69168c0,0 -2.2943,0.96713 -3.28736,-1.26725z" fill="#370000" stroke-width="0.5"/><path d="M230.47008,140.26295c-2.23607,-1.08883 -1.11803,-3.26649 -1.11803,-3.26649l1.321,-1.79716c0.78305,-0.48529 1.56611,-0.97059 2.34916,-1.45587c0,0 2.10915,-1.30713 3.45134,0.74693c1.34219,2.05406 -0.76696,3.36119 -0.76696,3.36119c-0.78305,0.48529 -1.56611,0.97059 -2.34916,1.45587l0.46676,-0.1333c0,0 -1.11803,2.17766 -3.3541,1.08883z" fill="#370000" stroke-width="0.5"/></g></g></svg>