<svg version="1.1" xmlns="http://www.w3.org/2000/svg" xmlns:xlink="http://www.w3.org/1999/xlink" width="472.00001" height="216.98401" viewBox="0,0,472.00001,216.98401"><g transform="translate(-66.78378,-19.71878)"><g data-paper-data="{&quot;isPaintingLayer&quot;:true}" fill-rule="nonzero" stroke="none" stroke-linecap="butt" stroke-linejoin="miter" stroke-miterlimit="10" stroke-dasharray="" stroke-dashoffset="0" style="mix-blend-mode: normal"><path d="M209.7838,185.09597h292v50.50658c-3.46643,0.4853 -6.95071,0.80677 -10.35255,0.80436c-7,0 -14,-0.00001 -21,-0.00001c-6.9751,0 -13.94952,-0.02546 -20.92444,-0.04818c-6.81437,-2.10217 -13.75745,-1.32954 -20.84528,-1.54092c-3.42627,-0.10218 -6.45847,-1.04429 -9.81758,-1.41094c-3.58816,-0.39166 -7.44197,-0.00295 -11.05426,-0.00295c-6.99995,0 -13.99991,0.00158 -20.99986,-0.00035c-7.00106,-0.00192 -13.93626,0.2025 -20.86045,-0.88862c-3.31212,-0.52193 -6.67763,-0.28484 -9.95238,-0.77938c-1.63464,-0.24686 -3.17793,-1.10591 -4.81426,-1.35165c-2.02961,-0.3048 -3.84596,-0.05809 -5.85708,-0.63622c-4.33407,-1.2459 -8.5371,-0.53384 -12.98298,-0.87538c-2.78226,-0.21374 -4.88557,-1.47441 -7.76879,-1.47441c-7,0 -14,0 -21,0c-7,0 -14,0 -21,0c-7,0 -14,0 -21,0c-7,0 -14,0 -21,0c-4.33471,0.00001 -8.66959,-0.01287 -13.00418,0.02418c-2.57998,0.02205 -5.63895,-0.21022 -8.09673,0.57757c-2.70272,0.87953 -5.02098,0.65577 -7.7707,1.07539c-0.6425,0.09805 -1.27184,0.29086 -1.89848,0.50215z" fill="#e1c0b5" stroke-width="NaN"/><path d="M101.7838,185.09597h292v48.30853c-2.33132,-0.00005 -4.66265,-0.0003 -6.99397,-0.00095c-7.00106,-0.00192 -13.93626,0.2025 -20.86045,-0.88862c-3.31212,-0.52193 -6.67763,-0.28484 -9.95238,-0.77938c-1.63464,-0.24686 -3.17793,-1.10591 -4.81426,-1.35165c-2.02961,-0.3048 -3.84596,-0.05809 -5.85708,-0.63622c-4.33407,-1.2459 -8.5371,-0.53384 -12.98298,-0.87538c-2.78226,-0.21374 -4.88557,-1.47441 -7.76879,-1.47441c-7,0 -14,0 -21,0c-7,0 -14,0 -21,0c-7,0 -14,0 -21,0c-7,0 -14,0 -21,0c-4.33471,0.00001 -8.66959,-0.01287 -13.00418,0.02418c-2.57998,0.02205 -5.63895,-0.21022 -8.09673,0.57757c-2.70272,0.87953 -5.02098,0.65577 -7.7707,1.07539c-1.63147,0.24898 -3.17798,1.10891 -4.81121,1.33104c-2.57831,0.35066 -5.35341,-0.0773 -7.96151,0.08368c-2.9246,0.18283 -5.61689,2.02187 -8.29314,2.96776c-0.81436,0.28782 -2.04809,-0.02767 -2.90921,0.10965c-3.09996,0.49433 -5.53045,1.33827 -8.73752,1.33879c-2.95314,0.0044 -6.13201,-0.27996 -9.06177,0.09064c-1.97018,0.24921 -3.85716,1.1783 -5.82754,1.41384c-1.91551,0.22898 -4.00917,-0.00353 -5.94065,-0.00353c-6.62036,-0.00009 -14.39446,1.10906 -20.69252,-0.96689c-6.99819,-2.30673 -13.55107,-2.03593 -20.86037,-2.03614c-4.16654,-0.00012 -8.79494,0.50935 -12.91071,-0.20242c-0.63304,-0.10948 -1.26333,-0.25911 -1.89234,-0.43051z" fill="#f7eded" stroke-width="NaN"/><path d="M94.7838,205.09597h50v31.55202c-2.55653,-0.11876 -5.04432,-0.4524 -7.33658,-1.20798c-6.99819,-2.30673 -13.55107,-2.03593 -20.86037,-2.03614c-4.16654,-0.00012 -8.79494,0.50935 -12.91071,-0.20242c-2.5771,-0.44568 -5.1084,-1.55681 -7.69496,-2.09305c-0.39813,-0.08254 -0.7973,-0.17924 -1.19738,-0.2877z" fill="#f3f700" stroke-width="0"/><path d="M131.7838,205.09597h13v31.55202c-2.55653,-0.11876 -5.04432,-0.4524 -7.33658,-1.20798c-1.91289,-0.63053 -3.79252,-1.06847 -5.66342,-1.37201z" fill="#f7cb00" stroke-width="0"/><path d="M356.7838,205.09597h50v28.30795c-6.66465,0.00014 -13.32932,0.00147 -19.99397,-0.00036c-7.00106,-0.00192 -13.93626,0.2025 -20.86045,-0.88862c-3.04071,-0.47916 -6.12642,-0.3186 -9.14558,-0.67172z" fill="#f3f700" stroke-width="0"/><path d="M392.7838,205.09597h13v28.30798c-4.33333,0.00016 -8.66667,0.00074 -13,0.00053z" fill="#f7cb00" stroke-width="0"/><path d="M174.7838,219.09597l42,-92h286l36,92z" fill="#ce3c00" stroke-width="0"/><path d="M66.78378,219.09597l42,-93h286l36,93z" fill="#f70000" stroke-width="0"/><path d="M294.87755,59.5491c-2.33591,3.27137 -5.34661,5.62337 -8.729,7.28c-3.64644,2.07906 -7.86688,3.26688 -12.36475,3.26688c-6.23858,0.61481 -13.07354,-1.83689 -18.7922,0.73117c-2.36836,1.06355 -3.89187,3.52527 -5.22389,5.62362c-0.69907,1.10125 -2.49899,2.71803 -1.53683,3.59876c1.84129,1.68546 6.95737,1.95279 9.45583,2.53194c4.98477,1.15548 11.0305,2.35621 15.5971,4.63951c25.00041,12.5002 38.2707,39.22531 27.375,65.375c-2.3558,5.65391 -12.44632,12.82599 -17.62648,16.16685c-6.35084,4.09586 -15.63612,10.41799 -22.6194,12.63994c-21.79294,6.93412 -56.45166,5.38272 -62.95958,-21.81294c-3.14038,-13.1232 3.02983,-25.74595 16.42476,-30.21093c4.73447,-1.57816 10.05306,-1.84342 14.94671,-0.86469c2.73711,0.54742 7.11365,5.38478 9.85075,5.9322c1.31941,0.26388 4.4972,-0.92942 5.92789,-1.71111c0.8056,-0.44016 2.94565,-0.39051 2.48597,-1.18513c-0.54473,-0.94161 -5.69255,-1.29793 -7.21132,-1.73711c-6.5569,-1.89606 -14.36746,-2.53407 -20.59431,-5.84208c-19.16023,-10.17887 -21.9465,-28.55042 -21.5,-47.875c0.14425,-6.24331 2.70018,-11.66804 5.17428,-17.25025c8.41404,-18.98425 27.39376,-38.56054 49.82572,-38.74974c10.23874,-0.08636 17.06067,-0.85758 23.1588,0.09191c6.70503,0.57348 12.65459,3.79346 16.79951,8.61072c1.14348,0.98755 2.23977,2.23025 2.63398,3.68881c2.16618,3.7016 3.40772,8.01008 3.40772,12.60856c0,3.13655 -0.57762,6.13819 -1.63229,8.90435c-0.44466,1.99788 -1.0954,3.89822 -2.27396,5.54877z" fill="#f3f700" stroke-width="0.5"/><text transform="translate(142.7838,212.84597) scale(0.78169,0.78169)" font-size="40" xml:space="preserve" fill="#f3f700" fill-rule="nonzero" stroke="none" stroke-width="1" stroke-linecap="butt" stroke-linejoin="miter" stroke-miterlimit="10" stroke-dasharray="" stroke-dashoffset="0" font-family="Pixel" font-weight="normal" text-anchor="start" style="mix-blend-mode: normal"><tspan x="0" dy="0">StickDonalds</tspan></text></g></g></svg>