<svg version="1.1" xmlns="http://www.w3.org/2000/svg" xmlns:xlink="http://www.w3.org/1999/xlink" width="44.88466" height="24.26703" viewBox="0,0,44.88466,24.26703"><g transform="translate(-221.30381,-178.70583)"><g data-paper-data="{&quot;isPaintingLayer&quot;:true}" fill-rule="nonzero" stroke="none" stroke-linecap="butt" stroke-linejoin="miter" stroke-miterlimit="10" stroke-dasharray="" stroke-dashoffset="0" style="mix-blend-mode: normal"><path d="M227.47123,190.51667c0.24314,0.4066 0.3239,0.93314 0.03557,1.60249c-0.90097,2.09159 -3.60389,1.39439 -3.60389,1.39439l-2.5991,-3.13087c3.18798,-6.10176 11.43082,-14.25477 21.0748,-9.73259c6.62728,-4.66249 16.356,-0.01173 21.02503,4.23761c0.87551,0.79682 2.05993,1.47123 2.53044,2.45171c0.48042,1.00112 0.12137,2.13377 0.18205,3.20067c-0.00716,2.08389 0.19249,3.98789 -0.72926,6.01854c-3.61795,7.97045 -20.78301,8.267 -27.0747,2.25215c-3.00108,-2.86903 -3.36205,-5.8709 -2.33054,-9.40453c0.49144,-1.68351 1.55695,-3.5244 3.02012,-4.95443c-4.4904,-2.18758 -9.1848,2.45768 -11.53053,6.06487zM242.18352,190.09913c-0.23472,0 -0.4501,-0.01497 -0.64775,-0.04243c-0.5945,1.5767 -0.73282,3.23055 -0.32061,4.27641c1.97096,5.00078 13.97379,5.37196 17.89388,2.04808c1.75174,-1.48532 1.31591,-4.05108 1.30885,-5.84112c0.26695,-2.41912 -2.95366,-5.17666 -6.6072,-6.49325c-0.38672,1.46749 -2.5114,1.63191 -2.5114,1.63191c-1.82763,0.13974 -3.71624,-0.16689 -5.50613,0.15141c-0.284,0.05051 -0.55736,0.13083 -0.81954,0.23713l0.05902,1.82712c0,0 0,2.20473 -2.84912,2.20473z" fill="#000000" stroke-width="0.5"/><path d="M242.134,190.09219c2.84912,0 2.85572,-2.22344 2.85572,-2.22344l-0.0531,-1.83511c0.26218,-0.1063 0.53904,-0.19011 0.82304,-0.24062c1.78989,-0.3183 3.71708,-0.02429 5.54471,-0.16403c0,0 2.13918,-0.16068 2.5259,-1.62817c3.65354,1.31659 6.90441,4.11625 6.63746,6.53537c0.00706,1.79004 0.43579,4.38562 -1.31595,5.87094c-3.92009,3.32388 -16.0133,2.94198 -17.98426,-2.0588c-0.41221,-1.04586 -0.27581,-2.7216 0.31869,-4.2983c0.19765,0.02746 0.41307,0.04217 0.64779,0.04217z" data-paper-data="{&quot;noHover&quot;:false,&quot;origItem&quot;:[&quot;Path&quot;,{&quot;applyMatrix&quot;:true,&quot;segments&quot;:[[[242.18352,190.09913],[0,0],[-0.23472,0]],[[241.53577,190.0567],[0.19765,0.02746],[-0.5945,1.5767]],[[241.21516,194.33311],[-0.41221,-1.04586],[1.97096,5.00078]],[[259.10904,196.38119],[-3.92009,3.32388],[1.75174,-1.48532]],[[260.41789,190.54007],[0.00706,1.79004],[0.26695,-2.41912]],[[253.81069,184.04682],[3.65354,1.31659],[-0.38672,1.46749]],[[251.29929,185.67873],[0,0],[-1.82763,0.13974]],[[245.79316,185.83014],[1.78989,-0.3183],[-0.284,0.05051]],[[244.97362,186.06727],[0.26218,-0.1063],[0,0]],[245.03264,187.89439],[[242.18352,190.09912],[2.84912,0],[0,0]]],&quot;closed&quot;:true,&quot;fillColor&quot;:[0,0,0],&quot;strokeWidth&quot;:0.5}]}" fill="#ffffff" stroke-width="0.25"/></g></g></svg>