<svg version="1.1" xmlns="http://www.w3.org/2000/svg" xmlns:xlink="http://www.w3.org/1999/xlink" width="492" height="507.40623" viewBox="0,0,492,507.40623"><g transform="translate(6,6.5)"><g data-paper-data="{&quot;isPaintingLayer&quot;:true}" fill-rule="nonzero" stroke-linejoin="miter" stroke-miterlimit="10" stroke-dasharray="" stroke-dashoffset="0" style="mix-blend-mode: normal"><path d="M-6,366.5v-373h492v373z" fill="#ffffff" stroke="none" stroke-width="0" stroke-linecap="butt"/><g fill="#a02222" stroke="#7e1a1a" stroke-width="10.5"><path d="M367.82466,121.69449c0,0 8.00792,-6.22892 14.89864,-4.29471c13.24082,3.71665 58.84182,24.99342 58.84182,24.99342c0,0 5.26545,2.14836 3.23427,9.38455c-0.98345,3.5036 1.79662,13.95139 -0.54702,21.37181c-4.33528,13.72645 -6.15586,-1.75637 -13.02177,16.10174c-3.5351,9.19469 -8.68299,36.96714 -15.87176,51.38713c-4.76303,9.55419 -12.1264,5.63511 -14.37105,13.98386c-0.977,3.63394 10.22672,5.58677 9.31539,8.71763c-4.74613,16.30514 -8.77819,21.69876 -8.77819,21.69876c0,0 -5.72699,10.12941 -9.09822,9.18312c-2.6548,-0.74519 -8.40911,-1.68882 -15.45889,-2.98474c-12.24397,-2.25079 -28.39563,-5.56429 -39.00388,-10.74682c-7.92239,-3.87036 -10.1795,-16.15028 -10.1795,-16.15028c0,0 -2.89936,-12.90071 -0.10616,-22.85165c0.91843,-3.27197 -1.58542,-7.35911 0.84805,-14.88895c4.87761,-15.09267 16.08796,-37.96872 19.92831,-53.49965c0.32698,-1.32241 13.2602,-5.842 13.48724,-6.98828c1.30323,-6.57953 -7.64237,-4.47251 -10.89784,-7.6069c-2.5808,-2.48485 0.20801,-10.12237 1.84254,-14.86226c4.96048,-14.38463 14.93794,-21.94781 14.93794,-21.94781z" stroke-linecap="butt"/><path d="M386.6908,180.21404l-1.70986,7.83373" stroke-linecap="round"/><path d="M382.25336,255.25872l1.69394,-11.26147" stroke-linecap="round"/><path d="M416.04531,164.49079l4.88312,-6.94301" stroke-linecap="round"/><path d="M390.2854,146.50118l-2.6165,7.57923" stroke-linecap="round"/><path d="M361.81385,199.15029l2.10752,-5.76595" stroke-linecap="round"/><path d="M358.68059,248.64192l-2.95851,3.57092" stroke-linecap="round"/><path d="M396.62428,216.25706l-0.07158,-1.48721" stroke-linecap="round"/><path d="M389.28387,265.05681l-2.88692,5.05813" stroke-linecap="round"/><path d="M406.6929,239.62298l6.90314,-17.62392" stroke-linecap="round"/><path d="M419.7436,194.8713l4.48546,-9.01079" stroke-linecap="round"/><path d="M342.83009,219.74074l4.03214,-9.13804" stroke-linecap="round"/><path d="M385.092,128.41605l-3.10957,12.82028" stroke-linecap="round"/><path d="M372.00998,277.81353l-2.529,12.4942" stroke-linecap="round"/><path d="M402.6684,180.78658l-1.20087,6.02044" stroke-linecap="round"/><path d="M364.24757,221.84024l-1.32812,6.47376" stroke-linecap="round"/><path d="M408.38646,144.73553l-0.15909,-6.40217" stroke-linecap="round"/></g><path d="M74.46554,475.0738c-0.21105,2.5902 -1.71721,11.83244 -12.46561,11.83244c-12.5,0 -12.5,-12.5 -12.5,-12.5l0.37322,-4.0317c0.80629,-3.19795 1.79527,-6.35193 2.89784,-9.4602c1.24035,-1.86052 1.93603,-4.03329 3,-6c1.34922,-2.49398 3.40023,-4.53874 5.08841,-6.81699c1.33878,-1.80672 1.38386,-4.31488 2.50739,-6.26276c0.47107,-0.81669 1.46194,-1.2258 2,-2c1.69374,-2.43707 1.6813,-5.75826 3.19762,-8.3095c0.5833,-0.98142 1.97868,-1.29383 2.55801,-2.2776c0.44746,-0.75982 -0.03483,-1.82159 0.329,-2.62481c1.40352,-3.09846 3.8042,-5.66302 5.31955,-8.70835c0.65053,-1.30734 0.82484,-2.83961 1.59581,-4.07975c1.37452,-2.21099 3.66559,-3.76457 5,-6c3.25659,-5.4555 5.66898,-11.01683 9.23251,-16.36211c2.44717,-3.60371 4.0016,-7.53048 6.73385,-10.99111c1.19652,-1.5155 3.29218,-2.26911 4.23126,-3.95628c0.73166,-1.31451 0.81082,-2.92619 1.53846,-4.24293c2.68136,-4.85225 6.32484,-9.30062 9.08568,-14.15002c2.25319,-3.95772 2.0814,-5.6992 5.4404,-9.99845c0.63815,-0.81679 1.98393,-0.82144 2.6643,-1.60341c0.31154,-0.35806 -0.15141,-0.96453 -0.03064,-1.42353c0.37793,-1.43628 0.85726,-2.85759 1.50837,-4.19242c0.5269,-1.08019 1.34511,-1.99225 2,-3c0.7891,-1.21427 1.36892,-2.6339 2.03552,-3.9671c-0.31731,-0.61813 -0.60365,-1.23538 -0.87614,-1.85115c-2.35691,0.03076 -4.70107,-0.02738 -6.93272,-0.35127c-1.04317,-0.1514 -1.9606,-0.82462 -3,-1c-5.11192,-0.86255 -10.56543,-1.15248 -15.78126,-1.7901c-1.2627,-0.97179 -2.47436,-2.01377 -3.7881,-2.91536c-0.10341,-0.07098 0.19932,0.39521 0.0768,0.36837c-1.88184,-0.41227 -3.79922,-0.79311 -5.56207,-1.57007c-1.88911,-0.83261 -5.54646,-3.56926 -7.62745,-4.86879c-1.43375,-0.89534 -9.2107,-5.46901 -10.29049,-6.18953c-3.90036,-2.60261 -7.38686,-5.7256 -10.95,-8.70633c-1.43012,-1.19636 -3.22766,-1.9829 -4.44612,-3.39425c-1.23815,-1.43415 -1.75024,-3.36652 -2.76955,-4.96365c-1.18292,-1.8535 -3.37401,-2.8714 -4.71204,-4.61623c-1.18276,-1.54236 -1.87288,-3.41653 -3,-5c-0.80799,-1.13513 -2.08805,-1.91196 -2.78056,-3.12101c-2.13077,-3.72006 -2.29012,-9.272 -4.4391,-12.77031c-0.95484,-1.55438 -2.48739,-2.75611 -3.21448,-4.42919c-1.07962,-2.48427 -1.41308,-5.22991 -2.11962,-7.84485c0.04222,-2.19669 -0.65113,-4.34598 -0.93225,-6.52501c-0.78989,-6.12259 -0.16141,-12.84365 -0.16141,-19.00228c0,-5.80192 -0.78258,-12.27852 0.16141,-18.00228c0.33024,-2.00234 2.86555,-9.05493 3.70546,-10.56936c0.45727,-0.82449 1.43661,-1.24403 2,-2c1.41679,-1.90109 0.87997,-4.67455 1.63163,-6.9232c0.68922,-2.06186 1.33413,-4.16456 2.36837,-6.0768c0.44853,-0.82928 1.43661,-1.24403 2,-2c1.49732,-2.00915 1.68856,-4.72296 2.6993,-7.01578c5.11599,-4.16651 8.92954,-8.9127 14.00898,-13.07936c3.33183,-2.7331 5.69264,-6.5514 9.35322,-8.96636c0.87987,-0.58047 2.11736,-0.42377 3,-1c0.73039,-0.47684 0.98073,-1.47041 1.64678,-2.03364c0.36982,-0.31273 7.01666,-4.78785 7.65078,-5.1446c2.55559,-1.43776 5.43203,-2.22599 8.05087,-3.54503c6.30215,-3.17423 10.94758,-6.53008 18.22093,-7.98219c1.96275,-0.39186 4.00152,-0.1076 6.00228,-0.1614c0,0 7.96284,0 11.1776,6.35546c0.63038,-0.03505 1.24021,-0.09676 1.82012,-0.19406c1.03956,-0.17444 1.95024,-0.9046 3,-1c3.66818,-0.33333 7.51027,-0.16476 11.00456,1c2.8512,-0.46126 6.16801,-0.1614 8.99773,-0.1614c3.8958,0 8.172,-0.33275 12.00227,0.1614c1.04543,0.13488 1.9606,0.82462 3,1c3.36376,0.56757 6.91897,0.56383 10.05464,1.90717c2.13614,0.91513 4.02805,2.34501 5.86794,3.76465c0.69058,0.53285 0.91639,1.5568 1.64678,2.03364c0.88264,0.57623 2.10585,0.44178 3,1c4.70525,2.93752 8.13459,7.48425 12.35322,10.96636c1.43797,1.18692 3.22765,1.9829 4.44611,3.39425c1.23815,1.43415 1.62868,3.45096 2.76955,4.96365c1.94166,2.57447 4.43783,4.71482 6.2601,7.37513c1.4983,2.35309 2.78539,4.85454 3.82831,7.44186c0.6986,1.7331 5.46413,6.01058 5.64856,6.33316c0.88235,1.54331 0.85377,3.46776 1.55393,5.10182c0.67041,1.56464 2.07702,2.79439 2.53222,4.43462c1.05273,3.79327 -0.35377,7.14614 0.37494,10.62002c1.27024,6.05548 1.96483,13.24679 1.06776,19.52957c-0.36542,2.55928 -1.56029,4.94005 -2.06776,7.47499c-0.26179,1.30772 0.16141,2.66406 0.16141,3.99772c0,3.33453 -0.08457,6.66864 -0.16141,10.00228c-1.05935,3.17805 -0.40079,6.70407 -1,10c-0.40687,2.23795 -1.18851,4.40984 -2.10965,6.48962c-0.22904,0.51711 -1.12986,0.58129 -1.26529,1.1304c-0.31927,1.29454 0.41395,2.73255 0,4c-0.96025,2.94016 -3.2238,5.3069 -4.41515,8.16125c-1.82503,4.37256 -2.32011,9.77791 -4.91536,13.78809c-3.14435,4.85865 -7.95373,6.54292 -11.7943,10.26719c-1.36234,1.32109 -2.06457,3.31828 -3.63823,4.37886c-1.80509,1.21656 -4.16655,1.30306 -6.14369,2.21373c-0.9483,0.43678 -1.62468,1.34387 -2.56503,1.79751c-0.99662,0.48078 -5.57432,1.97248 -7.19242,2.50838c-6.75904,2.71205 -13.68607,5.87695 -20.89707,7.33171c2.132,3.34985 3.48856,8.26801 6.43644,11.09214c0.99155,0.94992 2.30862,1.50203 3.35119,2.39566c1.7366,1.48852 2.69326,3.89409 4.69112,5.00766c2.97681,1.65922 6.40247,2.61509 9.04372,4.76874c1.26259,1.0295 2.08993,2.53663 3.38402,3.52625c0.86041,0.65797 2.02538,0.79068 2.96521,1.32915c3.04835,1.74653 5.55872,4.30508 8.46283,6.28218c2.10174,1.43085 4.59612,2.17838 6.85325,3.34885c1.91645,0.99381 3.97171,1.77157 5.71871,3.03981c1.3883,1.00784 2.15104,2.74414 3.57226,3.70501c1.15169,0.77864 2.62548,0.91516 3.93822,1.37274c3.99624,2.6043 8.31082,4.46069 12.1055,7.396c0.56513,0.43715 1.2171,0.85925 1.65525,1.41776c2.30231,-0.25194 5.27164,2.02214 6.47659,2.4256c2.9872,1.00022 6.88862,1.87286 9.94557,2.48482c0.81197,0.16255 1.75188,-0.25577 2.59926,-0.39959c2.46223,-1.47165 5.30867,-2.25935 7.71409,-3.82445c7.27145,-4.73119 14.87759,-9.1403 21.7108,-14.41764c1.35456,-0.4858 2.584,-1.33501 3.98174,-1.67084c0.42137,-0.98964 0.79247,-2.00817 1.35869,-2.92053c0.97099,-1.56456 3.16726,-2.48354 3.46752,-4.30027c0.20415,-1.23518 -0.23679,-2.57785 0.20196,-3.75039c1.07287,-2.86722 3.41367,-5.10791 4.73471,-7.86959c1.2095,-2.52851 2.62215,-4.96394 4.1567,-7.30944c0.87855,-1.34283 0.59816,-3.15998 1.07074,-4.69351c0.868,-2.8167 2.38953,-5.39427 3.77256,-7.99705c0.93822,-1.76568 0.54995,-3.12711 0.8226,-5.0354c0.19439,-1.36055 0.75503,-2.64764 1,-4c0.37519,-2.07122 0.04963,-4.31267 0.85785,-6.25625c0.82452,-1.98277 2.58781,-3.42755 3.88172,-5.14132c1.92285,-2.03202 3.28292,-4.81228 5.76855,-6.09607c2.50303,-1.29277 5.5077,-1.13584 8.33087,-1.41599c0.38952,-0.45024 1.2135,-0.98576 2.66913,-1.58401c3.42272,-1.40671 8.90279,-1.6081 12.89822,-1.47907c0.61571,0.01989 4.83117,-0.43378 3.16117,-0.33883l9.83883,-3.66117c0,0 12.5,0 12.5,12.5c0,7.01144 -3.93282,10.09006 -7.38651,11.44183c-0.60436,0.54688 -1.24057,1.04768 -1.95476,1.43567c-3.42139,1.85868 -7.3104,2.8541 -11.15646,3.46109c-1.6479,0.26007 -3.33425,0.1315 -5.00228,0.16141c-0.44849,0.00804 -0.95779,0.13169 -1.46655,0.25154c-0.43734,0.55772 -1.08398,1.04283 -1.63523,1.26939c-2.25737,0.92776 -4.74687,1.07951 -7.20009,1.30212c-0.12489,0.39654 -0.23349,0.79614 -0.29179,1.20424c-0.16383,1.14691 0.14158,2.33551 -0.06775,3.47499c-0.85573,4.6582 -2.87413,8.47213 -5.10965,12.48962c-0.83493,1.50045 -0.7119,3.36506 -1.22744,5.00295c-0.56507,1.79527 -1.04833,3.64328 -1.92926,5.30649c-0.7801,1.47283 -2.16983,2.5548 -3,4c-0.46815,0.81498 -0.41313,1.85491 -0.8433,2.69056c-0.80339,1.56065 -1.73974,3.06488 -2.82831,4.44186c-0.11093,0.14032 -0.41545,-0.48902 -0.43698,-0.31145c-0.09063,0.74741 0.44095,1.53566 0.20196,2.24961c-1.41786,4.23561 -4.15527,7.91824 -6.53248,11.69973c-0.94965,1.51063 -1.43347,3.30125 -2.49261,4.73724c-3.02023,4.09485 -7.32947,7.22814 -12.16696,8.6714c-3.59753,3.01354 -7.2042,4.84242 -11.03981,7.42035c-5.12002,3.44118 -10.18228,7.18202 -15.71054,9.95578c-0.49892,0.25033 -1.17014,-0.00579 -1.65157,0.27672c-1.37422,0.80641 -2.27689,2.41036 -3.7881,2.91536c-6.20889,2.07481 -14.18384,1.14051 -20.27839,-0.54699c-3.1504,-0.8723 -6.45932,-1.14844 -9.56186,-2.17809c-1.03359,-0.34302 -1.76741,-1.361 -2.81521,-1.6578c-1.20455,-0.3412 -2.59082,0.27001 -3.75039,-0.20196c-3.46817,-1.41163 -6.45311,-3.86756 -9.30256,-6.29687c-2.26738,-1.93307 -5.40438,-2.89329 -7.8945,-4.604c-2.02059,-0.87575 -4.22372,-1.41429 -6.06178,-2.62726c-1.71619,-1.13255 -2.80901,-3.02704 -4.42774,-4.29499c-3.11343,-2.43874 -8.09374,-3.41995 -11.42804,-5.61133c-1.99957,-1.31417 -3.73494,-2.99281 -5.64124,-4.43896c-2.11845,-1.60709 -4.79358,-2.36755 -6.93072,-3.9497c-1.72216,-1.27494 -3.04023,-3.02174 -4.61598,-4.47375c-0.26723,-0.24624 -0.55582,-0.45945 -0.86045,-0.64805c0.07873,0.65737 0.1239,1.31725 0.1239,1.979c1.25175,2.84643 1.40756,2.95247 2.06775,7.47499c0.05989,0.41026 -0.52255,0.80924 -0.35991,1.19062c0.76246,1.78786 2.45786,3.13349 3,5c0.58958,2.02982 0.03661,4.23619 0.29216,6.33439c0.31255,2.56627 1.70695,4.91505 2.06775,7.47499c0.18608,1.32028 -0.15404,2.67559 0,4c0.45054,3.87379 2.34206,7.69442 2.93225,11.52501c0.45165,2.93143 -0.35429,5.42672 0.51995,8.04943c1.44535,4.33605 1.97069,8.92579 2.5478,13.42556c0.14314,1.11609 0.37523,2.28349 0.2975,3.40229c2.18458,2.24517 1.79255,9.09551 1.79616,9.125c0,4.00723 -0.53641,8.49529 -0.09366,12.47271c0.25096,2.25444 1.57863,4.28438 1.93225,6.52501c0.50899,3.22506 -0.34154,6.58435 0.10057,9.77056c0.42573,3.06809 1.01631,6.13455 1.06083,9.23172v1c0,0 0,12.5 -12.5,12.5c-12.5,0 -12.5,-12.5 -12.5,-12.5v-1c0.07831,-2.27636 -0.67914,-4.50546 -0.93917,-6.76828c-0.27456,-2.38928 0.5707,-5.881 0.10057,-8.22944c-0.50747,-2.53494 -1.73356,-4.91144 -2.06775,-7.47499c-0.58962,-4.5229 -0.17997,-9.56393 -0.10486,-14.21906c-0.48696,-0.39164 -0.86662,-0.95897 -1.03729,-1.52469c-1.45742,-4.83101 -1.29052,-11.72746 -1.7901,-16.78126c-0.20739,-2.09796 -1.68754,-3.9151 -2,-6c-0.34583,-2.30756 0.47562,-4.71566 0,-7c-0.85046,-4.08466 -2.51563,-8.27322 -3.06775,-12.47499c-0.17371,-1.32197 0.13091,-2.67311 0,-4c-0.22271,-2.25741 -1.64406,-4.27503 -1.93225,-6.52501c-0.15573,-1.21581 0.65775,-2.49565 0.29216,-3.66561c-0.57971,-1.85519 -2.37018,-3.16122 -3,-5c-0.52093,-1.52087 -0.13765,-3.21721 -0.35991,-4.80938c-0.31361,-2.24658 -1.28518,-4.35089 -1.93225,-6.52501c0,-3.83192 -1.29171,-7.38397 -2.51995,-11.04943c-0.23407,-0.69854 -0.20383,-1.50318 -0.32977,-2.23495c-0.79756,0.52485 -1.78526,0.86426 -2.44071,1.55464c-0.30556,0.32184 -0.01654,0.90943 -0.19064,1.31764c-0.68638,1.60938 -1.49926,3.16574 -2.36896,4.68392c-1.91551,3.34376 -4.14387,7.04791 -6.17824,10.29755c-0.7931,1.26687 -2.00746,2.24739 -2.73608,3.55242c-1.01741,1.8223 -1.31343,4.01417 -2.46154,5.75707c-1.53204,2.32572 -3.98683,3.90342 -5.76874,6.04372c-2.12722,2.55508 -3.41523,6.19908 -5.26615,9.00889c-3.36137,5.04206 -5.48317,10.52386 -8.76749,15.63789c-1.26245,1.96576 -2.69434,3.82364 -4.18996,5.61838c-0.19108,0.2293 -0.67078,0.11762 -0.81004,0.38162c-0.30519,0.57855 -0.11059,1.33574 -0.40419,1.92025c-1.29641,2.58088 -3.52869,4.64305 -4.68045,7.29165c-0.74824,1.72066 -0.75172,3.73951 -1.671,5.37519c-0.82798,1.47323 -2.49726,2.32118 -3.44199,3.7224c-1.52524,2.26225 -1.46138,5.3144 -2.80238,7.6905c-0.46339,0.82107 -1.48672,1.20916 -2,2c-0.22046,0.33968 0.08197,0.84281 -0.08464,1.2119c-1.0096,2.23658 -2.08018,4.4617 -3.40797,6.52534c-0.77806,1.20925 -2.374,1.84935 -2.91159,3.18301c-0.83598,2.07392 -1.75965,4.13948 -3,6c-0.24077,1.06175 -0.50086,2.11901 -0.76333,3.17566zM107.74759,167.08993c-1.53105,0.94742 -3.02809,1.92858 -4.52443,2.67273c-1.92083,0.95525 -4.09995,1.36747 -5.94913,2.45496c-3.31817,1.9514 -5.53514,4.68257 -8.70244,6.82176c-0.87352,0.58997 -2.0356,0.57451 -3,1c-0.10283,0.04537 0.34012,0.12016 0.2672,0.2057c-0.91746,1.07622 -1.99376,2.00628 -3,3c-1.29845,1.2823 -2.51865,2.65179 -3.91398,3.82794c-1.01032,0.85162 -2.50539,1.17206 -3.25808,2.25809c-0.68462,0.9878 -1.22073,2.08502 -2,3c-0.96792,1.13649 -2.02408,2.71223 -3.32769,3.36666c-0.11392,1.31437 -4.15432,6.6299 -4.70596,7.28012c-0.08114,0.09565 0.3883,-0.20063 0.36837,-0.0768c-0.21846,1.35689 -0.62045,2.67908 -1,4c-0.60075,2.09077 -2.64471,7.77197 -3.36837,9.0768c-0.45727,0.82449 -1.43662,1.24403 -2,2c-0.17656,0.23692 -0.1552,1.88182 -0.13313,2.42836c0.09413,2.33144 0,4.66667 0,7c0,5.33334 0,10.66666 0,16c0,1.66678 -0.43723,3.35392 -0.16141,4.99772c0.41651,2.48226 1.02965,4.95833 1.06775,7.47499c-0.9325,1.2094 1.93714,2.3839 2.6659,3.72595c0.55781,1.02723 3.63741,10.31311 3.7863,10.84849c1.15304,4.14615 6.66089,7.84645 9.28198,11.64396c0.62034,0.89876 0.56719,2.16877 1.23045,3.03635c0.33763,0.44165 1.10719,0.27482 1.55389,0.60576c3.0887,2.28828 5.79896,5.12882 9.05,7.29367c3.13942,2.09052 6.51172,3.81038 9.7095,5.81047c1.51989,0.95063 2.70403,2.47565 4.37256,3.1312c2.51262,0.98719 6.75144,0.2568 8.26398,2.67118c2.4848,-0.2183 4.80858,1.0114 7.20639,1.35391c3.97885,0.56835 7.58806,0.80761 11.49187,0.88041c4.47516,-2.17352 8.20305,-1.19491 10.86758,0.40695c0.75278,-0.02035 1.46637,-0.0854 2.11098,-0.21961c11.06059,-2.30291 21.1227,-5.17818 31.70281,-9.39872c1.59097,-0.53303 3.3223,-0.71109 4.80758,-1.49163c1.20401,-0.63273 2.16179,-1.72395 3.43497,-2.20249c0.58304,-0.21913 1.33039,0.54744 1.85632,0.21373c0.4675,-0.29664 -0.02188,-1.22194 0.36177,-1.62114c1.11531,-1.16052 2.66713,-1.81006 3.91398,-2.82794c0.09969,-0.08139 2.74778,-1.97841 4.24477,-3.01493c0.0677,-0.87361 1.80251,-6.21484 1.82155,-6.27114c1.29717,-3.83567 1.73024,-5.5476 4.04717,-9.32124c0.15984,-0.26033 0.78927,-0.04837 0.84772,-0.34821c0.25514,-1.3087 -0.39285,-2.72585 0,-4c0.52001,-1.68657 1.65178,-3.11677 2.58345,-4.62146c-0.55696,-3.37947 -0.02407,-6.5615 1.0416,-9.75852c-0.23972,-4.45216 -0.69404,-9.60242 0,-14c0.35362,-2.24063 1.61097,-4.27951 1.93225,-6.52501c0.35185,-2.45919 0.58033,-7.0269 0.06775,-9.47043c-0.73254,-3.49214 -1.98876,-7.33451 -1.16141,-11.00228c0.00153,-0.0068 0.00347,-0.01273 0.00576,-0.01783c-0.67318,-0.96351 -1.04327,-2.16365 -1.28751,-3.33394c0.01414,0.14043 0.00624,0.24133 -0.05709,0.19061c-1.05648,-0.84611 -2.00516,-1.83923 -2.82794,-2.91397c-2.64681,-3.45733 -3.31746,-6.77774 -5.73385,-9.99111c-1.55794,-2.47186 -3.99366,-4.28224 -5.7399,-6.62487c-0.65267,-0.87557 -0.56719,-2.16877 -1.23045,-3.03635c-0.33764,-0.44165 -1.11309,-0.267 -1.55388,-0.60576c-3.09056,-2.3752 -5.99555,-5.50069 -9,-8c-0.31246,-0.25992 -0.29181,-0.83568 -0.64678,-1.03364c-0.92062,-0.51339 -2.12648,-0.41003 -3,-1c-1.6977,-1.14662 -2.60484,-3.38878 -4.48528,-4.20171c-1.20748,-0.522 -2.6474,0.1212 -3.94536,-0.09284c-1.04004,-0.17151 -1.96044,-0.82556 -3,-1c-1.6438,-0.27582 -3.33094,0.16141 -4.99772,0.16141c-5.33984,0 -10.66512,0.01081 -16.00228,-0.16141c-1,-0.33334 -2.00015,-0.66621 -3,-1c-0.99848,-0.33334 -1.95144,0.86531 -2.99544,1c-5.13357,0.6623 -10.81352,0.16141 -16.00228,0.16141h-2c0,0 -4.62833,0 -8.25235,-2.81631z" fill="#000000" stroke="none" stroke-width="0.5" stroke-linecap="butt"/><g stroke-width="10.5"><path d="M336.57466,107.9445c0,0 8.00791,-6.22891 14.89864,-4.29471c13.24083,3.71666 58.84182,24.99342 58.84182,24.99342c0,0 5.26544,2.14837 3.23427,9.38456c-0.98345,3.5036 1.79662,13.95138 -0.54702,21.37181c-4.33528,13.72645 -6.15586,-1.75637 -13.02177,16.10174c-3.5351,9.19469 -8.68299,36.96714 -15.87176,51.38713c-4.76303,9.55419 -12.1264,5.63511 -14.37104,13.98386c-0.977,3.63393 10.22672,5.58677 9.31538,8.71763c-4.74613,16.30515 -8.77818,21.69876 -8.77818,21.69876c0,0 -5.72699,10.12942 -9.09822,9.18312c-2.6548,-0.74519 -8.40911,-1.68882 -15.45889,-2.98474c-12.24397,-2.25078 -28.39563,-5.56429 -39.00388,-10.74682c-7.92239,-3.87037 -10.1795,-16.15028 -10.1795,-16.15028c0,0 -2.89936,-12.90072 -0.10616,-22.85166c0.91843,-3.27197 -1.58542,-7.35911 0.84805,-14.88894c4.87761,-15.09266 16.08796,-37.96872 19.92831,-53.49964c0.32699,-1.3224 13.26021,-5.842 13.48725,-6.98828c1.30324,-6.57953 -7.64237,-4.47251 -10.89784,-7.60691c-2.5808,-2.48485 0.20801,-10.12237 1.84255,-14.86225c4.96048,-14.38463 14.93793,-21.94781 14.93793,-21.94781z" fill="#e06446" stroke="#a02222" stroke-linecap="butt"/><path d="M355.44079,166.46404l-1.70986,7.83373" fill="none" stroke="#d64a42" stroke-linecap="round"/><path d="M352.6973,230.24725l-1.69394,11.26148" fill="none" stroke="#d64a42" stroke-linecap="round"/><path d="M389.67843,143.79778l-4.88312,6.94301" fill="none" stroke="#d64a42" stroke-linecap="round"/><path d="M359.0354,132.75119l-2.61651,7.57924" fill="none" stroke="#d64a42" stroke-linecap="round"/><path d="M332.67136,179.63434l-2.10752,5.76595" fill="none" stroke="#d64a42" stroke-linecap="round"/><path d="M324.47207,238.46285l2.95851,-3.57092" fill="none" stroke="#d64a42" stroke-linecap="round"/><path d="M365.37428,202.50707l-0.07158,-1.48721" fill="none" stroke="#d64a42" stroke-linecap="round"/><path d="M358.03387,251.30681l-2.88692,5.05813" fill="none" stroke="#d64a42" stroke-linecap="round"/><path d="M382.34604,208.24907l-6.90314,17.62392" fill="none" stroke="#a02222" stroke-linecap="round"/><path d="M388.4936,181.1213l4.48546,-9.01079" fill="none" stroke="#a02222" stroke-linecap="round"/><path d="M311.58008,205.99073l4.03214,-9.13803" fill="none" stroke="#a02222" stroke-linecap="round"/><path d="M350.73243,127.48633l3.10957,-12.82028" fill="none" stroke="#a02222" stroke-linecap="round"/><path d="M340.75997,264.06353l-2.529,12.4942" fill="none" stroke="#a02222" stroke-linecap="round"/><path d="M371.41841,167.03658l-1.20088,6.02044" fill="none" stroke="#a02222" stroke-linecap="round"/><path d="M331.66945,214.56399l1.32812,-6.47376" fill="none" stroke="#a02222" stroke-linecap="round"/><path d="M377.13646,130.98553l-0.15909,-6.40218" fill="none" stroke="#a02222" stroke-linecap="round"/></g><text transform="translate(94.51432,42.22654) scale(0.95573,0.95573)" font-size="40" xml:space="preserve" fill="#000000" fill-rule="nonzero" stroke="#000000" stroke-width="2" stroke-linecap="butt" stroke-linejoin="miter" stroke-miterlimit="10" stroke-dasharray="" stroke-dashoffset="0" font-family="Sans Serif" font-weight="normal" text-anchor="start" style="mix-blend-mode: normal"><tspan x="0" dy="0">throw bricks at </tspan><tspan x="0" dy="48px"> </tspan></text><text transform="translate(24.37492,85.69529) scale(0.97503,0.97503)" font-size="40" xml:space="preserve" fill="#000000" fill-rule="nonzero" stroke="#000000" stroke-width="2" stroke-linecap="butt" stroke-linejoin="miter" stroke-miterlimit="10" stroke-dasharray="" stroke-dashoffset="0" font-family="Sans Serif" font-weight="normal" text-anchor="start" style="mix-blend-mode: normal"><tspan x="0" dy="0">pedestrians simulator</tspan></text></g></g></svg>