<svg version="1.1" xmlns="http://www.w3.org/2000/svg" xmlns:xlink="http://www.w3.org/1999/xlink" width="26.43541" height="49.09679" viewBox="0,0,26.43541,49.09679"><g transform="translate(-231.55797,-145.90611)"><g data-paper-data="{&quot;isPaintingLayer&quot;:true}" fill-rule="nonzero" stroke="none" stroke-linecap="butt" stroke-linejoin="miter" stroke-miterlimit="10" stroke-dasharray="" stroke-dashoffset="0" style="mix-blend-mode: normal"><path d="M233.62057,195.00286c-2.24573,-0.01368 -1.9632,-2.57535 -1.9632,-2.57535l0.29393,-1.61943c1.06349,-2.60328 1.09198,-4.66987 1.79358,-7.32817c0.89958,-3.40842 2.19308,-7.12666 3.64305,-10.43581c-3.75398,-2.83674 -6.5282,-7.58998 -5.67475,-12.64802c0.96836,-5.73904 6.82451,-12.68844 12.25716,-13.62898l1.77535,-0.86098c2.99998,0.75169 6.83463,1.37337 9.09183,3.84439c1.39193,1.5238 1.63617,4.06991 2.05811,6.2828c0.2352,1.23351 0.81,2.33025 0.9801,3.58565c0.75754,5.59116 -2.24926,8.6624 -5.9586,12.12443c-2.3718,2.16161 -5.22088,4.26212 -8.28884,3.94083c-0.77594,-0.08127 -1.56608,-0.26298 -2.35193,-0.53389c-2.34513,5.64766 -2.98481,11.64345 -5.24275,17.30385l0.11525,0.0007c0,0 -0.28252,2.56167 -2.52825,2.54798zM251.26013,153.4258c-0.05065,0.07959 -0.10593,0.16012 -0.16612,0.24154c-1.5352,2.07657 -3.19841,0.57649 -3.19841,0.57649c-0.13834,-0.12743 -2.34588,-2.4949 -3.23508,-2.46053c-0.09999,0.00386 -0.20064,0.01185 -0.30182,0.0238c-0.17217,0.11849 -0.8612,0.55369 -1.60153,0.4836c-2.99921,1.40995 -6.01466,5.45559 -6.60149,8.48183c-0.94137,4.85457 4.79511,9.27721 8.34241,9.80215c1.70799,0.25275 3.56765,-1.44089 4.80056,-2.62645c2.09045,-1.94551 4.73839,-3.64086 4.10367,-6.94472c-0.22501,-1.17125 -0.73068,-2.22408 -0.95019,-3.39737c-0.34472,-1.84263 0.30961,-2.75283 -0.93513,-3.94915c-0.08299,-0.07976 -0.16868,-0.15677 -0.25686,-0.23116z" fill="#000000" stroke-width="0.5"/><path d="M251.29181,153.38713c0.08818,0.07439 0.17522,0.15254 0.25821,0.23231c1.24474,1.19632 0.60286,2.12329 0.94758,3.96591c0.21951,1.17329 0.7297,2.24709 0.95471,3.41834c0.63473,3.30387 -2.03736,5.04183 -4.1278,6.98734c-1.23291,1.18556 -3.12148,2.88632 -4.82947,2.63357c-3.5473,-0.52494 -9.33073,-4.99862 -8.38935,-9.85319c0.58683,-3.02625 3.63933,-7.11905 6.63854,-8.529c0.74033,0.07009 1.43837,-0.36666 1.61053,-0.48515c0.10118,-0.01196 0.20347,-0.02005 0.30346,-0.02391c0.8892,-0.03437 3.11831,2.33691 3.25665,2.46434c0,0 1.67569,1.50759 3.21089,-0.56897c0.0602,-0.08142 0.05205,-0.08464 0.1027,-0.16423z" data-paper-data="{&quot;noHover&quot;:false,&quot;origItem&quot;:[&quot;Path&quot;,{&quot;applyMatrix&quot;:true,&quot;segments&quot;:[[[232.43682,149.08233],[0,0],[-0.01721,0.09276]],[[232.37308,149.36847],[0.02538,-0.09802],[-0.64723,2.50001]],[[229.62234,151.09924],[0,0],[-0.17596,-0.06645]],[[225.70183,150.02707],[0.81183,-0.36441],[-0.09129,0.04097]],[[225.43081,150.16202],[0.08937,-0.04893],[-0.11536,0.17428]],[[224.12634,151.20946],[0.71282,-0.21186],[-2.25431,2.42926]],[[221.17581,161.54462],[-0.58748,-3.02612],[0.9424,4.85437]],[[232.57862,167.51571],[-3.48622,0.83974],[1.67858,-0.40433]],[[236.04864,163.28456],[-0.70009,1.56061],[1.2112,-2.58611]],[[237.25742,155.30909],[1.82422,2.82677],[-0.6467,-1.00212]],[[235.10566,152.51357],[0.64236,1.00607],[-1.0088,-1.58001]],[[232.76152,149.20068],[1.60181,0.64402],[-0.1068,-0.04294]],[[232.43685,149.08235],[0.1096,0.03602],[0,0]]],&quot;closed&quot;:true,&quot;fillColor&quot;:[0,0,0],&quot;strokeWidth&quot;:0.5}]}" fill="#ffffff" stroke-width="0.25"/></g></g></svg>