<svg version="1.1" xmlns="http://www.w3.org/2000/svg" xmlns:xlink="http://www.w3.org/1999/xlink" width="75.61557" height="94.57538" viewBox="0,0,75.61557,94.57538"><g transform="translate(-200.6,-139.18131)"><g data-paper-data="{&quot;isPaintingLayer&quot;:true}" fill-rule="nonzero" stroke="none" stroke-width="0.5" stroke-linecap="butt" stroke-linejoin="miter" stroke-miterlimit="10" stroke-dasharray="" stroke-dashoffset="0" style="mix-blend-mode: normal"><path d="M246.47084,162.05951c-2.60206,0.98177 -4.11862,0.20155 -5.16418,-1.20388c-0.33397,1.59687 -0.76659,3.06025 -1.2103,4.21982c-1.66271,2.29746 -2.01125,3.17572 -4.35176,4.84623c-0.82111,0.58605 -1.76586,1.08859 -2.78616,1.49166c1.27562,4.71483 3.2904,9.25473 4.72987,13.92911c1.56028,5.06666 2.86464,10.0614 5.24775,14.82082l0.0844,0.18926c2.72871,0.89428 5.48559,1.31812 8.18759,2.13114c3.52148,1.05959 6.9957,3.39508 10.15163,5.23819c2.87464,1.67884 5.49147,4.03175 8.26641,5.68081c0.53022,0.3151 0.6041,-1.103 0.70219,-1.71193l1.13564,-2.32746c0,0 1.11804,-2.23607 3.35411,-1.11803c2.23607,1.11803 1.11803,3.3541 1.11803,3.3541l-0.86436,1.67254c-1.32565,3.24219 -1.18291,5.23222 -6.0978,5.08807c-1.89583,-0.0556 -6.1629,-3.88976 -7.84069,-4.98535c-3.30487,-2.15807 -7.52438,-4.98615 -11.34127,-6.09566c-1.52203,-0.44243 -3.05969,-0.78325 -4.59925,-1.153c1.55077,5.38435 4.91821,10.00476 7.52306,14.99759c0.93527,1.79266 2.61528,4.23638 3.24629,6.27072c0.40449,-0.46808 0.93174,-0.83941 1.37019,-1.28073l0.98101,-0.71235c0,0 2.08013,-1.38675 3.46688,0.69337c1.38675,2.08013 -0.69338,3.46688 -0.69338,3.46688l-0.21898,0.08764c-1.42756,1.4196 -4.08254,4.47465 -6.31658,4.07125c-2.28104,-0.41189 -4.21303,-6.29067 -5.10548,-8.1582c-3.3415,-6.99238 -8.19903,-12.96543 -9.67189,-20.66792c-0.37853,-0.39297 -0.55835,-0.79754 -0.55835,-0.79754l-0.75154,-1.69731c-2.50307,-5.01285 -3.91272,-10.24604 -5.55226,-15.57917c-1.47995,-4.81404 -3.50626,-9.47239 -4.82783,-14.32219c-2.8629,0.18473 -5.75307,-0.40862 -7.90592,-2.03343c-2.15332,-1.62516 -3.69176,-5.05871 -4.22306,-7.81425c-1.67797,-1.70204 -4.33127,-4.23415 -6.13454,-4.2719c-1.66537,-0.03485 -2.22511,2.86034 -2.53958,3.86584c-1.13067,3.61524 -1.68074,5.82716 -1.68074,9.63706v2.6c0,0 0,2.5 -2.5,2.5l0.00001,0.00001c-2.5,0 -2.5,-2.5 -2.5,-2.5v-2.6c0,-5.59787 1.20176,-18.0459 8.97968,-18.49711c2.19456,-0.12731 4.53848,1.19795 6.62166,2.83042c1.73097,-6.59603 7.83147,-11.63401 14.72054,-12.22697c0,0 0.95422,-0.06816 1.72427,0.47012l1.3513,0.09016c1.88799,0.74994 3.39697,1.16036 4.75071,2.28651c2.01886,-1.49785 4.08965,-2.92554 6.14486,-4.41963l0.08042,-0.01812l-0.01562,-0.02454l2.16848,-1.37994c0.39421,-0.25975 0.86631,-0.41091 1.37371,-0.41091c1.38071,0 2.5,1.11929 2.5,2.5c0,0.41989 -0.10352,0.81561 -0.28642,1.16302l-1.37751,2.75502l-0.04645,-0.02322c-0.03231,0.09431 -0.06644,0.18813 -0.10252,0.28142c-0.21709,0.56128 -0.53925,1.09928 -0.93599,1.61246l1.02981,-0.07922c0.07219,-0.00627 0.14526,-0.00947 0.21907,-0.00947c1.38071,0 2.5,1.11929 2.5,2.5c0,0.71066 -0.29652,1.35207 -0.7726,1.80724l1.20848,0.40283c1.02156,0.31417 1.76412,1.26534 1.76412,2.38994c0,1.27327 -0.95187,2.32422 -2.18283,2.48007l-2.11614,0.30231c-0.26973,1.37386 -1.295,2.5902 -3.43019,3.39582zM236.06601,155.13522c-0.67505,0.19547 -1.56688,0.16165 -2.41586,-0.77222c-1.68168,-1.84985 0.16817,-3.53153 0.16817,-3.53153c0.26402,-0.23982 0.53018,-0.47602 0.79828,-0.70897c-0.81845,-0.40119 -1.74434,-0.66151 -2.41406,-0.9078l-0.70255,0.16664c0,0 -0.61263,0 -1.23135,-0.30327l0.00001,-0.00001c-5.30512,0.81523 -9.7298,5.82423 -9.54026,11.35629c0.31712,0.44993 0.76436,1.32315 0.37107,2.29609c1.52161,4.90635 7.38063,6.2394 11.75593,3.11051c1.50381,-1.07541 1.77575,-1.69022 2.84824,-3.15376c0.58471,-1.50745 1.1848,-4.24892 1.26416,-6.77635c-0.35941,-0.18288 -0.66869,-0.45011 -0.90178,-0.77562z" fill="#ffffff"/><path d="M231.51424,149.33339l0.70562,-0.16561c1.18815,0.43694 3.20158,0.93055 3.97189,2.16406c1.59367,2.55195 0.55427,8.80349 -0.446,11.38229c-1.07249,1.46354 -1.36309,2.09556 -2.8669,3.17097c-4.3753,3.12889 -10.3012,1.77649 -11.82281,-3.12986c0.39329,-0.97295 -0.0589,-1.85827 -0.37602,-2.3082c-0.18954,-5.53206 4.2911,-10.60318 9.59622,-11.41841c0.61872,0.30327 1.23799,0.30476 1.23799,0.30476z" data-paper-data="{&quot;noHover&quot;:false,&quot;origItem&quot;:[&quot;Path&quot;,{&quot;applyMatrix&quot;:true,&quot;segments&quot;:[[[230.26865,149.07805],[0.61872,0.30327],[-5.30512,0.81523]],[[220.72839,160.43434],[-0.18954,-5.53206],[0.31712,0.44993]],[[221.09946,162.73043],[0.39329,-0.97295],[1.52161,4.90635]],[[232.8554,165.84094],[-4.3753,3.12889],[1.50381,-1.07541]],[[235.70364,162.68718],[-1.07249,1.46354],[1.00027,-2.5788]],[[236.15549,151.36626],[1.59367,2.55195],[-0.77032,-1.23351]],[[232.20255,149.21468],[1.18815,0.43694],[0,0]],[231.5,149.38132]],&quot;closed&quot;:true}]}" fill="#000000"/><path d="M254,141.68131c0,-1.38071 1.11929,-2.5 2.5,-2.5c1.38071,0 2.5,1.11929 2.5,2.5c0,1.38071 -1.11929,2.5 -2.5,2.5c-1.38071,0 -2.5,-1.11929 -2.5,-2.5z" fill="#ffffff"/><path d="M257.2,156.48131c0,-1.38071 1.11929,-2.5 2.5,-2.5c1.38071,0 2.5,1.11929 2.5,2.5c0,1.38071 -1.11929,2.5 -2.5,2.5c-1.38071,0 -2.5,-1.11929 -2.5,-2.5z" fill="#ffffff"/></g></g></svg>