<svg version="1.1" xmlns="http://www.w3.org/2000/svg" xmlns:xlink="http://www.w3.org/1999/xlink" width="31.08146" height="109.38527" viewBox="0,0,31.08146,109.38527"><g transform="translate(-222.02892,-121.82824)"><g data-paper-data="{&quot;isPaintingLayer&quot;:true}" fill-rule="nonzero" stroke="none" stroke-linecap="butt" stroke-linejoin="miter" stroke-miterlimit="10" stroke-dasharray="" stroke-dashoffset="0" style="mix-blend-mode: normal"><path d="M238.1026,143.38806c-0.28154,0.07512 -0.48028,0.08837 -0.48028,0.08837c-1.574,0.09447 -4.69084,0.10255 -5.97316,1.39643c-2.83157,2.8571 -2.72102,6.44147 -2.41508,10.16171c0.11462,1.39377 -0.06879,2.88267 1.02175,3.96492c1.53777,1.52609 4.07778,1.83838 6.05193,2.28041c4.01784,0.89962 5.9778,0.39539 8.42793,-3.02478c3.19575,-5.46551 -0.11837,-11.03717 -4.55844,-14.4347l-1.96794,-0.40248c0,0 -0.03928,-0.00907 -0.10671,-0.02988zM238.07257,138.56299c0.66823,-0.15381 1.26104,-0.01701 1.26104,-0.01701l2.91797,0.72503c7.34419,5.17746 11.10002,13.10576 6.71673,21.64584c-1.54067,2.09689 -2.04976,3.22153 -4.43061,4.58901c-4.72574,2.71431 -14.18959,0.96038 -17.92175,-3.07835c-2.17076,-2.34908 -2.05192,-3.9307 -2.3608,-6.9344c-0.51953,-5.05218 -0.05894,-10.57339 3.97418,-14.26783c2.38658,-2.18616 6.05113,-2.52088 9.0604,-2.7378c0,0 0.34287,-0.02285 0.78284,0.0755z" fill="#003c20" stroke-width="0.5"/><path d="M238.21295,143.36807l1.97877,0.40449c4.44007,3.39753 7.77884,9.0482 4.58309,14.51371c-2.45013,3.42017 -4.45621,3.94276 -8.47405,3.04314c-1.97415,-0.44203 -4.54455,-0.77064 -6.08232,-2.29673c-1.09054,-1.08225 -0.91761,-2.58991 -1.03223,-3.98368c-0.30594,-3.72024 -0.39912,-7.35865 2.43245,-10.21575c1.28232,-1.29388 4.43009,-1.31234 6.00409,-1.40681c0,0 0.20136,-0.01316 0.4829,-0.08828c0.06743,0.02081 0.1073,0.02992 0.1073,0.02992z" data-paper-data="{&quot;noHover&quot;:false,&quot;origItem&quot;:[&quot;Path&quot;,{&quot;applyMatrix&quot;:true,&quot;segments&quot;:[[[238.10259,143.38806],[0.06743,0.02081],[-0.28154,0.07512]],[[237.62231,143.47643],[0,0],[-1.574,0.09447]],[[231.64915,144.87286],[1.28232,-1.29388],[-2.83157,2.8571]],[[229.23407,155.03457],[-0.30594,-3.72024],[0.11462,1.39377]],[[230.25582,158.99949],[-1.09054,-1.08225],[1.53777,1.52609]],[[236.30775,161.2799],[-1.97415,-0.44203],[4.01784,0.89962]],[[244.73568,158.25512],[-2.45013,3.42017],[3.19575,-5.46551]],[[240.17724,143.82042],[4.44007,3.39753],[0,0]],[238.2093,143.41794]],&quot;closed&quot;:true,&quot;fillColor&quot;:[0.21569,0,0],&quot;strokeWidth&quot;:0.5}]}" fill="#000000" stroke-width="0.25"/><path d="M253.11038,227.39807c0,2.5 -2.5,2.5 -2.5,2.5h-0.93959c-3.39103,-0.15957 -4.61388,0.5322 -6.75611,-3.09342c-0.54394,-0.92059 -0.13759,-2.14405 -0.38204,-3.18501c-0.41093,-1.7499 -0.90741,-3.4864 -1.16248,-5.26571c-0.85319,-5.95159 -2.58009,-11.84292 -4.34292,-17.57985c-0.37994,-0.66404 -0.37994,-1.37601 -0.37994,-1.37601v-0.18792c0.00609,-11.20864 -0.98202,-22.48846 -1.68641,-33.66956c0,0 -0.15595,-2.49513 2.33918,-2.65107c2.49513,-0.15595 2.65108,2.33918 2.65108,2.33918c0.69187,11.16409 1.66857,22.41477 1.69559,33.60737c0.05376,0.12414 0.07791,0.20262 0.07791,0.20262c1.86669,6.06674 3.69884,12.31094 4.59574,18.61157c0.23501,1.65092 0.75529,3.24884 1.09256,4.88194c0.14001,0.67794 -0.14614,1.39878 -0.0062,2.07673c0.1876,0.90884 2.2502,0.29045 2.26403,0.28913h0.93959c0,0 2.5,0 2.5,2.5z" fill="#003c20" stroke-width="0.5"/><path d="M242.58689,228.71351c0,2.5 -2.5,2.5 -2.5,2.5l-1.87759,-0.06402c-1.3336,-0.55824 -3.2107,-0.464 -4.0008,-1.67473c-1.00338,-1.53758 0.70708,-8.05022 0.95599,-9.9134c0.9882,-7.39694 0.31645,-15.36504 2.33067,-22.54136c0,0 0.6868,-2.40381 3.09061,-1.71701c2.40381,0.6868 1.71701,3.09061 1.71701,3.09061c-1.31343,4.50039 -0.59165,8.89631 -1.04524,13.48262c-0.18687,1.88948 -0.75033,3.72896 -0.93764,5.61839c-0.26001,2.62273 -0.18876,6.08272 -0.95449,8.57758c-0.11602,0.378 -0.85639,0.36182 -0.91692,0.75256c-0.0531,0.34278 0.59007,-0.36482 0.88511,-0.54722l0.75329,-0.06402c0,0 2.5,0 2.5,2.5z" fill="#003c20" stroke-width="0.5"/><path d="M233.09172,174.8902c1.09679,0.42205 2.37631,1.1386 3.70281,1.82229c2.40499,-0.39532 4.71614,-0.823 7.4043,-0.46045l0.53635,0.25833c0.08308,-1.19106 -0.63104,-2.67249 -1.71807,-3.72039c-1.56417,-1.50785 -4.31811,-2.06599 -6.27062,-2.81695c0,0 -0.12283,-0.04724 -0.30129,-0.14823c-3.08926,0.6985 -5.93802,2.00321 -6.26099,5.51957c-0.02952,0.32139 -0.17203,0.67941 -0.13175,0.98999zM246.55265,169.25445c1.8692,1.90488 4.17083,7.47437 3.00457,10.19228c-1.01455,2.36435 -4.4932,3.85676 -6.84535,4.02859c-2.21028,0.16146 -4.39699,-0.65165 -6.52154,-1.64077c-2.27348,0.38704 -4.52574,0.62887 -6.6764,-0.17571c-5.65331,-2.11495 -5.54254,-9.33211 -1.66655,-13.20633c2.23177,-2.23075 6.21639,-3.2579 9.14792,-3.83378c0,0 1.77039,-0.33195 2.58745,1.07043c2.44918,0.87077 5.13373,1.69408 6.9699,3.56529z" fill="#003c20" stroke-width="0.5"/><path d="M222.02892,126.97385c-0.00235,-3.59088 4.40462,-4.81391 6.91299,-3.9145c1.05813,0.37941 1.4981,1.67633 2.24715,2.5145l0.47728,1.95819c0,0 0.05812,1.54807 -1.21766,2.10323l0.22423,0.59703c1.37846,3.68341 2.33578,7.29923 2.969,11.17649c0,0 0.35693,2.18554 -1.82861,2.54247c-2.18554,0.35693 -2.54247,-1.82861 -2.54247,-1.82861c-0.58598,-3.58804 -1.45848,-6.92363 -2.74411,-10.33311l-0.16119,-0.42918c-2.04668,-0.60952 -4.33465,-1.3885 -4.33661,-4.38651z" fill="#003c20" stroke-width="0.5"/><path d="M238.23994,124.90144c0.89893,-3.55916 5.57322,-3.66509 7.83327,-2.1442c0.95338,0.64157 1.06388,2.03725 1.59582,3.05588l-0.0185,2.06035c0,0 -0.33094,1.54873 -1.73458,1.77869l0.07237,0.64793c0.44157,3.99624 0.48275,7.81979 0.13713,11.82109c0,0 -0.19483,2.25546 -2.45028,2.06064c-2.25546,-0.19482 -2.06063,-2.45028 -2.06063,-2.45028c0.31984,-3.70282 0.29238,-7.22738 -0.12595,-10.92886l-0.05203,-0.46577c-1.87528,-1.11772 -3.94715,-2.46394 -3.19663,-5.43546z" fill="#003c20" stroke-width="0.5"/></g></g></svg>