<svg version="1.1" xmlns="http://www.w3.org/2000/svg" xmlns:xlink="http://www.w3.org/1999/xlink" width="491.83333" height="374" viewBox="0,0,491.83333,374"><g transform="translate(-2.66667,4)"><g data-paper-data="{&quot;isPaintingLayer&quot;:true}" fill-rule="nonzero" stroke="none" stroke-width="0" stroke-linecap="butt" stroke-linejoin="miter" stroke-miterlimit="10" stroke-dasharray="" stroke-dashoffset="0" style="mix-blend-mode: normal"><path d="M2.66667,67.5v-64h70v64z" fill="#838383"/><g fill="#040404"><path d="M19.13836,29.2279c3.4003,-10.25402 14.46931,-15.81007 24.72334,-12.40977c10.25402,3.4003 15.81007,14.46931 12.40977,24.72334c-3.4003,10.25402 -14.46931,15.81007 -24.72334,12.40977c-10.25402,-3.4003 -15.81007,-14.46931 -12.40977,-24.72334zM35.41045,42.30389c3.82138,1.26719 7.94647,-0.80338 9.21367,-4.62476c1.26719,-3.82138 -0.80338,-7.94647 -4.62476,-9.21367c-3.82138,-1.26719 -7.94647,0.80338 -9.21367,4.62476c-1.26719,3.82138 0.80338,7.94647 4.62476,9.21367z"/><path d="M37.48263,15.9828l4.67734,-6.38503l7.61113,2.5239l-0.29517,7.83819z"/><path d="M23.73579,21.82939l-1.20752,-7.82228l7.16655,-3.59722l5.33372,5.75115z"/><path d="M18.14947,35.68403l-6.38503,-4.67734l2.5239,-7.61113l7.83819,0.29517z"/><path d="M23.99606,49.43087l-7.82228,1.20752l-3.59722,-7.16655l5.75115,-5.33372z"/><path d="M37.8507,55.0172l-4.67734,6.38503l-7.61113,-2.5239l0.29517,-7.83819z"/><path d="M51.59754,49.17061l1.20752,7.82228l-7.16655,3.59722l-5.33372,-5.75115z"/><path d="M57.18386,35.31597l6.38503,4.67734l-2.5239,7.61113l-7.83819,-0.29517z"/><path d="M51.33728,21.56913l7.82228,-1.20752l3.59722,7.16655l-5.75115,5.33372z"/></g><path d="M66.5,370v-374h428v374z" fill="#838383"/></g></g></svg>