<svg version="1.1" xmlns="http://www.w3.org/2000/svg" xmlns:xlink="http://www.w3.org/1999/xlink" width="140.1791" height="83.94767" viewBox="0,0,140.1791,83.94767"><g transform="translate(-172.29298,-144.5098)"><g data-paper-data="{&quot;isPaintingLayer&quot;:true}" fill-rule="nonzero" stroke="none" stroke-linecap="butt" stroke-linejoin="miter" stroke-miterlimit="10" stroke-dasharray="" stroke-dashoffset="0" style="mix-blend-mode: normal"><path d="M259.03264,197.13507c3.21479,-3.92142 2.49083,-10.98049 -2.75006,-12.81155c-0.30568,-0.1068 -0.61106,-0.15446 -0.91488,-0.15918c0.1025,0.16828 0.1953,0.33483 0.27769,0.499c0.34717,0.6917 0.35275,1.46866 0.10805,2.15309c0.65945,1.07301 1.14995,2.22326 1.41914,3.4353c0.32508,1.4637 0.16321,2.99427 0.24482,4.4914c-0.20665,1.77334 -0.21545,2.93505 -0.47108,4.01324c0.93221,-0.5559 1.66438,-1.10661 2.08633,-1.6213zM255.70678,179.22763c5.92882,0.36912 10.84495,7.03617 10.47174,12.83669c-0.6683,10.38686 -11.52751,13.55007 -19.85593,15.78023c-0.99468,0.26635 -3.79155,0.84015 -6.26459,1.06033c-2.329,1.38109 -4.29652,3.17529 -5.37601,5.34789c-0.20505,-0.41187 -0.40724,-0.82615 -0.60566,-1.24167c-1.40581,2.46763 -3.00851,4.82653 -4.79808,7.14237c-1.83956,2.38053 -2.9487,4.78924 -5.05634,6.9882l0.11232,-0.11529c0,0 -1.11803,2.23607 -3.35411,1.11804c-2.23607,-1.11803 -1.11803,-3.35411 -1.11803,-3.35411l0.64195,-0.99704c2.11686,-2.09214 3.04383,-4.38081 4.83318,-6.71687c2.48067,-3.23861 4.59648,-6.53867 6.26664,-10.16454c-0.00445,-0.03616 -0.00846,-0.07359 -0.01186,-0.11217c-7.06107,-4.16915 -12.37109,-8.47376 -12.88413,-17.5786c-0.24682,-4.3802 -0.48416,-5.75616 2.1224,-8.36272c2.88682,-2.88682 8.31064,-1.65851 11.79914,-2.21768c2.15847,-0.34598 4.49852,-1.31172 6.70346,-0.85236c0.69668,0.14514 1.14257,0.21827 1.47264,0.4274c0.7439,-0.64027 1.65708,-0.96015 2.66368,-1.02983h0.00002c2.2519,-0.15587 4.97136,0.94046 7.30907,2.50309c1.78858,-0.47099 4.02774,-0.51745 4.92851,-0.46137zM226.3329,184.03834c-0.50777,0.0378 -2.74558,0.4256 -2.75,1.15343c-0.0059,0.97125 -0.0157,1.94267 0,2.91381c0.09837,6.08534 2.76148,8.83766 6.56147,11.52575c-2.09515,-4.66979 -1.55669,-11.87894 1.44736,-16.23258c-1.76097,0.23161 -3.54284,0.51185 -5.25883,0.6396zM244.25467,183.91294c-0.58229,1.84758 -2.65217,1.60406 -2.65217,1.60406c-1.51229,-0.17834 -3.06352,-1.03712 -4.52669,-0.61527c-1.08435,0.31262 -1.93924,2.33597 -2.19376,3.1114c-0.91327,2.78241 -1.8621,8.5179 0.60308,10.77671c3.53181,3.23615 12.26954,4.1721 15.62508,0.32991c1.41684,-1.62232 1.12562,-2.43822 1.30946,-4.5252c-0.1591,-4.88873 -3.51337,-9.27179 -8.16498,-10.6816z" fill="#000000" stroke-width="0.5"/><path d="M244.26078,183.86332c4.65161,1.40981 8.04884,5.85216 8.20794,10.74089c-0.18384,2.08698 0.09738,2.92443 -1.31946,4.54675c-3.35554,3.84219 -12.17169,2.90586 -15.7035,-0.33029c-2.46518,-2.25881 -1.52035,-8.05004 -0.60708,-10.83245c0.25452,-0.77543 1.12216,-2.81342 2.20651,-3.12604c1.46317,-0.42185 3.03446,0.42759 4.54675,0.60593c0,0 2.08651,0.24277 2.6688,-1.60481z" data-paper-data="{&quot;noHover&quot;:false,&quot;origItem&quot;:[&quot;Path&quot;,{&quot;applyMatrix&quot;:true,&quot;segments&quot;:[[[244.25467,183.91294],[0,0],[-0.58229,1.84758]],[[241.6025,185.517],[0,0],[-1.51229,-0.17834]],[[237.07581,184.90173],[1.46317,-0.42185],[-1.08435,0.31262]],[[234.88205,188.01313],[0.25452,-0.77543],[-0.91327,2.78241]],[[235.48513,198.78984],[-2.46518,-2.25881],[3.53181,3.23615]],[[251.11021,199.11975],[-3.35554,3.84219],[1.41684,-1.62232]],[[252.41967,194.59455],[-0.18384,2.08698],[-0.1591,-4.88873]],[[244.25469,183.91295],[4.65161,1.40981],[0,0]]],&quot;closed&quot;:true,&quot;fillColor&quot;:[0,0,0],&quot;strokeWidth&quot;:0.5}]}" fill="#ffffff" stroke-width="0.25"/><text transform="translate(172.94907,163.53659) scale(0.4374,0.4374)" font-size="40" xml:space="preserve" fill="#bbbbbb" fill-rule="nonzero" stroke="none" stroke-width="1" stroke-linecap="butt" stroke-linejoin="miter" stroke-miterlimit="10" stroke-dasharray="" stroke-dashoffset="0" font-family="Sans Serif" font-weight="normal" text-anchor="start" style="mix-blend-mode: normal"><tspan x="0" dy="0">You are ducking.</tspan></text></g></g></svg>