<svg version="1.1" xmlns="http://www.w3.org/2000/svg" xmlns:xlink="http://www.w3.org/1999/xlink" width="119.95801" height="31.72491" viewBox="0,0,119.95801,31.72491"><g transform="translate(-153.75815,-199.08917)"><g data-paper-data="{&quot;isPaintingLayer&quot;:true}" fill-rule="nonzero" stroke="none" stroke-linecap="butt" stroke-linejoin="miter" stroke-miterlimit="10" stroke-dasharray="" stroke-dashoffset="0" style="mix-blend-mode: normal"><path d="M197.81616,223.31408c0,-2.48528 16.25206,-4.5 36.3,-4.5c20.04794,0 36.3,2.01472 36.3,4.5c0,2.48528 -16.25206,4.5 -36.3,4.5c-20.04794,0 -36.3,-2.01472 -36.3,-4.5z" data-paper-data="{&quot;index&quot;:null}" fill="#000000" stroke-width="0"/><path d="M237.21616,228.11408c0,-1.49117 5.86507,-2.7 13.1,-2.7c7.23493,0 13.1,1.20883 13.1,2.7c0,1.49117 -5.86507,2.7 -13.1,2.7c-7.23493,0 -13.1,-1.20883 -13.1,-2.7z" data-paper-data="{&quot;index&quot;:null}" fill="#000000" stroke-width="0"/><path d="M193.01616,223.01408c2.43005,0 4.4,0.53726 4.4,1.2c0,0.66274 -1.96995,1.2 -4.4,1.2c-2.43005,0 -4.4,-0.53726 -4.4,-1.2c0,-0.66274 1.96995,-1.2 4.4,-1.2z" data-paper-data="{&quot;index&quot;:null}" fill="#000000" stroke-width="0"/><path d="M249.1801,214.9321c-1.11804,-2.23607 1.11803,-3.3541 1.11803,-3.3541l2.88018,-0.79991c2.89073,0.6814 4.55303,1.36883 6.10661,2.60382l0.19092,-0.32728l2.35903,1.3761c0.76447,0.42763 1.28129,1.24513 1.28129,2.18334c0,0.91789 -0.49467,1.72025 -1.23198,2.15502c2.61879,0.16248 5.52383,0.94855 7.73198,0.94498h1.6c0,0 2.5,0 2.5,2.5c0,2.5 -2.5,2.5 -2.5,2.5h-1.6c-3.17736,-0.00462 -6.22662,-0.34445 -9.36685,-0.82706c-0.99872,-0.1535 -2.12584,0.0307 -2.99138,-0.4907c-0.11126,-0.06702 -0.22094,-0.13621 -0.32919,-0.20738l-0.0306,0.06121l-3.15156,-1.57578c-0.06893,-0.03268 -0.13612,-0.06841 -0.20141,-0.10703c-7.45145,0.48014 -14.97927,-0.13589 -22.44684,0.05494c-0.39137,0.51726 -0.88504,0.78654 -0.88504,0.78654c-6.30551,3.29075 -13.58045,0.95465 -20.31349,0.08516c-1.20167,-0.15518 -2.407,-0.2854 -3.61468,-0.38334c-0.62981,-0.05107 -1.26681,-0.13536 -1.89458,-0.06344c-0.48559,0.05564 -1.65442,0.21724 -1.34126,0.5925c0.16708,0.2002 0.44521,0.29756 0.70132,0.34659c2.72606,0.52192 5.51008,0.32779 8.26556,0.32779h0.4c0,0 2.5,0 2.5,2.5c0,2.5 -2.5,2.5 -2.5,2.5h-0.4c-3.06612,0 -7.80305,0.66312 -10.53444,-0.87221c-3.94312,-2.21645 -3.99441,-5.6928 -1.85514,-8.06461c-0.49247,-0.17524 -0.9457,-0.38696 -1.3414,-0.64694c-1.0649,-0.69967 -1.64338,-1.94769 -2.46507,-2.92153c-1.16373,-3.46868 -1.9097,-6.75418 0.0066,-10.20147c2.70914,-4.87354 10.96627,-8.77852 16.06611,-5.01054c2.69445,1.99078 3.26965,5.18688 3.39275,8.24401c2.63414,-1.88703 5.57209,-3.17181 9.02957,-2.227c4.33531,1.18469 6.95851,5.86004 6.0391,10.05467c7.67475,-0.20802 15.40252,0.4289 23.0615,-0.10229c0.08521,-0.13252 0.17995,-0.25172 0.27692,-0.35758c-0.49957,-0.2164 -1.04026,-0.42403 -1.63865,-0.55853l0.48018,0.40009c0,0 -2.23607,1.11804 -3.3541,-1.11803zM223.52407,217.13121c0.39857,-0.0464 0.79739,-0.08887 1.19643,-0.12769c0.13317,-0.13743 0.25205,-0.29609 0.35391,-0.47895c1.07398,-1.92806 0.06323,-4.53241 -2.15721,-5.11018c-2.10262,-0.54712 -3.87789,0.73139 -5.33929,1.95187c0,0 -1.072,0.85759 -2.26273,0.50739c-1.07941,0.29146 -2.08576,-0.37944 -2.08576,-0.37944l-2.91325,-3.28013c0.01817,-1.6947 0.20197,-4.34811 -1.37665,-5.5827c-0.75364,-0.5894 -2.68384,-0.26118 -3.31037,-0.15165c-4.69184,0.82022 -6.87518,4.50766 -5.41693,8.93963c1.14363,1.67821 3.25848,1.57972 5.2429,1.93355c4.76579,0.84975 9.36113,2.19948 14.23448,2.36224c0.66835,0.02232 1.4909,0.12398 2.30385,0.1273c0.65057,-0.60772 1.53061,-0.71125 1.53061,-0.71125z" data-paper-data="{&quot;index&quot;:null}" fill="#000426" stroke-width="0.5"/><path d="M223.56774,217.15553c0,0 -0.88322,0.10852 -1.53379,0.71624c-0.81295,-0.00332 -1.63961,-0.10001 -2.30796,-0.12233c-4.87335,-0.16276 -9.54801,-1.52115 -14.3138,-2.3709c-1.98442,-0.35383 -4.10547,-0.27167 -5.2491,-1.94988c-1.45825,-4.43197 0.73779,-8.16296 5.42963,-8.98318c0.62653,-0.10953 2.56826,-0.44686 3.3219,0.14254c1.57862,1.23459 1.46666,3.9486 1.44849,5.6433l2.85443,3.21432c0,0 0.98371,0.6833 2.06312,0.39184c1.19073,0.3502 2.25192,-0.49232 2.25192,-0.49232c1.4614,-1.22048 3.33197,-2.4762 5.43459,-1.92908c2.22044,0.57777 3.227,3.20052 2.15302,5.12858c-0.10186,0.18286 -0.22165,0.34348 -0.35482,0.48091c-0.39904,0.03882 -0.79906,0.08357 -1.19763,0.12997z" data-paper-data="{&quot;noHover&quot;:false,&quot;origItem&quot;:[&quot;Path&quot;,{&quot;applyMatrix&quot;:true,&quot;segments&quot;:[[[223.52407,217.13121],[0,0],[0.39857,-0.0464]],[[224.7205,217.00352],[-0.39904,0.03882],[0.13317,-0.13743]],[[225.07441,216.52457],[-0.10186,0.18286],[1.07398,-1.92806]],[[222.9172,211.41439],[2.22044,0.57777],[-2.10262,-0.54712]],[[217.57791,213.36626],[1.4614,-1.22048],[0,0]],[[215.31518,213.87365],[1.19073,0.3502],[-1.07941,0.29146]],[213.22942,213.49421],[[210.31617,210.21408],[0,0],[0.01817,-1.6947]],[[208.93952,204.63138],[1.57862,1.23459],[-0.75364,-0.5894]],[[205.62915,204.47973],[0.62653,-0.10953],[-4.69184,0.82022]],[[200.21222,213.41936],[-1.45825,-4.43197],[1.14363,1.67821]],[[205.45511,215.35291],[-1.98442,-0.35383],[4.76579,0.84975]],[[219.68959,217.71515],[-4.87335,-0.16276],[0.66835,0.02232]],[[221.99344,217.84245],[-0.81295,-0.00332],[0.65057,-0.60772]],[223.52405,217.1312]],&quot;closed&quot;:true,&quot;fillColor&quot;:[0,0,0,1]}]}" fill="#ffffff" stroke-width="0.5"/><path d="M216.01616,206.41408c1.87777,0 3.4,2.32812 3.4,5.2c0,2.87188 -1.52223,5.2 -3.4,5.2c-1.87777,0 -3.4,-2.32812 -3.4,-5.2c0,-2.87188 1.52223,-5.2 3.4,-5.2z" data-paper-data="{&quot;index&quot;:null}" fill="#000000" stroke-width="0"/><path d="M216.81616,207.71408c0,0.82843 -1.65655,1.5 -3.7,1.5c-2.04345,0 -3.7,-0.67157 -3.7,-1.5c0,-0.82843 1.65655,-1.5 3.7,-1.5c2.04345,0 3.7,0.67157 3.7,1.5z" data-paper-data="{&quot;index&quot;:null}" fill="#000000" stroke-width="0"/><path d="M163.843,207.12728c2.4859,-0.26511 2.75102,2.22079 2.75102,2.22079l0.03166,0.3568c0.06058,1.83033 -0.04986,3.66379 -0.16461,5.49151c-0.07805,1.24296 -0.71791,2.83413 0.14365,3.73346c0.96358,1.00585 2.67325,0.84507 3.89446,1.51509c0.6864,0.37659 1.24118,0.9776 1.9512,1.3075c3.06705,1.42499 5.50006,-0.68142 8.26453,-1.68159c1.43871,-0.52051 3.0792,-0.26542 4.52611,-0.76273c0.65715,-0.22587 -0.11805,-1.39886 -0.34353,-2.05616c-0.82613,-2.40842 -1.41257,-4.86508 -2.20835,-7.28311c0,0 -0.78009,-2.37517 1.59509,-3.15528c2.37517,-0.78009 3.15528,1.59509 3.15528,1.59509c0.80089,2.44311 1.62234,4.95951 2.25946,7.44836c0.29168,1.13941 0.93857,2.30357 0.70751,3.4568c-1.09079,5.44438 -4.11852,4.01873 -7.94843,5.44332c-4.33428,1.61221 -7.2413,3.47161 -12.0282,1.56884c-0.85766,-0.34091 -1.52131,-1.05116 -2.33067,-1.49471c-1.10363,-0.60479 -4.61191,-1.82107 -5.23263,-2.58086c-2.69332,-3.29681 -1.09612,-8.5467 -1.23781,-12.37088l-0.00651,-0.00122c0,0 -0.26511,-2.4859 2.22079,-2.75102z" fill="#4986b7" stroke-width="0.5"/><path d="M184.17285,206.9529c0.2746,-0.03076 0.54941,-0.06082 0.82444,-0.09015c0,0 2.4859,-0.26511 2.75102,2.22079c0.26511,2.4859 -2.22079,2.75102 -2.22079,2.75102c-7.93154,0.84587 -15.7532,2.13566 -23.64366,3.24409c-1.66885,0.23444 -6.05704,1.44762 -7.17174,-0.05266c-2.6439,-3.55846 0.76461,-7.03205 3.46719,-8.13467c1.61678,-0.65963 5.39556,0.02894 6.97298,0.13084c3.80685,0.24592 7.58154,-0.35588 11.37555,-0.52228c1.64482,-0.17624 3.28969,-0.35206 4.93461,-0.52748l0.35803,-0.03818c0,0 1.57635,-0.16811 2.35238,1.01868z" fill="#000000" stroke-width="0.5"/><path d="M169.52934,222.89077c-2.36263,0.8173 -3.17993,-1.54532 -3.17993,-1.54532l-0.90849,-2.82207c-0.09546,-0.89506 -0.19091,-1.79011 -0.28636,-2.68517c0,0 -0.26511,-2.4859 2.22079,-2.75102c2.4859,-0.26511 2.75102,2.22079 2.75102,2.22079c0.09546,0.89506 0.19091,1.79011 0.28636,2.68517l0.66195,1.71769c0,0 0.8173,2.36263 -1.54532,3.17993z" fill="#dfff00" stroke-width="0.5"/><path d="M204.13152,208.36206c0.1036,0.00134 0.21155,0.00784 0.32405,0.01996c2.48558,0.26814 2.21745,2.7537 2.21745,2.7537c-0.38817,3.51095 0.17874,7.09185 -0.76682,10.54625c-0.3527,1.28854 -0.36106,2.84641 -1.30859,3.78817c-0.9585,0.95266 -2.52085,0.99717 -3.83268,1.32178c-3.96759,0.98181 -9.43739,1.11748 -13.47609,0.66303c-1.35894,-0.15292 -2.9866,0.0669 -4.01736,-0.8318c-1.81295,-1.58067 -2.47662,-6.79651 -0.9092,-8.71311c0.98496,-1.2044 2.79385,-1.50721 4.33283,-1.73586c1.03405,-0.15363 2.03006,0.54005 3.07105,0.63583c1.77304,0.16315 3.56191,-0.08091 5.34153,-0.02372c0.34244,-0.01199 1.79101,-0.07008 3.14107,-0.10538c0.01308,-0.02257 0.02595,-0.04537 0.0386,-0.06841c0.67439,-1.22688 -0.14462,-2.81619 0.07134,-4.19945c0.15241,-0.97623 0.61892,-1.87668 0.92838,-2.81504l3.89664,-1.53248c0,0 0.45083,0.04864 0.94778,0.29648z" fill="#313241" stroke-width="0.5"/></g></g></svg>