<svg version="1.1" xmlns="http://www.w3.org/2000/svg" xmlns:xlink="http://www.w3.org/1999/xlink" width="53.63245" height="55.26657" viewBox="0,0,53.63245,55.26657"><defs><radialGradient cx="240.43882" cy="187.6092" r="15.43827" gradientUnits="userSpaceOnUse" id="color-1"><stop offset="0" stop-color="#000000"/><stop offset="1" stop-color="#000000" stop-opacity="0"/></radialGradient><radialGradient cx="238.29462" cy="187.20681" r="15.43827" gradientUnits="userSpaceOnUse" id="color-2"><stop offset="0" stop-color="#000000"/><stop offset="1" stop-color="#000000" stop-opacity="0"/></radialGradient><radialGradient cx="241.29649" cy="188.41397" r="15.43827" gradientUnits="userSpaceOnUse" id="color-3"><stop offset="0" stop-color="#000000"/><stop offset="1" stop-color="#000000" stop-opacity="0"/></radialGradient><radialGradient cx="227.17969" cy="177.35196" r="15.43827" gradientUnits="userSpaceOnUse" id="color-4"><stop offset="0" stop-color="#000000"/><stop offset="1" stop-color="#000000" stop-opacity="0"/></radialGradient><radialGradient cx="226.46714" cy="174.77121" r="15.43827" gradientUnits="userSpaceOnUse" id="color-5"><stop offset="0" stop-color="#000000"/><stop offset="1" stop-color="#000000" stop-opacity="0"/></radialGradient><radialGradient cx="227.1771" cy="178.55142" r="15.43827" gradientUnits="userSpaceOnUse" id="color-6"><stop offset="0" stop-color="#000000"/><stop offset="1" stop-color="#000000" stop-opacity="0"/></radialGradient><radialGradient cx="240.06084" cy="172.54224" r="15.51693" gradientUnits="userSpaceOnUse" id="color-7"><stop offset="0" stop-color="#000000"/><stop offset="1" stop-color="#000000" stop-opacity="0"/></radialGradient><radialGradient cx="240.18494" cy="169.80865" r="15.51693" gradientUnits="userSpaceOnUse" id="color-8"><stop offset="0" stop-color="#000000"/><stop offset="1" stop-color="#000000" stop-opacity="0"/></radialGradient><radialGradient cx="239.40619" cy="173.66049" r="15.51693" gradientUnits="userSpaceOnUse" id="color-9"><stop offset="0" stop-color="#000000"/><stop offset="1" stop-color="#000000" stop-opacity="0"/></radialGradient><radialGradient cx="251.82672" cy="185.37791" r="7.75846" gradientUnits="userSpaceOnUse" id="color-10"><stop offset="0" stop-color="#000000"/><stop offset="1" stop-color="#000000" stop-opacity="0"/></radialGradient><radialGradient cx="252.48116" cy="184.29003" r="7.75846" gradientUnits="userSpaceOnUse" id="color-11"><stop offset="0" stop-color="#000000"/><stop offset="1" stop-color="#000000" stop-opacity="0"/></radialGradient><radialGradient cx="251.30892" cy="185.60805" r="7.75846" gradientUnits="userSpaceOnUse" id="color-12"><stop offset="0" stop-color="#000000"/><stop offset="1" stop-color="#000000" stop-opacity="0"/></radialGradient><radialGradient cx="217.52993" cy="150.36352" r="4.74801" gradientUnits="userSpaceOnUse" id="color-13"><stop offset="0" stop-color="#000000"/><stop offset="1" stop-color="#000000" stop-opacity="0"/></radialGradient><radialGradient cx="240.60124" cy="145.01269" r="1.73871" gradientUnits="userSpaceOnUse" id="color-14"><stop offset="0" stop-color="#000000"/><stop offset="1" stop-color="#000000" stop-opacity="0"/></radialGradient><radialGradient cx="258.92455" cy="163.18851" r="4.54739" gradientUnits="userSpaceOnUse" id="color-15"><stop offset="0" stop-color="#000000"/><stop offset="1" stop-color="#000000" stop-opacity="0"/></radialGradient><radialGradient cx="265.0769" cy="185.61102" r="1.33747" gradientUnits="userSpaceOnUse" id="color-16"><stop offset="0" stop-color="#000000"/><stop offset="1" stop-color="#000000" stop-opacity="0"/></radialGradient><radialGradient cx="216.19246" cy="184.16715" r="1.0031" gradientUnits="userSpaceOnUse" id="color-17"><stop offset="0" stop-color="#000000"/><stop offset="1" stop-color="#000000" stop-opacity="0"/></radialGradient></defs><g transform="translate(-212.78192,-142.80442)"><g data-paper-data="{&quot;isPaintingLayer&quot;:true}" fill-rule="nonzero" stroke="none" stroke-width="0" stroke-linecap="butt" stroke-linejoin="miter" stroke-miterlimit="10" stroke-dasharray="" stroke-dashoffset="0" style="mix-blend-mode: normal"><path d="M225.00054,187.6092c0,-5.33344 6.91195,-9.65702 15.43827,-9.65702c8.52632,0 15.43827,4.3236 15.43827,9.65702c0,5.33344 -6.91195,9.65702 -15.43827,9.65702c-8.52632,0 -15.43827,-4.3236 -15.43827,-9.65702z" fill="url(#color-1)"/><path d="M222.85635,187.20681c0,-5.33344 6.91195,-9.65702 15.43827,-9.65702c8.52632,0 15.43827,4.3236 15.43827,9.65702c0,5.33344 -6.91195,9.65702 -15.43827,9.65702c-8.52632,0 -15.43827,-4.3236 -15.43827,-9.65702z" fill="url(#color-2)"/><path d="M225.85824,188.41397c0,-5.33344 6.91195,-9.65702 15.43827,-9.65702c8.52632,0 15.43827,4.3236 15.43827,9.65702c0,5.33344 -6.91195,9.65702 -15.43827,9.65702c-8.52632,0 -15.43827,-4.3236 -15.43827,-9.65702z" fill="url(#color-3)"/><path d="M220.7551,159.52277c2.38251,-1.38485 7.1903,5.47492 10.73849,15.3217c3.5482,9.84678 4.49318,18.95183 2.11068,20.33668c-2.38251,1.38485 -7.1903,-5.47492 -10.73849,-15.3217c-3.5482,-9.84678 -4.49318,-18.95183 -2.11068,-20.33668z" fill="url(#color-4)"/><path d="M220.04256,156.94202c2.38251,-1.38485 7.1903,5.47492 10.73849,15.3217c3.5482,9.84678 4.49318,18.95183 2.11068,20.33668c-2.38251,1.38485 -7.1903,-5.47492 -10.73849,-15.3217c-3.5482,-9.84678 -4.49318,-18.95183 -2.11068,-20.33668z" fill="url(#color-5)"/><path d="M220.75253,160.72225c2.38251,-1.38485 7.1903,5.47492 10.73849,15.3217c3.5482,9.84678 4.49318,18.95183 2.11068,20.33668c-2.38251,1.38485 -7.1903,-5.47492 -10.73849,-15.3217c-3.5482,-9.84678 -4.49318,-18.95183 -2.11068,-20.33668z" fill="url(#color-6)"/><path d="M238.23171,152.97208c5.01203,-0.20572 9.894,8.38936 10.9042,19.19765c1.0102,10.80829 -2.23392,19.73693 -7.24593,19.94265c-5.01203,0.20572 -9.894,-8.38936 -10.9042,-19.19765c-1.0102,-10.80829 2.23392,-19.73693 7.24593,-19.94265z" fill="url(#color-7)"/><path d="M238.3558,150.2385c5.01203,-0.20572 9.894,8.38936 10.9042,19.19765c1.0102,10.80829 -2.23392,19.73693 -7.24593,19.94265c-5.01203,0.20572 -9.894,-8.38936 -10.9042,-19.19765c-1.0102,-10.80829 2.23392,-19.73693 7.24593,-19.94265z" fill="url(#color-8)"/><path d="M237.57705,154.09037c5.01203,-0.20572 9.894,8.38936 10.9042,19.19765c1.0102,10.80829 -2.23392,19.73693 -7.24593,19.94265c-5.01203,0.20572 -9.894,-8.38936 -10.9042,-19.19765c-1.0102,-10.80829 2.23392,-19.73693 7.24593,-19.94265z" fill="url(#color-9)"/><path d="M255.3865,176.62257c2.12098,1.69834 2.2466,6.99501 0.28059,11.83045c-1.96601,4.83544 -5.27916,7.37857 -7.40014,5.68024c-2.12098,-1.69834 -2.2466,-6.99501 -0.28059,-11.83045c1.96601,-4.83544 5.27916,-7.37857 7.40014,-5.68024z" fill="url(#color-10)"/><path d="M256.04093,175.53469c2.12098,1.69834 2.2466,6.99501 0.28059,11.83045c-1.96601,4.83544 -5.27916,7.37857 -7.40014,5.68024c-2.12098,-1.69834 -2.2466,-6.99501 -0.28059,-11.83045c1.96601,-4.83544 5.27916,-7.37857 7.40014,-5.68024z" fill="url(#color-11)"/><path d="M254.86869,176.85272c2.12098,1.69834 2.2466,6.99501 0.28059,11.83045c-1.96601,4.83544 -5.27916,7.37857 -7.40014,5.68024c-2.12098,-1.69834 -2.2466,-6.99501 -0.28059,-11.83045c1.96601,-4.83544 5.27916,-7.37857 7.40014,-5.68024z" fill="url(#color-12)"/><path d="M212.78192,150.36352c0,-3.33044 2.12576,-6.0303 4.74801,-6.0303c2.62225,0 4.74801,2.69986 4.74801,6.0303c0,3.33044 -2.12576,6.0303 -4.74801,6.0303c-2.62225,0 -4.74801,-2.69986 -4.74801,-6.0303z" fill="url(#color-13)"/><path d="M238.86254,145.01269c0,-1.2196 0.77844,-2.20828 1.73871,-2.20828c0.96026,0 1.73871,0.98868 1.73871,2.20828c0,1.2196 -0.77844,2.20828 -1.73871,2.20828c-0.96026,0 -1.73871,-0.98868 -1.73871,-2.20828z" fill="url(#color-14)"/><path d="M254.37716,163.18851c0,-3.18972 2.03593,-5.77549 4.54739,-5.77549c2.51146,0 4.54739,2.58577 4.54739,5.77549c0,3.18972 -2.03593,5.77549 -4.54739,5.77549c-2.51146,0 -4.54739,-2.58577 -4.54739,-5.77549z" fill="url(#color-15)"/><path d="M263.73943,185.61102c0,-0.93815 0.59881,-1.69868 1.33747,-1.69868c0.73866,0 1.33747,0.76052 1.33747,1.69868c0,0.93815 -0.59881,1.69868 -1.33747,1.69868c-0.73866,0 -1.33747,-0.76052 -1.33747,-1.69868z" fill="url(#color-16)"/><path d="M215.18936,184.16715c0,-0.70361 0.4491,-1.274 1.0031,-1.274c0.554,0 1.0031,0.57039 1.0031,1.274c0,0.70361 -0.4491,1.274 -1.0031,1.274c-0.554,0 -1.0031,-0.57039 -1.0031,-1.274z" fill="url(#color-17)"/></g></g></svg>