<svg version="1.1" xmlns="http://www.w3.org/2000/svg" xmlns:xlink="http://www.w3.org/1999/xlink" width="90.37832" height="59.93528" viewBox="0,0,90.37832,59.93528"><g transform="translate(-194.81084,-150.03236)"><g data-paper-data="{&quot;isPaintingLayer&quot;:true}" fill="#000000" fill-rule="nonzero" stroke="none" stroke-width="0.5" stroke-linecap="butt" stroke-linejoin="miter" stroke-miterlimit="10" stroke-dasharray="" stroke-dashoffset="0" style="mix-blend-mode: normal"><path d="M256.82932,179.05011c-0.04344,-0.04344 -0.08475,-0.08688 -0.124,-0.1303c-1.34534,1.45753 -2.11122,3.84901 -2.78705,5.54101c-1.51779,3.79991 -3.44448,8.89526 -0.57532,12.56603c3.68017,4.70836 9.29242,5.7885 14.8953,5.28137c4.25087,-0.83622 8.21482,-3.37949 10.42941,-7.2507c1.1739,-2.05204 0.86889,-4.39188 1.20694,-6.64515c0.42598,-2.83943 0.79641,-5.91307 -0.87997,-8.52735c-1.8476,-2.8813 -6.25861,-4.65378 -9.51967,-4.85566c-1.59273,-0.0986 -3.26295,0.49539 -4.82142,1.09259c2.04713,3.6942 3.20581,7.85266 4.76472,11.73192l0.60416,2.32214c0,0 0.60634,2.42536 -1.81902,3.0317c-2.42536,0.60634 -3.0317,-1.81902 -3.0317,-1.81902l-0.39584,-1.67786c-1.4105,-3.54102 -2.44148,-7.40293 -4.28108,-10.79537l-0.12996,0.13466c0,0 -1.76777,1.76777 -3.53553,0zM269.7192,170.03532c4.83943,0.20317 10.75699,2.95777 13.48033,7.14434c2.34628,3.60691 2.21788,7.98638 1.62003,11.97265c-0.45197,3.01364 -0.26644,5.55344 -1.79306,8.35485c-2.88654,5.2969 -8.3688,8.59486 -14.07059,9.7493c-7.35472,0.67105 -14.88611,-0.95596 -19.6047,-7.21863c-0.97866,-1.29891 -1.61734,-2.67042 -1.99088,-4.08346c-0.62352,1.32797 -2.26325,1.32797 -2.26325,1.32797h-1.5c-1.06146,0 -2.10937,-0.00085 -3.154,-0.01909c-1.94471,2.53775 -6.41535,3.37301 -8.92893,1.88411c-1.04878,-0.62124 -1.83092,-1.46278 -2.34869,-2.41325c-0.01948,0.0371 -0.03825,0.07458 -0.05622,0.11247c-1.06938,2.25534 -0.20564,3.31883 -2.10885,5.55669c-0.77463,0.91083 -2.02316,1.27614 -3.00834,1.9537c-2.37357,1.63242 -4.22408,3.36705 -6.78245,4.77188c-2.70228,0.55615 -6.0581,1.18846 -8.83529,0.60839c-5.5858,-1.1667 -11.29687,-7.18168 -12.92359,-12.49252c-0.85056,-2.77686 -0.61026,-5.60818 -0.60364,-8.46237c0.01333,-5.74999 2.77883,-12.70138 8.47958,-15.28227c2.08701,-0.94485 4.81844,-0.98251 7.21244,-0.97263c0.70859,-0.4951 1.55798,-0.4951 1.55798,-0.4951c3.04052,0.0036 5.70312,0.55674 8.01401,1.61378c0.9077,-1.96672 1.71347,-3.9814 2.34142,-6.08214l0.51627,-1.72091c-0.24603,-0.43478 -0.32316,-0.82043 -0.32316,-0.82043c-0.49392,-2.46962 -1.36508,-5.04274 -1.75089,-7.50449c-0.06095,-0.38891 0.16199,-0.81585 0.18842,-1.2035c-0.20086,-0.01128 -0.40426,-0.02315 -0.6106,-0.0354c-0.99942,-0.05936 -2.15197,0.45124 -3.00257,-0.07683c-0.17949,-0.11143 -0.35152,-0.23198 -0.51729,-0.36017l-0.06972,0.12549l-2.20635,-1.22575c-0.7909,-0.41981 -1.32954,-1.25182 -1.32954,-2.20964c0,-1.38071 1.11929,-2.5 2.5,-2.5h2.5v0.15338l0.36303,-0.12688c1.19855,0.35474 2.75709,0.70566 4.1145,1.32254c1.57787,0.0659 3.00218,0.0653 4.78217,-0.30049l0.44972,-0.17026c0,0 2.37171,-0.79057 3.16228,1.58114c0.79057,2.37171 -1.58114,3.16228 -1.58114,3.16228l-1.05028,0.32974c-0.99343,0.19419 -1.92002,0.31016 -2.82659,0.37171c0.01125,0.0643 0.02404,0.12802 0.03864,0.19105c0.47655,2.05633 1.00779,4.07986 1.46305,6.13986c3.6145,0.59301 7.31688,1.42238 10.95914,1.59904c5.48306,0.26595 10.91985,-0.432 16.39306,-0.49547c-1.45329,-4.21642 -2.2741,-9.32156 4.3102,-9.48605c1.03301,-0.02581 1.80694,0.89803 2.64402,1.59035c0.73842,0.20329 1.77818,0.7758 1.77818,2.38806c0,2.5 -2.5,2.5 -2.5,2.5l-1.75,-0.5c-0.06902,-0.08518 -0.16565,-0.21049 -0.27073,-0.34978c0.49028,1.46004 0.76386,2.99375 1.34193,4.42131c0,0 0.0547,0.13676 0.10436,0.35716c0.15589,0.28407 0.26841,0.63622 0.31204,1.07256c0.11637,1.16368 -0.36606,1.83743 -0.91252,2.22498c0.6898,1.36194 1.45431,2.58248 2.27188,3.83591c2.49567,-0.95686 5.06246,-1.92303 7.77516,-1.80914zM249.2759,182.60386c0.47241,-1.17951 0.97172,-2.45792 1.57542,-3.68791c-2.09599,3.05465 -3.97729,6.36571 -6.47103,8.86858c-1.49089,1.49635 -2.98719,2.47666 -4.35163,3.86855c0.21472,0.1979 0.41733,0.40141 0.59653,0.61578c0.98389,0.01503 1.97104,0.01348 2.97189,0.01348h1.5c0,0 1.10452,0 1.84524,0.73416c-0.11255,-3.49729 1.0116,-7.112 2.33356,-10.41264zM256.59263,172.70566c-0.5155,0.34912 -1.0045,0.73174 -1.47143,1.14216c0.54061,-0.30311 1.11428,-0.54999 1.70168,-0.7647c-0.07728,-0.1256 -0.15403,-0.25138 -0.23025,-0.37745zM231.56405,188.25576c0.10994,-0.06359 0.22349,-0.11522 0.34008,-0.15682c-0.17453,-0.36001 -0.33956,-0.72293 -0.45161,-1.09823c-1.2969,-4.34398 -3.25319,-8.59691 -4.92936,-12.79675c-0.18342,-0.45957 -0.40566,-0.94078 -0.61833,-1.42752c-0.50035,1.2374 -1.0481,2.4504 -1.62681,3.64787c2.29973,2.122 4.08459,4.97328 5.4047,8.4665c0.46338,1.22618 0.90394,2.51441 1.18433,3.8291c0.21796,-0.16625 0.4503,-0.32146 0.697,-0.46416zM240.81389,184.28015c4.84999,-4.82803 7.30559,-11.42331 12.73259,-15.46627c-5.19392,0.1511 -10.36674,0.7325 -15.57392,0.46536c-2.66912,-0.13693 -5.36009,-0.58826 -8.03157,-1.05795c0.46996,1.37061 0.88354,3.27525 1.23003,4.13944c1.73639,4.33085 3.72081,8.72286 5.07064,13.20325c0.14923,0.49532 0.4143,1.31142 0.66971,2.21215c1.2597,-1.17768 2.59278,-2.19216 3.90252,-3.49597zM215.33589,194.0361c-0.44921,0.61807 -1.37637,1.4338 -2.91728,0.81744c-2.32119,-0.92848 -1.39272,-3.24967 -1.39272,-3.24967c1.88662,-4.71324 4.48397,-9.05258 6.84701,-13.49237c-1.03409,-0.45348 -2.17673,-0.76649 -3.44404,-0.93438c-0.65104,0.35523 -1.33178,0.35523 -1.33178,0.35523h-1.25c-1.91465,-0.0025 -4.65812,-0.24952 -6.47958,0.53227c-3.89859,1.67332 -5.52998,6.98435 -5.52042,10.71773c0.00602,2.35279 -0.26911,4.74535 0.39636,7.03763c0.99488,3.42696 5.37776,8.32046 9.07641,9.00748c1.88872,0.35083 4.30303,-0.03716 6.16471,-0.39161c2.11756,-1.19945 3.6719,-2.91428 5.71755,-4.22812c0.63099,-0.40526 1.48336,-0.49492 1.99166,-1.0463c0.98444,-1.06788 0.76329,-2.79982 1.27494,-4.16745c-3.04584,-0.36239 -6.01791,-0.90745 -9.13282,-0.95787zM217.59906,189.15094c2.87078,0.23035 5.65431,0.73879 8.52925,1.00375c-0.22857,-1.26584 -0.75808,-2.54816 -1.11685,-3.48082c-0.85761,-2.22951 -1.88025,-4.09418 -3.14775,-5.57099c-1.43813,2.66764 -2.92431,5.31545 -4.26465,8.04807z"/></g></g></svg>