<svg version="1.1" xmlns="http://www.w3.org/2000/svg" xmlns:xlink="http://www.w3.org/1999/xlink" width="19.75" height="19.125" viewBox="0,0,19.75,19.125"><defs><radialGradient cx="240" cy="180" r="9" gradientUnits="userSpaceOnUse" id="color-1"><stop offset="0" stop-color="#00ff19"/><stop offset="1" stop-color="#00ff19" stop-opacity="0"/></radialGradient><radialGradient cx="238.75" cy="179.625" r="9" gradientUnits="userSpaceOnUse" id="color-2"><stop offset="0" stop-color="#00ff19"/><stop offset="1" stop-color="#00ff19" stop-opacity="0"/></radialGradient><radialGradient cx="240.5" cy="180.75" r="9" gradientUnits="userSpaceOnUse" id="color-3"><stop offset="0" stop-color="#00ff19"/><stop offset="1" stop-color="#00ff19" stop-opacity="0"/></radialGradient></defs><g transform="translate(-229.75,-170.625)"><g data-paper-data="{&quot;isPaintingLayer&quot;:true}" fill-rule="nonzero" stroke="none" stroke-width="0" stroke-linecap="butt" stroke-linejoin="miter" stroke-miterlimit="10" stroke-dasharray="" stroke-dashoffset="0" style="mix-blend-mode: normal"><path d="M231,180c0,-4.97056 4.02944,-9 9,-9c4.97056,0 9,4.02944 9,9c0,4.97056 -4.02944,9 -9,9c-4.97056,0 -9,-4.02944 -9,-9z" fill="url(#color-1)"/><path d="M229.75,179.625c0,-4.97056 4.02944,-9 9,-9c4.97056,0 9,4.02944 9,9c0,4.97056 -4.02944,9 -9,9c-4.97056,0 -9,-4.02944 -9,-9z" fill="url(#color-2)"/><path d="M231.5,180.75c0,-4.97056 4.02944,-9 9,-9c4.97056,0 9,4.02944 9,9c0,4.97056 -4.02944,9 -9,9c-4.97056,0 -9,-4.02944 -9,-9z" fill="url(#color-3)"/></g></g></svg>