<svg version="1.1" xmlns="http://www.w3.org/2000/svg" xmlns:xlink="http://www.w3.org/1999/xlink" width="431.376" height="431.376" viewBox="0,0,431.376,431.376"><defs><radialGradient cx="168.72026" cy="219.03904" r="47.51983" gradientUnits="userSpaceOnUse" id="color-1"><stop offset="0" stop-color="#ebff66"/><stop offset="1" stop-color="#ebff66" stop-opacity="0"/></radialGradient><radialGradient cx="203.41728" cy="219.03904" r="47.51983" gradientUnits="userSpaceOnUse" id="color-2"><stop offset="0" stop-color="#ebff66"/><stop offset="1" stop-color="#ebff66" stop-opacity="0"/></radialGradient><radialGradient cx="234.34288" cy="219.03904" r="47.51983" gradientUnits="userSpaceOnUse" id="color-3"><stop offset="0" stop-color="#ebff66"/><stop offset="1" stop-color="#ebff66" stop-opacity="0"/></radialGradient><radialGradient cx="263.75992" cy="219.03904" r="47.51983" gradientUnits="userSpaceOnUse" id="color-4"><stop offset="0" stop-color="#ebff66"/><stop offset="1" stop-color="#ebff66" stop-opacity="0"/></radialGradient><radialGradient cx="299.9655" cy="217.53754" r="47.51983" gradientUnits="userSpaceOnUse" id="color-5"><stop offset="0" stop-color="#ebff66"/><stop offset="1" stop-color="#ebff66" stop-opacity="0"/></radialGradient><radialGradient cx="314.28275" cy="211.53153" r="47.51983" gradientUnits="userSpaceOnUse" id="color-6"><stop offset="0" stop-color="#ebff66"/><stop offset="1" stop-color="#ebff66" stop-opacity="0"/></radialGradient><radialGradient cx="216.24009" cy="176.04491" r="47.51983" gradientUnits="userSpaceOnUse" id="color-7"><stop offset="0" stop-color="#ebff66"/><stop offset="1" stop-color="#ebff66" stop-opacity="0"/></radialGradient><radialGradient cx="250.93711" cy="175.29062" r="47.51983" gradientUnits="userSpaceOnUse" id="color-8"><stop offset="0" stop-color="#ebff66"/><stop offset="1" stop-color="#ebff66" stop-opacity="0"/></radialGradient><radialGradient cx="272.81131" cy="171.51921" r="47.51983" gradientUnits="userSpaceOnUse" id="color-9"><stop offset="0" stop-color="#ebff66"/><stop offset="1" stop-color="#ebff66" stop-opacity="0"/></radialGradient><radialGradient cx="243.69598" cy="139.83932" r="47.51983" gradientUnits="userSpaceOnUse" id="color-10"><stop offset="0" stop-color="#ebff66"/><stop offset="1" stop-color="#ebff66" stop-opacity="0"/></radialGradient><radialGradient cx="225.29148" cy="123.99938" r="47.51983" gradientUnits="userSpaceOnUse" id="color-11"><stop offset="0" stop-color="#ebff66"/><stop offset="1" stop-color="#ebff66" stop-opacity="0"/></radialGradient><radialGradient cx="263.75992" cy="128.52508" r="47.51983" gradientUnits="userSpaceOnUse" id="color-12"><stop offset="0" stop-color="#ebff66"/><stop offset="1" stop-color="#ebff66" stop-opacity="0"/></radialGradient><radialGradient cx="272.81131" cy="81.7454" r="47.51983" gradientUnits="userSpaceOnUse" id="color-13"><stop offset="0" stop-color="#ebff66"/><stop offset="1" stop-color="#ebff66" stop-opacity="0"/></radialGradient><radialGradient cx="331.36987" cy="83.2469" r="47.51983" gradientUnits="userSpaceOnUse" id="color-14"><stop offset="0" stop-color="#ebff66"/><stop offset="1" stop-color="#ebff66" stop-opacity="0"/></radialGradient><radialGradient cx="168.72026" cy="82.42904" r="47.51983" gradientUnits="userSpaceOnUse" id="color-15"><stop offset="0" stop-color="#ebff66"/><stop offset="1" stop-color="#ebff66" stop-opacity="0"/></radialGradient><radialGradient cx="216.24009" cy="84.72721" r="47.51983" gradientUnits="userSpaceOnUse" id="color-16"><stop offset="0" stop-color="#ebff66"/><stop offset="1" stop-color="#ebff66" stop-opacity="0"/></radialGradient><radialGradient cx="310.47601" cy="85.46736" r="47.51983" gradientUnits="userSpaceOnUse" id="color-17"><stop offset="0" stop-color="#ebff66"/><stop offset="1" stop-color="#ebff66" stop-opacity="0"/></radialGradient><radialGradient cx="314.98052" cy="43.42532" r="47.51983" gradientUnits="userSpaceOnUse" id="color-18"><stop offset="0" stop-color="#ebff66"/><stop offset="1" stop-color="#ebff66" stop-opacity="0"/></radialGradient><radialGradient cx="284.95049" cy="19.4013" r="47.51983" gradientUnits="userSpaceOnUse" id="color-19"><stop offset="0" stop-color="#ebff66"/><stop offset="1" stop-color="#ebff66" stop-opacity="0"/></radialGradient><radialGradient cx="254.92046" cy="10.39229" r="47.51983" gradientUnits="userSpaceOnUse" id="color-20"><stop offset="0" stop-color="#ebff66"/><stop offset="1" stop-color="#ebff66" stop-opacity="0"/></radialGradient><radialGradient cx="224.89043" cy="13.39529" r="47.51983" gradientUnits="userSpaceOnUse" id="color-21"><stop offset="0" stop-color="#ebff66"/><stop offset="1" stop-color="#ebff66" stop-opacity="0"/></radialGradient><radialGradient cx="197.8634" cy="16.3983" r="47.51983" gradientUnits="userSpaceOnUse" id="color-22"><stop offset="0" stop-color="#ebff66"/><stop offset="1" stop-color="#ebff66" stop-opacity="0"/></radialGradient><radialGradient cx="173.83938" cy="35.91782" r="47.51983" gradientUnits="userSpaceOnUse" id="color-23"><stop offset="0" stop-color="#ebff66"/><stop offset="1" stop-color="#ebff66" stop-opacity="0"/></radialGradient><radialGradient cx="160.32586" cy="65.94785" r="47.51983" gradientUnits="userSpaceOnUse" id="color-24"><stop offset="0" stop-color="#ebff66"/><stop offset="1" stop-color="#ebff66" stop-opacity="0"/></radialGradient><radialGradient cx="238.40394" cy="49.43133" r="47.51983" gradientUnits="userSpaceOnUse" id="color-25"><stop offset="0" stop-color="#ebff66"/><stop offset="1" stop-color="#ebff66" stop-opacity="0"/></radialGradient><radialGradient cx="271.43697" cy="49.43133" r="47.51983" gradientUnits="userSpaceOnUse" id="color-26"><stop offset="0" stop-color="#ebff66"/><stop offset="1" stop-color="#ebff66" stop-opacity="0"/></radialGradient><radialGradient cx="215.88142" cy="49.43133" r="47.51983" gradientUnits="userSpaceOnUse" id="color-27"><stop offset="0" stop-color="#ebff66"/><stop offset="1" stop-color="#ebff66" stop-opacity="0"/></radialGradient><radialGradient cx="220.38592" cy="20.9028" r="47.51983" gradientUnits="userSpaceOnUse" id="color-28"><stop offset="0" stop-color="#ffc966"/><stop offset="1" stop-color="#ffc966" stop-opacity="0"/></radialGradient><radialGradient cx="196.3619" cy="32.91481" r="47.51983" gradientUnits="userSpaceOnUse" id="color-29"><stop offset="0" stop-color="#ffc966"/><stop offset="1" stop-color="#ffc966" stop-opacity="0"/></radialGradient><radialGradient cx="196.3619" cy="64.44634" r="47.51983" gradientUnits="userSpaceOnUse" id="color-30"><stop offset="0" stop-color="#ffc966"/><stop offset="1" stop-color="#ffc966" stop-opacity="0"/></radialGradient><radialGradient cx="196.3619" cy="64.44634" r="47.51983" gradientUnits="userSpaceOnUse" id="color-31"><stop offset="0" stop-color="#ffc966"/><stop offset="1" stop-color="#ffc966" stop-opacity="0"/></radialGradient><radialGradient cx="193.3589" cy="41.92382" r="47.51983" gradientUnits="userSpaceOnUse" id="color-32"><stop offset="0" stop-color="#ffc966"/><stop offset="1" stop-color="#ffc966" stop-opacity="0"/></radialGradient><radialGradient cx="187.35289" cy="61.44334" r="47.51983" gradientUnits="userSpaceOnUse" id="color-33"><stop offset="0" stop-color="#ffc966"/><stop offset="1" stop-color="#ffc966" stop-opacity="0"/></radialGradient><radialGradient cx="239.90544" cy="115.49739" r="215.688" gradientUnits="userSpaceOnUse" id="color-34"><stop offset="0" stop-color="#ffc966"/><stop offset="1" stop-color="#ffc966" stop-opacity="0"/></radialGradient><radialGradient cx="221.88742" cy="71.95385" r="47.51983" gradientUnits="userSpaceOnUse" id="color-35"><stop offset="0" stop-color="#ffc966"/><stop offset="1" stop-color="#ffc966" stop-opacity="0"/></radialGradient><radialGradient cx="230.89643" cy="104.98688" r="47.51983" gradientUnits="userSpaceOnUse" id="color-36"><stop offset="0" stop-color="#ffc966"/><stop offset="1" stop-color="#ffc966" stop-opacity="0"/></radialGradient><radialGradient cx="238.40394" cy="166.54845" r="47.51983" gradientUnits="userSpaceOnUse" id="color-37"><stop offset="0" stop-color="#ffc966"/><stop offset="1" stop-color="#ffc966" stop-opacity="0"/></radialGradient><radialGradient cx="233.89944" cy="186.06797" r="47.51983" gradientUnits="userSpaceOnUse" id="color-38"><stop offset="0" stop-color="#ffc966"/><stop offset="1" stop-color="#ffc966" stop-opacity="0"/></radialGradient><radialGradient cx="232.39793" cy="210.09199" r="47.51983" gradientUnits="userSpaceOnUse" id="color-39"><stop offset="0" stop-color="#ffc966"/><stop offset="1" stop-color="#ffc966" stop-opacity="0"/></radialGradient><radialGradient cx="200.8664" cy="214.59649" r="47.51983" gradientUnits="userSpaceOnUse" id="color-40"><stop offset="0" stop-color="#ffc966"/><stop offset="1" stop-color="#ffc966" stop-opacity="0"/></radialGradient><radialGradient cx="305.97151" cy="223.6055" r="47.51983" gradientUnits="userSpaceOnUse" id="color-41"><stop offset="0" stop-color="#ffc966"/><stop offset="1" stop-color="#ffc966" stop-opacity="0"/></radialGradient><radialGradient cx="313.47902" cy="217.5995" r="47.51983" gradientUnits="userSpaceOnUse" id="color-42"><stop offset="0" stop-color="#ffc966"/><stop offset="1" stop-color="#ffc966" stop-opacity="0"/></radialGradient><radialGradient cx="265.43097" cy="165.04694" r="47.51983" gradientUnits="userSpaceOnUse" id="color-43"><stop offset="0" stop-color="#ffc966"/><stop offset="1" stop-color="#ffc966" stop-opacity="0"/></radialGradient><radialGradient cx="257.92346" cy="132.01391" r="47.51983" gradientUnits="userSpaceOnUse" id="color-44"><stop offset="0" stop-color="#ffc966"/><stop offset="1" stop-color="#ffc966" stop-opacity="0"/></radialGradient><radialGradient cx="268.43397" cy="98.98088" r="47.51983" gradientUnits="userSpaceOnUse" id="color-45"><stop offset="0" stop-color="#ffc966"/><stop offset="1" stop-color="#ffc966" stop-opacity="0"/></radialGradient><radialGradient cx="280.44598" cy="86.96887" r="47.51983" gradientUnits="userSpaceOnUse" id="color-46"><stop offset="0" stop-color="#ffc966"/><stop offset="1" stop-color="#ffc966" stop-opacity="0"/></radialGradient><radialGradient cx="292.45799" cy="52.43433" r="47.51983" gradientUnits="userSpaceOnUse" id="color-47"><stop offset="0" stop-color="#ffc966"/><stop offset="1" stop-color="#ffc966" stop-opacity="0"/></radialGradient><radialGradient cx="260.92646" cy="25.4073" r="47.51983" gradientUnits="userSpaceOnUse" id="color-48"><stop offset="0" stop-color="#ffc966"/><stop offset="1" stop-color="#ffc966" stop-opacity="0"/></radialGradient><radialGradient cx="242.90845" cy="19.4013" r="47.51983" gradientUnits="userSpaceOnUse" id="color-49"><stop offset="0" stop-color="#ffc966"/><stop offset="1" stop-color="#ffc966" stop-opacity="0"/></radialGradient><radialGradient cx="283.44899" cy="32.91481" r="47.51983" gradientUnits="userSpaceOnUse" id="color-50"><stop offset="0" stop-color="#ffc966"/><stop offset="1" stop-color="#ffc966" stop-opacity="0"/></radialGradient><radialGradient cx="292.45799" cy="32.91481" r="47.51983" gradientUnits="userSpaceOnUse" id="color-51"><stop offset="0" stop-color="#ffc966"/><stop offset="1" stop-color="#ffc966" stop-opacity="0"/></radialGradient><radialGradient cx="290.95649" cy="32.91481" r="47.51983" gradientUnits="userSpaceOnUse" id="color-52"><stop offset="0" stop-color="#ffc966"/><stop offset="1" stop-color="#ffc966" stop-opacity="0"/></radialGradient><radialGradient cx="265.43097" cy="29.91181" r="47.51983" gradientUnits="userSpaceOnUse" id="color-53"><stop offset="0" stop-color="#ffc966"/><stop offset="1" stop-color="#ffc966" stop-opacity="0"/></radialGradient><radialGradient cx="265.43097" cy="29.91181" r="47.51983" gradientUnits="userSpaceOnUse" id="color-54"><stop offset="0" stop-color="#ffc966"/><stop offset="1" stop-color="#ffc966" stop-opacity="0"/></radialGradient><radialGradient cx="233.89944" cy="208.59049" r="47.51983" gradientUnits="userSpaceOnUse" id="color-55"><stop offset="0" stop-color="#ff6666"/><stop offset="1" stop-color="#ff6666" stop-opacity="0"/></radialGradient><radialGradient cx="259.42496" cy="202.58448" r="47.51983" gradientUnits="userSpaceOnUse" id="color-56"><stop offset="0" stop-color="#ff6666"/><stop offset="1" stop-color="#ff6666" stop-opacity="0"/></radialGradient><radialGradient cx="250.41595" cy="145.52742" r="47.51983" gradientUnits="userSpaceOnUse" id="color-57"><stop offset="0" stop-color="#ff6666"/><stop offset="1" stop-color="#ff6666" stop-opacity="0"/></radialGradient><radialGradient cx="250.41595" cy="115.49739" r="47.51983" gradientUnits="userSpaceOnUse" id="color-58"><stop offset="0" stop-color="#ff6666"/><stop offset="1" stop-color="#ff6666" stop-opacity="0"/></radialGradient><radialGradient cx="250.41595" cy="79.46136" r="47.51983" gradientUnits="userSpaceOnUse" id="color-59"><stop offset="0" stop-color="#ff6666"/><stop offset="1" stop-color="#ff6666" stop-opacity="0"/></radialGradient><radialGradient cx="226.39193" cy="76.45836" r="47.51983" gradientUnits="userSpaceOnUse" id="color-60"><stop offset="0" stop-color="#ff6666"/><stop offset="1" stop-color="#ff6666" stop-opacity="0"/></radialGradient><radialGradient cx="233.89944" cy="59.94184" r="47.51983" gradientUnits="userSpaceOnUse" id="color-61"><stop offset="0" stop-color="#ff6666"/><stop offset="1" stop-color="#ff6666" stop-opacity="0"/></radialGradient><radialGradient cx="233.89944" cy="59.94184" r="47.51983" gradientUnits="userSpaceOnUse" id="color-62"><stop offset="0" stop-color="#ff6666"/><stop offset="1" stop-color="#ff6666" stop-opacity="0"/></radialGradient><radialGradient cx="257.92346" cy="68.95085" r="47.51983" gradientUnits="userSpaceOnUse" id="color-63"><stop offset="0" stop-color="#ff6666"/><stop offset="1" stop-color="#ff6666" stop-opacity="0"/></radialGradient><radialGradient cx="260.92646" cy="70.45235" r="47.51983" gradientUnits="userSpaceOnUse" id="color-64"><stop offset="0" stop-color="#ff6666"/><stop offset="1" stop-color="#ff6666" stop-opacity="0"/></radialGradient><radialGradient cx="254.92046" cy="187.56947" r="47.51983" gradientUnits="userSpaceOnUse" id="color-65"><stop offset="0" stop-color="#ff6666"/><stop offset="1" stop-color="#ff6666" stop-opacity="0"/></radialGradient><radialGradient cx="311.97751" cy="141.02292" r="20.49281" gradientUnits="userSpaceOnUse" id="color-66"><stop offset="0" stop-color="#8e8e8e"/><stop offset="1" stop-color="#8e8e8e" stop-opacity="0"/></radialGradient><radialGradient cx="323.98953" cy="148.53043" r="20.4928" gradientUnits="userSpaceOnUse" id="color-67"><stop offset="0" stop-color="#8e8e8e"/><stop offset="1" stop-color="#8e8e8e" stop-opacity="0"/></radialGradient><radialGradient cx="314.98052" cy="162.04394" r="20.4928" gradientUnits="userSpaceOnUse" id="color-68"><stop offset="0" stop-color="#8e8e8e"/><stop offset="1" stop-color="#8e8e8e" stop-opacity="0"/></radialGradient><radialGradient cx="286.45199" cy="166.54845" r="20.49281" gradientUnits="userSpaceOnUse" id="color-69"><stop offset="0" stop-color="#8e8e8e"/><stop offset="1" stop-color="#8e8e8e" stop-opacity="0"/></radialGradient><radialGradient cx="257.92346" cy="174.05595" r="20.4928" gradientUnits="userSpaceOnUse" id="color-70"><stop offset="0" stop-color="#8e8e8e"/><stop offset="1" stop-color="#8e8e8e" stop-opacity="0"/></radialGradient><radialGradient cx="248.91445" cy="172.55445" r="20.4928" gradientUnits="userSpaceOnUse" id="color-71"><stop offset="0" stop-color="#8e8e8e"/><stop offset="1" stop-color="#8e8e8e" stop-opacity="0"/></radialGradient><radialGradient cx="230.89643" cy="171.05295" r="20.4928" gradientUnits="userSpaceOnUse" id="color-72"><stop offset="0" stop-color="#8e8e8e"/><stop offset="1" stop-color="#8e8e8e" stop-opacity="0"/></radialGradient><radialGradient cx="217.38292" cy="166.54845" r="20.49281" gradientUnits="userSpaceOnUse" id="color-73"><stop offset="0" stop-color="#8e8e8e"/><stop offset="1" stop-color="#8e8e8e" stop-opacity="0"/></radialGradient><radialGradient cx="203.86941" cy="166.54845" r="20.4928" gradientUnits="userSpaceOnUse" id="color-74"><stop offset="0" stop-color="#8e8e8e"/><stop offset="1" stop-color="#8e8e8e" stop-opacity="0"/></radialGradient><radialGradient cx="191.85739" cy="162.04394" r="20.49281" gradientUnits="userSpaceOnUse" id="color-75"><stop offset="0" stop-color="#8e8e8e"/><stop offset="1" stop-color="#8e8e8e" stop-opacity="0"/></radialGradient><radialGradient cx="182.84839" cy="156.03794" r="20.4928" gradientUnits="userSpaceOnUse" id="color-76"><stop offset="0" stop-color="#8e8e8e"/><stop offset="1" stop-color="#8e8e8e" stop-opacity="0"/></radialGradient><radialGradient cx="182.84839" cy="148.53043" r="20.4928" gradientUnits="userSpaceOnUse" id="color-77"><stop offset="0" stop-color="#8e8e8e"/><stop offset="1" stop-color="#8e8e8e" stop-opacity="0"/></radialGradient><radialGradient cx="188.85439" cy="144.02592" r="20.4928" gradientUnits="userSpaceOnUse" id="color-78"><stop offset="0" stop-color="#8e8e8e"/><stop offset="1" stop-color="#8e8e8e" stop-opacity="0"/></radialGradient></defs><g transform="translate(-24.21744,100.1906)"><g data-paper-data="{&quot;isPaintingLayer&quot;:true}" fill-rule="nonzero" stroke="none" stroke-width="0" stroke-linecap="butt" stroke-linejoin="miter" stroke-miterlimit="10" stroke-dasharray="" stroke-dashoffset="0" style="mix-blend-mode: normal"><path d="M121.20043,219.03904c0,-26.24448 21.27536,-47.51983 47.51983,-47.51983c26.24447,0 47.51983,21.27535 47.51983,47.51983c0,26.24448 -21.27535,47.51983 -47.51983,47.51983c-26.24447,0 -47.51983,-21.27535 -47.51983,-47.51983z" fill="url(#color-1)"/><path d="M155.89745,219.03904c0,-26.24448 21.27535,-47.51983 47.51983,-47.51983c26.24447,0 47.51983,21.27535 47.51983,47.51983c0,26.24448 -21.27536,47.51983 -47.51983,47.51983c-26.24447,0 -47.51983,-21.27535 -47.51983,-47.51983z" fill="url(#color-2)"/><path d="M186.82305,219.03904c0,-26.24448 21.27535,-47.51983 47.51983,-47.51983c26.24448,0 47.51983,21.27535 47.51983,47.51983c0,26.24448 -21.27535,47.51983 -47.51983,47.51983c-26.24447,0 -47.51983,-21.27535 -47.51983,-47.51983z" fill="url(#color-3)"/><path d="M216.24009,219.03904c0,-26.24448 21.27536,-47.51983 47.51983,-47.51983c26.24448,0 47.51983,21.27535 47.51983,47.51983c0,26.24448 -21.27535,47.51983 -47.51983,47.51983c-26.24447,0 -47.51983,-21.27535 -47.51983,-47.51983z" fill="url(#color-4)"/><path d="M252.44567,217.53754c0,-26.24448 21.27535,-47.51983 47.51983,-47.51983c26.24448,0 47.51983,21.27535 47.51983,47.51983c0,26.24447 -21.27535,47.51983 -47.51983,47.51983c-26.24448,0 -47.51983,-21.27535 -47.51983,-47.51983z" fill="url(#color-5)"/><path d="M266.76292,211.53153c0,-26.24448 21.27535,-47.51983 47.51983,-47.51983c26.24448,0 47.51983,21.27535 47.51983,47.51983c0,26.24448 -21.27535,47.51983 -47.51983,47.51983c-26.24448,0 -47.51983,-21.27535 -47.51983,-47.51983z" fill="url(#color-6)"/><path d="M168.72026,176.04491c0,-26.24447 21.27535,-47.51983 47.51983,-47.51983c26.24447,0 47.51983,21.27536 47.51983,47.51983c0,26.24448 -21.27535,47.51983 -47.51983,47.51983c-26.24447,0 -47.51983,-21.27535 -47.51983,-47.51983z" fill="url(#color-7)"/><path d="M203.41728,175.29062c0,-26.24447 21.27536,-47.51983 47.51983,-47.51983c26.24448,0 47.51983,21.27535 47.51983,47.51983c0,26.24448 -21.27535,47.51983 -47.51983,47.51983c-26.24447,0 -47.51983,-21.27536 -47.51983,-47.51983z" fill="url(#color-8)"/><path d="M225.29148,171.51921c0,-26.24447 21.27536,-47.51983 47.51983,-47.51983c26.24448,0 47.51983,21.27535 47.51983,47.51983c0,26.24448 -21.27535,47.51983 -47.51983,47.51983c-26.24447,0 -47.51983,-21.27535 -47.51983,-47.51983z" fill="url(#color-9)"/><path d="M196.17615,139.83932c0,-26.24447 21.27535,-47.51983 47.51983,-47.51983c26.24447,0 47.51983,21.27536 47.51983,47.51983c0,26.24448 -21.27535,47.51983 -47.51983,47.51983c-26.24447,0 -47.51983,-21.27535 -47.51983,-47.51983z" fill="url(#color-10)"/><path d="M177.77165,123.99938c0,-26.24447 21.27536,-47.51983 47.51983,-47.51983c26.24447,0 47.51983,21.27536 47.51983,47.51983c0,26.24447 -21.27535,47.51983 -47.51983,47.51983c-26.24447,0 -47.51983,-21.27536 -47.51983,-47.51983z" fill="url(#color-11)"/><path d="M216.24009,128.52508c0,-26.24447 21.27536,-47.51983 47.51983,-47.51983c26.24448,0 47.51983,21.27536 47.51983,47.51983c0,26.24447 -21.27535,47.51983 -47.51983,47.51983c-26.24447,0 -47.51983,-21.27535 -47.51983,-47.51983z" fill="url(#color-12)"/><path d="M225.29148,81.7454c0,-26.24447 21.27536,-47.51983 47.51983,-47.51983c26.24448,0 47.51983,21.27536 47.51983,47.51983c0,26.24448 -21.27535,47.51983 -47.51983,47.51983c-26.24447,0 -47.51983,-21.27535 -47.51983,-47.51983z" fill="url(#color-13)"/><path d="M283.85004,83.2469c0,-26.24447 21.27535,-47.51983 47.51983,-47.51983c26.24448,0 47.51983,21.27536 47.51983,47.51983c0,26.24447 -21.27535,47.51983 -47.51983,47.51983c-26.24448,0 -47.51983,-21.27535 -47.51983,-47.51983z" fill="url(#color-14)"/><path d="M121.20043,82.42904c0,-26.24447 21.27536,-47.51983 47.51983,-47.51983c26.24447,0 47.51983,21.27536 47.51983,47.51983c0,26.24448 -21.27535,47.51983 -47.51983,47.51983c-26.24447,0 -47.51983,-21.27536 -47.51983,-47.51983z" fill="url(#color-15)"/><path d="M168.72026,84.72721c0,-26.24447 21.27535,-47.51983 47.51983,-47.51983c26.24447,0 47.51983,21.27536 47.51983,47.51983c0,26.24448 -21.27535,47.51983 -47.51983,47.51983c-26.24447,0 -47.51983,-21.27535 -47.51983,-47.51983z" fill="url(#color-16)"/><path d="M262.95618,85.46736c0,-26.24447 21.27535,-47.51983 47.51983,-47.51983c26.24448,0 47.51983,21.27536 47.51983,47.51983c0,26.24448 -21.27535,47.51983 -47.51983,47.51983c-26.24448,0 -47.51983,-21.27535 -47.51983,-47.51983z" fill="url(#color-17)"/><path d="M267.46069,43.42532c0,-26.24447 21.27535,-47.51983 47.51983,-47.51983c26.24448,0 47.51983,21.27536 47.51983,47.51983c0,26.24448 -21.27535,47.51983 -47.51983,47.51983c-26.24448,0 -47.51983,-21.27536 -47.51983,-47.51983z" fill="url(#color-18)"/><path d="M237.43066,19.4013c0,-26.24447 21.27535,-47.51983 47.51983,-47.51983c26.24448,0 47.51983,21.27536 47.51983,47.51983c0,26.24448 -21.27535,47.51983 -47.51983,47.51983c-26.24448,0 -47.51983,-21.27536 -47.51983,-47.51983z" fill="url(#color-19)"/><path d="M207.40063,10.39229c0,-26.24448 21.27536,-47.51983 47.51983,-47.51983c26.24448,0 47.51983,21.27535 47.51983,47.51983c0,26.24448 -21.27535,47.51983 -47.51983,47.51983c-26.24447,0 -47.51983,-21.27535 -47.51983,-47.51983z" fill="url(#color-20)"/><path d="M177.3706,13.39529c0,-26.24448 21.27535,-47.51983 47.51983,-47.51983c26.24448,0 47.51983,21.27535 47.51983,47.51983c0,26.24448 -21.27535,47.51983 -47.51983,47.51983c-26.24447,0 -47.51983,-21.27535 -47.51983,-47.51983z" fill="url(#color-21)"/><path d="M150.34357,16.3983c0,-26.24448 21.27536,-47.51983 47.51983,-47.51983c26.24447,0 47.51983,21.27535 47.51983,47.51983c0,26.24448 -21.27535,47.51983 -47.51983,47.51983c-26.24447,0 -47.51983,-21.27535 -47.51983,-47.51983z" fill="url(#color-22)"/><path d="M126.31955,35.91782c0,-26.24448 21.27535,-47.51983 47.51983,-47.51983c26.24447,0 47.51983,21.27535 47.51983,47.51983c0,26.24448 -21.27536,47.51983 -47.51983,47.51983c-26.24447,0 -47.51983,-21.27535 -47.51983,-47.51983z" fill="url(#color-23)"/><path d="M112.80603,65.94785c0,-26.24447 21.27535,-47.51983 47.51983,-47.51983c26.24447,0 47.51983,21.27536 47.51983,47.51983c0,26.24448 -21.27535,47.51983 -47.51983,47.51983c-26.24447,0 -47.51983,-21.27536 -47.51983,-47.51983z" fill="url(#color-24)"/><path d="M190.88411,49.43133c0,-26.24447 21.27536,-47.51983 47.51983,-47.51983c26.24447,0 47.51983,21.27536 47.51983,47.51983c0,26.24448 -21.27535,47.51983 -47.51983,47.51983c-26.24448,0 -47.51983,-21.27535 -47.51983,-47.51983z" fill="url(#color-25)"/><path d="M223.91714,49.43133c0,-26.24447 21.27535,-47.51983 47.51983,-47.51983c26.24448,0 47.51983,21.27536 47.51983,47.51983c0,26.24448 -21.27535,47.51983 -47.51983,47.51983c-26.24448,0 -47.51983,-21.27535 -47.51983,-47.51983z" fill="url(#color-26)"/><path d="M168.36159,49.43133c0,-26.24447 21.27536,-47.51983 47.51983,-47.51983c26.24447,0 47.51983,21.27536 47.51983,47.51983c0,26.24448 -21.27536,47.51983 -47.51983,47.51983c-26.24447,0 -47.51983,-21.27535 -47.51983,-47.51983z" fill="url(#color-27)"/><path d="M172.86609,20.9028c0,-26.24447 21.27535,-47.51983 47.51983,-47.51983c26.24447,0 47.51983,21.27535 47.51983,47.51983c0,26.24447 -21.27536,47.51983 -47.51983,47.51983c-26.24447,0 -47.51983,-21.27535 -47.51983,-47.51983z" fill="url(#color-28)"/><path d="M148.84207,32.91481c0,-26.24448 21.27536,-47.51983 47.51983,-47.51983c26.24447,0 47.51983,21.27535 47.51983,47.51983c0,26.24448 -21.27536,47.51983 -47.51983,47.51983c-26.24447,0 -47.51983,-21.27535 -47.51983,-47.51983z" fill="url(#color-29)"/><path d="M148.84207,64.44634c0,-26.24447 21.27536,-47.51983 47.51983,-47.51983c26.24447,0 47.51983,21.27535 47.51983,47.51983c0,26.24447 -21.27536,47.51983 -47.51983,47.51983c-26.24447,0 -47.51983,-21.27536 -47.51983,-47.51983z" fill="url(#color-30)"/><path d="M148.84207,64.44634c0,-26.24447 21.27536,-47.51983 47.51983,-47.51983c26.24447,0 47.51983,21.27535 47.51983,47.51983c0,26.24447 -21.27536,47.51983 -47.51983,47.51983c-26.24447,0 -47.51983,-21.27536 -47.51983,-47.51983z" fill="url(#color-31)"/><path d="M145.83907,41.92382c0,-26.24447 21.27535,-47.51983 47.51983,-47.51983c26.24447,0 47.51983,21.27536 47.51983,47.51983c0,26.24448 -21.27536,47.51983 -47.51983,47.51983c-26.24447,0 -47.51983,-21.27536 -47.51983,-47.51983z" fill="url(#color-32)"/><path d="M139.83306,61.44334c0,-26.24447 21.27535,-47.51983 47.51983,-47.51983c26.24447,0 47.51983,21.27536 47.51983,47.51983c0,26.24448 -21.27536,47.51983 -47.51983,47.51983c-26.24447,0 -47.51983,-21.27536 -47.51983,-47.51983z" fill="url(#color-33)"/><path d="M24.21744,115.49739c0,-119.12119 96.56681,-215.68799 215.688,-215.68799c119.12119,0 215.688,96.5668 215.688,215.688c0,119.12119 -96.56681,215.688 -215.688,215.688c-119.12119,0 -215.688,-96.56681 -215.688,-215.688z" fill="url(#color-34)"/><path d="M174.36759,71.95385c0,-26.24447 21.27535,-47.51983 47.51983,-47.51983c26.24447,0 47.51983,21.27536 47.51983,47.51983c0,26.24448 -21.27535,47.51983 -47.51983,47.51983c-26.24447,0 -47.51983,-21.27535 -47.51983,-47.51983z" fill="url(#color-35)"/><path d="M183.3766,104.98688c0,-26.24447 21.27536,-47.51983 47.51983,-47.51983c26.24448,0 47.51983,21.27536 47.51983,47.51983c0,26.24447 -21.27535,47.51983 -47.51983,47.51983c-26.24447,0 -47.51983,-21.27535 -47.51983,-47.51983z" fill="url(#color-36)"/><path d="M190.88411,166.54845c0,-26.24447 21.27536,-47.51983 47.51983,-47.51983c26.24447,0 47.51983,21.27536 47.51983,47.51983c0,26.24448 -21.27535,47.51983 -47.51983,47.51983c-26.24448,0 -47.51983,-21.27535 -47.51983,-47.51983z" fill="url(#color-37)"/><path d="M186.37961,186.06797c0,-26.24447 21.27536,-47.51983 47.51983,-47.51983c26.24447,0 47.51983,21.27536 47.51983,47.51983c0,26.24447 -21.27535,47.51983 -47.51983,47.51983c-26.24447,0 -47.51983,-21.27535 -47.51983,-47.51983z" fill="url(#color-38)"/><path d="M184.8781,210.09199c0,-26.24448 21.27536,-47.51983 47.51983,-47.51983c26.24447,0 47.51983,21.27535 47.51983,47.51983c0,26.24448 -21.27535,47.51983 -47.51983,47.51983c-26.24447,0 -47.51983,-21.27535 -47.51983,-47.51983z" fill="url(#color-39)"/><path d="M153.34657,214.59649c0,-26.24448 21.27535,-47.51983 47.51983,-47.51983c26.24447,0 47.51983,21.27535 47.51983,47.51983c0,26.24448 -21.27536,47.51983 -47.51983,47.51983c-26.24447,0 -47.51983,-21.27535 -47.51983,-47.51983z" fill="url(#color-40)"/><path d="M258.45168,223.6055c0,-26.24448 21.27535,-47.51983 47.51983,-47.51983c26.24448,0 47.51983,21.27535 47.51983,47.51983c0,26.24448 -21.27535,47.51983 -47.51983,47.51983c-26.24448,0 -47.51983,-21.27536 -47.51983,-47.51983z" fill="url(#color-41)"/><path d="M265.95919,217.5995c0,-26.24448 21.27535,-47.51983 47.51983,-47.51983c26.24448,0 47.51983,21.27535 47.51983,47.51983c0,26.24447 -21.27535,47.51983 -47.51983,47.51983c-26.24448,0 -47.51983,-21.27535 -47.51983,-47.51983z" fill="url(#color-42)"/><path d="M217.91114,165.04694c0,-26.24447 21.27536,-47.51983 47.51983,-47.51983c26.24448,0 47.51983,21.27536 47.51983,47.51983c0,26.24448 -21.27535,47.51983 -47.51983,47.51983c-26.24447,0 -47.51983,-21.27535 -47.51983,-47.51983z" fill="url(#color-43)"/><path d="M210.40363,132.01391c0,-26.24447 21.27535,-47.51983 47.51983,-47.51983c26.24448,0 47.51983,21.27536 47.51983,47.51983c0,26.24448 -21.27535,47.51983 -47.51983,47.51983c-26.24447,0 -47.51983,-21.27535 -47.51983,-47.51983z" fill="url(#color-44)"/><path d="M220.91414,98.98088c0,-26.24447 21.27536,-47.51983 47.51983,-47.51983c26.24448,0 47.51983,21.27535 47.51983,47.51983c0,26.24447 -21.27535,47.51983 -47.51983,47.51983c-26.24447,0 -47.51983,-21.27535 -47.51983,-47.51983z" fill="url(#color-45)"/><path d="M232.92615,86.96887c0,-26.24447 21.27535,-47.51983 47.51983,-47.51983c26.24448,0 47.51983,21.27535 47.51983,47.51983c0,26.24447 -21.27535,47.51983 -47.51983,47.51983c-26.24448,0 -47.51983,-21.27536 -47.51983,-47.51983z" fill="url(#color-46)"/><path d="M244.93816,52.43433c0,-26.24447 21.27535,-47.51983 47.51983,-47.51983c26.24448,0 47.51983,21.27536 47.51983,47.51983c0,26.24448 -21.27535,47.51983 -47.51983,47.51983c-26.24448,0 -47.51983,-21.27535 -47.51983,-47.51983z" fill="url(#color-47)"/><path d="M213.40663,25.4073c0,-26.24448 21.27536,-47.51983 47.51983,-47.51983c26.24447,0 47.51983,21.27535 47.51983,47.51983c0,26.24448 -21.27535,47.51983 -47.51983,47.51983c-26.24447,0 -47.51983,-21.27535 -47.51983,-47.51983z" fill="url(#color-48)"/><path d="M195.38862,19.4013c0,-26.24447 21.27536,-47.51983 47.51983,-47.51983c26.24448,0 47.51983,21.27536 47.51983,47.51983c0,26.24448 -21.27535,47.51983 -47.51983,47.51983c-26.24447,0 -47.51983,-21.27536 -47.51983,-47.51983z" fill="url(#color-49)"/><path d="M235.92916,32.91481c0,-26.24448 21.27535,-47.51983 47.51983,-47.51983c26.24448,0 47.51983,21.27535 47.51983,47.51983c0,26.24448 -21.27535,47.51983 -47.51983,47.51983c-26.24448,0 -47.51983,-21.27535 -47.51983,-47.51983z" fill="url(#color-50)"/><path d="M244.93816,32.91481c0,-26.24448 21.27535,-47.51983 47.51983,-47.51983c26.24448,0 47.51983,21.27535 47.51983,47.51983c0,26.24448 -21.27535,47.51983 -47.51983,47.51983c-26.24448,0 -47.51983,-21.27535 -47.51983,-47.51983z" fill="url(#color-51)"/><path d="M243.43666,32.91481c0,-26.24448 21.27535,-47.51983 47.51983,-47.51983c26.24448,0 47.51983,21.27535 47.51983,47.51983c0,26.24448 -21.27535,47.51983 -47.51983,47.51983c-26.24448,0 -47.51983,-21.27535 -47.51983,-47.51983z" fill="url(#color-52)"/><path d="M217.91114,29.91181c0,-26.24448 21.27536,-47.51983 47.51983,-47.51983c26.24448,0 47.51983,21.27535 47.51983,47.51983c0,26.24448 -21.27535,47.51983 -47.51983,47.51983c-26.24447,0 -47.51983,-21.27535 -47.51983,-47.51983z" fill="url(#color-53)"/><path d="M217.91114,29.91181c0,-26.24448 21.27536,-47.51983 47.51983,-47.51983c26.24448,0 47.51983,21.27535 47.51983,47.51983c0,26.24448 -21.27535,47.51983 -47.51983,47.51983c-26.24447,0 -47.51983,-21.27535 -47.51983,-47.51983z" fill="url(#color-54)"/><path d="M186.37961,208.59049c0,-26.24448 21.27536,-47.51983 47.51983,-47.51983c26.24447,0 47.51983,21.27535 47.51983,47.51983c0,26.24447 -21.27535,47.51983 -47.51983,47.51983c-26.24447,0 -47.51983,-21.27535 -47.51983,-47.51983z" fill="url(#color-55)"/><path d="M211.90513,202.58448c0,-26.24448 21.27535,-47.51983 47.51983,-47.51983c26.24448,0 47.51983,21.27535 47.51983,47.51983c0,26.24448 -21.27535,47.51983 -47.51983,47.51983c-26.24447,0 -47.51983,-21.27536 -47.51983,-47.51983z" fill="url(#color-56)"/><path d="M202.89612,145.52742c0,-26.24447 21.27536,-47.51983 47.51983,-47.51983c26.24448,0 47.51983,21.27536 47.51983,47.51983c0,26.24447 -21.27535,47.51983 -47.51983,47.51983c-26.24447,0 -47.51983,-21.27535 -47.51983,-47.51983z" fill="url(#color-57)"/><path d="M202.89612,115.49739c0,-26.24447 21.27536,-47.51983 47.51983,-47.51983c26.24448,0 47.51983,21.27535 47.51983,47.51983c0,26.24447 -21.27535,47.51983 -47.51983,47.51983c-26.24447,0 -47.51983,-21.27535 -47.51983,-47.51983z" fill="url(#color-58)"/><path d="M202.89612,79.46136c0,-26.24447 21.27536,-47.51983 47.51983,-47.51983c26.24448,0 47.51983,21.27536 47.51983,47.51983c0,26.24448 -21.27535,47.51983 -47.51983,47.51983c-26.24447,0 -47.51983,-21.27536 -47.51983,-47.51983z" fill="url(#color-59)"/><path d="M178.8721,76.45836c0,-26.24447 21.27535,-47.51983 47.51983,-47.51983c26.24447,0 47.51983,21.27536 47.51983,47.51983c0,26.24448 -21.27536,47.51983 -47.51983,47.51983c-26.24447,0 -47.51983,-21.27535 -47.51983,-47.51983z" fill="url(#color-60)"/><path d="M186.37961,59.94184c0,-26.24447 21.27536,-47.51983 47.51983,-47.51983c26.24447,0 47.51983,21.27536 47.51983,47.51983c0,26.24448 -21.27535,47.51983 -47.51983,47.51983c-26.24447,0 -47.51983,-21.27536 -47.51983,-47.51983z" fill="url(#color-61)"/><path d="M186.37961,59.94184c0,-26.24447 21.27536,-47.51983 47.51983,-47.51983c26.24447,0 47.51983,21.27536 47.51983,47.51983c0,26.24448 -21.27535,47.51983 -47.51983,47.51983c-26.24447,0 -47.51983,-21.27536 -47.51983,-47.51983z" fill="url(#color-62)"/><path d="M210.40363,68.95085c0,-26.24447 21.27535,-47.51983 47.51983,-47.51983c26.24448,0 47.51983,21.27536 47.51983,47.51983c0,26.24448 -21.27535,47.51983 -47.51983,47.51983c-26.24447,0 -47.51983,-21.27535 -47.51983,-47.51983z" fill="url(#color-63)"/><path d="M213.40663,70.45235c0,-26.24447 21.27536,-47.51983 47.51983,-47.51983c26.24447,0 47.51983,21.27536 47.51983,47.51983c0,26.24447 -21.27535,47.51983 -47.51983,47.51983c-26.24447,0 -47.51983,-21.27535 -47.51983,-47.51983z" fill="url(#color-64)"/><path d="M207.40063,187.56947c0,-26.24447 21.27536,-47.51983 47.51983,-47.51983c26.24448,0 47.51983,21.27535 47.51983,47.51983c0,26.24447 -21.27535,47.51983 -47.51983,47.51983c-26.24447,0 -47.51983,-21.27535 -47.51983,-47.51983z" fill="url(#color-65)"/><path d="M291.48471,141.02292c0,-11.31787 9.17494,-20.49281 20.4928,-20.49281c11.31786,0 20.49281,9.17494 20.49281,20.49281c0,11.31787 -9.17494,20.4928 -20.49281,20.4928c-11.31786,0 -20.4928,-9.17494 -20.4928,-20.4928z" fill="url(#color-66)"/><path d="M303.49672,148.53043c0,-11.31787 9.17494,-20.49281 20.49281,-20.49281c11.31786,0 20.4928,9.17494 20.4928,20.49281c0,11.31787 -9.17494,20.4928 -20.4928,20.4928c-11.31786,0 -20.49281,-9.17494 -20.49281,-20.4928z" fill="url(#color-67)"/><path d="M294.48771,162.04394c0,-11.31787 9.17494,-20.4928 20.49281,-20.4928c11.31786,0 20.4928,9.17494 20.4928,20.4928c0,11.31787 -9.17494,20.4928 -20.4928,20.4928c-11.31786,0 -20.49281,-9.17494 -20.49281,-20.4928z" fill="url(#color-68)"/><path d="M265.95919,166.54845c0,-11.31787 9.17494,-20.49281 20.4928,-20.49281c11.31786,0 20.49281,9.17494 20.49281,20.49281c0,11.31786 -9.17494,20.4928 -20.49281,20.4928c-11.31786,0 -20.4928,-9.17494 -20.4928,-20.4928z" fill="url(#color-69)"/><path d="M237.43066,174.05595c0,-11.31787 9.17494,-20.4928 20.4928,-20.4928c11.31787,0 20.4928,9.17493 20.4928,20.4928c0,11.31786 -9.17494,20.49281 -20.4928,20.49281c-11.31787,0 -20.4928,-9.17494 -20.4928,-20.49281z" fill="url(#color-70)"/><path d="M228.42165,172.55445c0,-11.31787 9.17494,-20.49281 20.4928,-20.49281c11.31786,0 20.4928,9.17494 20.4928,20.49281c0,11.31786 -9.17494,20.4928 -20.4928,20.4928c-11.31786,0 -20.4928,-9.17493 -20.4928,-20.4928z" fill="url(#color-71)"/><path d="M210.40363,171.05295c0,-11.31787 9.17494,-20.49281 20.4928,-20.49281c11.31787,0 20.4928,9.17494 20.4928,20.49281c0,11.31786 -9.17494,20.4928 -20.4928,20.4928c-11.31787,0 -20.4928,-9.17494 -20.4928,-20.4928z" fill="url(#color-72)"/><path d="M196.89012,166.54845c0,-11.31787 9.17493,-20.49281 20.4928,-20.49281c11.31787,0 20.49281,9.17494 20.49281,20.49281c0,11.31786 -9.17494,20.4928 -20.49281,20.4928c-11.31787,0 -20.4928,-9.17494 -20.4928,-20.4928z" fill="url(#color-73)"/><path d="M183.3766,166.54845c0,-11.31787 9.17494,-20.49281 20.49281,-20.49281c11.31787,0 20.4928,9.17494 20.4928,20.49281c0,11.31786 -9.17493,20.4928 -20.4928,20.4928c-11.31787,0 -20.49281,-9.17494 -20.49281,-20.4928z" fill="url(#color-74)"/><path d="M171.36459,162.04394c0,-11.31787 9.17494,-20.4928 20.4928,-20.4928c11.31787,0 20.49281,9.17494 20.49281,20.4928c0,11.31787 -9.17494,20.4928 -20.49281,20.4928c-11.31787,0 -20.4928,-9.17494 -20.4928,-20.4928z" fill="url(#color-75)"/><path d="M162.35558,156.03794c0,-11.31787 9.17494,-20.49281 20.49281,-20.49281c11.31787,0 20.4928,9.17494 20.4928,20.49281c0,11.31787 -9.17493,20.4928 -20.4928,20.4928c-11.31787,0 -20.49281,-9.17493 -20.49281,-20.4928z" fill="url(#color-76)"/><path d="M162.35558,148.53043c0,-11.31787 9.17494,-20.49281 20.49281,-20.49281c11.31787,0 20.4928,9.17494 20.4928,20.49281c0,11.31787 -9.17493,20.4928 -20.4928,20.4928c-11.31787,0 -20.49281,-9.17494 -20.49281,-20.4928z" fill="url(#color-77)"/><path d="M168.36159,144.02592c0,-11.31787 9.17494,-20.4928 20.49281,-20.4928c11.31787,0 20.4928,9.17494 20.4928,20.4928c0,11.31787 -9.17494,20.4928 -20.4928,20.4928c-11.31787,0 -20.49281,-9.17494 -20.49281,-20.4928z" fill="url(#color-78)"/></g></g></svg>