<svg version="1.1" xmlns="http://www.w3.org/2000/svg" xmlns:xlink="http://www.w3.org/1999/xlink" width="201" height="142.50207" viewBox="0,0,201,142.50207"><g transform="translate(-6.5,-61)"><g data-paper-data="{&quot;isPaintingLayer&quot;:true}" fill-rule="nonzero" stroke="none" stroke-width="0" stroke-linecap="butt" stroke-linejoin="miter" stroke-miterlimit="10" stroke-dasharray="" stroke-dashoffset="0" style="mix-blend-mode: normal"><path d="M14.5,98v-37h70v37z" fill="#7d7d7d"/><path d="M10.5,203.50207v-118.00207h193v118.00207z" fill="#b3b3b3"/><path d="M24.70798,137.01877v-40.5458h40.5458v40.5458z" fill="#9c9c9c"/><path d="M21.99099,139.94475v-6.06097h46.81576v6.06097z" fill="#7d7d7d"/><path d="M87.15347,137.32944v-40.5458h40.5458v40.5458z" fill="#9c9c9c"/><path d="M84.43649,140.25543v-6.06097h46.81577v6.06097z" fill="#7d7d7d"/><path d="M149.15348,137.32945v-40.54579h40.5458v40.5458z" fill="#9c9c9c"/><path d="M146.43649,140.25543v-6.06097h46.81577v6.06097z" fill="#7d7d7d"/><path d="M24.70798,189.01877v-40.54579h40.5458v40.54579z" fill="#9c9c9c"/><path d="M21.99099,191.94476v-6.06097h46.81577v6.06097z" fill="#7d7d7d"/><path d="M87.15348,189.32945v-40.54579h40.5458v40.5458z" fill="#9c9c9c"/><path d="M84.43649,192.25543v-6.06097h46.81576v6.06097z" fill="#7d7d7d"/><path d="M149.15347,189.32945v-40.54579h40.5458v40.5458z" fill="#9c9c9c"/><path d="M146.43649,192.25543v-6.06097h46.81577v6.06097z" fill="#7d7d7d"/><path d="M6.5,95.83333v-11h201v11z" fill="#9c9c9c"/></g></g></svg>