<svg version="1.1" xmlns="http://www.w3.org/2000/svg" xmlns:xlink="http://www.w3.org/1999/xlink" width="1124.07868" height="360.75046" viewBox="0,0,1124.07868,360.75046"><defs><radialGradient cx="200.41052" cy="245.18342" r="52.48843" gradientTransform="translate(-661.99115,-1085.72436) scale(4.47527,4.47527)" gradientUnits="userSpaceOnUse" id="color-1"><stop offset="0" stop-color="#ff0000"/><stop offset="1" stop-color="#f3f700"/></radialGradient><radialGradient cx="200.41052" cy="245.18342" r="52.48843" gradientTransform="translate(-661.99115,-1085.72436) scale(4.47527,4.47527)" gradientUnits="userSpaceOnUse" id="color-2"><stop offset="0" stop-color="#f3f700"/><stop offset="1" stop-color="#ff0000" stop-opacity="0.51765"/></radialGradient></defs><g transform="translate(375.86336,-87.01081)"><g data-paper-data="{&quot;isPaintingLayer&quot;:true}" fill-rule="nonzero" stroke-linecap="butt" stroke-linejoin="miter" stroke-miterlimit="10" stroke-dasharray="" stroke-dashoffset="0" style="mix-blend-mode: normal"><path d="M148.65616,446.75526l4.5045,-156.15616l99.61844,-147.86655l151.08865,44.29548l119.41144,-100.01722l79.33103,64.67199l50.55044,-29.25187l95.05466,68.74865l-25.98559,255.57568z" fill="#e5e5e5" stroke="none" stroke-width="0"/><path d="M-375.86336,447.76127l4.5045,-156.15616l99.61844,-147.86655l151.08865,44.29548l119.41144,-100.01722l79.33103,64.67199l50.55044,-29.25187l95.05466,68.74865l-25.98559,255.57568z" fill="#e5e5e5" stroke="none" stroke-width="0"/><path d="M209.78382,362.5409v-137.78853c0.67659,-0.24526 1.35517,-0.47495 2.04934,-0.58769c2.79547,-0.45398 5.17363,-0.23017 7.92929,-1.18446c2.33235,-0.82168 5.33981,-0.54024 7.79581,-0.56243c4.33175,-0.03913 8.66378,-0.02568 12.99566,-0.02569c7,0 14,0 21,0c7,0 14,0 21,0c7,0 14,0 21,0c7,0 14,0 21,0c2.85328,0 4.90929,1.33902 7.69231,1.56589c4.36966,0.35622 8.53018,-0.40779 12.78318,0.89325c2.0585,0.62972 3.91543,0.37595 5.98485,0.70666c1.63449,0.26121 3.17762,1.17536 4.81345,1.43825c3.27536,0.52637 6.63516,0.27313 9.94604,0.82835c6.97679,1.16997 13.96206,0.95656 21.01584,0.95862c7.00004,0.00204 14.00009,0.00037 21.00014,0.00037c3.57501,0 7.39523,-0.41557 10.94574,-0.00314c3.38126,0.39276 6.44466,1.39774 9.89628,1.50729c7.07597,0.22457 13.91235,-0.52753 20.72443,1.62812c7.02442,0.10054 14.05021,0.06342 21.07511,0.06342c7,0 14,0 21,0c3.40413,-0.00244 6.88676,-0.3398 10.35255,-0.85025v131.41195z" fill="#e1c0b5" stroke="none" stroke-width="NaN"/><path d="M101.78381,363.5409v-135.35587c0.57221,0.16264 1.14577,0.30465 1.72193,0.41143c4.17578,0.77397 8.85445,0.2325 13.08108,0.23263c7.20404,0.00022 13.6545,-0.30667 20.54735,2.12839c6.41312,2.26557 14.26759,1.09006 21.00556,1.09015c1.97212,0 4.10287,0.24687 6.05935,-0.00378c1.97426,-0.25293 3.86276,-1.24891 5.83434,-1.5162c2.88684,-0.39138 6.02658,-0.08403 8.9371,-0.08868c3.25132,-0.00057 5.75561,-0.91183 8.89416,-1.44824c0.94815,-0.16204 2.17965,0.17754 3.08498,-0.16541c2.61193,-0.9894 5.18191,-2.93507 8.02168,-3.12151c2.63487,-0.17534 5.42809,0.2825 8.03449,-0.09742c1.64129,-0.23925 3.19098,-1.1614 4.82731,-1.42903c2.79547,-0.45722 5.17363,-0.23181 7.92929,-1.19291c2.33235,-0.82754 5.33981,-0.5441 7.79581,-0.56645c4.33175,-0.03941 8.66378,-0.02587 12.99566,-0.02588c7,0 14,0 21,0c7,0 14,0 21,0c7,0 14,0 21,0c7,0 14,0 21,0c2.85328,0 4.90929,1.34858 7.69231,1.57707c4.36966,0.35876 8.53018,-0.41069 12.78318,0.89963c2.0585,0.63422 3.91543,0.37863 5.98485,0.7117c1.63449,0.26307 3.17762,1.18375 4.81345,1.44852c3.27536,0.53013 6.63516,0.27508 9.94604,0.83426c6.97679,1.17832 13.96206,0.96339 21.01584,0.96546c2.33142,0.00068 4.66283,0.00095 6.99425,0.001v134.71114z" fill="#f7eded" stroke="none" stroke-width="NaN"/><path d="M94.78381,363.09748v-137.05566c0.33284,0.09331 0.66436,0.17705 0.99438,0.2496c2.59856,0.57129 5.13687,1.75101 7.72755,2.22612c4.17578,0.7658 8.85445,0.23004 13.08108,0.23017c7.20404,0.00022 13.6545,-0.30343 20.54735,2.10591c2.39344,0.83661 4.98764,1.19898 7.64964,1.32457v130.91929z" fill="#f3f700" stroke="none" stroke-width="0"/><path d="M131.78382,363.09748v-133.63356c1.76742,0.31306 3.54369,0.75819 5.35036,1.38969c2.39344,0.83661 4.98764,1.19898 7.64964,1.32457v130.91929z" fill="#f7cb00" stroke="none" stroke-width="0"/><path d="M356.78382,363.09747v-136.00242c2.97107,0.3509 6.00044,0.19365 8.98992,0.69322c6.97679,1.16591 13.96206,0.95324 21.01584,0.9553c6.66475,0.00194 13.3295,0.00052 19.99425,0.00038v134.35353z" fill="#f3f700" stroke="none" stroke-width="0"/><path d="M392.78382,363.09747v-134.35294c4.33333,0.00022 8.66667,-0.00039 13,-0.00055v134.3535z" fill="#f7cb00" stroke="none" stroke-width="0"/><path d="M156.78382,361.84748v-93h47.5v93z" fill="#d0e3f7" stroke="none" stroke-width="0"/><path d="M208.28382,361.84748v-93h47.5v93z" fill="#d0e3f7" stroke="none" stroke-width="0"/><path d="M197.28382,336.64748v-23h3v23z" fill="#b4b9bd" stroke="none" stroke-width="0"/><path d="M212.48382,336.64748v-23h3v23z" fill="#b4b9bd" stroke="none" stroke-width="0"/><path d="M264.2838,333.09747v-97h85v97z" fill="#d0e3f7" stroke="none" stroke-width="0"/><path d="M260.61715,337.76415v-10h88.66667v10z" fill="#f7eded" stroke="none" stroke-width="0"/><path d="M342.61715,337.76415v-10h6.66667v10z" fill="#e1c0b5" stroke="none" stroke-width="0"/><path d="M302.9779,318.14615l3.65443,-28.7134l11.85829,-8.62685l28.09911,3.57625l-4.92392,38.68792z" fill="#f7f7f7" stroke="none" stroke-width="0"/><path d="M307.15047,288.76415l10.8,-8.4l-2.8,8.8z" fill="#dcdce7" stroke="none" stroke-width="0"/><text transform="translate(147.92192,242.60511) scale(0.22345,0.22345)" font-size="40" xml:space="preserve" fill="url(#color-1)" fill-rule="nonzero" stroke="url(#color-2)" stroke-width="1" stroke-linecap="butt" stroke-linejoin="miter" stroke-miterlimit="10" stroke-dasharray="" stroke-dashoffset="0" font-family="Sans Serif" font-weight="normal" text-anchor="start" style="mix-blend-mode: normal"><tspan x="0" dy="0">    MADE BY DOGEISCUT</tspan><tspan x="0" dy="46.150000000000006px"> </tspan><tspan x="0" dy="46.150000000000006px">YOU FIND IT ON SCRATCH</tspan></text></g></g></svg>