<svg version="1.1" xmlns="http://www.w3.org/2000/svg" xmlns:xlink="http://www.w3.org/1999/xlink" width="1052.55255" height="767.26727" viewBox="0,0,1052.55255,767.26727"><g transform="translate(286.27626,203.63364)"><g data-paper-data="{&quot;isPaintingLayer&quot;:true}" fill-rule="nonzero" stroke-linejoin="miter" stroke-miterlimit="10" stroke-dasharray="" stroke-dashoffset="0" style="mix-blend-mode: normal"><path d="M-286.27626,563.63364v-767.26727h1052.55255v767.26727z" fill="none" stroke="none" stroke-width="0" stroke-linecap="butt"/><path d="M251.08083,185.25973c-0.90222,0 -1.76726,0.93323 -3.8665,0.85147c-4.20768,-0.16388 -10.85917,-1.38799 -15.10445,-1.2553c-0.36147,0.0113 -2.44461,-2.9702 -2.75389,-2.94599c-1.77525,0.13895 -0.59487,2.2743 -1.16246,3.33129c-0.44569,0.82997 -2.56146,0.67612 -3.8929,0.5976c0.21684,-1.20776 0.33627,-2.44508 0.40478,-3.66573c0.07836,-1.3963 -0.18446,-6.29138 1.49714,-7.13359c0.25015,-0.12529 0.4568,0.32667 0.70586,0.4541c2.25344,1.1529 4.38396,1.52732 6.797,1.9295c3.97117,0.66186 5.45778,-2.55429 8.625,-3.53629c0.34896,-0.1082 4.54924,2.69419 5.32464,2.98772c2.05571,0.77819 5.40269,0.00016 7.14608,1.04857c1.18094,0.71017 0.90195,4.72536 0.77927,5.625c-0.03241,0.23764 -0.07942,0.47605 -0.13251,0.71482c-1.15155,0.46333 -2.81461,0.99684 -4.36706,0.99684z" fill="#e06446" stroke="#a02222" stroke-width="4" stroke-linecap="butt"/><path d="M236.185,179.44722l1.625,0.125" fill="none" stroke="#d64a42" stroke-width="4" stroke-linecap="round"/><path d="M251.78403,177.31067l0.02597,0.01154" fill="none" stroke="#d64a42" stroke-width="4" stroke-linecap="round"/><path d="M241.81,182.57222l2.625,0.375" fill="none" stroke="#a02222" stroke-width="4" stroke-linecap="round"/><path d="M245.185,177.19722l-1.75,0.125" fill="none" stroke="#a02222" stroke-width="4" stroke-linecap="round"/></g></g></svg>