<svg version="1.1" xmlns="http://www.w3.org/2000/svg" xmlns:xlink="http://www.w3.org/1999/xlink" width="48.36806" height="110.3452" viewBox="0,0,48.36806,110.3452"><g transform="translate(-221.77891,-115.82824)"><g data-paper-data="{&quot;isPaintingLayer&quot;:true}" fill-rule="nonzero" stroke="none" stroke-linecap="butt" stroke-linejoin="miter" stroke-miterlimit="10" stroke-dasharray="" stroke-dashoffset="0" style="mix-blend-mode: normal"><path d="M240.85574,158.51716c-0.01745,0.09831 -0.04024,0.19984 -0.06883,0.30469c-0.65779,2.41191 -3.0697,1.75412 -3.0697,1.75412c-3.575,-0.98023 -5.87016,-1.6167 -8.2843,-4.58767c-2.41635,-2.97367 -2.64285,-3.14722 -3.69854,-6.59292c-1.78409,-5.82316 -0.91069,-12.84623 5.52812,-15.32783c2.14975,-0.82854 3.88724,-0.65033 6.11252,-0.6535c1.32146,-0.00188 5.57477,-0.14828 6.82057,0.49083c3.30872,1.69742 2.58994,2.82959 4.25505,5.3657c0.57125,0.87006 1.61156,1.44274 1.97606,2.41766c0.47711,1.27612 0.29787,2.70845 0.4468,4.06268c-1.00485,6.2304 -4.20461,11.33867 -10.01775,12.76623zM235.50022,154.67809c0.7405,-0.76403 1.87478,-0.76403 1.87478,-0.76403h0.25c4.84524,0.08891 7.60579,-3.78484 8.25151,-8.33687c-0.04809,-1.75137 -2.01704,-6.30936 -3.82209,-7.15395c-1.4128,-0.66106 -3.11961,-0.00666 -4.67942,-0.00917c-1.78376,-0.00287 -4.3537,-0.28954 -5.82616,1.10694c-2.35539,2.23386 -1.86041,5.66879 -1.0332,8.41172c0.54383,1.80327 1.64096,3.42359 2.80146,4.90708c0.72418,0.92574 1.41694,1.46543 2.18312,1.83828z" fill="#003c20" stroke-width="0.5"/><path d="M233.2883,152.88068c-1.1605,-1.48349 -2.27778,-3.13448 -2.82161,-4.93775c-0.82721,-2.74293 -1.30702,-6.22493 1.04837,-8.45879c1.47246,-1.39648 4.07319,-1.12285 5.85695,-1.11998c1.55981,0.00251 3.2929,-0.64622 4.7057,0.01484c1.80505,0.84459 3.80044,5.4417 3.84853,7.19307c-0.64572,4.55203 -3.45753,8.48088 -8.30277,8.39197l-0.25166,-0.00008c0,0 -1.14478,-0.00181 -1.88528,0.76222c-0.76618,-0.37285 -1.47407,-0.91976 -2.19825,-1.8455z" data-paper-data="{&quot;noHover&quot;:false,&quot;origItem&quot;:[&quot;Path&quot;,{&quot;applyMatrix&quot;:true,&quot;segments&quot;:[[[235.50022,154.67809],[-0.76618,-0.37285],[0.7405,-0.76403]],[237.375,153.91406],[[237.625,153.91406],[0,0],[4.84524,0.08891]],[[245.87651,145.57719],[-0.64572,4.55203],[-0.04809,-1.75137]],[[242.05442,138.42324],[1.80505,0.84459],[-1.4128,-0.66106]],[[237.375,138.41407],[1.55981,0.00251],[-1.78376,-0.00287]],[[231.54884,139.52101],[1.47246,-1.39648],[-2.35539,2.23386]],[[230.51564,147.93273],[-0.82721,-2.74293],[0.54383,1.80327]],[[233.3171,152.83981],[-1.1605,-1.48349],[0.72418,0.92574]]],&quot;closed&quot;:true,&quot;fillColor&quot;:[0,0,0,1],&quot;strokeWidth&quot;:0.5}]}" fill="#000000" stroke-width="0.25"/><path d="M233.40953,224.67941c-1.01534,2.28453 -3.29987,1.26918 -3.29987,1.26918l-3.62922,-4.0029c1.15634,-3.78503 3.47142,-6.3674 5.1376,-9.85686c2.09175,-4.38072 3.06888,-9.96519 4.05563,-14.6662c-0.99963,-3.89933 0.20255,-8.54507 0.20133,-12.50857c-0.00283,-9.17179 0.25,-18.32346 0.25,-27.5c0,0 0,-2.5 2.5,-2.5c2.5,0 2.5,2.5 2.5,2.5c0,9.17656 -0.24727,18.32831 -0.25,27.5c-0.00102,3.43093 -1.30754,7.99618 -0.34072,11.33266c1.49047,5.14354 5.61742,9.41586 7.20094,14.5931c0.66615,1.66475 1.54712,3.23805 2.21371,4.90263c0.32343,0.80767 0.61835,1.63999 0.75,2.5c0.05535,0.36156 -0.56437,1.12962 -0.20219,1.07852c0.55589,-0.07843 0.77781,-0.80974 1.16672,-1.2146l0.69378,-0.96008c0,0 1.76776,-1.76776 3.53553,0c1.76777,1.76776 0,3.53554 0,3.53554l-2.30623,2.03992c-1.61109,0.42846 -3.25969,1.83588 -4.83328,1.2854c-1.4984,-0.52418 -1.95051,-2.52327 -2.70218,-3.92147c-1.19278,-2.21871 -2.08704,-5.2235 -3.03629,-7.59737c-0.79865,-2.72323 -2.32647,-5.18962 -3.81843,-7.66541c-0.76674,3.27327 -1.70575,6.55701 -3.06439,9.4164c-1.54918,3.26041 -3.83253,5.63129 -4.86239,9.14314l0.87078,-2.0029c0,0 2.28453,1.01535 1.26918,3.29988z" fill="#003c20" stroke-width="0.5"/><path d="M255.08443,155.04235c2.37171,-0.79057 3.16228,1.58114 3.16228,1.58114l0.33797,1.09336c0.05298,0.29143 0.13823,0.67729 0.24146,1.12932c1.09714,-0.13544 2.19001,-0.3083 3.28996,-0.41866c0.84129,-0.08441 1.68816,-0.21205 2.53177,-0.15536c0.2339,0.01572 0.7356,0.55754 0.60065,0.36584c-0.92531,-1.31437 -1.80276,-2.71697 -2.26807,-4.25556l-0.28079,-1.11203c0,0 -0.60634,-2.42536 1.81902,-3.0317c2.42536,-0.60634 3.0317,1.81902 3.0317,1.81902l0.21921,0.88797c0.7199,2.4221 2.96592,4.82658 2.23193,7.24444c-0.97567,3.21398 -5.07412,2.95112 -7.36759,3.21048c-0.94293,0.10663 -1.87521,0.23626 -2.80128,0.37792c0.26588,1.82836 0.31084,3.50526 -0.27427,4.2205c-0.95543,1.16792 -2.93575,0.73049 -4.43336,0.91503c-4.88628,0.6021 -10.55686,0.44587 -15.38014,-0.27907c0,0 -2.47093,-0.38014 -2.09079,-2.85107c0.12277,-0.79803 0.46363,-1.29867 0.8689,-1.61077c-0.37028,-0.37037 -0.64797,-0.92588 -0.64797,-1.75908c0,-2.5 2.5,-2.5 2.5,-2.5c4.62501,0 8.96655,-0.20537 13.40154,-0.57644c-0.03138,-0.24378 -0.06754,-0.48617 -0.11121,-0.72635l-0.16203,-0.40664c0,0 -0.79057,-2.37171 1.58114,-3.16228z" fill="#003c20" stroke-width="0.5"/><path d="M221.77892,120.97385c-0.00235,-3.59088 4.40462,-4.81391 6.91299,-3.9145c1.05813,0.37941 1.4981,1.67633 2.24715,2.5145l0.47728,1.95819c0,0 0.05812,1.54807 -1.21766,2.10323l0.22423,0.59703c1.37846,3.68341 2.33578,7.29923 2.969,11.17649c0,0 0.35693,2.18554 -1.82861,2.54247c-2.18554,0.35693 -2.54247,-1.82861 -2.54247,-1.82861c-0.58598,-3.58804 -1.45848,-6.92363 -2.74411,-10.33311l-0.16119,-0.42918c-2.04668,-0.60952 -4.33465,-1.3885 -4.33661,-4.38651z" fill="#003c20" stroke-width="0.5"/><path d="M237.98994,118.90144c0.89893,-3.55916 5.57322,-3.66509 7.83327,-2.1442c0.95338,0.64157 1.06388,2.03725 1.59582,3.05588l-0.0185,2.06035c0,0 -0.33094,1.54873 -1.73458,1.77869l0.07237,0.64793c0.44157,3.99624 0.48275,7.81979 0.13713,11.82109c0,0 -0.19483,2.25546 -2.45028,2.06064c-2.25546,-0.19482 -2.06063,-2.45028 -2.06063,-2.45028c0.31984,-3.70282 0.29238,-7.22738 -0.12595,-10.92886l-0.05203,-0.46577c-1.87528,-1.11772 -3.94715,-2.46394 -3.19663,-5.43546z" fill="#003c20" stroke-width="0.5"/></g></g></svg>