<svg version="1.1" xmlns="http://www.w3.org/2000/svg" xmlns:xlink="http://www.w3.org/1999/xlink" width="71.1872" height="59.28102" viewBox="0,0,71.1872,59.28102"><g transform="translate(-231.99614,-122.95002)"><g data-paper-data="{&quot;isPaintingLayer&quot;:true}" fill-rule="nonzero" stroke-linejoin="miter" stroke-miterlimit="10" stroke-dasharray="" stroke-dashoffset="0" style="mix-blend-mode: normal"><path d="M239.51667,180.40001c0,0 3.0716,-44.84599 4.32876,-54.37242c30.75392,1.79971 54.10052,30.15792 55.09104,53.17242c-17.64082,-0.3306 -59.4198,1.2 -59.4198,1.2z" fill="#ffff87" stroke="none" stroke-width="0" stroke-linecap="butt"/><path d="M239.51667,180.40001c0,0 -5.76174,-45.84599 -6.33791,-55.53909c8.14949,-0.86618 26.0999,2.55707 31.78978,6.94515c-8.69119,16.56774 -25.45187,48.59394 -25.45187,48.59394z" fill="#ff8282" stroke="none" stroke-width="0" stroke-linecap="butt"/><path d="M239.51667,180.40001c0,0 42.4586,-22.28233 50.21605,-26.85309c5.53776,8.23761 8.84413,17.29753 9.20375,25.65309c-17.64082,-0.3306 -59.4198,1.2 -59.4198,1.2z" fill="#83ff93" stroke="none" stroke-width="0" stroke-linecap="butt"/><path d="M302.18334,180.21668l-63.2311,1l-5.9561,-57.26666" fill="none" stroke="#000000" stroke-width="2" stroke-linecap="round"/></g></g></svg>