<svg version="1.1" xmlns="http://www.w3.org/2000/svg" xmlns:xlink="http://www.w3.org/1999/xlink" width="242.93755" height="181.99999" viewBox="0,0,242.93755,181.99999"><defs><radialGradient cx="240" cy="180.00002" r="90.99999" gradientUnits="userSpaceOnUse" id="color-1"><stop offset="0" stop-color="#00d6ff"/><stop offset="1" stop-color="#00d6ff" stop-opacity="0"/></radialGradient><radialGradient cx="240" cy="180.00002" r="71.40669" gradientUnits="userSpaceOnUse" id="color-2"><stop offset="0" stop-color="#efff00"/><stop offset="1" stop-color="#efff00" stop-opacity="0"/></radialGradient><radialGradient cx="240" cy="180.00002" r="50.94258" gradientUnits="userSpaceOnUse" id="color-3"><stop offset="0" stop-color="#ffffff"/><stop offset="1" stop-color="#ffffff" stop-opacity="0"/></radialGradient><linearGradient x1="240" y1="152.04599" x2="240" y2="207.95402" gradientTransform="translate(-56.59517,-206.80316) rotate(3.76869) scale(0.80155,1.03201) skewX(-18.6505)" gradientUnits="userSpaceOnUse" id="color-4"><stop offset="0" stop-color="#000000"/><stop offset="1" stop-color="#4200a5"/></linearGradient><linearGradient x1="240" y1="152.04599" x2="240" y2="207.95402" gradientTransform="translate(-56.59517,-206.80316) rotate(3.76869) scale(0.80155,1.03201) skewX(-18.6505)" gradientUnits="userSpaceOnUse" id="color-5"><stop offset="0" stop-color="#008eff"/><stop offset="1" stop-color="#000000"/></linearGradient></defs><g transform="translate(-122.66534,-89.00002)"><g data-paper-data="{&quot;isPaintingLayer&quot;:true}" fill-rule="nonzero" stroke-linecap="butt" stroke-linejoin="miter" stroke-miterlimit="10" stroke-dasharray="" stroke-dashoffset="0" style="mix-blend-mode: normal"><path d="M149,180.00002c0,-50.2579 40.74209,-90.99999 90.99999,-90.99999c50.25792,0 90.99999,40.74209 90.99999,90.99999c0,50.2579 -40.74206,90.99999 -90.99999,90.99999c-50.2579,0 -90.99999,-40.74209 -90.99999,-90.99999z" fill="url(#color-1)" stroke="none" stroke-width="NaN"/><path d="M168.5933,180.00002c0,-39.43682 31.96987,-71.40669 71.40669,-71.40669c39.43684,0 71.40669,31.96987 71.40669,71.40669c0,39.43682 -31.96986,71.40669 -71.40669,71.40669c-39.43682,0 -71.40669,-31.96987 -71.40669,-71.40669z" fill="url(#color-2)" stroke="none" stroke-width="NaN"/><path d="M189.05741,180.00002c0,-28.13481 22.80778,-50.94258 50.94258,-50.94258c28.13482,0 50.94258,22.80778 50.94258,50.94258c0,28.13481 -22.80777,50.94258 -50.94258,50.94258c-28.13481,0 -50.94258,-22.80778 -50.94258,-50.94258z" fill="url(#color-3)" stroke="none" stroke-width="NaN"/><text transform="translate(153.68472,196.35137) rotate(-2.98015) scale(1.22504,0.98681) skewX(16.2697)" font-size="40" xml:space="preserve" fill="#ffffff" fill-rule="nonzero" stroke="url(#color-4)" stroke-width="18" stroke-linecap="butt" stroke-linejoin="miter" stroke-miterlimit="10" stroke-dasharray="" stroke-dashoffset="0" font-family="Marker" font-weight="normal" text-anchor="start" style="mix-blend-mode: normal"><tspan x="0" dy="0">Godlike!</tspan></text><text transform="translate(153.68472,196.35137) rotate(-2.98015) scale(1.22504,0.98681) skewX(16.2697)" font-size="40" xml:space="preserve" fill="#ffffff" fill-rule="nonzero" stroke="#ffffff" stroke-width="9" stroke-linecap="butt" stroke-linejoin="miter" stroke-miterlimit="10" stroke-dasharray="" stroke-dashoffset="0" font-family="Marker" font-weight="normal" text-anchor="start" style="mix-blend-mode: normal"><tspan x="0" dy="0">Godlike!</tspan></text><text transform="translate(153.68472,196.35137) rotate(-2.98015) scale(1.22504,0.98681) skewX(16.2697)" font-size="40" xml:space="preserve" fill="url(#color-5)" fill-rule="nonzero" stroke-opacity="0" stroke="#000000" stroke-width="0" stroke-linecap="butt" stroke-linejoin="miter" stroke-miterlimit="10" stroke-dasharray="" stroke-dashoffset="0" font-family="Marker" font-weight="normal" text-anchor="start" style="mix-blend-mode: normal"><tspan x="0" dy="0">Godlike!</tspan></text></g></g></svg>