<svg version="1.1" xmlns="http://www.w3.org/2000/svg" xmlns:xlink="http://www.w3.org/1999/xlink" width="43.7406" height="95.27596" viewBox="0,0,43.7406,95.27596"><g transform="translate(-216.33706,-138.02661)"><g data-paper-data="{&quot;isPaintingLayer&quot;:true}" fill-rule="nonzero" stroke="none" stroke-linecap="butt" stroke-linejoin="miter" stroke-miterlimit="10" stroke-dasharray="" stroke-dashoffset="0" style="mix-blend-mode: normal"><path d="M242.44409,143.08212c-0.20746,0.01486 -0.34083,0.00446 -0.34083,0.00446c-1.47447,-0.13184 -3.01368,-0.16345 -4.43374,0.25472c-1.42735,0.42032 -2.99371,0.6142 -4.2188,1.45868c-1.17723,0.81148 -1.05582,2.03152 -1.31725,3.27276c-0.42743,2.0294 -1.59973,6.26313 -0.08043,8.19266c0.42102,0.53471 1.22356,0.62128 1.74794,1.05509c4.26716,3.53023 8.67495,5.19808 13.40917,1.16326c1.71463,-2.45381 2.935,-7.32434 1.8347,-10.26969c-0.97431,-2.60809 -4.00758,-4.08612 -6.36913,-5.00524zM242.81863,138.15681c0.91124,-0.10892 1.70424,0.36801 1.70424,0.36801l-0.00965,0.0339c3.64685,1.45907 7.7603,3.90724 9.21192,7.89617c1.79364,4.92879 -0.0303,11.35635 -2.80438,15.38017c-1.92599,1.65102 -3.18949,3.08322 -5.78422,3.77649c-5.70385,1.52396 -10.53568,-0.94987 -14.58818,-4.49361c-0.79951,-0.69914 -1.93912,-1.04541 -2.54393,-1.91845c-3.16377,-4.56691 -1.82407,-14.95626 2.4387,-18.39382c0.69299,-0.55884 4.98959,-2.03363 5.87407,-2.27802c1.98863,-0.54948 4.11655,-0.56841 6.17477,-0.42593c0,0 0.12927,0.01008 0.32664,0.05509z" fill="#370000" stroke-width="0.5"/><path d="M242.68846,143.16047c2.36155,0.91912 5.42806,2.42585 6.40237,5.03394c1.1003,2.94535 -0.13001,7.87019 -1.84464,10.324c-4.73422,4.03482 -9.21669,2.36404 -13.48385,-1.16619c-0.52438,-0.43381 -1.3326,-0.52897 -1.75362,-1.06368c-1.5193,-1.92953 -0.348,-6.20752 0.07943,-8.23692c0.26143,-1.24124 0.15046,-2.47598 1.32769,-3.28746c1.22509,-0.84448 2.81126,-1.05021 4.23861,-1.47053c1.42006,-0.41817 2.98391,-0.38796 4.45838,-0.25612c0,0 0.13517,0.01079 0.34263,-0.00407z" data-paper-data="{&quot;noHover&quot;:false,&quot;origItem&quot;:[&quot;Path&quot;,{&quot;applyMatrix&quot;:true,&quot;segments&quot;:[[[242.44409,143.08212],[0,0],[-0.20746,0.01486]],[[242.10326,143.08658],[0,0],[-1.47447,-0.13184]],[[237.66952,143.3413],[1.42006,-0.41817],[-1.42735,0.42032]],[[233.45072,144.79998],[1.22509,-0.84448],[-1.17723,0.81148]],[[232.13347,148.07274],[0.26143,-1.24124],[-0.42743,2.0294]],[[232.05304,156.2654],[-1.5193,-1.92953],[0.42102,0.53471]],[[233.80098,157.32049],[-0.52438,-0.43381],[4.26716,3.53023]],[[247.21015,158.48375],[-4.73422,4.03482],[1.71463,-2.45381]],[[249.04485,148.21406],[1.1003,2.94535],[-0.97431,-2.60809]],[[242.67572,143.20882],[2.36155,0.91912],[0,0]]],&quot;closed&quot;:true,&quot;fillColor&quot;:[0.21569,0,0],&quot;strokeWidth&quot;:0.5}]}" fill="#ffffff" stroke-width="0.25"/><path d="M253.82155,228.00971c-0.19437,2.49244 -2.6868,2.29807 -2.6868,2.29807l-1.44383,-0.27974c-1.91341,-0.91843 -4.6359,-0.92891 -5.74962,-2.73564c-0.77116,-1.25101 -0.20234,-2.93458 -0.20176,-4.40418c0.0011,-2.78665 1.56439,-7.08051 0.88022,-9.71134c-0.18182,-0.69914 -0.93739,-1.1282 -1.21286,-1.796c-1.64854,-3.99642 -2.6135,-7.90678 -6.24588,-10.66896c0,0 -0.65035,-0.51083 -0.90914,-1.31894c-0.60865,-0.78796 -0.52802,-1.82202 -0.52802,-1.82202l0.17532,-2.24821c0.79561,-10.20256 0.93335,-20.10373 1.04794,-30.28685c0,0 0.02814,-2.49984 2.52799,-2.47171c2.49984,0.02813 2.4717,2.52799 2.4717,2.52799c-0.11584,10.28901 -0.25895,20.31163 -1.06276,30.6193l-0.11698,1.50011c3.90725,3.38177 5.36455,7.52758 7.25011,12.23395c0.36549,0.91226 1.25079,1.59998 1.46334,2.55947c0.53146,2.39917 -0.3584,6.17206 -0.55156,8.64902c-0.06818,0.8743 -0.01612,1.76643 -0.20454,2.62291c-0.09843,0.44745 -0.86744,0.81859 -0.64005,1.21634c0.20643,0.36107 0.83408,-0.284 1.23544,-0.1749c0.89832,0.24418 1.68228,0.79773 2.52341,1.1966l-0.31973,-0.19207c0,0 2.49244,0.19436 2.29807,2.6868z" fill="#370000" stroke-width="0.5"/><path d="M235.60672,232.2147c-1.44901,2.03725 -3.48625,0.58823 -3.48625,0.58823l-1.06708,-0.77095c-2.21992,-2.01895 -3.81288,-2.67499 -3.54779,-6.38384c0.25027,-3.5015 4.7475,-6.19573 5.70067,-9.43517c0.489,-1.66193 0.18614,-3.4737 0.54508,-5.16849c0.82268,-3.88444 1.1421,-7.65883 1.45172,-11.62924c0,0 0.19437,-2.49244 2.6868,-2.29807c2.49244,0.19437 2.29807,2.6868 2.29807,2.6868c-0.32589,4.17908 -0.66127,8.17249 -1.54246,12.26398c-0.40066,1.86031 -0.10878,3.85247 -0.677,5.66863c-0.97525,3.11711 -4.63049,5.55363 -5.50256,8.54019c-0.22272,0.76278 1.81873,1.94091 1.83381,1.9524l0.71877,0.49926c0,0 2.03724,1.44901 0.58823,3.48626z" fill="#370000" stroke-width="0.5"/><path d="M254.91606,149.46499c2.38945,0.73521 1.65423,3.12466 1.65423,3.12466l-0.66892,2.07948c0,4.98305 3.42953,8.98489 3.7265,13.9309c0.09903,1.64936 1.03226,3.77386 -0.12273,4.95547c-1.11857,1.14436 -3.20712,0.23383 -4.80002,0.08078c-2.59641,-0.24947 -3.26387,-1.04339 -5.4795,-2.01795c-3.18955,-1.40294 -6.52466,-2.15407 -9.79166,-3.31557c0,0 -0.02281,-0.00815 -0.06314,-0.02508l-1.55543,0.99977c-4.72621,1.45422 -8.84471,3.08348 -13.87981,2.92933c-3.18375,-0.09748 -6.57008,0.09641 -7.56293,-4.24633c-0.42948,-1.87856 3.15361,-6.27765 3.94821,-8.08992c0.77767,-1.77366 2.80477,-4.50436 2.79848,-6.4309c-0.00588,-1.80157 -0.44762,-3.57754 -0.56114,-5.37554c0,0 -0.15595,-2.49513 2.33919,-2.65108c2.49513,-0.15595 2.65108,2.33919 2.65108,2.33919c0.1219,1.97182 0.68715,3.92774 0.56637,5.89962c-0.13008,2.1238 -1.55217,3.96869 -2.50387,5.87177c-1.40376,2.80706 -2.13873,5.46815 -4.27965,7.79532c-0.0974,0.10588 0.28027,-0.0744 0.424,-0.08064c0.71964,-0.03121 1.44112,0.00052 2.16073,-0.03146c0.91633,-0.04072 1.82851,-0.16029 2.74536,-0.18655c3.37451,-0.09665 6.41868,-1.51713 9.68355,-2.5217l1.18075,-0.97407c0,0 1.49835,-1.04885 2.82899,-0.07074c0.44344,0.02691 0.76094,0.1403 0.76094,0.1403c4.11105,1.47562 8.17423,3.0034 12.25958,4.52656c0.34964,0.13036 0.73344,0.17778 1.11387,0.22885c-0.13171,-0.39928 -0.2343,-0.79203 -0.30127,-1.08723c-1.0717,-4.72393 -3.23086,-8.30029 -3.23086,-13.33657l0.83444,-2.80643c0,0 0.73521,-2.38945 3.12466,-1.65423z" fill="#370000" stroke-width="0.5"/></g></g></svg>