<svg version="1.1" xmlns="http://www.w3.org/2000/svg" xmlns:xlink="http://www.w3.org/1999/xlink" width="1052.55255" height="767.26727" viewBox="0,0,1052.55255,767.26727"><g transform="translate(286.27628,203.63365)"><g data-paper-data="{&quot;isPaintingLayer&quot;:true}" fill-rule="nonzero" stroke-linejoin="miter" stroke-miterlimit="10" stroke-dasharray="" stroke-dashoffset="0" style="mix-blend-mode: normal"><path d="M-286.27627,563.63363v-767.26727h1052.55255v767.26727z" fill="none" stroke="none" stroke-width="0" stroke-linecap="butt"/><path d="M225.87953,173.07165c0.96609,0 3.43711,-1.46019 5.50194,-1.39354c3.81956,0.12328 -0.00727,1.69947 5.04992,2.17315c2.60382,0.24389 10.07188,-0.43288 14.27344,0.37c1.83845,0.35131 2.25629,1.4141 2.98909,2.08814c0.30227,0.93654 0.73892,1.8127 1.28723,2.60576c-0.413,1.05293 -0.91119,1.9994 -1.44304,2.54886c-0.59875,0.61858 -1.65425,0.87638 -1.96093,1.6808c-0.26217,0.68766 -0.26598,1.42797 -0.23655,2.17687c-0.19067,0.02012 -0.33939,0.04791 -0.42855,0.08688c-0.05644,0.02467 -4.59262,2.11842 -4.61857,2.10843c-3.00698,-1.15644 -5.10266,-3.25599 -9.10772,-2.25473c-1.09129,0.27282 -2.21164,1.03643 -3.07049,1.65345c-0.08535,0.06132 -1.915,1.58563 -2.08284,1.39127c-2.49729,-2.89189 -3.37579,-6.48769 -4.66035,-9.92185c-0.26643,-1.97452 -1.10913,-3.76621 -2.35325,-5.20023c0.24044,-0.07074 0.5247,-0.11326 0.86068,-0.11326z" fill="#e06446" stroke="#a02222" stroke-width="4" stroke-linecap="butt"/><path d="M229.06703,178.75915l2.125,0.75" fill="none" stroke="#d64a42" stroke-width="4" stroke-linecap="round"/><path d="M245.81703,180.75915l-0.375,0.125" fill="none" stroke="#d64a42" stroke-width="4" stroke-linecap="round"/><path d="M246.06703,176.00915l5,0.5" fill="none" stroke="#a02222" stroke-width="4" stroke-linecap="round"/><path d="M238.69203,176.38415l-2.625,-0.5" fill="none" stroke="#a02222" stroke-width="4" stroke-linecap="round"/><path d="M237.94203,181.63415l-1.625,0.125" fill="none" stroke="#a02222" stroke-width="4" stroke-linecap="round"/></g></g></svg>