<svg version="1.1" xmlns="http://www.w3.org/2000/svg" xmlns:xlink="http://www.w3.org/1999/xlink" width="57.63059" height="97.09192" viewBox="0,0,57.63059,97.09192"><g transform="translate(-213.63115,-115.32824)"><g data-paper-data="{&quot;isPaintingLayer&quot;:true}" fill-rule="nonzero" stroke="none" stroke-linecap="butt" stroke-linejoin="miter" stroke-miterlimit="10" stroke-dasharray="" stroke-dashoffset="0" style="mix-blend-mode: normal"><path d="M257.12498,155.91406c1.83039,0 2.32065,1.34014 2.45196,2.05803c2.46869,-0.37202 5.12899,-0.73365 6.95312,-0.05363c-0.23136,-0.11424 -0.51475,-0.28117 -0.5882,-0.43002c-0.40777,-0.82633 -0.48586,-1.77773 -0.72879,-2.66659l-0.31296,-2.05424c0,0 -0.35355,-2.47487 2.12132,-2.82843c2.47487,-0.35355 2.82843,2.12132 2.82843,2.12132l0.18704,1.44576c0.43945,1.61453 1.83722,5.89003 0.91822,7.29454c-1.38996,2.12427 -7.24074,2.00449 -9.46684,2.11068c-0.8627,0.04115 -1.72418,0.08527 -2.58474,0.13121c-0.39527,1.39096 -1.01635,2.70965 -2.21422,3.49798c-1.13734,0.74849 -4.75684,0.20896 -6.33981,0.36327c-3.52945,0.34406 -6.57503,0.61921 -9.90743,0.15126c0.17908,2.89119 0.41805,5.77616 0.6744,8.65264c0.02108,0.23649 0.00176,5.64452 -0.00365,5.70255c-0.07885,0.84617 -0.37583,1.65928 -0.5,2.5c-0.10687,0.72354 -0.76236,2.17889 -0.03112,2.19396c1.32489,0.02729 2.47778,-1.05207 3.79695,-1.17813c3.58656,-0.34274 7.39266,-0.01217 10.99634,-0.01217c1.56424,0.0194 3.08833,-0.50227 4.63697,-0.7235c0.29205,-0.04172 3.34787,0.2079 4.12581,-0.28602c0.97529,-0.61922 0.50773,-1.92271 0.48722,-2.74048c-0.08572,-3.41674 -0.07347,-6.84958 0.26241,-10.24876l-0.01241,-0.50124c0,0 0,-2.5 2.5,-2.5c2.5,0 2.5,2.5 2.5,2.5l-0.01241,0.99876c-0.32995,3.25674 -0.17634,6.48269 -0.23759,9.75124c-0.02015,1.07523 0.26745,2.21644 -0.10727,3.22446c-1.79441,4.82705 -4.71728,4.1687 -8.7797,4.74904c-1.78816,0.25545 -3.55679,0.75978 -5.36303,0.7765c-3.43873,0 -7.08156,-0.33675 -10.50366,-0.01217c-0.89453,0.08484 -2.54121,0.57787 -3.96272,0.82881c0.05029,2.74614 0.07757,5.49721 -0.58217,8.17365c-0.29936,1.21446 -0.2034,2.66922 -1.02947,3.60845c-3.1461,3.57709 -11.27118,2.65344 -15.42199,2.65126c-1.29631,-0.00068 -2.76445,-0.8053 -3.88585,-0.15499c-1.09851,0.63704 -0.82368,2.4035 -1.29296,3.58346l-0.08648,1.5976c0,0 -0.27608,2.48471 -2.76079,2.20863c-2.48471,-0.27608 -2.20863,-2.76079 -2.20863,-2.76079l0.41352,-2.9024c0.6174,-1.53567 1.82176,-5.03188 3.20704,-5.91654c2.03309,-1.29836 6.7232,-0.65631 9.11415,-0.65499c2.74233,0.00151 5.11741,-0.19635 7.80868,-0.65251c0.42212,-0.07155 1.00583,0.14122 1.26934,-0.19623c0.28555,-0.36567 -0.0843,-0.93085 -0.02947,-1.39155c0.39077,-3.28311 0.45145,-6.42442 0.45145,-9.75971c0,0 0,-0.20457 0.05852,-0.49668c-0.43184,-1.30924 -0.39546,-2.78817 -0.29635,-4.24966c0.53184,-7.8428 -0.33487,-15.61588 -0.48926,-23.50267c-3.68622,-0.5523 -7.21458,-2.32478 -9.83904,-5.28294c-4.52694,-5.10255 -2.98094,-12.89111 1.61386,-17.13818c0.06945,-0.13756 0.12215,-0.21661 0.12215,-0.21661l0.81236,-1.13102c6.28486,-5.91647 17.58217,-4.3809 22.56263,2.82953c2.01472,2.9168 1.91653,5.60969 2.18577,8.99881c-1.35168,3.93594 -1.82643,6.39149 -5.26886,8.96753c-1.04566,0.78249 -2.17258,1.41843 -3.35114,1.90918c3.5501,-0.07109 7.09423,-0.19931 10.64602,-0.36746l-0.00665,-0.06983c0,0 0,-2.5 2.5,-2.5zM237.62498,155.16406c0.514,0 0.92232,0.10568 1.24669,0.27358c0.57831,-0.00965 1.14141,-0.07577 1.67893,-0.2067c0.76301,-0.18586 3.36155,-2.00155 3.86261,-2.34498c2.21454,-1.51787 2.26705,-3.08441 3.23114,-5.53247c-0.266,-2.00898 -0.06958,-3.79954 -1.31423,-5.50119c-2.60737,-3.56472 -8.55658,-5.61706 -12.68226,-3.79284c-0.17463,1.35789 -1.5944,1.92579 -1.5944,1.92579c-3.69221,1.28334 -6.34062,8.04785 -3.11234,11.21077c1.86812,1.8303 4.92329,3.5247 7.89739,4.06474c0.22993,-0.0617 0.49071,-0.0967 0.78648,-0.0967z" fill="#003c20" stroke-width="0.5"/><path d="M237.62533,155.21406c-0.29577,0 -0.56098,0.03483 -0.79091,0.09653c-2.9741,-0.54004 -6.06889,-2.26001 -7.93701,-4.09031c-3.22828,-3.16292 -0.56871,-9.98964 3.1235,-11.27298c0,0 1.43109,-0.57522 1.60572,-1.93311c4.12568,-1.82422 10.14049,0.25032 12.74786,3.81504c1.24465,1.70165 1.05365,3.51994 1.31965,5.52892c-0.96409,2.44806 -1.03006,4.0443 -3.2446,5.56217c-0.50106,0.34343 -3.1199,2.17212 -3.88291,2.35798c-0.53752,0.13093 -1.10949,0.19917 -1.6878,0.20882c-0.32437,-0.1679 -0.73951,-0.27307 -1.25351,-0.27307z" data-paper-data="{&quot;noHover&quot;:false,&quot;origItem&quot;:[&quot;Path&quot;,{&quot;applyMatrix&quot;:true,&quot;segments&quot;:[[[237.62498,155.16406],[0,0],[0.514,0]],[[238.87167,155.43764],[-0.32437,-0.1679],[0.57831,-0.00965]],[[240.5506,155.23094],[-0.53752,0.13093],[0.76301,-0.18586]],[[244.41321,152.88596],[-0.50106,0.34343],[2.21454,-1.51787]],[[247.64435,147.35349],[-0.96409,2.44806],[-0.266,-2.00898]],[[246.33012,141.8523],[1.24465,1.70165],[-2.60737,-3.56472]],[[233.64786,138.05946],[4.12568,-1.82422],[-0.17463,1.35789]],[[232.05346,139.98525],[0,0],[-3.69221,1.28334]],[[228.94112,151.19602],[-3.22828,-3.16292],[1.86812,1.8303]],[[236.83851,155.26076],[-2.9741,-0.54004],[0.22993,-0.0617]],[[237.62499,155.16406],[-0.29577,0],[0,0]]],&quot;closed&quot;:true,&quot;fillColor&quot;:[0.21569,0,0],&quot;strokeWidth&quot;:0.5}]}" fill="#000000" stroke-width="0.25"/><path d="M221.52892,120.47385c-0.00235,-3.59088 4.40462,-4.81391 6.91299,-3.9145c1.05813,0.37941 1.4981,1.67633 2.24715,2.5145l0.47728,1.95819c0,0 0.05812,1.54807 -1.21766,2.10323l0.22423,0.59703c1.37846,3.68341 2.33578,7.29923 2.969,11.17649c0,0 0.35693,2.18554 -1.82861,2.54247c-2.18554,0.35693 -2.54247,-1.82861 -2.54247,-1.82861c-0.58598,-3.58804 -1.45848,-6.92363 -2.74411,-10.33311l-0.16119,-0.42918c-2.04668,-0.60952 -4.33465,-1.3885 -4.33661,-4.38651z" fill="#003c20" stroke-width="0.5"/><path d="M237.73994,118.40144c0.89893,-3.55916 5.57322,-3.66509 7.83327,-2.1442c0.95338,0.64157 1.06388,2.03725 1.59582,3.05588l-0.0185,2.06035c0,0 -0.33094,1.54873 -1.73458,1.77869l0.07237,0.64793c0.44157,3.99624 0.48275,7.81979 0.13713,11.82109c0,0 -0.19483,2.25546 -2.45028,2.06064c-2.25546,-0.19482 -2.06063,-2.45028 -2.06063,-2.45028c0.31984,-3.70282 0.29238,-7.22738 -0.12595,-10.92886l-0.05203,-0.46577c-1.87528,-1.11772 -3.94715,-2.46394 -3.19663,-5.43546z" fill="#003c20" stroke-width="0.5"/></g></g></svg>