<svg version="1.1" xmlns="http://www.w3.org/2000/svg" xmlns:xlink="http://www.w3.org/1999/xlink" width="117.20889" height="117.20889" viewBox="0,0,117.20889,117.20889"><defs><radialGradient cx="240.90612" cy="173.27443" r="58.60445" gradientUnits="userSpaceOnUse" id="color-1"><stop offset="0" stop-color="#ff0000" stop-opacity="0.46598"/><stop offset="1" stop-color="#ff0000" stop-opacity="0"/></radialGradient></defs><g transform="translate(-182.30167,-114.66998)"><g data-paper-data="{&quot;isPaintingLayer&quot;:true}" fill-rule="nonzero" stroke="none" stroke-linecap="butt" stroke-linejoin="miter" stroke-miterlimit="10" stroke-dasharray="" stroke-dashoffset="0" style="mix-blend-mode: normal"><path d="M182.30168,173.27443c0,-32.36634 26.2381,-58.60444 58.60444,-58.60444c32.36634,0 58.60445,26.2381 58.60445,58.60444c0,32.36634 -26.23811,58.60445 -58.60444,58.60445c-32.36634,0 -58.60444,-26.2381 -58.60444,-58.60444z" fill="url(#color-1)" stroke-width="0"/><path d="M250.8679,190.90825c-2.19474,1.19713 -3.39187,-0.99761 -3.39187,-0.99761l-1.16885,-2.14621c-2.61028,-5.23496 -4.10832,-10.84743 -6.32725,-16.20226c-0.09934,3.02401 -0.21186,6.04782 -0.21184,9.07082c0.00002,3.19159 0.29223,7.25101 -0.31611,10.49272c3.267,2.44278 8.54077,5.9373 10.09251,9.80248c2.49062,6.20378 -2.93746,10.58791 -2.4552,16.34146c0.13062,1.55834 0.90649,2.99577 1.25907,4.51931l0.12778,-0.18617c0,0 1.5,2 -0.5,3.5l-0.00001,-0.00001c-2,1.5 -3.5,-0.5 -3.5,-0.5l-0.99974,-1.68953c-0.94964,-4.12762 -1.70363,-7.08147 -0.3162,-11.29843c0.87618,-2.66306 2.93526,-5.8244 1.75094,-8.80724c-0.99271,-2.50025 -4.8434,-5.11546 -7.43467,-6.94627c-0.18802,0.36912 -0.36651,0.7418 -0.52324,1.12236c-1.33726,3.24711 -2.26716,6.90343 -3.18647,10.31524c-1.71496,3.17026 -3.53457,8.3371 -3.05299,12.00934c0.19455,1.48353 1.46881,2.6074 2.17831,3.92472l1.04611,2.47874c0,0 0.96154,2.30769 -1.34615,3.26923c-2.30769,0.96154 -3.26923,-1.34615 -3.26923,-1.34615l-0.83308,-2.03132c-0.45502,-0.84524 -2.58093,-4.66869 -2.7076,-5.47125c-0.70949,-4.49552 1.24508,-10.77412 3.33627,-14.67523c0.90805,-3.44303 1.87318,-7.06205 3.20279,-10.3559c0.62376,-1.54526 1.76649,-2.89452 2.13794,-4.519c0.67901,-2.96956 0.30894,-6.90238 0.30896,-9.94911c0.00002,-3.29648 0.14022,-6.59575 0.24792,-9.89522c-2.50941,5.75163 -4.78636,11.51152 -6.66028,17.66505l-0.96903,2.52359c0,0 -0.89745,2.33336 -3.23081,1.43592c-2.33336,-0.89745 -1.43592,-3.23081 -1.43592,-3.23081l0.91016,-2.36232c2.88439,-9.28722 6.6117,-17.75475 10.6713,-26.5932c-0.54998,-0.05865 -1.19845,-0.18517 -2.08945,-0.40537c-6.3708,-1.57448 -9.3907,-10.91127 -7.05104,-16.86209c2.75615,-7.01016 15.24915,-9.94927 20.40398,-4.10623c1.94646,2.20633 2.64834,6.12992 3.40964,8.85519c-1.05501,5.14862 -2.34542,7.66399 -6.74923,10.62611l-2.21441,1.21883c0.02328,0.4458 0.04263,0.89161 0.05848,1.33744c1.20826,2.41584 2.6964,4.65018 3.80714,7.13072c2.57645,5.75383 4.05759,11.88455 6.9028,17.55778l1.08619,1.98802c0,0 1.19713,2.19474 -0.99761,3.39187zM238.12055,154.84152l1.33128,-0.71822c2.90597,-1.91666 3.59604,-2.98269 4.52594,-6.28664c-0.64353,-1.79384 -1.03981,-4.28698 -2.22795,-5.80253c-2.33132,-2.97375 -8.8242,-0.76983 -10.9824,1.27935c-2.17991,2.06979 -1.31881,9.43485 1.04195,11.26152c1.35148,1.04572 4.40831,0.50416 5.85686,0.28108c0,0 0.18199,-0.026 0.45431,-0.01454z" fill="#000426" stroke-width="0.5"/><path d="M238.13024,154.89061c-0.27232,-0.01146 -0.45746,0.01506 -0.45746,0.01506c-1.44855,0.22308 -4.54164,0.75529 -5.89312,-0.29043c-2.36076,-1.82667 -3.23186,-9.26235 -1.05195,-11.33214c2.1582,-2.04918 8.72326,-4.26071 11.05458,-1.28696c1.18814,1.51555 1.60194,4.04633 2.24547,5.84017c-0.9299,3.30395 -1.65005,4.41622 -4.55602,6.33288l-1.34149,0.72141z" data-paper-data="{&quot;noHover&quot;:false,&quot;origItem&quot;:[&quot;Path&quot;,{&quot;applyMatrix&quot;:true,&quot;segments&quot;:[[238.12053,154.84152],[[239.45181,154.1233],[0,0],[2.90597,-1.91666]],[[243.97775,147.83666],[-0.9299,3.30395],[-0.64353,-1.79384]],[[241.7498,142.03413],[1.18814,1.51555],[-2.33132,-2.97375]],[[230.7674,143.31348],[2.1582,-2.04918],[-2.17991,2.06979]],[[231.80935,154.575],[-2.36076,-1.82667],[1.35148,1.04572]],[[237.66621,154.85608],[-1.44855,0.22308],[0,0]],[[238.12052,154.84154],[-0.27232,-0.01146],[0,0]]],&quot;closed&quot;:true,&quot;fillColor&quot;:[0,0,0,1],&quot;strokeWidth&quot;:0.5}]}" fill="#ffffff" stroke-width="0.25"/><path d="M247.47861,146.91404c-2.5,0 -2.5,-2.5 -2.5,-2.5l0.00635,-0.35815c0.13386,-1.82643 0.4381,-3.63784 0.74603,-5.44309c0.20942,-1.22768 1.0144,-2.74202 0.25308,-3.72764c-0.85149,-1.10236 -2.56856,-1.1238 -3.71183,-1.91953c-0.6426,-0.44726 -1.13051,-1.10371 -1.80155,-1.50704c-2.89865,-1.7422 -5.5413,0.09432 -8.39624,0.7957c-1.48579,0.36501 -3.08999,-0.06261 -4.58147,0.27845c-0.6774,0.15491 -0.03095,1.40349 0.12354,2.08099c0.56607,2.48245 0.88868,4.98744 1.42356,7.47623c0,0 0.52382,2.44451 -1.92069,2.96833c-2.4445,0.52382 -2.96833,-1.92069 -2.96833,-1.92069c-0.5373,-2.51426 -1.08726,-5.10358 -1.45687,-7.64597c-0.16921,-1.16392 -0.689,-2.39011 -0.33695,-3.51234c1.66199,-5.29801 4.52146,-3.55932 8.48085,-4.56974c4.48081,-1.14348 7.56861,-2.68413 12.12675,-0.28446c0.81667,0.42994 1.40126,1.20657 2.15902,1.73344c1.03326,0.71842 4.39279,2.29987 4.92943,3.1212c2.32853,3.56383 0.18361,8.61475 -0.08104,12.4324l0.00635,0.0019c0,0 0,2.5 -2.5,2.5z" fill="#4986b7" stroke-width="0.5"/><path d="M227.2449,144.93156c-0.27631,0.00146 -0.55276,0.00221 -0.82935,0.00221c0,0 -2.5,0 -2.5,-2.5c0,-2.5 2.5,-2.5 2.5,-2.5c7.97651,0 15.89084,-0.45307 23.85437,-0.71851c1.6843,-0.05614 6.1764,-0.79713 7.12572,0.81289c2.25164,3.81876 -1.50601,6.91131 -4.31028,7.72112c-1.67761,0.48446 -5.36207,-0.60094 -6.91979,-0.86955c-3.75931,-0.64823 -7.57653,-0.4501 -11.36679,-0.68698c-1.65424,0.00082 -3.30848,0.00122 -4.96272,0.00122h-0.36006c0,0 -1.58529,0 -2.23109,-1.26239z" fill="#000000" stroke-width="0.5"/><path d="M243.49594,130.63642c2.43598,-0.56215 2.99813,1.87383 2.99813,1.87383l0.6041,2.90249c0,0.90013 0,1.80026 0,2.70039c0,0 0,2.5 -2.5,2.5c-2.5,0 -2.5,-2.5 -2.5,-2.5c0,-0.90013 0,-1.80026 0,-2.70039l-0.47606,-1.77819c0,0 -0.56215,-2.43598 1.87383,-2.99813z" fill="#dfff00" stroke-width="0.5"/></g></g></svg>