<svg version="1.1" xmlns="http://www.w3.org/2000/svg" xmlns:xlink="http://www.w3.org/1999/xlink" width="1060" height="177" viewBox="0,0,1060,177"><g transform="translate(290,-91.5)"><g data-paper-data="{&quot;isPaintingLayer&quot;:true}" fill-rule="nonzero" stroke="none" stroke-linecap="butt" stroke-linejoin="miter" stroke-miterlimit="10" stroke-dasharray="" stroke-dashoffset="0" style="mix-blend-mode: normal"><path d="M-290,268.5v-177h1060v177z" fill="none" stroke-width="0"/><path d="M124.712,213.9565v-33.88202h235.66831v33.88203z" fill="#000000" stroke-width="0"/><path d="M106.66378,209.95488l-3.14819,-22.78646l4.98705,-2.59c0,0 0.74027,-15.85545 6.26343,-23.87836c10.14279,-14.73338 25.73298,-19.51907 25.73298,-19.51907c0,0 48.29656,-10.35801 94.03661,-6.36369c33.50254,2.92566 41.94212,15.74908 65.1343,25.32169c7.90258,3.26181 47.45409,5.15785 66.72864,18.85228c4.47151,3.17698 7.59756,11.06639 7.59756,11.06639l2.44688,2.74214l0.54759,4.3965l-1.49221,1.82623l0.48875,12.6497l-18.39398,1.17313c0,0 1.24176,-25.60581 -23.2674,-26.51169c-29.13277,-1.07677 -29.79918,27.66675 -29.79918,27.66675l-124.49983,-1.05366c0,0 -2.93568,-27.21457 -28.12822,-27.31691c-19.04953,-0.0774 -26.47475,27.58997 -26.47475,27.58997z" fill="#ffd1d1" stroke-width="0"/><path d="M148.70477,139.70987c0,0 -0.55893,-8.74623 49.28184,-9.56215c48.02821,-0.78625 51.85626,7.35549 51.85626,7.35549l-12.52339,-1.41613c0,0 -8.95735,-2.97298 -39.69692,-2.90692c-37.2299,0.08 -39.72339,6.16194 -39.72339,6.16194z" fill="#cccccc" stroke-width="0"/><path d="M179.42566,211.33374c0,12.46618 -11.69597,22.57204 -26.12369,22.57204c-14.42771,0 -26.1237,-10.10585 -26.1237,-22.57204c0,-12.46618 11.69597,-22.57204 26.1237,-22.57204c14.42771,0 26.12369,10.10585 26.12369,22.57204z" fill="#4a4a4a" stroke-width="0"/><path d="M175.40664,211.33374c0,10.54832 -9.89659,19.09942 -22.10466,19.09942c-12.20808,0 -22.10466,-8.5511 -22.10466,-19.09942c0,-10.54832 9.89659,-19.09942 22.10466,-19.09942c12.20808,0 22.10466,8.5511 22.10466,19.09942z" fill="#848484" stroke-width="0"/><path d="M358.19869,212.0004c0,12.09799 -11.54673,21.90537 -25.79036,21.90537c-14.24362,0 -25.79036,-9.80737 -25.79036,-21.90537c0,-12.09799 11.54673,-21.90537 25.79036,-21.90537c14.24362,0 25.79036,9.80737 25.79036,21.90537z" fill="#4a4a4a" stroke-width="0"/><path d="M354.23097,212.0004c0,10.23677 -9.77031,18.53532 -21.82261,18.53532c-12.05231,0 -21.82262,-8.29854 -21.82262,-18.53532c0,-10.23677 9.77031,-18.53532 21.82262,-18.53532c12.05231,0 21.82261,8.29854 21.82261,18.53532z" fill="#848484" stroke-width="0"/><path d="M225.56975,164.81051c1.37915,0 1.37916,1.37915 1.37916,1.37915v0.73555c0,5.6023 0.36777,11.25719 0.36777,16.91764c0,5.21026 -0.08404,10.47925 -0.74588,15.61506c-0.28724,2.22895 0.49698,4.1356 0.73555,6.28294c0.24337,2.19036 0.01033,4.58287 0.01033,6.78846c0,0 0,1.37915 -1.37915,1.37915c-1.37915,0 -1.37915,-1.37915 -1.37915,-1.37915c0,-3.99271 -0.73949,-7.84437 -0.73555,-11.76879c0.00564,-5.62494 0.73555,-11.24153 0.73555,-16.91764c0,-5.6627 -0.36778,-11.31181 -0.36778,-16.91764v-0.73555c0,0 0,-1.37915 1.37915,-1.37915z" fill="#9c7b7b" stroke-width="0.5"/><path d="M295.04972,167.24877c1.14753,-0.76502 1.91255,0.38251 1.91255,0.38251l0.92598,1.53384c1.36142,5.58866 1.51228,10.66727 1.51228,16.51658c0,5.7329 -1.01405,11.63303 -2.24025,17.22022c-0.71342,3.25071 -2.1995,6.66033 -2.17305,9.99513c0,0 0,1.37916 -1.37915,1.37916c-1.37916,0 -1.37916,-1.37916 -1.37916,-1.37916c0.02254,-3.57815 1.45595,-7.11952 2.24025,-10.60027c1.21084,-5.37366 2.17305,-11.09593 2.17305,-16.61508c0,-5.6221 -0.06677,-10.50722 -1.42993,-15.84759l-0.5451,-0.6728c0,0 -0.76503,-1.14753 0.3825,-1.91255z" fill="#9c7b7b" stroke-width="0.5"/><path d="M367.80668,177.95845c0,1.37915 -1.37916,1.37915 -1.37916,1.37915h-1.47111c-2.58165,-0.02047 -7.42596,1.27416 -9.39406,2.97271c-0.77418,0.66814 -1.04043,1.78842 -1.7673,2.50775c-2.22478,2.20166 -4.774,2.71029 -4.74491,6.38029c0,0 0,1.37915 -1.37916,1.37915c-1.37916,0 -1.37916,-1.37915 -1.37916,-1.37915c0.01583,-2.50867 0.87384,-4.53058 2.52696,-6.40032c0.79244,-0.89631 2.18615,-1.07819 3.02583,-1.9304c0.76261,-0.77397 1.0839,-1.93585 1.91045,-2.6411c2.45908,-2.09819 7.99775,-3.62705 11.20131,-3.64724h1.47111c0,0 1.37916,0 1.37916,1.37916z" fill="#9c7b7b" stroke-width="0.5"/><path d="M117.04669,172.39762c1.14753,-0.76502 1.91255,0.38251 1.91255,0.38251l0.92598,1.53384c0.60075,2.46609 2.94442,7.53023 5.44198,8.62246c0.78937,0.34521 1.72768,-0.1986 2.58294,-0.09466c2.41081,0.29305 4.7254,0.35745 7.18699,0.35745c0.68929,0 3.25762,-0.04578 3.66728,0.20599c0.98581,0.60588 1.26001,1.96514 2.08902,2.7724c0,0 0.9752,0.97521 0,1.95043c-0.9752,0.9752 -1.95043,0 -1.95043,0c-0.66701,-0.68049 -0.854,-1.76971 -1.58873,-2.37647c-0.156,-0.12883 -3.30717,0.20597 -3.68823,0.20597c-2.56521,0 -6.99782,0.52791 -9.35439,-0.47276c-3.399,-1.44331 -6.21986,-7.20122 -7.06236,-10.50182l-0.54511,-0.67279c0,0 -0.76503,-1.14753 0.3825,-1.91255z" fill="#9c7b7b" stroke-width="0.5"/><path d="M110.08844,179.42956c0,0 -0.05638,-6.13209 0.40263,-8.82064c0.38663,-2.26459 2.1718,-6.25812 2.1718,-6.25812l6.61994,0.73555c0,0 0.4657,2.33074 0.33866,3.60127c-0.11737,1.17359 -1.0742,3.75422 -1.0742,3.75422z" fill="#ff0000" stroke-width="0"/><path d="M181.19921,171.9553c-0.61677,1.23355 -1.85032,0.61678 -1.85032,0.61678l-0.67622,-0.38703c-0.32009,0.69886 -0.9606,1.31543 -1.70526,1.82471c-1.86897,1.27822 -6.03651,1.54247 -8.20353,1.27201c-2.32742,-0.29048 -7.23717,-1.73015 -5.86555,-5.25508c0.30534,-0.78467 1.37795,-0.97209 2.1073,-1.39282c1.89575,-1.09349 4.38394,-1.89055 6.50118,-1.98447c0,0 0.84128,0 1.20972,0.65708c2.48889,-0.79156 5.87668,1.15854 7.48874,2.68907l0.37712,0.10942c0,0 1.23355,0.61678 0.61678,1.85032zM175.3036,171.57996c-0.09662,0.01178 -0.19438,0.01982 -0.29271,0.02521c0.00808,0.02235 0.01561,0.04497 0.02254,0.06785c0.08827,-0.02975 0.17934,-0.06122 0.27016,-0.09302z" fill="#7b9c9c" stroke-width="0.5"/><path d="M181.19921,171.9553c-0.61677,1.23355 -1.85032,0.61678 -1.85032,0.61678l-0.67622,-0.38703c-0.32009,0.69886 -0.9606,1.31543 -1.70526,1.82471c-1.86897,1.27822 -6.03651,1.54247 -8.20353,1.27201c-2.32742,-0.29048 -7.23717,-1.73015 -5.86555,-5.25508c0.30534,-0.78467 1.37795,-0.97209 2.1073,-1.39282c1.89575,-1.09349 4.38394,-1.89055 6.50118,-1.98447c0,0 0.84128,0 1.20972,0.65708c2.48889,-0.79156 5.87668,1.15854 7.48874,2.68907l0.37712,0.10942c0,0 1.23355,0.61678 0.61678,1.85032zM175.3036,171.57996c-0.09662,0.01178 -0.19438,0.01982 -0.29271,0.02521c0.00808,0.02235 0.01561,0.04497 0.02254,0.06785c0.08827,-0.02975 0.17934,-0.06122 0.27016,-0.09302z" fill="#7b9c9c" stroke-width="0.5"/><path d="M181.19921,171.9553c-0.61677,1.23355 -1.85032,0.61678 -1.85032,0.61678l-0.67622,-0.38703c-0.32009,0.69886 -0.9606,1.31543 -1.70526,1.82471c-1.86897,1.27822 -6.03651,1.54247 -8.20353,1.27201c-2.32742,-0.29048 -7.23717,-1.73015 -5.86555,-5.25508c0.30534,-0.78467 1.37795,-0.97209 2.1073,-1.39282c1.89575,-1.09349 4.38394,-1.89055 6.50118,-1.98447c0,0 0.84128,0 1.20972,0.65708c2.48889,-0.79156 5.87668,1.15854 7.48874,2.68907l0.37712,0.10942c0,0 1.23355,0.61678 0.61678,1.85032zM175.3036,171.57996c-0.09662,0.01178 -0.19438,0.01982 -0.29271,0.02521c0.00808,0.02235 0.01561,0.04497 0.02254,0.06785c0.08827,-0.02975 0.17934,-0.06122 0.27016,-0.09302z" fill="#9c7b7b" stroke-width="0.5"/><path d="M246.62891,175.14914c-0.54403,1.08809 -1.63212,0.54403 -1.63212,0.54403l-0.59647,-0.34137c-0.28235,0.61644 -0.84732,1.1603 -1.50414,1.60951c-1.64856,1.12747 -5.32462,1.36055 -7.23607,1.122c-2.05293,-0.25623 -6.38367,-1.52611 -5.17381,-4.63536c0.26933,-0.69216 1.21545,-0.85746 1.85879,-1.22856c1.67218,-0.96454 3.86693,-1.6676 5.73448,-1.75044c0,0 0.74209,0 1.06707,0.57958c2.19537,-0.69821 5.18363,1.02191 6.60559,2.37194l0.33264,0.09652c0,0 1.08809,0.54403 0.54404,1.63212zM241.42858,174.81809c-0.08523,0.01037 -0.17145,0.01749 -0.25821,0.02222c0.00713,0.01972 0.01376,0.03966 0.01987,0.05983c0.07785,-0.02624 0.15819,-0.054 0.23832,-0.08206z" fill="#7b9c9c" stroke-width="0.5"/><path d="M246.62891,175.14914c-0.54403,1.08809 -1.63212,0.54403 -1.63212,0.54403l-0.59647,-0.34137c-0.28235,0.61644 -0.84732,1.1603 -1.50414,1.60951c-1.64856,1.12747 -5.32462,1.36055 -7.23607,1.122c-2.05293,-0.25623 -6.38367,-1.52611 -5.17381,-4.63536c0.26933,-0.69216 1.21545,-0.85746 1.85879,-1.22856c1.67218,-0.96454 3.86693,-1.6676 5.73448,-1.75044c0,0 0.74209,0 1.06707,0.57958c2.19537,-0.69821 5.18363,1.02191 6.60559,2.37194l0.33264,0.09652c0,0 1.08809,0.54403 0.54404,1.63212zM241.42858,174.81809c-0.08523,0.01037 -0.17145,0.01749 -0.25821,0.02222c0.00713,0.01972 0.01376,0.03966 0.01987,0.05983c0.07785,-0.02624 0.15819,-0.054 0.23832,-0.08206z" fill="#9c7b7b" stroke-width="0.5"/><path d="M134.73804,156.25973l9.92993,-11.76878c0,0 12.96481,-4.06857 31.63756,-5.78743c23.97859,-2.20729 56.415,-1.97202 72.76947,0.53818c15.22841,2.33739 39.43217,16.78943 50.07532,24.71862c3.86708,2.88099 4.02863,5.5393 4.02863,5.5393c0,0 -72.8034,-4.60302 -103.39363,-6.33067c-63.80929,-3.60375 -65.04726,-6.90924 -65.04726,-6.90924z" fill="#000000" stroke-width="0"/><path d="M156.51997,185.68174c0,-0.51648 0.19342,-0.83955 0.43541,-1.04163c0.20643,-1.71852 0.82652,-3.25854 1.04603,-5.01128c0.87774,-7.00836 -1.43666,-15.41502 4.07136,-21.03432c0,0 0.9752,-0.9752 1.95043,0c0.9752,0.9752 0,1.95043 0,1.95043c-4.88959,4.76127 -2.52702,13.35462 -3.28414,19.4209c-0.2474,1.98234 -1.10904,3.69352 -1.09298,5.7159l-1.74694,1.37915c0,0 -1.37916,0 -1.37916,-1.37915z" fill="#9c7b7b" stroke-width="0.5"/><path d="M166.8763,140.26309c1.41175,0 1.41175,1.41175 1.41175,1.41175l-0.01058,1.67836c-0.83453,3.33808 -1.0395,7.11822 -1.50586,10.54107c-0.35079,2.57461 -2.33061,4.77951 -2.24822,7.35684c0,0 0,1.41175 -1.41175,1.41175c-1.41175,0 -1.41175,-1.41175 -1.41175,-1.41175c0.0588,-2.84922 1.96448,-4.95746 2.26938,-7.70183c0.37508,-3.37596 0.68488,-7.25711 1.50587,-10.54107l-0.01058,-1.33337c0,0 0,-1.41175 1.41175,-1.41175z" fill="#9c7b7b" stroke-width="0.5"/><path d="M225.60514,136.12196c1.41175,0 1.41175,1.41175 1.41175,1.41175v1.1294c0,9.70498 2.26668,19.09536 -0.04215,28.57743c0,0 -0.34241,1.3696 -1.71201,1.0272c-1.3696,-0.3424 -1.0272,-1.712 -1.0272,-1.712c2.36068,-9.14423 -0.04215,-18.49133 -0.04215,-27.89262v-1.1294c0,0 0,-1.41175 1.41175,-1.41175z" fill="#9c7b7b" stroke-width="0.5"/><path d="M256.65821,145.09295c-0.65119,0.42709 -1.33843,0.51299 -1.33843,0.51299c-4.76842,0.54525 -6.21764,2.14952 -6.18545,6.98644c0.00417,0.62715 -0.20374,3.68067 0.32089,4.52242c0.31559,0.50636 3.65075,2.30658 3.76121,2.36178c6.04165,3.01813 15.84704,0.87356 13.43897,-7.71384c-2.65978,-4.58516 -5.37676,-4.72977 -9.99719,-6.6698zM254.59405,140.0059c0.73552,-0.40162 1.50491,-0.40162 1.50491,-0.40162l2.61809,0.2283c3.03968,1.31503 6.33805,1.63574 8.98381,3.81952c1.99,1.64252 2.96484,3.83218 4.19436,6.00526c0.60917,2.58854 0.87254,5.44683 0.05583,7.97757c-3.04401,9.43265 -13.26739,10.89155 -21.25183,6.8966c-1.72128,-0.86122 -5.01125,-2.75513 -6.02693,-4.41463c-3.03675,-4.96169 -1.71456,-14.56392 2.963,-18.07071c2.32497,-1.74305 4.28519,-1.68613 6.95875,-2.04029z" fill="#370000" stroke-width="0.5"/><path d="M266.71135,151.75514c2.40807,8.58739 -7.48688,10.78496 -13.52853,7.76683c-0.11047,-0.05518 -3.46281,-1.87611 -3.77839,-2.38247c-0.52462,-0.84176 -0.32236,-3.9221 -0.32653,-4.54925c-0.03217,-4.83692 1.45365,-6.49193 6.22207,-7.03718c0,0 0.69708,-0.0886 1.34827,-0.51569c4.62043,1.94003 7.40331,2.13261 10.0631,6.71778z" data-paper-data="{&quot;noHover&quot;:false,&quot;origItem&quot;:[&quot;Path&quot;,{&quot;applyMatrix&quot;:true,&quot;segments&quot;:[[[256.3285,151.35981],[4.09104,1.71775],[-0.57658,0.37815]],[[255.14342,151.81403],[0,0],[-4.22208,0.48278]],[[249.66667,158],[-0.02849,-4.28273],[0.00369,0.5553]],[[249.95078,162.00427],[-0.46451,-0.74531],[0.27943,0.44835]],[[253.28106,164.09545],[-0.09781,-0.04886],[5.34943,2.67233]],[[265.18026,157.26542],[2.13217,7.60349],[-2.35504,-4.05982]]],&quot;closed&quot;:true}]}" fill="#ffffff" stroke-width="0.5"/></g></g></svg>