<svg version="1.1" xmlns="http://www.w3.org/2000/svg" xmlns:xlink="http://www.w3.org/1999/xlink" width="37.125" height="37.125" viewBox="0,0,37.125,37.125"><defs><radialGradient cx="240" cy="180" r="18.5625" gradientUnits="userSpaceOnUse" id="color-1"><stop offset="0" stop-color="#ffeb00"/><stop offset="1" stop-color="#ffeb00" stop-opacity="0"/></radialGradient></defs><g transform="translate(-221.4375,-161.4375)"><g data-paper-data="{&quot;isPaintingLayer&quot;:true}" fill-rule="nonzero" stroke="none" stroke-width="0" stroke-linecap="butt" stroke-linejoin="miter" stroke-miterlimit="10" stroke-dasharray="" stroke-dashoffset="0" style="mix-blend-mode: normal"><path d="M221.4375,180c0,-10.25179 8.31071,-18.5625 18.5625,-18.5625c10.25179,0 18.5625,8.31071 18.5625,18.5625c0,10.25179 -8.31071,18.5625 -18.5625,18.5625c-10.25179,0 -18.5625,-8.31071 -18.5625,-18.5625z" fill="url(#color-1)"/><g><path d="M249.40936,180.35534l-6.09048,2.96926l-3.68334,6.32603l-2.33651,-5.98762l-6.70839,-4.01836l6.04797,-2.00638l3.72585,-7.28889l3.00618,7.06786z" fill="#ffa000"/><path d="M240.25996,173.11656l2.17217,4.45549l4.6278,2.69457l-4.38025,1.70929l-2.93964,4.90753l-1.46777,-4.4244l-5.3322,-2.72566l5.1705,-2.19917z" fill="#ffeb00"/><path d="M240.1515,175.98825l1.26596,2.5967l2.69714,1.57042l-2.55286,0.99619l-1.71326,2.86015l-0.85544,-2.57858l-3.10765,-1.58854l3.01342,-1.2817z" fill="#ffffff"/></g></g></g></svg>