<svg version="1.1" xmlns="http://www.w3.org/2000/svg" xmlns:xlink="http://www.w3.org/1999/xlink" width="599.55916" height="359.74445" viewBox="0,0,599.55916,359.74445"><g transform="translate(69.55706,-112.04083)"><g data-paper-data="{&quot;isPaintingLayer&quot;:true}" fill-rule="nonzero" stroke="none" stroke-width="0" stroke-linecap="butt" stroke-linejoin="miter" stroke-miterlimit="10" stroke-dasharray="" stroke-dashoffset="0" style="mix-blend-mode: normal"><path d="M-69.55706,471.78529l4.5045,-156.15616l99.61844,-147.86655l151.08865,44.29548l119.41144,-100.01722l79.33103,64.67199l50.55044,-29.25187l95.05466,68.74865l-25.98559,255.57568z" fill="#e5e5e5"/><path d="M10.50001,328.5v-142h193v142z" fill="#b3b3b3"/><path d="M7.50001,360.5v-48h201v48z" fill="#9c9c9c"/><path d="M25.70799,246.01877v-40.54579h40.5458v40.54579z" fill="#9c9c9c"/><path d="M22.991,248.94476v-6.06097h46.81577v6.06097z" fill="#7d7d7d"/><path d="M88.15349,246.32945v-40.54579h40.5458v40.5458z" fill="#9c9c9c"/><path d="M85.4365,249.25543v-6.06097h46.81576v6.06097z" fill="#7d7d7d"/><path d="M150.15347,246.32945v-40.54579h40.5458v40.5458z" fill="#9c9c9c"/><path d="M147.4365,249.25543v-6.06097h46.81577v6.06097z" fill="#7d7d7d"/><path d="M24.70799,301.01876v-40.54579h40.5458v40.5458z" fill="#9c9c9c"/><path d="M21.991,303.94476v-6.06097h46.81577v6.06097z" fill="#7d7d7d"/><path d="M87.15349,301.32944v-40.54579h40.5458v40.5458z" fill="#9c9c9c"/><path d="M84.4365,304.25543v-6.06097h46.81576v6.06097z" fill="#7d7d7d"/><path d="M149.15347,301.32944v-40.54579h40.5458v40.5458z" fill="#9c9c9c"/><path d="M146.4365,304.25543v-6.06097h46.81577v6.06097z" fill="#7d7d7d"/></g></g></svg>