<svg version="1.1" xmlns="http://www.w3.org/2000/svg" xmlns:xlink="http://www.w3.org/1999/xlink" width="397.14255" height="247.83599" viewBox="0,0,397.14255,247.83599"><defs><radialGradient cx="236.04985" cy="180.00002" r="123.91799" gradientUnits="userSpaceOnUse" id="color-1"><stop offset="0" stop-color="#00d6ff"/><stop offset="1" stop-color="#00d6ff" stop-opacity="0"/></radialGradient><radialGradient cx="236.04985" cy="180.00002" r="97.23709" gradientUnits="userSpaceOnUse" id="color-2"><stop offset="0" stop-color="#efff00"/><stop offset="1" stop-color="#efff00" stop-opacity="0"/></radialGradient><radialGradient cx="236.04985" cy="180.00002" r="69.37036" gradientUnits="userSpaceOnUse" id="color-3"><stop offset="0" stop-color="#ffffff"/><stop offset="1" stop-color="#ffffff" stop-opacity="0"/></radialGradient><radialGradient cx="125.44536" cy="184.38909" r="90.99999" gradientUnits="userSpaceOnUse" id="color-4"><stop offset="0" stop-color="#cf00ff"/><stop offset="1" stop-color="#cf00ff" stop-opacity="0"/></radialGradient><radialGradient cx="332.17041" cy="176.04986" r="90.99999" gradientUnits="userSpaceOnUse" id="color-5"><stop offset="0" stop-color="#cf00ff"/><stop offset="1" stop-color="#cf00ff" stop-opacity="0"/></radialGradient><radialGradient cx="125.88426" cy="184.38909" r="71.40669" gradientUnits="userSpaceOnUse" id="color-6"><stop offset="0" stop-color="#efff00"/><stop offset="1" stop-color="#efff00" stop-opacity="0"/></radialGradient><radialGradient cx="332.17041" cy="176.04986" r="71.40669" gradientUnits="userSpaceOnUse" id="color-7"><stop offset="0" stop-color="#efff00"/><stop offset="1" stop-color="#efff00" stop-opacity="0"/></radialGradient><radialGradient cx="125.44536" cy="184.38909" r="50.94258" gradientUnits="userSpaceOnUse" id="color-8"><stop offset="0" stop-color="#ffffff"/><stop offset="1" stop-color="#ffffff" stop-opacity="0"/></radialGradient><radialGradient cx="332.17041" cy="176.04986" r="50.94258" gradientUnits="userSpaceOnUse" id="color-9"><stop offset="0" stop-color="#ffffff"/><stop offset="1" stop-color="#ffffff" stop-opacity="0"/></radialGradient><linearGradient x1="166.4249" y1="155.87733" x2="166.42507" y2="211.7854" gradientTransform="translate(3.54475,-206.80316) rotate(3.76869) scale(0.80155,1.03201) skewX(-18.6505)" gradientUnits="userSpaceOnUse" id="color-10"><stop offset="0" stop-color="#000000"/><stop offset="1" stop-color="#4200a5"/></linearGradient><linearGradient x1="166.4249" y1="155.87733" x2="166.42507" y2="211.7854" gradientTransform="translate(3.54475,-206.80316) rotate(3.76869) scale(0.80155,1.03201) skewX(-18.6505)" gradientUnits="userSpaceOnUse" id="color-11"><stop offset="0" stop-color="#ff0000"/><stop offset="1" stop-color="#000000"/></linearGradient></defs><g transform="translate(-34.44535,-56.08202)"><g data-paper-data="{&quot;isPaintingLayer&quot;:true}" fill-rule="nonzero" stroke-linecap="butt" stroke-linejoin="miter" stroke-miterlimit="10" stroke-dasharray="" stroke-dashoffset="0" style="mix-blend-mode: normal"><path d="M112.13184,180.00002c0,-68.43801 55.47999,-123.91799 123.918,-123.91799c68.43803,0 123.91799,55.47999 123.91799,123.918c0,68.43801 -55.47994,123.918 -123.91799,123.918c-68.43801,0 -123.91799,-55.47998 -123.91799,-123.918z" fill="url(#color-1)" stroke="none" stroke-width="NaN"/><path d="M138.81275,180.00002c0,-53.70255 43.53454,-97.23708 97.23709,-97.23708c53.70258,0 97.23709,43.53454 97.23709,97.23709c0,53.70255 -43.53452,97.23708 -97.23708,97.23708c-53.70255,0 -97.23708,-43.53453 -97.23708,-97.23708z" fill="url(#color-2)" stroke="none" stroke-width="NaN"/><path d="M166.67948,180.00002c0,-38.3122 31.05818,-69.37036 69.37036,-69.37036c38.3122,0 69.37036,31.05818 69.37036,69.37036c0,38.3122 -31.05816,69.37036 -69.37036,69.37036c-38.3122,0 -69.37036,-31.05818 -69.37036,-69.37036z" fill="url(#color-3)" stroke="none" stroke-width="NaN"/><path d="M34.44536,184.38909c0,-50.2579 40.74209,-90.99999 90.99999,-90.99999c50.25792,0 90.99999,40.74209 90.99999,90.99999c0,50.2579 -40.74206,90.99999 -90.99999,90.99999c-50.2579,0 -90.99999,-40.74209 -90.99999,-90.99999z" fill="url(#color-4)" stroke="none" stroke-width="NaN"/><path d="M241.17041,176.04986c0,-50.2579 40.74209,-90.99999 90.99999,-90.99999c50.25792,0 90.99999,40.74209 90.99999,90.99999c0,50.2579 -40.74206,90.99999 -90.99999,90.99999c-50.2579,0 -90.99999,-40.74209 -90.99999,-90.99999z" fill="url(#color-5)" stroke="none" stroke-width="NaN"/><path d="M54.47756,184.38909c0,-39.43682 31.96987,-71.40669 71.40669,-71.40669c39.43684,0 71.40669,31.96987 71.40669,71.40669c0,39.43682 -31.96986,71.40669 -71.40669,71.40669c-39.43682,0 -71.40669,-31.96987 -71.40669,-71.40669z" fill="url(#color-6)" stroke="none" stroke-width="NaN"/><path d="M260.76371,176.04986c0,-39.43682 31.96987,-71.40669 71.40669,-71.40669c39.43684,0 71.40669,31.96987 71.40669,71.40669c0,39.43682 -31.96986,71.40669 -71.40669,71.40669c-39.43682,0 -71.40669,-31.96987 -71.40669,-71.40669z" fill="url(#color-7)" stroke="none" stroke-width="NaN"/><path d="M74.50277,184.38909c0,-28.13481 22.80778,-50.94258 50.94258,-50.94258c28.13482,0 50.94258,22.80778 50.94258,50.94258c0,28.13481 -22.80777,50.94258 -50.94258,50.94258c-28.13481,0 -50.94258,-22.80778 -50.94258,-50.94258z" fill="url(#color-8)" stroke="none" stroke-width="NaN"/><path d="M281.22782,176.04986c0,-28.13481 22.80778,-50.94258 50.94258,-50.94258c28.13482,0 50.94258,22.80778 50.94258,50.94258c0,28.13481 -22.80777,50.94258 -50.94258,50.94258c-28.13481,0 -50.94258,-22.80778 -50.94258,-50.94258z" fill="url(#color-9)" stroke="none" stroke-width="NaN"/><text transform="translate(80.11045,200.18167) rotate(-2.98015) scale(1.22504,0.98681) skewX(16.2697)" font-size="40" xml:space="preserve" fill="#ffffff" fill-rule="nonzero" stroke="url(#color-10)" stroke-width="18" stroke-linecap="butt" stroke-linejoin="miter" stroke-miterlimit="10" stroke-dasharray="" stroke-dashoffset="0" font-family="Marker" font-weight="normal" text-anchor="start" style="mix-blend-mode: normal"><tspan x="0" dy="0">what the heck</tspan></text><text transform="translate(80.11045,200.18167) rotate(-2.98015) scale(1.22504,0.98681) skewX(16.2697)" font-size="40" xml:space="preserve" fill="#ffffff" fill-rule="nonzero" stroke="#ffffff" stroke-width="9" stroke-linecap="butt" stroke-linejoin="miter" stroke-miterlimit="10" stroke-dasharray="" stroke-dashoffset="0" font-family="Marker" font-weight="normal" text-anchor="start" style="mix-blend-mode: normal"><tspan x="0" dy="0">what the heck</tspan></text><text transform="translate(80.11045,200.18167) rotate(-2.98015) scale(1.22504,0.98681) skewX(16.2697)" font-size="40" xml:space="preserve" fill="url(#color-11)" fill-rule="nonzero" stroke-opacity="0" stroke="#000000" stroke-width="0" stroke-linecap="butt" stroke-linejoin="miter" stroke-miterlimit="10" stroke-dasharray="" stroke-dashoffset="0" font-family="Marker" font-weight="normal" text-anchor="start" style="mix-blend-mode: normal"><tspan x="0" dy="0">what the heck</tspan></text></g></g></svg>