<svg version="1.1" xmlns="http://www.w3.org/2000/svg" xmlns:xlink="http://www.w3.org/1999/xlink" width="1052.55255" height="767.26727" viewBox="0,0,1052.55255,767.26727"><g transform="translate(286.27628,203.63365)"><g data-paper-data="{&quot;isPaintingLayer&quot;:true}" fill-rule="nonzero" stroke-linejoin="miter" stroke-miterlimit="10" stroke-dasharray="" stroke-dashoffset="0" style="mix-blend-mode: normal"><path d="M-286.27627,563.63363v-767.26727h1052.55255v767.26727z" fill="none" stroke="none" stroke-width="0" stroke-linecap="butt"/><path d="M233.07947,188.18005c0,0 -2.16667,-1.59994 -2.16667,-3.5c0,-2.68778 1.1742,-10.54091 1.7938,-14.49767c0.89384,-0.11169 1.75102,-0.34136 2.55547,-0.67291c0.40378,0.03169 0.70964,0.16091 0.88989,0.42508c1.83924,2.69546 0.41909,4.51065 4.55208,6.70052c1.96462,1.04095 7.26598,0.67285 8.36475,2.916c0.16325,0.33328 -0.81124,2.463 -0.86475,2.834c-0.29289,2.03052 -0.75565,4.92711 0.19862,7.0481c-0.27277,-0.00135 -0.53785,0.00172 -0.79415,0.00973c-0.36147,0.0113 -2.44461,-2.9702 -2.75389,-2.94599c-1.77525,0.13895 -0.59487,2.2743 -1.16246,3.33129c-0.44997,0.83794 -2.60223,0.67308 -3.93103,0.59536c-4.03265,-0.23586 -6.68167,-2.24349 -6.68167,-2.24349z" fill="#e06446" stroke="#a02222" stroke-width="4" stroke-linecap="butt"/><path d="M237.80864,180.65922l2.125,0.125" fill="none" stroke="#d64a42" stroke-width="4" stroke-linecap="round"/><path d="M237.05864,183.15922l-3.5,0.125" fill="none" stroke="#a02222" stroke-width="4" stroke-linecap="round"/><path d="M236.05864,176.15922l-1.625,0.5" fill="none" stroke="#a02222" stroke-width="4" stroke-linecap="round"/></g></g></svg>