<svg version="1.1" xmlns="http://www.w3.org/2000/svg" xmlns:xlink="http://www.w3.org/1999/xlink" width="190.78283" height="162.5" viewBox="0,0,190.78283,162.5"><g transform="translate(-112.07828,-94.75)"><g data-paper-data="{&quot;isPaintingLayer&quot;:true}" fill-rule="nonzero" stroke="#ff0000" stroke-width="2.5" stroke-linecap="butt" stroke-linejoin="miter" stroke-miterlimit="10" stroke-dasharray="" stroke-dashoffset="0" style="mix-blend-mode: normal"><path d="M113.32828,256v-160h188.28283v160z" fill="#000000"/><path d="M169.26777,164.76777c-1.76777,1.76777 -3.53553,0 -3.53553,0l-2,-2c-4.56924,-4.56924 -8.88964,-7.79513 -14.69401,-10.73966c-2.91878,-2.96884 -6.26621,-4.66092 -9.85255,-6.90148c-0.39492,-0.24673 -0.79154,-0.46095 -1.18567,-0.65746c0,4.17695 0,8.35389 0,12.53084c0,4.32439 0.58682,9.12571 -0.03228,13.40046c-0.03388,0.23392 -1.95096,5.95496 -2.09601,6.39011c0,0 -0.79057,2.37171 -3.16228,1.58114c-2.37171,-0.79057 -1.58114,-3.16228 -1.58114,-3.16228c0.62446,-1.87339 1.62946,-3.65433 1.90399,-5.60989c0.56356,-4.01439 -0.03228,-8.53656 -0.03228,-12.59954c0,-5.24109 0,-10.48217 0,-15.72326c-0.18679,-0.24591 -0.36326,-0.51603 -0.52811,-0.81496c-1.08165,-1.96153 -2.74918,-4.10524 -2.32547,-6.30479c0.19435,-1.00891 1.38753,-1.72963 2.85358,-2.25751c0,-0.29982 0,-0.59965 0,-0.89947c0,-5.03739 -1.0823,-11.60757 1.3245,-16.23175c1.49854,-2.87914 5.01461,-3.92859 7.60112,-5.20138c4.90743,-0.07175 9.30452,-0.30035 14.1144,0.99625c1.3611,0.36691 2.87084,0.56925 3.97372,1.44725c3.69265,2.93973 4.8803,8.25958 2.61289,12.30395c-3.5529,6.33731 -11.30604,6.80314 -17.26673,9.03314c-1.60446,0.60026 -3.13586,1.40205 -4.77459,1.90124c-0.85031,0.25902 -1.7134,0.48804 -2.58531,0.67083c0,0.94905 0,1.8981 0,2.84714c1.2179,0.72706 2.54347,1.31206 3.81433,2.1067c3.69558,2.31075 7.05903,4.05811 10.14745,7.09852c6.02811,2.96528 10.58752,6.54187 15.30599,11.26034l2,2c0,0 1.76777,1.76777 0,3.53553zM137.9982,130.70544c0.50617,-0.09378 0.90427,-0.17112 1.13172,-0.24023c2.61169,-0.79362 5.04719,-2.1133 7.67111,-2.8655c0.23008,-0.06596 5.68644,-1.32363 6.5387,-1.81415c3.2335,-1.86101 8.41223,-6.10686 3.64653,-9.79593c-1.81825,-1.40748 -4.4467,-1.25344 -6.7326,-1.50179c-2.37916,-0.25848 -4.78657,-0.008 -7.17927,-0.05471c-0.48197,0.24697 -3.84957,1.61226 -4.39888,2.79862c-1.70444,3.68112 -0.72529,9.43872 -0.6773,13.47369z" fill="#ff0000"/><path d="M227.58013,164.61325c1.38675,2.08013 -0.69338,3.46688 -0.69338,3.46688l-3.37537,2.20616c-8.9143,2.30509 -17.53137,4.09162 -26.55257,2.15444c-1.30593,-0.28043 -2.72637,-0.02844 -3.97563,-0.50115c-4.62867,-1.75144 -9.27686,-5.49007 -11.69764,-9.77931c-1.91097,-3.38593 -1.29501,-7.47093 -1.28555,-11.16027c0.00081,-0.31529 0.00514,-0.63116 0.01312,-0.94735c-0.53681,-0.34651 -1.01312,-0.96143 -1.01312,-2.05265c0,-1.32236 0.69946,-1.94527 1.35842,-2.23869c0.87333,-6.26433 3.43985,-12.20639 8.75483,-15.84143c0.7111,-0.47407 6.17656,-4.15348 6.66229,-4.3126c2.45625,-0.80466 7.09735,-0.17913 9.72446,-0.10727c1.31993,0.03611 2.7839,-0.41637 3.95671,0.1903c1.48587,0.76861 3.01463,2.02781 3.45258,3.64236c0.47649,1.75664 -0.5827,3.59681 -1.00899,5.3663c-1.28819,5.34721 -3.70979,8.32773 -7.63253,12.0688c-1.25504,1.19691 -2.21534,2.86267 -3.81106,3.54193c-1.52135,0.6476 -3.30363,0.15518 -4.95671,0.1903c-3.54893,0.0754 -7.10782,0.03597 -10.66202,0.01287c-0.55905,5.62917 0.5779,10.9542 5.99889,14.3746c1.24397,0.78489 2.37576,1.80645 3.75487,2.31791c1.08372,0.40191 2.31834,0.11599 3.44944,0.3539c0.98521,0.20722 1.86713,0.80203 2.85927,0.973c3.2756,0.56449 6.11816,-0.55988 9.19909,-1c1.35129,-0.19304 2.74018,0.15291 4.095,-0.01355c2.486,-0.30545 4.85825,-1.22168 7.29407,-1.80502l2.62463,-1.79384c0,0 2.08013,-1.38675 3.46688,0.69338zM185.713,145.47609c3.26368,-0.02904 6.53213,-0.06403 9.787,0.02391c1.01604,0.02745 2.11071,0.5945 3.04329,0.1903c1.00666,-0.43631 1.43765,-1.65851 2.18894,-2.45807c1.48298,-1.57826 3.42811,-2.75248 4.64114,-4.54656c1.06419,-1.57395 2.43867,-6.13913 2.71734,-8.01834c0.12694,-0.85601 -1.72596,-0.19996 -2.59071,-0.16733c-0.99929,0.03771 -2,0 -3,0c-1.75888,0 -3.61156,-0.67721 -5.27554,-0.10727c-2.04583,0.70074 -3.53839,2.48785 -5.33771,3.6874c-4.28889,2.76371 -4.74944,5.72236 -5.96139,10.52621c-0.07299,0.28933 -0.1439,0.57932 -0.21236,0.86975z" fill="#ff0000"/><path d="M267.87171,164.79057c-0.79057,2.37171 -3.16228,1.58114 -3.16228,1.58114l-3.52376,-1.24508c-1.77797,-1.70943 -3.38602,-3.60221 -5.27064,-5.19327c-1.06272,-0.89718 -2.56917,-1.30186 -3.40179,-2.41587c-0.51513,-0.68923 -0.85902,-1.37279 -1.08757,-2.06045c-1.28784,2.67851 -2.91267,5.10144 -5.61134,6.66959c-4.51268,2.62225 -11.76296,1.67625 -15.18852,-2.47212c-4.27361,-5.17537 -4.31668,-17.19118 1.35671,-21.64127c3.49979,-2.74516 10.41453,-1.51323 14.51748,-1.51323c0,0 2.5,0 2.5,2.5c0,2.5 -2.5,2.5 -2.5,2.5c-2.33333,0 -4.66671,0.01345 -7,0c-0.87077,-0.00502 -3.55207,-0.28912 -4.48252,0.48677c-3.26142,2.71968 -3.19971,11.33964 -0.64329,14.35873c1.82799,2.15882 6.37473,3.07071 8.81148,1.52788c4.62258,-2.9268 4.91312,-9.19372 7.81433,-13.44334v-2.43003c0,0 0,0 0,0c0,-1.38071 1.11929,-2.5 2.5,-2.5c1.38071,0 2.5,1.11929 2.5,2.5v3c0.38978,1.63706 -1.09948,7.71824 0.48677,9.48252c0.67819,0.7543 1.81446,0.9402 2.59821,1.58413c1.03246,0.84828 3.50451,3.50698 4.72936,4.80673l2.47624,0.75492c0,0 2.37171,0.79057 1.58114,3.16228z" fill="#ff0000"/><path d="M296.73607,142.11803c-1.11803,2.23607 -3.3541,1.11803 -3.3541,1.11803l-0.05787,-0.03019c-0.15829,0.384 -0.29802,0.77219 -0.35342,1.1759c-0.40008,2.91537 -0.59267,5.85612 -0.96421,8.77526c-0.23192,1.82216 0.51267,6.36113 -0.7387,7.61072c-1.13776,1.13614 -3.16211,0.64761 -4.76777,0.73223c-1.37359,0.07239 -2.94708,0.45776 -4.11803,-0.26393c-1.68739,-1.03999 -2.46592,-3.10587 -3.7706,-4.59806c-1.79901,-2.05756 -3.61482,-2.93909 -4.5041,-5.91354c-0.36865,-1.23308 0.01104,-7.18425 0.08303,-8.68117c0.99846,-1.05664 1.79168,-2.35473 2.99537,-3.16992c3.11766,-2.11139 7.11384,-2.38165 10.86623,-2.35926c-0.01506,-0.08901 -0.02839,-0.17826 -0.03974,-0.26777c-0.33287,-2.62641 0.30143,-5.31134 0.00639,-7.94227c-0.4679,-4.1724 -1.92224,-8.61405 -2.94392,-12.69774c0,0 -0.60634,-2.42536 1.81902,-3.0317c2.42536,-0.60634 3.0317,1.81902 3.0317,1.81902c1.06804,4.27522 2.56675,8.93269 3.05608,13.30226c0.29892,2.66923 -0.31758,5.39143 0.00639,8.05773c0.07894,0.64965 0.23254,1.29056 0.3956,1.92975l2.23461,1.08053c0,0 2.23607,1.11803 1.11803,3.3541zM288.86767,141.45794c-3.50592,0.07573 -7.23774,0.16854 -10.05797,2.49877c0.16443,1.76552 -0.3707,3.60471 0.08303,5.31883c0.37021,1.39862 2.70535,3.07595 3.4959,4.08646c0.83541,1.06783 1.15166,2.57935 2.2294,3.40194c0.50355,0.38433 1.25555,-0.35813 1.88197,-0.26393c0.47248,0.07105 0.89702,1.0727 1.23223,0.73223c0.33679,-0.34206 -0.65976,-0.76553 -0.73222,-1.24007c-0.16823,-1.10175 -0.10355,-2.2372 0.03236,-3.3434c0.20292,-1.65165 0.7972,-3.24109 0.9798,-4.89511c0.15126,-1.37017 -0.1728,-2.7701 0.01716,-4.13544c0.10542,-0.75773 0.60747,-1.43596 0.83834,-2.16028z" fill="#ff0000"/><path d="M199.61803,231.23607c-2.23607,1.11803 -3.3541,-1.11803 -3.3541,-1.11803l-1.26393,-3.11803c0,-5.57368 -0.36954,-10.99293 -1.9003,-16.30103c-0.66605,-2.30961 -0.51858,-6.34674 -3.32416,-7.30624c-2.24169,-0.76665 -4.21253,2.07396 -5.50777,3.37504c-2.26323,2.27344 -4.69636,3.96421 -7.04973,6.04837c-3.9797,3.52445 -4.32381,8.02835 -8.89354,1.41561c-0.96579,-1.39756 -0.87051,-3.28419 -1.30577,-4.92629c-0.0002,-3.57767 -0.69074,-7.44532 -1.59595,-10.91436c-0.09497,-0.36397 -0.3539,-1.09682 -0.67644,-0.90327c-1.73754,1.04272 -2.04711,3.51479 -3.31299,5.09714c-1.9508,2.4385 -4.26212,4.64092 -5.68757,7.51341c-2.14565,4.32381 -4.95901,9.40728 -5.77807,14.30208c-0.65077,3.88907 0.03228,8.66201 0.03228,12.59954c0,0 0,2.5 -2.5,2.5c-2.5,0 -2.5,-2.5 -2.5,-2.5c0,-4.22393 -0.66107,-9.22753 0.03228,-13.40046c0.7652,-4.6053 3.20838,-8.67082 5.22193,-12.69792c1.66395,-3.32791 2.90858,-6.47322 5.31243,-9.48659c1.71577,-2.15082 6.03695,-8.68946 8.68701,-8.90286c2.04629,-0.16478 4.08783,1.4574 5.32356,3.09673c1.18415,1.57091 0.88665,3.83327 1.34276,5.74689c0.57307,2.40434 1.06143,4.86705 1.06129,7.33875c0.21897,0.96949 0.56122,1.91963 0.67679,2.90536c0.28796,-0.85888 0.54943,-1.73556 1.1239,-2.41604c0.81309,-0.96313 2.14798,-1.33086 3.13307,-2.11722c4.15096,-3.31357 7.79267,-10.61031 14.30943,-8.45937c5.42123,1.78934 5.37835,6.11328 6.67584,10.69376c1.64099,5.79312 2.0997,11.63508 2.0997,17.69897l0.73607,0.88197c0,0 1.11803,2.23607 -1.11803,3.3541z" fill="#ff0000"/><path d="M253.92536,231.60634c-0.60634,2.42536 -3.0317,1.81902 -3.0317,1.81902l-4.09263,-1.02506c-3.51913,-1.21484 -6.75789,-0.63426 -10.31241,-2.11401c-1.01814,-0.42385 -1.66676,-1.545 -2.71308,-1.89356c-0.90137,-0.30027 -1.94134,0.31807 -2.84992,0.04039c-2.54969,-0.77922 -4.49508,-2.86822 -6.73995,-4.3065c-1.14228,-0.73186 -2.94849,-0.54469 -3.71378,-1.66485c-0.40327,-0.59027 -0.5119,-1.29439 -0.52353,-2.03179c-0.73621,-0.16054 -1.94837,-0.68918 -1.94837,-2.42999c0,-1.77053 1.25391,-2.28715 1.98566,-2.43789c0.1538,-3.64486 1.17736,-7.40405 4.35131,-9.6895c2.45339,-1.7666 5.78053,-1.84294 8.76258,-2.34033c1.03973,-0.17342 1.95936,-0.83216 3,-1c3.37306,-0.54402 6.93742,-0.33174 10.40046,0.2104v-0.24268h4c1.38071,0 2.5,1.11929 2.5,2.5c0,0.69036 -0.27982,1.31536 -0.73223,1.76777l-2,2c-1.15115,1.11962 -2.12236,2.46058 -3.45344,3.35886c-0.88981,0.60049 -2.12509,0.48757 -3.05102,1.0307c-0.89534,0.52518 -1.39144,1.59373 -2.29479,2.10501c-2.37081,1.34181 -5.32249,1.45561 -7.65418,2.86429c-0.91673,0.55384 -1.33887,1.8525 -2.35762,2.18307c-0.92997,0.30176 -2.10538,0.4249 -3.37355,0.45452c1.27954,1.06486 2.41437,2.3909 3.99123,2.80266c1.01604,0.26532 2.15391,-0.29185 3.15008,0.04039c1.23448,0.41172 2.09686,1.57996 3.28692,2.10644c3.05054,1.34957 6.48612,0.84997 9.68759,1.88599l3.90737,0.97494c0,0 2.42536,0.60634 1.81902,3.0317zM225.08578,215.474c0.47149,0.00332 0.94291,0.01116 1.41422,0.026c1.01591,0.03199 2.08309,0.52363 3.04329,0.1903c0.77125,-0.26774 0.94109,-1.39895 1.64238,-1.81693c2.33228,-1.39006 5.27944,-1.49171 7.63058,-2.84962c0.94047,-0.54317 1.48371,-1.63148 2.42044,-2.18109c0.89246,-0.52363 2.08418,-0.40115 2.94898,-0.9693c0.13464,-0.08845 0.26326,-0.18415 0.38706,-0.28567c-1.55187,0.1748 -3.21266,-0.07698 -5.07273,-0.0877c-1.89415,-0.01092 -3.73109,0.65655 -5.59954,0.96772c-2.19157,0.36497 -4.70606,0.09379 -6.52219,1.37358c-1.99326,1.40461 -2.2346,3.5242 -2.29249,5.6327z" fill="#ff0000"/></g></g></svg>