<svg version="1.1" xmlns="http://www.w3.org/2000/svg" xmlns:xlink="http://www.w3.org/1999/xlink" width="117.20889" height="117.20889" viewBox="0,0,117.20889,117.20889"><defs><radialGradient cx="240.90612" cy="173.27443" r="58.60445" gradientUnits="userSpaceOnUse" id="color-1"><stop offset="0" stop-color="#ff0000" stop-opacity="0.46598"/><stop offset="1" stop-color="#ff0000" stop-opacity="0"/></radialGradient></defs><g transform="translate(-182.30167,-114.66998)"><g data-paper-data="{&quot;isPaintingLayer&quot;:true}" fill-rule="nonzero" stroke="none" stroke-linecap="butt" stroke-linejoin="miter" stroke-miterlimit="10" stroke-dasharray="" stroke-dashoffset="0" style="mix-blend-mode: normal"><path d="M182.30168,173.27443c0,-32.36634 26.2381,-58.60444 58.60444,-58.60444c32.36634,0 58.60445,26.2381 58.60445,58.60444c0,32.36634 -26.23811,58.60445 -58.60444,58.60445c-32.36634,0 -58.60444,-26.2381 -58.60444,-58.60444z" fill="url(#color-1)" stroke-width="0"/><path d="M277.33394,175.94621c-0.20761,2.49136 -2.69898,2.28375 -2.69898,2.28375l-1.7864,-0.17693c-5.21153,0.34484 -11.59588,1.43267 -16.74951,0.51643c-6.14336,-1.09219 -13.76802,-5.75094 -18.12934,-10.06441c0,0 -1.76777,-1.76777 0,-3.53553c1.76777,-1.76777 3.53553,0 3.53553,0c3.54476,3.59328 10.27445,7.77063 15.35552,8.65831c4.79071,0.83695 10.81368,-0.23839 15.6552,-0.56372l2.53422,0.18312c0,0 2.49136,0.20761 2.28375,2.69898z" fill="#000426" stroke-width="0.5"/><path d="M238.10259,143.38806c-0.28154,0.07512 -0.48028,0.08837 -0.48028,0.08837c-1.574,0.09447 -4.69084,0.10255 -5.97316,1.39643c-2.83157,2.8571 -2.72102,6.44147 -2.41508,10.16171c0.11462,1.39377 -0.06879,2.88267 1.02175,3.96492c1.53777,1.52609 4.07778,1.83838 6.05193,2.28041c4.01784,0.89962 5.9778,0.39539 8.42793,-3.02478c3.19575,-5.46551 -0.11837,-11.03717 -4.55844,-14.4347l-1.96794,-0.40248c0,0 -0.03928,-0.00907 -0.10671,-0.02988zM238.07257,138.563c0.66823,-0.15381 1.26104,-0.01701 1.26104,-0.01701l2.91797,0.72503c7.34419,5.17746 11.10002,13.10576 6.71673,21.64584c-1.54067,2.09689 -2.04976,3.22153 -4.43061,4.58901c-4.72574,2.71431 -14.18959,0.96038 -17.92175,-3.07835c-2.17076,-2.34908 -2.05192,-3.9307 -2.3608,-6.9344c-0.51953,-5.05218 -0.05894,-10.57339 3.97418,-14.26783c2.38658,-2.18616 6.05113,-2.52088 9.0604,-2.7378c0,0 0.34287,-0.02285 0.78284,0.0755z" fill="#000426" stroke-width="0.5"/><path d="M238.21294,143.36807l1.97877,0.40449c4.44007,3.39753 7.77884,9.0482 4.58309,14.51371c-2.45013,3.42017 -4.45621,3.94276 -8.47405,3.04314c-1.97415,-0.44203 -4.54455,-0.77064 -6.08232,-2.29673c-1.09054,-1.08225 -0.91761,-2.58991 -1.03223,-3.98368c-0.30594,-3.72024 -0.39912,-7.35865 2.43245,-10.21575c1.28232,-1.29388 4.43009,-1.31234 6.00409,-1.40681c0,0 0.20136,-0.01316 0.4829,-0.08828c0.06743,0.02081 0.1073,0.02992 0.1073,0.02992z" data-paper-data="{&quot;noHover&quot;:false,&quot;origItem&quot;:[&quot;Path&quot;,{&quot;applyMatrix&quot;:true,&quot;segments&quot;:[[[238.10259,143.38806],[0.06743,0.02081],[-0.28154,0.07512]],[[237.62231,143.47643],[0,0],[-1.574,0.09447]],[[231.64915,144.87286],[1.28232,-1.29388],[-2.83157,2.8571]],[[229.23407,155.03457],[-0.30594,-3.72024],[0.11462,1.39377]],[[230.25582,158.99949],[-1.09054,-1.08225],[1.53777,1.52609]],[[236.30775,161.2799],[-1.97415,-0.44203],[4.01784,0.89962]],[[244.73568,158.25512],[-2.45013,3.42017],[3.19575,-5.46551]],[[240.17724,143.82042],[4.44007,3.39753],[0,0]],[238.2093,143.41794]],&quot;closed&quot;:true,&quot;fillColor&quot;:[0,0,0,1],&quot;strokeWidth&quot;:0.5}]}" fill="#ffffff" stroke-width="0.25"/><path d="M253.31038,227.39808c0,2.5 -2.5,2.5 -2.5,2.5h-0.93959c-3.39103,-0.15957 -4.61388,0.5322 -6.75611,-3.09342c-0.54394,-0.92059 -0.13759,-2.14405 -0.38204,-3.18501c-0.41093,-1.7499 -0.90741,-3.4864 -1.16248,-5.26571c-0.85319,-5.95159 -2.58009,-11.84292 -4.34292,-17.57985c-0.37994,-0.66404 -0.37994,-1.37601 -0.37994,-1.37601v-0.18792c0.00609,-11.20864 -0.98202,-22.48846 -1.68641,-33.66956c0,0 -0.15595,-2.49513 2.33918,-2.65107c2.49513,-0.15595 2.65108,2.33918 2.65108,2.33918c0.69187,11.16409 1.66857,22.41477 1.69559,33.60737c0.05376,0.12414 0.07791,0.20262 0.07791,0.20262c1.86669,6.06674 3.69884,12.31094 4.59574,18.61157c0.23501,1.65092 0.75529,3.24884 1.09256,4.88194c0.14001,0.67794 -0.14614,1.39878 -0.0062,2.07673c0.1876,0.90884 2.2502,0.29045 2.26403,0.28913h0.93959c0,0 2.5,0 2.5,2.5z" fill="#000426" stroke-width="0.5"/><path d="M242.58689,228.71352c0,2.5 -2.5,2.5 -2.5,2.5l-1.87759,-0.06402c-1.3336,-0.55824 -3.2107,-0.464 -4.0008,-1.67473c-1.00338,-1.53758 0.70708,-8.05022 0.95599,-9.9134c0.9882,-7.39694 0.31645,-15.36504 2.33067,-22.54136c0,0 0.6868,-2.40381 3.09061,-1.71701c2.40381,0.6868 1.71701,3.09061 1.71701,3.09061c-1.31343,4.50039 -0.59165,8.89631 -1.04524,13.48262c-0.18687,1.88948 -0.75033,3.72896 -0.93764,5.61839c-0.26001,2.62273 -0.18876,6.08272 -0.95449,8.57758c-0.11602,0.378 -0.85639,0.36182 -0.91692,0.75256c-0.0531,0.34278 0.59007,-0.36482 0.88511,-0.54722l0.75329,-0.06402c0,0 2.5,0 2.5,2.5z" fill="#000426" stroke-width="0.5"/><path d="M247.11855,151.59472c-2.5,0 -2.5,-2.5 -2.5,-2.5l0.00635,-0.35815c0.13386,-1.82643 0.4381,-3.63784 0.74603,-5.44309c0.20942,-1.22768 1.0144,-2.74202 0.25308,-3.72764c-0.85149,-1.10236 -2.56856,-1.1238 -3.71183,-1.91953c-0.6426,-0.44726 -1.13051,-1.10371 -1.80155,-1.50704c-2.89865,-1.7422 -5.5413,0.09432 -8.39624,0.7957c-1.48579,0.36501 -3.08999,-0.06261 -4.58147,0.27845c-0.6774,0.15491 -0.03095,1.40349 0.12354,2.08099c0.56607,2.48245 0.88868,4.98744 1.42356,7.47623c0,0 0.52382,2.44451 -1.92069,2.96833c-2.4445,0.52382 -2.96833,-1.92069 -2.96833,-1.92069c-0.5373,-2.51426 -1.08726,-5.10358 -1.45687,-7.64597c-0.16921,-1.16392 -0.689,-2.39011 -0.33695,-3.51234c1.66199,-5.29801 4.52146,-3.55932 8.48085,-4.56974c4.48081,-1.14348 7.56861,-2.68413 12.12675,-0.28446c0.81667,0.42994 1.40126,1.20657 2.15902,1.73344c1.03326,0.71842 4.39279,2.29987 4.92943,3.1212c2.32853,3.56383 0.18361,8.61475 -0.08104,12.4324l0.00635,0.0019c0,0 0,2.5 -2.5,2.5z" fill="#4986b7" stroke-width="0.5"/><path d="M226.88483,149.61224c-0.27631,0.00146 -0.55276,0.00221 -0.82935,0.00221c0,0 -2.5,0 -2.5,-2.5c0,-2.5 2.5,-2.5 2.5,-2.5c7.97651,0 15.89084,-0.45307 23.85437,-0.71851c1.6843,-0.05614 6.1764,-0.79713 7.12572,0.81289c2.25164,3.81876 -1.50601,6.91131 -4.31028,7.72112c-1.67761,0.48446 -5.36207,-0.60094 -6.91979,-0.86955c-3.75931,-0.64823 -7.57653,-0.4501 -11.36679,-0.68698c-1.65424,0.00082 -3.30848,0.00122 -4.96272,0.00122h-0.36006c0,0 -1.58529,0 -2.23109,-1.26239z" fill="#000000" stroke-width="0.5"/><path d="M243.13589,135.31711c2.43598,-0.56215 2.99813,1.87383 2.99813,1.87383l0.6041,2.90249c0,0.90013 0,1.80026 0,2.70039c0,0 0,2.5 -2.5,2.5c-2.5,0 -2.5,-2.5 -2.5,-2.5c0,-0.90013 0,-1.80026 0,-2.70039l-0.47606,-1.77819c0,0 -0.56215,-2.43598 1.87383,-2.99813z" fill="#dfff00" stroke-width="0.5"/><path d="M265.27081,183.1053c-0.10349,-0.00491 -0.21116,-0.01512 -0.32317,-0.03111c-2.47487,-0.35356 -2.12132,-2.82842 -2.12132,-2.82842c0.50883,-3.4955 0.06556,-7.0938 1.1295,-10.51359c0.39686,-1.27563 0.45885,-2.83229 1.43825,-3.74087c0.99073,-0.91909 2.55369,-0.90978 3.87592,-1.18903c3.99904,-0.84461 9.47027,-0.79187 13.49093,-0.19862c1.35287,0.19962 2.98713,0.03598 3.98633,0.96963c1.75745,1.64216 2.24113,6.87775 0.60865,8.73925c-1.02585,1.16977 -2.84409,1.41012 -4.39003,1.58564c-1.03872,0.11793 -2.01026,-0.60963 -3.04734,-0.7412c-1.76637,-0.2241 -3.56259,-0.04178 -5.33918,-0.16022c-0.34265,0.00019 -1.79236,0.00837 -3.14284,-0.00284c-0.01385,0.02211 -0.02749,0.04445 -0.04093,0.06704c-0.71623,1.20293 0.04756,2.8195 -0.2159,4.1945c-0.18594,0.9704 -0.68317,1.85426 -1.02476,2.7814l-3.9471,1.3974c0,0 -0.44889,-0.06413 -0.93701,-0.32894z" fill="#313241" stroke-width="0.5"/><path d="M271.57309,176.66632c-0.20761,2.49136 -2.69898,2.28375 -2.69898,2.28375l-1.7864,-0.17693c-5.21153,0.34484 -11.59588,1.43267 -16.74951,0.51643c-6.14336,-1.09219 -13.76802,-5.75094 -18.12934,-10.06441c0,0 -1.76777,-1.76777 0,-3.53553c1.76777,-1.76777 3.53553,0 3.53553,0c3.54476,3.59328 10.27445,7.77063 15.35552,8.65831c4.79071,0.83695 10.81368,-0.23839 15.6552,-0.56372l2.53422,0.18312c0,0 2.49136,0.20761 2.28375,2.69898z" fill="#000426" stroke-width="0.5"/></g></g></svg>