<svg version="1.1" xmlns="http://www.w3.org/2000/svg" xmlns:xlink="http://www.w3.org/1999/xlink" width="81.72977" height="95.64456" viewBox="0,0,81.72977,95.64456"><g transform="translate(-188.64546,-131.63126)"><g data-paper-data="{&quot;isPaintingLayer&quot;:true}" fill-rule="nonzero" stroke="none" stroke-linecap="butt" stroke-linejoin="miter" stroke-miterlimit="10" stroke-dasharray="" stroke-dashoffset="0" style="mix-blend-mode: normal"><path d="M189.76491,159.80724c-2.5408,-2.53747 -0.28941,-6.51849 2.12025,-7.65619c1.01649,-0.47993 2.24466,0.12603 3.367,0.18904l1.72214,1.04716c0,0 1.13575,1.05355 0.62619,2.34822l0.58072,0.26361c3.57928,1.62985 6.81298,3.50969 10.00237,5.80357c0,0 1.7978,1.29302 0.50478,3.09082c-1.29302,1.7978 -3.09082,0.50478 -3.09082,0.50478c-2.95148,-2.12278 -5.92705,-3.86444 -9.24699,-5.36623l-0.41745,-0.1895c-1.87822,1.01623 -4.04688,2.08324 -6.16818,-0.03528z" fill="#003c20" stroke-width="0.5"/><path d="M199.76242,146.8789c-1.88107,-3.15235 1.34925,-6.53247 4.02278,-7.05514c1.1278,-0.22048 2.19283,0.68828 3.28925,1.03242l1.44381,1.46997c0,0 0.86111,1.32913 0.03119,2.48426l0.50933,0.40698c3.13801,2.51353 5.87078,5.18807 8.45574,8.26181c0,0 1.45709,1.73262 -0.27552,3.1897c-1.73261,1.45709 -3.1897,-0.27552 -3.1897,-0.27552c-2.39213,-2.84445 -4.90379,-5.31727 -7.81693,-7.63881l-0.36614,-0.29256c-2.11637,0.53568 -4.53333,1.04879 -6.10381,-1.58309z" fill="#003c20" stroke-width="0.5"/><path d="M194.51324,172.25113c2.08013,-1.38675 3.46688,0.69338 3.46688,0.69338l0.67205,1.02501c0.90322,1.13001 1.45149,2.66688 2.69986,3.39785c1.72951,1.0127 5.2653,0.12963 7.1386,0.27117c0.77895,0.05885 1.55859,0.10468 2.33878,0.14108c-1.72166,-0.77474 -3.24129,-1.83714 -4.39916,-3.18884c-6.54574,-7.64148 2.09765,-18.85154 10.11621,-20.13439c0,0 0.13906,-0.01987 0.35596,-0.01722c5.47838,-1.50144 13.28819,0.37567 15.85636,6.02065c1.44506,3.17633 0.78425,4.15964 0.17203,7.25561c-0.92528,3.4353 -1.69997,6.5831 -4.73847,8.82156c-0.35597,0.26225 -0.73161,0.50621 -1.12428,0.73187c7.76447,4.45963 12.92155,13.36934 13.48136,22.31605c6.90365,-1.78795 13.01393,-4.50262 19.28022,-8.20682c1.50591,-0.89019 2.95289,-1.91238 4.5692,-2.58153c0.35082,-0.14524 1.08703,0.29981 1.13649,-0.07664c0.06458,-0.49157 -0.74511,-0.68248 -0.97935,-1.11945c-0.85877,-1.60201 -1.36337,-3.37155 -2.12587,-5.02156l-0.65065,-0.64718c0,0 -1.60046,-1.92055 0.32009,-3.52101c1.92055,-1.60046 3.52101,0.32009 3.52101,0.32009l1.34935,1.75282c0.99917,2.16745 4.01731,7.53827 3.29478,9.85899c-0.68284,2.19323 -5.98256,4.21261 -7.8943,5.34183c-6.93371,4.09557 -13.73569,7.0572 -21.4482,8.96118c2.1982,4.37739 4.94372,8.39939 7.35514,12.65712c0.33202,0.58624 2.16473,4.88367 3.00748,4.99789c1.37549,0.18643 4.16375,-2.40375 5.05347,-3.12153l1.76174,-0.54783c0,0 2.5,0 2.5,2.5c0,1.50855 -0.91028,2.10681 -1.63229,2.34407c-2.35746,1.86284 -5.7339,4.36583 -8.85251,3.68657c-2.22026,-0.48359 -3.91722,-3.40657 -4.96837,-5.16026c-3.30327,-5.51102 -6.81385,-10.98121 -9.51673,-16.82274c0,0 -0.52908,-1.14635 -0.02062,-2.18573c-0.06991,-0.51511 -0.00154,-0.93688 0.14472,-1.2809l-0.1542,-0.58102c0.02005,-6.63841 -3.28405,-13.67503 -8.56252,-17.88197c-5.92171,2.52886 -10.85634,6.72221 -16.57971,9.69773c-1.15622,0.60111 -4.83555,2.78774 -5.79041,2.6734c-0.96378,-0.11541 -4.70428,-3.2983 -5.75045,-4.15426l-0.71691,-0.53489c0,0 -2,-1.5 -0.5,-3.5c1.5,-2 3.5,-0.5 3.5,-0.5l0.88309,0.66511c0.73333,0.6 1.52959,1.13043 2.2,1.8c0.35562,0.35518 0.35766,1.14244 0.84955,1.24574c0.38782,0.08144 0.44659,-0.6769 0.77023,-0.90559c0.73485,-0.51925 4.44993,-2.31521 5.03936,-2.62102c2.37594,-1.23266 4.53731,-2.71705 6.71496,-4.17529c-3.18659,-0.04753 -6.37256,-0.0673 -9.54782,-0.31623c-3.04908,-0.23904 -6.39302,0.66481 -9.2614,-0.92883c-0.93401,-0.51893 -3.30314,-3.60671 -4.10014,-4.60215l-0.92795,-1.37499c0,0 -1.38675,-2.08013 0.69338,-3.46688zM214.47327,160.35022c-3.32958,1.83625 -6.15836,5.94129 -5.17298,9.68207c0.25267,0.95921 1.99737,2.21662 2.59587,2.62515c3.33924,2.27937 10.00153,2.22105 13.3115,-0.13192c1.96549,-1.39721 2.29264,-3.81919 2.86153,-5.97844c0.38789,-1.61928 0.90207,-2.37778 0.17203,-3.94439c-1.61562,-3.46696 -7.55642,-4.54696 -10.5797,-3.16375l-1.12119,0.66292c0,0 -1.02388,0.58508 -2.06706,0.24835z" fill="#003c20" stroke-width="0.5"/><path d="M214.44454,160.30928c1.04318,0.33673 2.07899,-0.25452 2.07899,-0.25452l1.12976,-0.66514c3.02328,-1.38321 9.01833,-0.27345 10.63395,3.19351c0.73004,1.56661 0.21984,2.34443 -0.16805,3.96371c-0.56889,2.15925 -0.9095,4.61561 -2.87499,6.01282c-3.30997,2.35297 -10.04649,2.41001 -13.38573,0.13064c-0.5985,-0.40853 -2.35255,-1.68185 -2.60522,-2.64106c-0.98538,-3.74078 1.86171,-7.90368 5.19129,-9.73993z" data-paper-data="{&quot;noHover&quot;:false,&quot;origItem&quot;:[&quot;Path&quot;,{&quot;applyMatrix&quot;:true,&quot;segments&quot;:[[[214.47327,160.35022],[0,0],[-3.32958,1.83625]],[[209.30029,170.03229],[-0.98538,-3.74078],[0.25267,0.95921]],[[211.89616,172.65744],[-0.5985,-0.40853],[3.33924,2.27937]],[[225.20766,172.52552],[-3.30997,2.35297],[1.96549,-1.39721]],[[228.06919,166.54708],[-0.56889,2.15925],[0.38789,-1.61928]],[[228.24122,162.60269],[0.73004,1.56661],[-1.61562,-3.46696]],[[217.66152,159.43894],[3.02328,-1.38321],[0,0]],[216.54033,160.10186],[[214.47327,160.35021],[1.04318,0.33673],[0,0]]],&quot;closed&quot;:true,&quot;fillColor&quot;:[0,0,0,1],&quot;strokeWidth&quot;:0.5}]}" fill="#000000" stroke-width="0.25"/><path d="M231.19759,159.04844c0.12864,0.81817 0.03567,1.67305 -0.33295,2.49639c-0.05016,0.17077 -0.12576,0.33526 -0.23271,0.4921c-0.05471,0.08023 -0.11176,0.1578 -0.17102,0.23275c-0.47241,0.70188 -1.1702,1.36371 -2.13007,1.93915c-1.65591,0.99271 -7.8334,-1.38232 -8.22928,-3.37215c-0.03257,-0.16373 -0.05152,-0.32875 -0.05805,-0.49442c-0.44749,-1.0231 -0.50726,-2.21845 0.0204,-3.52903c0.55493,-1.37831 2.43727,-1.76067 3.94434,-2.08611c-0.03207,-1.24607 0.12314,-2.16349 0.42602,-2.9752l-0.00522,-0.0008l0.3941,-2.56163c0.16665,-1.21902 1.21206,-2.15823 2.47683,-2.15823c1.27327,0 2.32422,0.95187 2.48007,2.18283l0.3948,2.76361l-0.03322,0.00475l0.04342,0.07602c0.03122,0.41735 0.04464,0.8353 0.04774,1.25363c0.06524,-0.04315 0.1298,-0.08708 0.19345,-0.13203l0.1942,-0.00788l-0.0385,-0.077l2.35502,-1.17751c0.34741,-0.18291 0.74312,-0.28642 1.16302,-0.28642c1.38071,0 2.5,1.11929 2.5,2.5c0,0.93821 -0.51682,1.75571 -1.28129,2.18334l-2.35903,1.3761c-0.45126,0.48226 -1.06879,0.93015 -1.76207,1.35773z" fill="#00ff0d" stroke-width="0.5"/><path d="M239.79999,156.33126c0,-1.38071 1.11929,-2.5 2.5,-2.5c1.38071,0 2.5,1.11929 2.5,2.5c0,1.38071 -1.11929,2.5 -2.5,2.5c-1.38071,0 -2.5,-1.11929 -2.5,-2.5z" fill="#00ff0d" stroke-width="0.5"/><path d="M228.39999,134.13126c0,-1.38071 1.11929,-2.5 2.5,-2.5c1.38071,0 2.5,1.11929 2.5,2.5c0,1.38071 -1.11929,2.5 -2.5,2.5c-1.38071,0 -2.5,-1.11929 -2.5,-2.5z" fill="#00ff0d" stroke-width="0.5"/></g></g></svg>