<svg version="1.1" xmlns="http://www.w3.org/2000/svg" xmlns:xlink="http://www.w3.org/1999/xlink" width="599.55916" height="359.74445" viewBox="0,0,599.55916,359.74445"><defs><radialGradient cx="350.95746" cy="202.39037" r="117.44995" gradientTransform="translate(-467.01503,-393.24324) scale(2,2)" gradientUnits="userSpaceOnUse" id="color-1"><stop offset="0" stop-color="#9c9c9c"/><stop offset="1" stop-color="#b3b3b3"/></radialGradient><radialGradient cx="350.95746" cy="202.39037" r="117.44995" gradientTransform="translate(-467.01503,-393.24324) scale(2,2)" gradientUnits="userSpaceOnUse" id="color-2"><stop offset="0" stop-color="#b3b3b3"/><stop offset="1" stop-color="#9c9c9c"/></radialGradient></defs><g transform="translate(69.55705,-112.04084)"><g data-paper-data="{&quot;isPaintingLayer&quot;:true}" fill-rule="nonzero" stroke-linecap="butt" stroke-linejoin="miter" stroke-miterlimit="10" stroke-dasharray="" stroke-dashoffset="0" style="mix-blend-mode: normal"><path d="M-69.55705,471.7853l4.5045,-156.15616l99.61844,-147.86655l151.08865,44.29548l119.41144,-100.01722l79.33103,64.67199l50.55044,-29.25187l95.05466,68.74865l-25.98559,255.57568z" fill="#e5e5e5" stroke="none" stroke-width="0"/><path d="M10.50002,328.50001v-142h193v142z" fill="#b3b3b3" stroke="none" stroke-width="0"/><path d="M7.50002,360.50001v-48h201v48z" fill="#9c9c9c" stroke="none" stroke-width="0"/><path d="M25.708,246.01878v-40.54579h40.5458v40.54579z" fill="#9c9c9c" stroke="none" stroke-width="0"/><path d="M22.99101,248.94477v-6.06097h46.81577v6.06097z" fill="#7d7d7d" stroke="none" stroke-width="0"/><path d="M88.1535,246.32946v-40.54579h40.5458v40.5458z" fill="#9c9c9c" stroke="none" stroke-width="0"/><path d="M85.43651,249.25543v-6.06097h46.81576v6.06097z" fill="#7d7d7d" stroke="none" stroke-width="0"/><path d="M150.15348,246.32946v-40.54579h40.5458v40.5458z" fill="#9c9c9c" stroke="none" stroke-width="0"/><path d="M147.43651,249.25543v-6.06097h46.81577v6.06097z" fill="#7d7d7d" stroke="none" stroke-width="0"/><path d="M24.708,301.01876v-40.54579h40.5458v40.5458z" fill="#9c9c9c" stroke="none" stroke-width="0"/><path d="M21.99101,303.94476v-6.06097h46.81577v6.06097z" fill="#7d7d7d" stroke="none" stroke-width="0"/><path d="M87.1535,301.32944v-40.54579h40.5458v40.5458z" fill="#9c9c9c" stroke="none" stroke-width="0"/><path d="M84.43651,304.25543v-6.06097h46.81576v6.06097z" fill="#7d7d7d" stroke="none" stroke-width="0"/><path d="M149.15348,301.32944v-40.54579h40.5458v40.5458z" fill="#9c9c9c" stroke="none" stroke-width="0"/><path d="M146.43651,304.25543v-6.06097h46.81577v6.06097z" fill="#7d7d7d" stroke="none" stroke-width="0"/><text transform="translate(233.50751,196.62162) scale(0.5,0.5)" font-size="40" xml:space="preserve" fill="url(#color-1)" fill-rule="nonzero" stroke="url(#color-2)" stroke-width="1" stroke-linecap="butt" stroke-linejoin="miter" stroke-miterlimit="10" stroke-dasharray="" stroke-dashoffset="0" font-family="Sans Serif" font-weight="normal" text-anchor="start" style="mix-blend-mode: normal"><tspan x="0" dy="0">    MADE BY DOGEISCUT</tspan><tspan x="0" dy="46.15px"> </tspan><tspan x="0" dy="46.15px">YOU FIND IT ON SCRATCH</tspan></text></g></g></svg>