<svg version="1.1" xmlns="http://www.w3.org/2000/svg" xmlns:xlink="http://www.w3.org/1999/xlink" width="168.15954" height="139.33332" viewBox="0,0,168.15954,139.33332"><defs><radialGradient cx="240" cy="180.00002" r="69.66666" gradientUnits="userSpaceOnUse" id="color-1"><stop offset="0" stop-color="#ff0000"/><stop offset="1" stop-color="#ff0000" stop-opacity="0"/></radialGradient><radialGradient cx="240" cy="180.00002" r="54.66666" gradientUnits="userSpaceOnUse" id="color-2"><stop offset="0" stop-color="#efff00"/><stop offset="1" stop-color="#efff00" stop-opacity="0"/></radialGradient><radialGradient cx="240" cy="180.00002" r="39" gradientUnits="userSpaceOnUse" id="color-3"><stop offset="0" stop-color="#ffffff"/><stop offset="1" stop-color="#ffffff" stop-opacity="0"/></radialGradient></defs><g transform="translate(-155.62335,-110.33336)"><g data-paper-data="{&quot;isPaintingLayer&quot;:true}" fill-rule="nonzero" stroke-linecap="butt" stroke-linejoin="miter" stroke-miterlimit="10" stroke-dasharray="" stroke-dashoffset="0" style="mix-blend-mode: normal"><path d="M170.33334,180.00002c0,-38.47583 31.19083,-69.66666 69.66666,-69.66666c38.47584,0 69.66666,31.19083 69.66666,69.66666c0,38.47583 -31.19081,69.66666 -69.66666,69.66666c-38.47583,0 -69.66666,-31.19083 -69.66666,-69.66666z" fill="url(#color-1)" stroke="none" stroke-width="NaN"/><path d="M185.33334,180.00002c0,-30.19156 24.4751,-54.66666 54.66666,-54.66666c30.19157,0 54.66666,24.4751 54.66666,54.66666c0,30.19156 -24.47509,54.66666 -54.66666,54.66666c-30.19156,0 -54.66666,-24.4751 -54.66666,-54.66666z" fill="url(#color-2)" stroke="none" stroke-width="NaN"/><path d="M201,180.00002c0,-21.5391 17.4609,-39 39,-39c21.53911,0 39,17.4609 39,39c0,21.5391 -17.46089,39 -39,39c-21.5391,0 -39,-17.4609 -39,-39z" fill="url(#color-3)" stroke="none" stroke-width="NaN"/><text transform="translate(187.86605,194.57188) rotate(-2.98015) scale(1.22504,0.98681) skewX(16.2697)" font-size="40" xml:space="preserve" fill="#ffffff" fill-rule="nonzero" stroke="#0887c4" stroke-width="18" stroke-linecap="butt" stroke-linejoin="miter" stroke-miterlimit="10" stroke-dasharray="" stroke-dashoffset="0" font-family="Marker" font-weight="normal" text-anchor="start" style="mix-blend-mode: normal"><tspan x="0" dy="0">x90+</tspan></text><text transform="translate(187.86602,194.57189) rotate(-2.98015) scale(1.22504,0.98681) skewX(16.2697)" font-size="40" xml:space="preserve" fill="#ffffff" fill-rule="nonzero" stroke="#ffffff" stroke-width="9" stroke-linecap="butt" stroke-linejoin="miter" stroke-miterlimit="10" stroke-dasharray="" stroke-dashoffset="0" font-family="Marker" font-weight="normal" text-anchor="start" style="mix-blend-mode: normal"><tspan x="0" dy="0">x90+</tspan></text><text transform="translate(187.86602,194.57189) rotate(-2.98015) scale(1.22504,0.98681) skewX(16.2697)" font-size="40" xml:space="preserve" fill="#0079b5" fill-rule="nonzero" stroke-opacity="0" stroke="#000000" stroke-width="0" stroke-linecap="butt" stroke-linejoin="miter" stroke-miterlimit="10" stroke-dasharray="" stroke-dashoffset="0" font-family="Marker" font-weight="normal" text-anchor="start" style="mix-blend-mode: normal"><tspan x="0" dy="0">x90+</tspan></text></g></g></svg>