<svg version="1.1" xmlns="http://www.w3.org/2000/svg" xmlns:xlink="http://www.w3.org/1999/xlink" width="110.02474" height="70.96248" viewBox="0,0,110.02474,70.96248"><g transform="translate(-160.39144,-159.85161)"><g data-paper-data="{&quot;isPaintingLayer&quot;:true}" fill-rule="nonzero" stroke="none" stroke-linecap="butt" stroke-linejoin="miter" stroke-miterlimit="10" stroke-dasharray="" stroke-dashoffset="0" style="mix-blend-mode: normal"><path d="M197.81618,223.31409c0,-2.48528 16.25206,-4.5 36.3,-4.5c20.04794,0 36.3,2.01472 36.3,4.5c0,2.48528 -16.25206,4.5 -36.3,4.5c-20.04794,0 -36.3,-2.01472 -36.3,-4.5z" data-paper-data="{&quot;index&quot;:null}" fill="#000000" stroke-width="0"/><path d="M237.21618,228.11409c0,-1.49117 5.86507,-2.7 13.1,-2.7c7.23493,0 13.1,1.20883 13.1,2.7c0,1.49117 -5.86507,2.7 -13.1,2.7c-7.23493,0 -13.1,-1.20883 -13.1,-2.7z" data-paper-data="{&quot;index&quot;:null}" fill="#000000" stroke-width="0"/><path d="M193.01617,223.01409c2.43005,0 4.4,0.53726 4.4,1.2c0,0.66274 -1.96995,1.2 -4.4,1.2c-2.43005,0 -4.4,-0.53726 -4.4,-1.2c0,-0.66274 1.96995,-1.2 4.4,-1.2z" data-paper-data="{&quot;index&quot;:null}" fill="#000000" stroke-width="0"/><path d="M192.22487,205.7906l6.67858,-42.41238c0,0 9.9044,22.99328 21.25258,33.01096c11.57862,10.2211 47.54171,27.71763 47.54171,27.71763z" fill="#000426" stroke-width="0"/><path d="M245.37072,215.18205c-0.92352,-2.32317 1.39965,-3.24669 1.39965,-3.24669l2.93784,-0.55169c2.82219,0.92514 4.4199,1.75165 5.86265,3.11448l0.2181,-0.30983l2.23325,1.57203c0.72527,0.49119 1.17059,1.34973 1.09068,2.28454c-0.07818,0.91456 -0.63939,1.67186 -1.41105,2.04226c2.59544,0.38494 5.42296,1.41559 7.6234,1.60011l1.59418,0.13628c0,0 2.49092,0.21293 2.27799,2.70385c-0.21293,2.49092 -2.70385,2.27799 -2.70385,2.27799l-1.59418,-0.13628c-3.16542,-0.27523 -6.17466,-0.87354 -9.26237,-1.62187c-0.98202,-0.238 -2.12073,-0.15048 -2.93871,-0.74371c-0.10515,-0.07625 -0.20853,-0.15453 -0.31033,-0.23466l-0.0357,0.05838l-3.00589,-1.83848c-0.0659,-0.03843 -0.1298,-0.07976 -0.19156,-0.12379c-7.46526,-0.15627 -14.91327,-1.41124 -22.36995,-1.85713c-0.434,0.48205 -0.94882,0.7083 -0.94882,0.7083c-6.56289,2.74173 -13.61241,-0.20551 -20.24692,-1.64533c-1.18408,-0.25696 -2.37394,-0.48937 -3.56889,-0.68983c-0.62317,-0.10453 -1.25067,-0.24276 -1.8823,-0.22458c-0.48857,0.01407 -1.66691,0.07554 -1.38686,0.47611c0.14942,0.2137 0.41825,0.3344 0.66925,0.40506c2.6717,0.75221 5.46214,0.79591 8.20761,1.0306l0.39855,0.03407c0,0 2.49092,0.21293 2.27799,2.70385c-0.21293,2.49092 -2.70385,2.27799 -2.70385,2.27799l-0.39855,-0.03407c-3.05498,-0.26115 -7.83117,-0.00391 -10.42187,-1.7663c-3.74001,-2.54424 -3.49502,-6.01233 -1.16151,-8.19331c-0.47576,-0.21655 -0.90931,-0.46611 -1.28143,-0.75884c-1.00143,-0.78783 -1.47152,-2.08059 -2.20728,-3.12087c-0.86406,-3.5552 -1.32748,-6.89229 0.87547,-10.16384c3.11439,-4.62508 11.67411,-7.81259 16.43449,-3.62393c2.5151,2.21304 2.81598,5.44652 2.67825,8.50302c2.78529,-1.65582 5.82199,-2.68568 9.18644,-1.44983c4.21865,1.54964 6.43411,6.43142 5.16076,10.5325c7.66458,0.44642 15.31002,1.73923 22.98641,1.86231c0.09619,-0.12478 0.20074,-0.23548 0.30637,-0.3327c-0.47932,-0.25817 -1.00036,-0.51109 -1.58512,-0.69607l0.44436,0.43953c0,0 -2.32317,0.92352 -3.24669,-1.39965zM219.62062,215.18795c0.40107,-0.01229 0.80206,-0.02063 1.20295,-0.02532c0.14439,-0.12558 0.27635,-0.27355 0.39342,-0.44707c1.2343,-1.82958 0.44904,-4.51055 -1.71412,-5.27535c-2.04837,-0.72422 -3.92609,0.39844 -5.48613,1.49001c0,0 -1.14115,0.76317 -2.29773,0.31283c-1.10031,0.19846 -2.04586,-0.55571 -2.04586,-0.55571l-2.62329,-3.51634c0.16244,-1.687 0.57158,-4.3151 -0.89615,-5.67967c-0.7007,-0.65145 -2.65184,-0.48883 -3.28543,-0.43305c-4.74465,0.41762 -7.23413,3.90569 -6.15866,8.44577c0.99653,1.76952 3.11209,1.85151 5.05916,2.37308c4.67609,1.25258 9.13977,2.98881 13.98155,3.56606c0.66402,0.07917 1.47492,0.25051 2.28464,0.32307c0.69997,-0.5501 1.58562,-0.5783 1.58562,-0.5783z" data-paper-data="{&quot;index&quot;:null}" fill="#000426" stroke-width="0.5"/><path d="M219.66254,215.21517c0,0 -0.88911,0.0329 -1.58908,0.583c-0.80972,-0.07256 -1.62491,-0.23934 -2.28893,-0.31851c-4.84178,-0.57725 -9.38483,-2.32852 -14.06092,-3.5811c-1.94707,-0.52157 -4.06726,-0.6205 -5.06379,-2.39002c-1.07547,-4.54008 1.43131,-8.07064 6.17596,-8.48826c0.63359,-0.05578 2.59739,-0.2263 3.29809,0.42515c1.46773,1.36457 1.12164,4.06371 0.9592,5.75071l2.56865,3.44252c0,0 0.92344,0.76576 2.02375,0.5673c1.15658,0.45034 2.28694,-0.29887 2.28694,-0.29887c1.56004,-1.09157 3.53183,-2.18604 5.5802,-1.46182c2.16316,0.7648 2.94297,3.46391 1.70867,5.29349c-0.11707,0.17352 -0.25006,0.32336 -0.39445,0.44894c-0.40089,0.00469 -0.80319,0.01516 -1.20426,0.02745z" data-paper-data="{&quot;noHover&quot;:false,&quot;origItem&quot;:[&quot;Path&quot;,{&quot;applyMatrix&quot;:true,&quot;segments&quot;:[[[219.62062,215.18795],[0,0],[0.40107,-0.01229]],[[220.82357,215.16263],[-0.40089,0.00469],[0.14439,-0.12558]],[[221.21699,214.71556],[-0.11707,0.17352],[1.2343,-1.82958]],[[219.50287,209.44021],[2.16316,0.7648],[-2.04837,-0.72422]],[[214.01674,210.93022],[1.56004,-1.09157],[0,0]],[[211.71901,211.24305],[1.15658,0.45034],[-1.10031,0.19846]],[209.67315,210.68734],[[207.04986,207.171],[0,0],[0.16244,-1.687]],[[206.15371,201.49133],[1.46773,1.36457],[-0.7007,-0.65145]],[[202.86828,201.05828],[0.63359,-0.05578],[-4.74465,0.41762]],[[196.70962,209.50405],[-1.07547,-4.54008],[0.99653,1.76952]],[[201.76878,211.87713],[-1.94707,-0.52157],[4.67609,1.25258]],[[215.75033,215.44319],[-4.84178,-0.57725],[0.66402,0.07917]],[[218.03497,215.76626],[-0.80972,-0.07256],[0.69997,-0.5501]],[219.62059,215.18796]],&quot;closed&quot;:true,&quot;fillColor&quot;:[0,0,0,1]}]}" fill="#ffffff" stroke-width="0.5"/><path d="M213.05279,203.87029c1.87095,0.15993 3.18935,2.60925 2.94474,5.4707c-0.24461,2.86144 -1.9596,5.05145 -3.83055,4.89151c-1.87095,-0.15993 -3.18935,-2.60925 -2.94474,-5.4707c0.24461,-2.86144 1.9596,-5.05145 3.83055,-4.89151z" data-paper-data="{&quot;index&quot;:null}" fill="#000000" stroke-width="0"/><path d="M218.54957,204.87108c-0.07056,0.82542 -1.77829,1.35345 -3.81432,1.17941c-2.03602,-0.17405 -3.62935,-0.98427 -3.55879,-1.80969c0.07056,-0.82542 1.77829,-1.35345 3.81432,-1.17941c2.03602,0.17405 3.62935,0.98427 3.55879,1.80969z" data-paper-data="{&quot;index&quot;:null}" fill="#000000" stroke-width="0"/><path d="M212.08349,189.96332c2.16963,11.0041 5.47326,19.22956 3.76037,19.56728c-1.7129,0.33773 -7.90488,-7.90407 -10.07451,-18.90817c-2.16963,-11.0041 8.43379,-30.42875 10.1467,-30.76648c1.7129,-0.33773 -6.00219,19.10327 -3.83255,30.10737z" fill="#000000" stroke-width="0"/><path d="M216.0544,192.04012c0.31393,9.77374 1.99561,17.31683 0.47423,17.36569c-1.52138,0.04886 -5.6858,-7.91585 -5.99973,-17.68959c-0.31393,-9.77374 8.3996,-29.54889 9.92098,-29.59775c1.52138,-0.04886 -4.70941,20.14791 -4.39548,29.92164z" fill="#000000" stroke-width="0"/><path d="M172.5186,192.65452c1.82015,1.71378 0.10638,3.53393 0.10638,3.53393l-0.25014,0.2564c-1.3495,1.238 -2.81275,2.34825 -4.27445,3.4515c-0.99406,0.75027 -2.61824,1.30098 -2.73959,2.54047c-0.13575,1.38629 1.0997,2.57897 1.38658,3.94204c0.16125,0.76614 0.06648,1.57855 0.27854,2.3322c0.9161,3.25549 4.09908,3.72995 6.65845,5.1764c1.33197,0.75278 2.20678,2.16381 3.52648,2.93791c0.59938,0.35158 0.98464,-1.00061 1.33659,-1.59978c1.28961,-2.19543 2.77193,-4.24037 4.0886,-6.41903c0,0 1.29436,-2.13883 3.43321,-0.84448c2.13883,1.29436 0.84448,3.43321 0.84448,3.43321c-1.33237,2.19886 -2.70697,4.46105 -4.18071,6.56544c-0.67469,0.9634 -1.13682,2.21247 -2.16242,2.78818c-4.84188,2.71797 -5.73186,-0.50811 -9.30719,-2.48666c-4.04618,-2.23912 -7.35043,-3.23415 -9.02402,-8.10591c-0.29986,-0.87286 -0.19309,-1.83904 -0.38361,-2.74208c-0.2598,-1.23137 -1.62164,-4.68576 -1.44932,-5.65161c0.74773,-4.19092 5.77183,-6.39794 8.58154,-8.996l-0.00331,-0.00573c0,0 1.71378,-1.82015 3.53393,-0.10638z" fill="#4986b7" stroke-width="0.5"/><path d="M185.89098,207.96832c0.20218,0.18835 0.40396,0.37731 0.60534,0.56692c0,0 1.82015,1.71378 0.10638,3.53393c-1.71378,1.82015 -3.53393,0.10638 -3.53393,0.10638c-5.8074,-5.46799 -11.88011,-10.56349 -17.86,-15.82931c-1.26476,-1.11373 -5.04325,-3.65362 -4.63072,-5.4766c0.97847,-4.32382 5.83425,-3.99948 8.43107,-2.66671c1.55351,0.7973 3.49197,4.11329 4.44195,5.37668c2.29264,3.049 5.20763,5.5215 7.8048,8.29223c1.20495,1.1334 2.40961,2.26711 3.614,3.40111l0.26214,0.24683c0,0 1.15419,1.08673 0.75899,2.44853z" fill="#000000" stroke-width="0.5"/><path d="M164.25973,207.23578c-2.15891,-1.26061 -0.8983,-3.41951 -0.8983,-3.41951l1.54987,-2.52732c0.61705,-0.65536 1.2341,-1.3107 1.85115,-1.96606c0,0 1.71378,-1.82015 3.53393,-0.10638c1.82015,1.71378 0.10638,3.53393 0.10638,3.53393c-0.61705,0.65536 -1.2341,1.3107 -1.85115,1.96606l-0.87237,1.62098c0,0 -1.26061,2.15891 -3.41951,0.8983z" fill="#dfff00" stroke-width="0.5"/><path d="M204.65341,204.18151c0.08422,0.06035 0.16906,0.12742 0.2544,0.2017c1.8856,1.64149 0.24412,3.52709 0.24412,3.52709c-2.32638,2.65807 -3.90932,5.91976 -6.66059,8.21266c-1.02626,0.85529 -1.92408,2.12845 -3.23997,2.35908c-1.33111,0.2333 -2.63818,-0.62372 -3.89994,-1.10769c-3.81617,-1.46374 -8.38071,-4.4807 -11.4338,-7.16329c-1.0273,-0.90264 -2.48821,-1.65321 -2.81977,-2.97992c-0.58318,-2.3335 1.85542,-6.99168 4.23733,-7.66746c1.49679,-0.42467 3.15383,0.36146 4.54704,1.05406c0.9361,0.46537 1.35642,1.60403 2.15558,2.27796c1.36114,1.14786 2.96816,1.97074 4.39529,3.03545c0.28777,0.18601 1.50927,0.96682 2.63693,1.70999c0.02364,-0.01103 0.04723,-0.02238 0.07079,-0.03404c1.25488,-0.62073 1.49199,-2.39287 2.46025,-3.40406c0.68335,-0.71364 1.58101,-1.1855 2.37153,-1.77826l4.07292,0.97144c0,0 0.34201,0.29774 0.60791,0.78526z" fill="#313241" stroke-width="0.5"/></g></g></svg>