<svg version="1.1" xmlns="http://www.w3.org/2000/svg" xmlns:xlink="http://www.w3.org/1999/xlink" width="619.12406" height="522.48072" viewBox="0,0,619.12406,522.48072"><defs><radialGradient cx="360.77489" cy="63.53765" r="220.23733" gradientUnits="userSpaceOnUse" id="color-1"><stop offset="0" stop-color="#ffffff" stop-opacity="0.66935"/><stop offset="1" stop-color="#ffffff" stop-opacity="0"/></radialGradient><radialGradient cx="360.77489" cy="63.53765" r="220.23733" gradientUnits="userSpaceOnUse" id="color-2"><stop offset="0" stop-color="#befeff"/><stop offset="1" stop-color="#befeff" stop-opacity="0"/></radialGradient><radialGradient cx="360.77489" cy="63.53765" r="138.23733" gradientUnits="userSpaceOnUse" id="color-3"><stop offset="0" stop-color="#d0fcff" stop-opacity="0"/><stop offset="1" stop-color="#d0fcff"/></radialGradient><radialGradient cx="343.44997" cy="247.43542" r="117.44995" gradientTransform="translate(-452.00003,-483.33335) scale(2,2)" gradientUnits="userSpaceOnUse" id="color-4"><stop offset="0" stop-color="#ffffff"/><stop offset="1" stop-color="#ffffff" stop-opacity="0"/></radialGradient><radialGradient cx="343.44997" cy="247.43542" r="117.44995" gradientTransform="translate(-452.00003,-483.33335) scale(2,2)" gradientUnits="userSpaceOnUse" id="color-5"><stop offset="0" stop-color="#ffffff"/><stop offset="1" stop-color="#ffffff" stop-opacity="0.51765"/></radialGradient></defs><g transform="translate(38.11184,156.69968)"><g data-paper-data="{&quot;isPaintingLayer&quot;:true}" stroke-linecap="butt" stroke-linejoin="miter" stroke-miterlimit="10" stroke-dasharray="" stroke-dashoffset="0" style="mix-blend-mode: normal"><path d="M-26.00462,365.78104v-371.56204h532.00928v371.56204z" fill="#000000" fill-rule="nonzero" stroke="none" stroke-width="0"/><path d="M140.53756,63.53765c0,-121.63372 98.60361,-220.23733 220.23733,-220.23733c121.63372,0 220.23733,98.60361 220.23733,220.23733c0,121.63372 -98.60361,220.23733 -220.23733,220.23733c-121.63372,0 -220.23733,-98.60361 -220.23733,-220.23733z" fill="url(#color-1)" fill-rule="nonzero" stroke="none" stroke-width="0"/><path d="M140.53756,63.53765c0,-121.63372 98.60361,-220.23733 220.23733,-220.23733c121.63372,0 220.23733,98.60361 220.23733,220.23733c0,121.63372 -98.60361,220.23733 -220.23733,220.23733c-121.63372,0 -220.23733,-98.60361 -220.23733,-220.23733z" fill="url(#color-2)" fill-rule="nonzero" stroke="none" stroke-width="0"/><path d="M186.36189,84.64889c0,-0.27614 0.22386,-0.5 0.5,-0.5c0.27614,0 0.5,0.22386 0.5,0.5c0,0.27614 -0.22386,0.5 -0.5,0.5c-0.27614,0 -0.5,-0.22386 -0.5,-0.5z" fill="#ffffff" fill-rule="nonzero" stroke="none" stroke-width="0.5"/><path d="M292.96849,66.63086c0,-0.27614 0.22386,-0.5 0.5,-0.5c0.27614,0 0.5,0.22386 0.5,0.5c0,0.27614 -0.22386,0.5 -0.5,0.5c-0.27614,0 -0.5,-0.22386 -0.5,-0.5z" fill="#ffffff" fill-rule="nonzero" stroke="none" stroke-width="0.5"/><path d="M307.9835,113.17742c0,-0.27614 0.22386,-0.5 0.5,-0.5c0.27614,0 0.5,0.22386 0.5,0.5c0,0.27614 -0.22386,0.5 -0.5,0.5c-0.27614,0 -0.5,-0.22386 -0.5,-0.5z" fill="#ffffff" fill-rule="nonzero" stroke="none" stroke-width="0.5"/><path d="M216.39192,47.11134c0,-0.27614 0.22386,-0.5 0.5,-0.5c0.27614,0 0.5,0.22386 0.5,0.5c0,0.27614 -0.22386,0.5 -0.5,0.5c-0.27614,0 -0.5,-0.22386 -0.5,-0.5z" fill="#ffffff" fill-rule="nonzero" stroke="none" stroke-width="0.5"/><path d="M151.82735,74.13836c0,-0.27614 0.22386,-0.5 0.5,-0.5c0.27614,0 0.5,0.22386 0.5,0.5c0,0.27614 -0.22386,0.5 -0.5,0.5c-0.27614,0 -0.5,-0.22386 -0.5,-0.5z" fill="#ffffff" fill-rule="nonzero" stroke="none" stroke-width="0.5"/><path d="M222.39792,203.26751c0,-0.27614 0.22386,-0.5 0.5,-0.5c0.27614,0 0.5,0.22386 0.5,0.5c0,0.27614 -0.22386,0.5 -0.5,0.5c-0.27614,0 -0.5,-0.22386 -0.5,-0.5z" fill="#ffffff" fill-rule="nonzero" stroke="none" stroke-width="0.5"/><path d="M89.51579,23.08732c0,-0.69036 0.55964,-1.25 1.25,-1.25c0.69036,0 1.25,0.55964 1.25,1.25c0,0.69036 -0.55964,1.25 -1.25,1.25c-0.69036,0 -1.25,-0.55964 -1.25,-1.25z" fill="#ffffff" fill-rule="nonzero" stroke="none" stroke-width="0.5"/><path d="M209.63591,24.58882c0,-0.69036 0.55964,-1.25 1.25,-1.25c0.69036,0 1.25,0.55964 1.25,1.25c0,0.69036 -0.55964,1.25 -1.25,1.25c-0.69036,0 -1.25,-0.55964 -1.25,-1.25z" fill="#ffffff" fill-rule="nonzero" stroke="none" stroke-width="0.5"/><path d="M334.26052,96.66089c0,-0.69036 0.55964,-1.25 1.25,-1.25c0.69036,0 1.25,0.55964 1.25,1.25c0,0.69036 -0.55964,1.25 -1.25,1.25c-0.69036,0 -1.25,-0.55964 -1.25,-1.25z" fill="#ffffff" fill-rule="nonzero" stroke="none" stroke-width="0.5"/><path d="M113.53982,156.72096c0,-0.69036 0.55964,-1.25 1.25,-1.25c0.69036,0 1.25,0.55964 1.25,1.25c0,0.69036 -0.55964,1.25 -1.25,1.25c-0.69036,0 -1.25,-0.55964 -1.25,-1.25z" fill="#ffffff" fill-rule="nonzero" stroke="none" stroke-width="0.5"/><path d="M161.58785,120.68493c0,-0.69036 0.55964,-1.25 1.25,-1.25c0.69036,0 1.25,0.55964 1.25,1.25c0,0.69036 -0.55964,1.25 -1.25,1.25c-0.69036,0 -1.25,-0.55964 -1.25,-1.25z" fill="#ffffff" fill-rule="nonzero" stroke="none" stroke-width="0.5"/><path d="M209.63591,165.72996c0,-0.69036 0.55964,-1.25 1.25,-1.25c0.69036,0 1.25,0.55964 1.25,1.25c0,0.69036 -0.55964,1.25 -1.25,1.25c-0.69036,0 -1.25,-0.55964 -1.25,-1.25z" fill="#ffffff" fill-rule="nonzero" stroke="none" stroke-width="0.5"/><path d="M167.59387,107.17141c0,-0.69036 0.55964,-1.25 1.25,-1.25c0.69036,0 1.25,0.55964 1.25,1.25c0,0.69036 -0.55964,1.25 -1.25,1.25c-0.69036,0 -1.25,-0.55964 -1.25,-1.25z" fill="#ffffff" fill-rule="nonzero" stroke="none" stroke-width="0.5"/><path d="M20.44672,132.69694c0,-0.69036 0.55964,-1.25 1.25,-1.25c0.69036,0 1.25,0.55964 1.25,1.25c0,0.69036 -0.55964,1.25 -1.25,1.25c-0.69036,0 -1.25,-0.55964 -1.25,-1.25z" fill="#ffffff" fill-rule="nonzero" stroke="none" stroke-width="0.5"/><path d="M104.53081,246.81104c0,-0.69036 0.55964,-1.25 1.25,-1.25c0.69036,0 1.25,0.55964 1.25,1.25c0,0.69036 -0.55964,1.25 -1.25,1.25c-0.69036,0 -1.25,-0.55964 -1.25,-1.25z" fill="#ffffff" fill-rule="nonzero" stroke="none" stroke-width="0.5"/><path d="M209.63591,276.84108c0,-0.69036 0.55964,-1.25 1.25,-1.25c0.69036,0 1.25,0.55964 1.25,1.25c0,0.69036 -0.55964,1.25 -1.25,1.25c-0.69036,0 -1.25,-0.55964 -1.25,-1.25z" fill="#ffffff" fill-rule="nonzero" stroke="none" stroke-width="0.5"/><path d="M197.6239,234.79904c0,-0.69036 0.55964,-1.25 1.25,-1.25c0.69036,0 1.25,0.55964 1.25,1.25c0,0.69036 -0.55964,1.25 -1.25,1.25c-0.69036,0 -1.25,-0.55964 -1.25,-1.25z" fill="#ffffff" fill-rule="nonzero" stroke="none" stroke-width="0.5"/><path d="M95.5218,312.8771c0,-0.69036 0.55964,-1.25 1.25,-1.25c0.69036,0 1.25,0.55964 1.25,1.25c0,0.69036 -0.55964,1.25 -1.25,1.25c-0.69036,0 -1.25,-0.55964 -1.25,-1.25z" fill="#ffffff" fill-rule="nonzero" stroke="none" stroke-width="0.5"/><path d="M45.97225,338.40264c0,-0.69036 0.55964,-1.25 1.25,-1.25c0.69036,0 1.25,0.55964 1.25,1.25c0,0.69036 -0.55964,1.25 -1.25,1.25c-0.69036,0 -1.25,-0.55964 -1.25,-1.25z" fill="#ffffff" fill-rule="nonzero" stroke="none" stroke-width="0.5"/><path d="M45.97225,243.80805c0,-0.69036 0.55964,-1.25 1.25,-1.25c0.69036,0 1.25,0.55964 1.25,1.25c0,0.69036 -0.55964,1.25 -1.25,1.25c-0.69036,0 -1.25,-0.55964 -1.25,-1.25z" fill="#ffffff" fill-rule="nonzero" stroke="none" stroke-width="0.5"/><path d="M56.48276,162.72696c0,-0.69036 0.55964,-1.25 1.25,-1.25c0.69036,0 1.25,0.55964 1.25,1.25c0,0.69036 -0.55964,1.25 -1.25,1.25c-0.69036,0 -1.25,-0.55964 -1.25,-1.25z" fill="#ffffff" fill-rule="nonzero" stroke="none" stroke-width="0.5"/><path d="M160.08636,212.27652c0,-0.69036 0.55964,-1.25 1.25,-1.25c0.69036,0 1.25,0.55964 1.25,1.25c0,0.69036 -0.55964,1.25 -1.25,1.25c-0.69036,0 -1.25,-0.55964 -1.25,-1.25z" fill="#ffffff" fill-rule="nonzero" stroke="none" stroke-width="0.5"/><path d="M193.1194,288.85308c0,-0.69036 0.55964,-1.25 1.25,-1.25c0.69036,0 1.25,0.55964 1.25,1.25c0,0.69036 -0.55964,1.25 -1.25,1.25c-0.69036,0 -1.25,-0.55964 -1.25,-1.25z" fill="#ffffff" fill-rule="nonzero" stroke="none" stroke-width="0.5"/><path d="M326.75302,294.85909c0,-0.69036 0.55964,-1.25 1.25,-1.25c0.69036,0 1.25,0.55964 1.25,1.25c0,0.69036 -0.55964,1.25 -1.25,1.25c-0.69036,0 -1.25,-0.55964 -1.25,-1.25z" fill="#ffffff" fill-rule="nonzero" stroke="none" stroke-width="0.5"/><path d="M344.77105,222.78702c0,-0.69036 0.55964,-1.25 1.25,-1.25c0.69036,0 1.25,0.55964 1.25,1.25c0,0.69036 -0.55964,1.25 -1.25,1.25c-0.69036,0 -1.25,-0.55964 -1.25,-1.25z" fill="#ffffff" fill-rule="nonzero" stroke="none" stroke-width="0.5"/><path d="M254.68096,210.77502c0,-0.69036 0.55964,-1.25 1.25,-1.25c0.69036,0 1.25,0.55964 1.25,1.25c0,0.69036 -0.55964,1.25 -1.25,1.25c-0.69036,0 -1.25,-0.55964 -1.25,-1.25z" fill="#ffffff" fill-rule="nonzero" stroke="none" stroke-width="0.5"/><path d="M280.20646,294.85909c0,-0.69036 0.55964,-1.25 1.25,-1.25c0.69036,0 1.25,0.55964 1.25,1.25c0,0.69036 -0.55964,1.25 -1.25,1.25c-0.69036,0 -1.25,-0.55964 -1.25,-1.25z" fill="#ffffff" fill-rule="nonzero" stroke="none" stroke-width="0.5"/><path d="M401.82809,359.42366c0,-0.69036 0.55964,-1.25 1.25,-1.25c0.69036,0 1.25,0.55964 1.25,1.25c0,0.69036 -0.55964,1.25 -1.25,1.25c-0.69036,0 -1.25,-0.55964 -1.25,-1.25z" fill="#ffffff" fill-rule="nonzero" stroke="none" stroke-width="0.5"/><path d="M443.87015,275.33957c0,-0.69036 0.55964,-1.25 1.25,-1.25c0.69036,0 1.25,0.55964 1.25,1.25c0,0.69036 -0.55964,1.25 -1.25,1.25c-0.69036,0 -1.25,-0.55964 -1.25,-1.25z" fill="#ffffff" fill-rule="nonzero" stroke="none" stroke-width="0.5"/><path d="M404.83111,192.75699c0,-0.69036 0.55964,-1.25 1.25,-1.25c0.69036,0 1.25,0.55964 1.25,1.25c0,0.69036 -0.55964,1.25 -1.25,1.25c-0.69036,0 -1.25,-0.55964 -1.25,-1.25z" fill="#ffffff" fill-rule="nonzero" stroke="none" stroke-width="0.5"/><path d="M314.741,138.70294c0,-0.69036 0.55964,-1.25 1.25,-1.25c0.69036,0 1.25,0.55964 1.25,1.25c0,0.69036 -0.55964,1.25 -1.25,1.25c-0.69036,0 -1.25,-0.55964 -1.25,-1.25z" fill="#ffffff" fill-rule="nonzero" stroke="none" stroke-width="0.5"/><path d="M398.8251,60.62487c0,-0.69036 0.55964,-1.25 1.25,-1.25c0.69036,0 1.25,0.55964 1.25,1.25c0,0.69036 -0.55964,1.25 -1.25,1.25c-0.69036,0 -1.25,-0.55964 -1.25,-1.25z" fill="#ffffff" fill-rule="nonzero" stroke="none" stroke-width="0.5"/><path d="M268.19446,54.61886c0,-0.69036 0.55964,-1.25 1.25,-1.25c0.69036,0 1.25,0.55964 1.25,1.25c0,0.69036 -0.55964,1.25 -1.25,1.25c-0.69036,0 -1.25,-0.55964 -1.25,-1.25z" fill="#ffffff" fill-rule="nonzero" stroke="none" stroke-width="0.5"/><path d="M239.66594,99.66389c0,-0.69036 0.55964,-1.25 1.25,-1.25c0.69036,0 1.25,0.55964 1.25,1.25c0,0.69036 -0.55964,1.25 -1.25,1.25c-0.69036,0 -1.25,-0.55964 -1.25,-1.25z" fill="#ffffff" fill-rule="nonzero" stroke="none" stroke-width="0.5"/><path d="M-38.11184,57.62185c0,-0.69036 0.55964,-1.25 1.25,-1.25c0.69036,0 1.25,0.55964 1.25,1.25c0,0.69036 -0.55964,1.25 -1.25,1.25c-0.69036,0 -1.25,-0.55964 -1.25,-1.25z" fill="#ffffff" fill-rule="nonzero" stroke="none" stroke-width="0.5"/><path d="M77.50378,81.64588c0,-0.69036 0.55964,-1.25 1.25,-1.25c0.69036,0 1.25,0.55964 1.25,1.25c0,0.69036 -0.55964,1.25 -1.25,1.25c-0.69036,0 -1.25,-0.55964 -1.25,-1.25z" fill="#ffffff" fill-rule="nonzero" stroke="none" stroke-width="0.5"/><path d="M27.95423,-0.93671c0,-0.69036 0.55964,-1.25 1.25,-1.25c0.69036,0 1.25,0.55964 1.25,1.25c0,0.69036 -0.55964,1.25 -1.25,1.25c-0.69036,0 -1.25,-0.55964 -1.25,-1.25z" fill="#ffffff" fill-rule="nonzero" stroke="none" stroke-width="0.5"/><path d="M353.78006,21.58583c0,-0.69036 0.55964,-1.25 1.25,-1.25c0.69036,0 1.25,0.55964 1.25,1.25c0,0.69036 -0.55964,1.25 -1.25,1.25c-0.69036,0 -1.25,-0.55964 -1.25,-1.25z" fill="#ffffff" fill-rule="nonzero" stroke="none" stroke-width="0.5"/><path d="M439.36564,15.57981c0,-0.69036 0.55964,-1.25 1.25,-1.25c0.69036,0 1.25,0.55964 1.25,1.25c0,0.69036 -0.55964,1.25 -1.25,1.25c-0.69036,0 -1.25,-0.55964 -1.25,-1.25z" fill="#ffffff" fill-rule="nonzero" stroke="none" stroke-width="0.5"/><path d="M460.38665,162.72696c0,-0.69036 0.55964,-1.25 1.25,-1.25c0.69036,0 1.25,0.55964 1.25,1.25c0,0.69036 -0.55964,1.25 -1.25,1.25c-0.69036,0 -1.25,-0.55964 -1.25,-1.25z" fill="#ffffff" fill-rule="nonzero" stroke="none" stroke-width="0.5"/><path d="M431.85813,303.86811c0,-0.69036 0.55964,-1.25 1.25,-1.25c0.69036,0 1.25,0.55964 1.25,1.25c0,0.69036 -0.55964,1.25 -1.25,1.25c-0.69036,0 -1.25,-0.55964 -1.25,-1.25z" fill="#ffffff" fill-rule="nonzero" stroke="none" stroke-width="0.5"/><path d="M272.69897,348.91315c0,-0.69036 0.55964,-1.25 1.25,-1.25c0.69036,0 1.25,0.55964 1.25,1.25c0,0.69036 -0.55964,1.25 -1.25,1.25c-0.69036,0 -1.25,-0.55964 -1.25,-1.25z" fill="#ffffff" fill-rule="nonzero" stroke="none" stroke-width="0.5"/><g stroke="none" stroke-width="1"><path d="M222.53756,63.53765c0,-76.34637 61.89097,-138.23733 138.23733,-138.23733c76.34637,0 138.23733,61.89097 138.23733,138.23733c0,76.34637 -61.89097,138.23733 -138.23733,138.23733c-76.34637,0 -138.23733,-61.89097 -138.23733,-138.23733z" fill="#0077b8" fill-rule="evenodd"/><path d="M224.52158,40.14727c-0.2266,1.32436 -0.43306,2.6588 -0.61938,3.99323c0.18632,-1.35961 0.39278,-2.69405 0.61938,-3.99323z" fill="#74b140" fill-rule="evenodd"/><path d="M225.60927,38.60638c-0.41369,0.46705 -0.78131,0.97297 -1.09776,1.51068c0.18128,-1.05412 0.37263,-2.10152 0.57406,-3.14222v-0.03021c0.20646,-1.04741 0.42299,-2.08474 0.64959,-3.12207c0.32909,0.13422 0.63498,0.31946 0.90641,0.54888c0.55895,0.47838 1.1733,1.33443 1.00712,2.11999c-0.19639,0.93662 -1.40997,1.43515 -2.03942,2.11495z" fill="#74b140" fill-rule="evenodd"/><path d="M241.15921,-2.97258c-0.6987,0.65239 -1.51572,1.16516 -2.40702,1.51068c0.50692,-0.95676 1.02726,-1.90346 1.56104,-2.84008c3.72334,-6.56068 7.97751,-12.80555 12.71993,-18.67201c0.76541,-0.95005 1.54257,-1.89171 2.33148,-2.82497c0.97289,0.27085 1.84044,0.83108 2.48759,1.60636c0.98698,1.20351 0.82584,1.84303 0.19135,2.85015c0.58489,-0.07244 1.15839,-0.21792 1.70707,-0.43306c0.66058,-0.17056 1.35366,-0.17056 2.01424,0c1.30926,0.3676 2.34659,1.39486 3.14222,2.45234c1.29415,1.71714 2.11999,3.77167 3.06165,5.69527l2.99115,6.10818c0.85605,1.74232 2.48255,5.51398 -0.03525,6.77792c-0.93546,0.40606 -2.02147,0.23324 -2.78469,-0.44313c-0.53881,-0.40788 -1.31429,-1.59629 -2.08474,-1.94878c0.2575,2.16311 0.8593,4.27111 1.7826,6.24415c0.14958,0.27788 0.12199,0.61772 -0.07049,0.86781c-0.19247,0.25009 -0.5139,0.36381 -0.82082,0.29038c-0.70689,-0.15443 -1.43686,-0.17153 -2.1502,-0.05036c0.36256,1.66678 0.32731,3.38392 -1.18337,4.50686c-0.21225,0.12063 -0.46813,0.13713 -0.69412,0.04477c-0.22599,-0.09237 -0.39706,-0.28335 -0.46407,-0.51811c-1.59178,-4.76616 -5.18026,-8.60282 -9.82949,-10.5093c-0.32059,-0.11271 -0.53511,-0.41551 -0.53511,-0.75534c0,-0.33983 0.21452,-0.64263 0.53511,-0.75534c1.79267,-0.47335 3.73138,-0.43306 5.4737,-1.08265c0.91431,-0.28575 1.70217,-0.87797 2.23077,-1.67686c0.4381,-0.8208 -0.01007,-1.64664 -0.25178,-2.47752c-0.84598,-2.8854 -2.08977,-6.8736 -5.76073,-6.95417c-3.56017,-0.09568 -2.80483,4.26515 -3.72635,6.54628c-0.79059,1.88331 -2.43723,3.30335 -4.53204,2.59333c-0.76038,-0.25682 -1.59629,-0.91648 -2.37177,-0.34746c-0.41366,0.41078 -0.73174,0.90765 -0.93159,1.45529c-0.45824,0.96684 -0.83591,1.96388 -1.59629,2.73937z" fill="#74b140" fill-rule="evenodd"/><path d="M291.41954,126.47763c1.20351,4.18962 -3.26811,6.37507 -4.62268,9.72878c-1.65671,4.08387 -0.03525,8.74684 -1.87828,12.83575c-0.73692,1.65472 -2.07398,2.96839 -3.74145,3.67599c-2.03942,0.91144 -4.10905,1.35961 -5.75569,2.97604c-3.01129,2.9559 -4.24501,7.52822 -6.22904,11.37542c-1.59629,-1.39486 -3.10697,-2.83504 -4.61765,-4.3004c-2.49766,-2.42212 -4.91475,-4.91978 -7.22105,-7.52319c-3.71048,-4.17821 -7.16452,-8.5773 -10.34313,-13.17313c-8.28638,-11.972 -14.61943,-25.1837 -18.76265,-39.14173l0.05539,0.03021c3.05157,-2.48759 4.94496,-7.57858 9.65828,-6.27436c0.23383,0.06996 0.42334,0.24214 0.51534,0.46821c0.092,0.22607 0.07655,0.48167 -0.042,0.69501c-0.12589,0.27192 -0.24674,0.54888 -0.37263,0.82584l8.05696,1.0323c2.22574,0.28199 5.17156,0.14603 6.75778,1.97396c0.67981,0.78555 1.02726,1.79771 1.68693,2.59333c0.83199,0.91375 1.88956,1.59274 3.06668,1.96892c1.93871,0.72009 4.05869,0.9618 5.96719,1.79771c1.60749,0.63552 2.9975,1.72129 4.0033,3.12711c0.44199,0.66115 0.71675,1.41979 0.80066,2.21063c0.11582,1.17833 -0.2971,1.84303 0.88123,2.64369c1.17833,0.80066 2.64369,1.35458 3.9177,2.01424c1.06251,0.55392 2.11999,1.14812 3.20264,1.65168c2.23077,1.06755 4.43636,0.67477 6.71749,1.33443c0.86136,0.26475 1.64003,0.74686 2.26099,1.3999c0.28441,0.33052 0.5888,0.64331 0.91144,0.93662c0.62945,0.49349 1.38479,0.48342 2.14013,0.62441c1.48047,0.27696 2.5883,1.01216 2.98611,2.49262z" fill="#74b140" fill-rule="evenodd"/><path d="M223.83246,66.92409c-0.38616,-0.22095 -0.85746,-0.23325 -1.25462,-0.03273c-0.04028,-1.1179 -0.04028,-2.23077 -0.04028,-3.35371c0,-1.04404 0.02014,-2.08977 0.06043,-3.13718c0,-0.33235 0,-0.66974 0,-1.00712c0.02518,-0.72513 0.05036,-1.45529 0.08561,-2.18042c0.02014,-0.4532 0.06546,-0.90641 0.06546,-1.35458c0.04028,-0.79059 0.09064,-1.53586 0.14603,-2.30127c0.04028,-0.62441 0.09568,-1.24379 0.14603,-1.86317l0.11078,-0.79563c0.20479,-2.26938 0.46495,-4.52533 0.78052,-6.76785c0.34242,0.40285 0.87619,0.54384 1.64664,0.08561c0.77045,-0.45824 1.1028,-1.33947 1.36465,-2.14517c0.50356,-1.54089 0.83591,-4.72339 2.79476,-5.22695c1.61139,-0.40788 2.3617,1.49054 2.44227,2.73937c0.00851,0.94752 -0.1066,1.89211 -0.34242,2.80987c2.19552,-1.79771 5.59959,-4.05869 1.97396,-6.11322c-1.13895,-0.59105 -2.03117,-1.56714 -2.5178,-2.75447c-0.6647,-1.44018 -1.4855,-2.26602 -3.09689,-2.5178c-0.57673,-0.08489 -1.15949,-0.12194 -1.74232,-0.11078c0.54384,-2.24588 1.14812,-4.47665 1.79771,-6.68224c0.05539,-0.18128 0.11078,-0.36256 0.16114,-0.53881c0.19639,-0.65463 0.39781,-1.30926 0.60427,-1.95885c0.07553,-0.2266 0.1561,-0.48845 0.23667,-0.73016c0.31221,-0.96684 0.63449,-1.93367 0.96684,-2.89044l0.50356,-1.415l0.47838,-1.30926c0.21653,-0.56902 0.43306,-1.14308 0.65463,-1.7121c0.13093,-0.33739 0.25682,-0.67477 0.38774,-1.00712c0.39781,0.2971 0.78555,0.58917 1.14812,0.87116c3.78677,3.00625 6.89374,7.75986 5.88662,12.70986c1.12797,0 2.04445,-0.93662 2.38688,-2.05453c0.43306,-1.43515 0.00504,-3.00625 -0.32731,-4.42126c-0.06359,-0.23813 -0.01395,-0.49229 0.13456,-0.68901c0.14851,-0.19672 0.37936,-0.31406 0.62581,-0.31811c1.83847,0.27188 3.63423,-0.70884 4.39921,-2.40256c0.76498,-1.69372 0.31354,-3.68941 -1.10593,-4.88899c-0.17207,-0.1734 -0.2543,-0.41661 -0.22279,-0.65885c0.03151,-0.24224 0.17322,-0.4563 0.38393,-0.57991c2.85527,-1.16962 4.86523,-3.77911 5.26724,-6.83835c0.00832,-0.27941 0.16086,-0.53454 0.40306,-0.67412c0.2422,-0.13957 0.53943,-0.14363 0.78534,-0.01073c2.56816,1.09776 5.52909,2.52787 6.70742,5.2471c0.66974,1.53082 0.08057,3.80188 1.82289,4.60758c2.0646,0.95173 4.14934,-0.6647 5.69527,-1.88331c0.23084,-0.21173 0.5635,-0.27046 0.85291,-0.1506c0.28941,0.11986 0.4831,0.3966 0.49664,0.70955c0.66407,6.0895 2.36727,12.02007 5.0356,17.53396c0.17364,0.31073 0.11976,0.699 -0.13195,0.95071c-0.2517,0.2517 -0.63997,0.30559 -0.95071,0.13195c-1.43515,-0.76541 -3.29328,1.15819 -4.53204,1.72218c-1.42508,0.64959 -2.8149,0.54384 -4.29033,0.11078c-1.89339,-0.55392 -3.56017,-1.13301 -5.53916,-0.62945c-1.38001,0.35436 -2.6241,1.10957 -3.57528,2.17034l4.81907,0.11078c0.24661,0.00449 0.47755,0.12169 0.62679,0.31805c0.14924,0.19636 0.20032,0.45027 0.13862,0.68907c-0.47136,2.39291 0.36253,4.85621 2.19049,6.47075c0.19202,0.20194 0.26525,0.48918 0.19332,0.7584c-0.07193,0.26922 -0.27866,0.48167 -0.54581,0.56093c-1.31429,0.41292 -2.63362,0.91648 -3.97309,1.23876c-0.6838,0.24212 -1.44179,0.14691 -2.04445,-0.25682c-0.67477,-0.5086 -1.07258,-1.38983 -1.44522,-2.17538c-0.14003,0.2475 -0.30907,0.4774 -0.50356,0.68484c-0.83591,0.88123 -1.97396,1.01216 -3.07675,1.38479c-1.556,0.5237 -3.34868,1.9941 -2.48255,3.82706c0.13534,0.24628 0.13257,0.54529 -0.00729,0.78903c-0.13986,0.24374 -0.39663,0.39699 -0.67755,0.40441c-3.07572,0.29705 -5.89508,1.84233 -7.80015,4.27523c-0.41292,0.5086 -1.13301,0.15107 -1.31933,-0.35249c-0.00272,-0.01668 -0.00272,-0.03368 0,-0.05036c0.04028,1.02223 0.39278,2.08474 0.30717,3.09186c-0.10563,0.99707 -0.51523,1.93757 -1.1733,2.69405c-1.62146,1.97899 -4.12919,2.62858 -6.18875,3.99323c-4.86943,3.21775 -0.31724,9.60793 -3.21775,13.86805c-0.12604,0.20925 -0.34072,0.34953 -0.58298,0.38092c-0.24226,0.03138 -0.4856,-0.04955 -0.66081,-0.21978c-1.11312,-1.31434 -1.79056,-2.94195 -1.93871,-4.65793c-0.08057,-1.04237 0.33235,-2.04949 0.25682,-3.05661c-0.02838,-0.444 -0.27779,-0.84408 -0.66394,-1.06503z" fill="#74b140" fill-rule="evenodd"/><path d="M229.51689,83.68509c-1.35961,-0.37263 -2.71922,-0.48845 -3.81195,-1.46536c-0.72513,-0.64456 -1.16826,-1.43515 -2.13006,-1.74735c-0.12589,-1.03733 -0.24171,-2.07467 -0.34746,-3.12207c0.54384,0.18128 1.06755,0.41795 1.51068,0.60931c0.96677,0.41919 1.89373,0.9248 2.76958,1.51068c0.77548,0.5237 1.4855,1.27904 2.31638,1.70203c1.10783,0.55895 2.42212,0.30717 3.62563,0.2971c1.20351,-0.01007 2.40198,0.04028 3.60549,0.11582c0.62441,0.04532 1.12294,0.87619 0.55895,1.34954c-1.14812,0.96684 -2.47248,2.02935 -4.02848,2.16531c-1.61139,0.13596 -2.60341,-0.99705 -4.06877,-1.415z" fill="#74b140" fill-rule="evenodd"/><path d="M240.77651,85.07995c1.48047,0.04028 3.38392,0.83087 2.43723,2.63362c-0.14008,0.24488 -0.40279,0.39362 -0.68484,0.38774c-1.64161,-0.10575 -2.96093,0.37263 -4.53204,0.62945c-0.75061,0.15732 -1.53296,0.02032 -2.18545,-0.38271c-0.23234,-0.03337 -0.4414,-0.15907 -0.57979,-0.34867c-0.13839,-0.18959 -0.19442,-0.42699 -0.15541,-0.65846c0.01883,-0.32559 0.21113,-0.61597 0.50356,-0.76038c0.47335,-0.5942 0.98698,-1.30926 1.697,-1.51068c1.02726,-0.2971 2.4473,-0.02014 3.49974,0.01007z" fill="#74b140" fill-rule="evenodd"/><path d="M256.9156,-27.66717c0.98027,-1.13805 1.98739,-2.25595 3.02136,-3.35371c0.10985,0.15847 0.20428,0.32709 0.28199,0.50356c0.75534,1.67686 -0.44313,2.96597 -2.14013,2.96597c-0.3901,-0.00937 -0.77894,-0.04808 -1.16322,-0.11582z" fill="#74b140" fill-rule="evenodd"/><path d="M263.43809,-32.1172c-0.2976,0.1219 -0.63927,0.05391 -0.86752,-0.17266c-0.27361,-0.21716 -0.56502,-0.41087 -0.87116,-0.57909c0.7587,-0.77548 1.52579,-1.54593 2.30127,-2.31134c0,0.12085 0,0.24171 0,0.37263c-0.02014,0.65463 -0.06546,1.30422 -0.06546,1.95885c-0.00374,0.32159 -0.19952,0.60971 -0.49713,0.73161z" fill="#74b140" fill-rule="evenodd"/><path d="M265.22434,-36.3687c0.94669,-0.90137 1.90849,-1.79267 2.87533,-2.6739c0.06043,-0.05036 0.12085,-0.10071 0.17625,-0.1561c0.8913,-0.80066 1.79267,-1.58621 2.70412,-2.36673l0.40285,-0.34242c0.87619,-0.73856 1.76246,-1.47543 2.6588,-2.21063l0.30717,-0.24674c0.98698,-0.79226 1.98403,-1.57111 2.99115,-2.33652c1.84807,0.41795 3.9328,0.35753 5.30249,1.95381c0.19177,0.20224 0.2654,0.48925 0.19468,0.75884c-0.07073,0.26959 -0.27577,0.48347 -0.54213,0.56552l-4.02848,1.12294c-1.05748,0.29206 -2.31638,0.46328 -3.26307,1.04237c-0.85605,0.51867 -1.14812,1.49054 -2.11999,1.86317c-0.81577,0.31724 -1.64161,0.1561 -2.48255,0.1561c-1.73728,0.03021 -1.1179,0.87619 -1.73728,1.96388c-0.32269,0.5494 -0.87943,0.92055 -1.51068,1.00712c-0.64959,0.13596 -1.30926,-0.10071 -1.92864,-0.10071z" fill="#74b140" fill-rule="evenodd"/><path d="M310.26277,-2.30788c-0.96167,0.17925 -1.88613,0.51975 -2.73433,1.00712c-0.7503,0.47838 -1.24379,1.1884 -1.88331,1.78764c-1.21358,1.12797 -2.42716,1.20351 -4.02848,1.12797c-3.96302,-0.18632 -5.74059,3.74145 -6.98438,6.89877c-1.07258,2.71922 -2.24588,5.44349 -4.82411,7.04984c-0.24591,0.13849 -0.54659,0.13727 -0.79138,-0.0032c-0.24479,-0.14047 -0.39755,-0.39945 -0.40206,-0.68164c-0.11694,-1.45059 -1.02832,-2.71682 -2.36673,-3.28825c-0.68484,-0.28703 -1.51068,-0.3676 -2.01424,-0.95173c-0.62441,-0.68988 -0.40788,-1.42004 -0.35753,-2.25091c0.08057,-1.46032 -0.47838,-2.59333 -1.1028,-3.88748c-0.87619,-1.81282 -1.3999,-3.55513 -1.14812,-5.56938c0.24171,-1.95885 1.03733,-3.78677 1.81785,-5.57945c0.89634,-2.11999 1.96892,-4.35076 2.01424,-6.71246c0.04532,-2.76958 -1.52075,-4.92985 -2.97604,-7.12538c-1.2589,-1.90849 -0.82584,-4.43133 -2.39695,-6.12329c-1.44726,-1.57462 -3.72312,-2.07925 -5.7003,-1.26394c-0.21225,0.12063 -0.46813,0.13713 -0.69412,0.04477c-0.22599,-0.09237 -0.39706,-0.28335 -0.46407,-0.51811c-0.20463,-0.86779 -0.03466,-1.78163 0.46831,-2.5178l-1.86317,-0.60931c-0.26632,-0.08049 -0.47177,-0.29346 -0.54262,-0.56251c-0.07085,-0.26904 0.00303,-0.55559 0.19517,-0.75681c0.3176,-0.39775 0.70078,-0.73835 1.13301,-1.00712c-0.8473,-0.75933 -1.33845,-1.8384 -1.35458,-2.97604c0.00274,-0.43549 0.3551,-0.78785 0.79059,-0.79059l4.95503,-0.02518l-0.65463,-2.45737c-0.06573,-0.23831 -0.01693,-0.49363 0.13202,-0.69092c0.14895,-0.19729 0.38116,-0.31415 0.62835,-0.3162c2.76455,0.30717 4.81404,-0.57909 7.29659,-1.58621c1.74232,-0.72009 3.73138,-0.68484 5.58952,-0.64456c1.65744,-0.02757 3.30392,0.27366 4.84425,0.88627c0.79087,0.35332 1.5083,0.85211 2.11495,1.4704l0.4532,0.50356c0.40788,0.32228 0.54384,0.32228 0.40788,0c0.08057,-0.18128 -0.13596,-0.76038 -0.11078,-1.00712c0.12085,-1.3294 1.38983,-2.11495 2.59837,-2.26099c1.20854,-0.14603 2.36673,0.24674 3.57528,-0.06043c1.05748,-0.27696 2.03438,-0.86109 3.07172,-1.22869c1.56607,-0.55392 3.51485,-0.73016 4.76368,0.57406c0.55205,0.5619 0.86284,1.31717 0.86612,2.10488c2.52284,-0.50356 6.75778,-1.25386 7.08509,1.51068c0.07161,0.58417 -0.12886,1.16888 -0.54384,1.58621c0.51189,-0.01536 1.02269,0.05615 1.51068,0.2115c0.26636,0.08206 0.47141,0.29594 0.54213,0.56554c0.07073,0.26959 -0.00291,0.55659 -0.19468,0.75883c-1.4704,1.51572 0.79563,0.62945 1.55097,0.39781c0.79737,-0.24132 1.63035,-0.34353 2.46241,-0.30214c1.66126,0.08321 3.25105,0.70146 4.53204,1.76246c0.20476,0.19961 0.28397,0.4952 0.20646,0.77045c-0.59924,2.42716 -3.49471,1.61643 -4.76871,3.253c-0.75534,0.96684 -0.62945,2.43723 -0.81073,3.59038c-0.19571,1.07149 -0.61992,2.08824 -1.24379,2.98108c-1.58621,2.62858 0.68988,6.25422 -0.77045,8.99862c-0.62599,1.24096 -2.12565,1.75871 -3.38392,1.16826l-0.60427,0.84095c1.97816,1.79907 2.17841,4.84077 0.4532,6.88367c-0.14846,0.18175 -0.38284,0.27012 -0.61434,0.23164c0.22367,0.24053 0.26066,0.60022 0.09064,0.88123c-1.61643,2.91561 -4.93489,3.22782 -7.82029,3.90763z" fill="#74b140" fill-rule="evenodd"/><path d="M319.65416,10.18545c-1.45025,-0.11582 -3.51989,-0.44313 -4.42126,-1.72721c-1.00712,-1.44018 -0.08561,-3.85727 -1.57111,-5.00035c-0.43358,-0.60141 -0.43358,-1.41283 0,-2.01424c0.8208,-1.40997 1.86821,-0.98194 2.70915,-0.76541c0.73721,0.19414 1.39662,0.61088 1.88835,1.19344c0.86109,0.99705 1.39486,1.52075 2.79476,1.14812c1.88835,-0.50356 3.43932,-2.19049 5.53916,-1.82289c1.56104,0.28703 1.36968,1.54089 1.11287,2.80483c-0.34746,1.72721 -0.76541,3.85224 -2.32645,4.88957c-1.72146,1.03139 -3.72778,1.48489 -5.72548,1.29415z" fill="#74b140" fill-rule="evenodd"/><path d="M355.26251,-25.06666c-0.26209,-0.07138 -0.46963,-0.27156 -0.55048,-0.53088c-0.38271,-1.83296 -2.56816,-2.62355 -2.19552,-4.77375c0.31724,-1.87828 2.01424,-2.67894 3.74145,-2.38184c0.22779,0.03463 0.41978,0.18822 0.50356,0.40285c0.8057,-0.32731 1.58621,-1.26897 2.08977,-1.66678c0.59108,-0.4857 1.27717,-0.84246 2.01424,-1.04741c1.53586,-0.40788 3.18754,-0.14603 4.69822,0.23164c1.08265,0.27192 2.54298,0.58917 2.80483,1.87828c0.20142,1.05748 -0.70498,2.12502 -1.62146,2.39695c-0.91648,0.27192 -1.83296,-0.04532 -2.70412,-0.28199c-0.58917,-0.14603 -0.85605,-0.33235 -1.45529,0c-0.76541,0.44313 -0.46831,0.6647 -0.46831,1.45025c0.02518,1.556 -0.24674,3.22278 -1.59629,4.19969c-0.8057,0.57909 -2.09985,0.81577 -2.84511,0c-0.33895,-0.36902 -0.47287,-0.88209 -0.35753,-1.36968l-0.04028,0.04532c-0.3676,0.44817 -0.86612,0.86109 -1.27401,1.26897c-0.20118,0.18252 -0.48158,0.24977 -0.74367,0.17839z" fill="#74b140" fill-rule="evenodd"/><path d="M418.26635,97.88045c-1.94374,8.92812 -10.0007,14.22557 -14.53275,21.69841c-1.25176,1.97859 -2.12436,4.17286 -2.57319,6.47075c-0.47335,2.71922 0.20142,5.26724 0.61434,7.93611c0.5086,3.3235 0.1561,7.44765 -3.253,9.1094c-0.86109,0.42299 -1.8531,0.56399 -2.57319,1.33947c-0.72009,0.77548 -0.82584,1.9236 -0.91144,2.93072c-0.141,1.66678 -0.17121,3.26811 -0.77045,4.85936c-1.30926,3.49471 -3.85727,6.5211 -6.12833,9.43168c-2.04445,2.62355 -3.61053,6.12833 -6.46068,7.98143c-1.82792,1.19847 -4.31047,1.33443 -6.43046,1.51068c-1.88331,0.15107 -4.51693,0.54384 -6.30961,-0.25178c-1.19344,-0.52874 -1.82792,-2.28113 -2.33148,-3.37385c-0.75438,-1.64482 -1.36594,-3.35146 -1.82792,-5.10106c-1.12294,-4.08387 -2.17034,-8.12243 -3.394,-12.21637c-1.22365,-4.09394 -2.08474,-8.33896 -1.46536,-12.61418c0.34746,-2.40702 1.01719,-4.76368 0.78052,-7.21602c-0.20603,-2.06199 -0.89619,-4.04617 -2.01424,-5.79094c-1.00208,-1.56104 -2.72426,-2.68901 -3.4796,-4.38601c-0.75534,-1.697 -0.10575,-3.35875 0.50356,-4.98021c0.38774,-0.99201 0.87116,-2.20559 0.50356,-3.27314c-0.40285,-1.1733 -1.66175,-1.14812 -2.64369,-1.51068c-1.28911,-0.47335 -2.28113,-1.39486 -3.34364,-2.23077c-0.81073,-0.63952 -1.79771,-1.45025 -2.91561,-1.1884c-0.76541,0.18128 -1.36968,0.83087 -2.01424,1.27904c-1.40997,0.98194 -2.95086,1.05748 -4.61261,0.94669c-1.28911,-0.09064 -2.53291,-0.21653 -3.7767,0.23164c-0.82584,0.2971 -1.58621,0.76038 -2.38184,1.12797c-1.31429,0.59924 -2.70915,1.00208 -4.14934,0.59924c-1.64664,-0.45824 -2.91058,-1.72218 -4.06373,-2.91058c-1.51068,-1.556 -3.112,-3.08179 -4.49679,-4.74354c-1.26394,-1.51068 -1.21862,-3.01633 -1.72218,-4.81404c-0.47838,-1.63657 -2.01424,-2.20056 -3.02136,-3.44939c-0.82972,-0.97089 -0.88795,-2.38326 -0.141,-3.41917c0.5086,-0.80066 1.21862,-1.40493 1.2589,-2.41205c0.02082,-1.07626 -0.59521,-2.0635 -1.57111,-2.5178c-0.24146,-0.14409 -0.39032,-0.40367 -0.39278,-0.68484c-0.14957,-2.83633 0.88012,-5.6083 2.84511,-7.65915c0.55895,-0.56902 1.25386,-0.98194 1.80275,-1.54593c0.76038,-0.78052 0.60427,-1.51572 0.76038,-2.45234c0.15326,-0.94676 0.8776,-1.6992 1.81785,-1.88835c1.15315,-0.32228 2.29623,-0.13596 3.09186,-1.20854c0.59924,-0.81577 0.79059,-1.9236 1.00712,-2.89547c0.43306,-2.01424 0.88627,-4.0033 2.4473,-5.48377c3.87741,-3.67095 9.59282,-2.16027 14.33636,-2.49262c1.80314,-0.15053 3.55297,-0.68629 5.13128,-1.57111c0.97691,-0.50356 2.03438,-1.07762 3.16739,-1.07762c2.41205,-0.05036 3.04654,2.02431 4.0033,3.7767c0.81577,1.50061 2.13006,1.7121 3.64074,2.21566c1.02973,0.33961 1.98758,0.86719 2.82497,1.556c1.13301,0.91144 2.26602,2.31638 3.74649,2.63866c0.7503,0.16114 2.11999,-0.08057 2.57823,-0.8208c-0.54888,-1.37975 0.5942,-2.81994 2.07467,-2.97604c1.34451,-0.15107 2.78469,0.48845 4.02848,0.85605l4.48672,1.31933c2.28113,0.67477 4.8946,1.1733 6.57146,2.84511c1.67686,1.67182 3.07675,3.73138 4.50183,5.61973c1.57729,2.05163 3.02047,4.20295 4.32055,6.44053c1.22869,2.17538 2.08474,4.50686 3.24293,6.70742c1.21358,2.30631 3.21775,3.71124 4.76871,5.72548c1.20854,1.56607 1.94878,4.21983 4.02848,4.83921c1.84807,0.54384 3.89756,-0.76541 5.53916,-1.415c1.556,-0.61434 3.17243,-1.00712 4.78382,-0.35753c0.37076,0.15024 0.57922,0.54587 0.49349,0.93662z" fill="#74b140" fill-rule="evenodd"/><path d="M416.66,139.90758c-0.38157,1.63121 -0.99009,3.20083 -1.80778,4.66297c-0.93159,1.82289 -2.08977,3.34868 -2.55305,5.39313c-0.34746,1.53082 -0.57406,3.12711 -1.44018,4.47665c-1.06755,1.65671 -4.31551,3.38392 -5.32263,0.64959c-0.86612,-2.38184 -0.4532,-5.41831 1.3294,-7.21602c-0.62963,-2.30447 -0.15536,-4.77063 1.28408,-6.67721c0.99201,-1.28408 2.36673,-1.77757 3.59038,-2.87029c1.22365,-1.09273 1.96388,-2.60341 2.68901,-4.02848c0.18432,-0.30322 0.54713,-0.44773 0.88944,-0.35427c0.34231,0.09346 0.58135,0.40231 0.58599,0.75712c-0.09568,1.80778 1.09273,3.31343 0.75534,5.20681z" fill="#74b140" fill-rule="evenodd"/><path d="M329.87644,24.98004c0.13008,-0.3469 0.50503,-0.53547 0.86109,-0.43306c0.35595,-0.07895 0.72666,-0.05981 1.07258,0.05539c0.2419,0.07242 0.43114,0.26166 0.50356,0.50356c0.61161,0.25815 1.15847,0.64852 1.60132,1.14308c0.86109,1.00208 0.88627,2.41205 1.07762,3.66088c0.15107,0.97187 0.35249,1.90346 -0.7352,2.33148c-1.56067,0.55873 -3.17866,0.94211 -4.82411,1.14308c-0.97187,0.13093 -1.98403,-0.02518 -2.3617,-1.11287c-0.37767,-1.08769 0.33235,-1.90849 1.0323,-2.59837c0.39387,-0.33765 0.68813,-0.77641 0.85102,-1.26897c0.01815,-0.48536 0.00638,-0.97138 -0.03525,-1.45529c0.02282,-0.54082 0.19733,-1.06432 0.50356,-1.51068c0.12897,-0.17312 0.28152,-0.32736 0.4532,-0.45824z" fill="#74b140" fill-rule="evenodd"/><path d="M336.33208,23.59022c-0.59793,-1.38357 -0.73905,-2.92177 -0.40285,-4.39104c0.18632,-0.85605 0.61938,-1.46032 1.54089,-1.51068c1.78764,-0.10071 2.1502,0.4381 2.84008,2.17538c0.73016,1.84303 2.33148,3.12207 3.05661,4.99532c0.37262,0.90466 0.52286,1.88551 0.4381,2.86022c-0.05036,0.49349 -0.22157,0.91648 -0.31724,1.42004c-0.17625,0.8913 0.04028,1.63153 0.13093,2.5178c0.18128,1.7121 -0.72513,2.09481 -2.16531,2.63866c-1.22869,0.4532 -3.96302,1.37472 -4.93993,-0.05036c-0.87619,-1.31933 0.40285,-3.8472 1.00712,-5.0356c0.71506,-1.34954 1.18337,-2.28616 0.2115,-3.61053c-0.5417,-0.61418 -1.01139,-1.2883 -1.3999,-2.00921z" fill="#74b140" fill-rule="evenodd"/><path d="M463.36017,101.95425c0.30877,0.80103 0.41765,1.66522 0.31724,2.5178c0.04492,0.87173 -0.01425,1.74569 -0.17625,2.60341c-0.35249,1.3999 -1.94374,2.08474 -3.02136,0.89634c-0.56399,-0.61938 -0.62441,-1.45025 -0.62441,-2.24588c-0.03525,-1.1884 0,-2.38184 0,-3.57528c0.00214,-0.12841 0.03495,-0.25444 0.09568,-0.3676c0.01457,-0.1733 0.08733,-0.33658 0.20646,-0.46328c0.95676,-1.06755 2.60844,-0.57406 3.20264,0.63449z" fill="#74b140" fill-rule="evenodd"/><path d="M490.08914,112.49881c-0.2971,0.77548 -0.56902,1.50564 -0.90137,2.32141c-0.33235,0.81577 -0.6647,1.63153 -1.00712,2.43723c-0.5942,-0.90641 -1.18337,-1.81282 -1.7826,-2.71922l-2.35666,-3.57024c-0.72009,-1.08769 -1.40997,-2.31134 -2.69405,-2.78972c-0.83087,-0.01007 -1.12294,-1.3294 -0.20646,-1.54593h0.06043c0.06806,-0.02402 0.13937,-0.0376 0.2115,-0.04028c1.99913,-0.33739 3.4796,0.84598 4.79389,2.28616c1.2199,1.2841 2.51643,2.49319 3.88245,3.6206z" fill="#74b140" fill-rule="evenodd"/><path d="M396.58809,-19.87709c1.95885,-2.32645 4.02848,-4.57233 6.04272,-6.85849l3.02136,-3.42421c0.79563,-0.91144 1.54593,-1.95885 2.55305,-2.66887c1.34451,-0.94166 3.28825,-1.04237 4.02848,0.64959c0.74023,1.69196 -0.33235,3.31343 -1.69196,4.26515c-2.36673,1.65671 -8.78712,7.36205 -6.09811,10.42873c0.97187,1.10783 0,4.21983 -0.57909,4.42629c-0.43306,0.92152 -2.78972,0.69491 -2.71419,0.50356c-1.60636,-0.38774 -1.79267,-0.42803 -3.02136,-1.61139c-1.556,-1.49557 -3.10697,-3.78677 -1.54089,-5.71037z" fill="#74b140" fill-rule="evenodd"/><path d="M498.99712,63.53765c-0.00336,1.04404 -0.01678,2.0881 -0.04028,3.13214c0,0.2266 0,0.4532 0,0.67477c-0.02518,0.89634 -0.06043,1.7826 -0.10071,2.6739c-0.02014,0.42803 -0.06546,0.85605 -0.06546,1.27904c-0.03021,0.5942 -0.0705,1.1884 -0.11078,1.77757c-0.05539,0.79059 -0.11078,1.53586 -0.17625,2.30127c-0.03525,0.12589 -0.03525,0.24674 -0.03525,0.37263c-0.10742,1.2354 -0.23164,2.46408 -0.37263,3.68606c-0.10407,0.93998 -0.21989,1.87661 -0.34746,2.80987c-0.17457,1.26226 -0.36424,2.52116 -0.56902,3.7767c-0.03021,0.20646 -0.06546,0.41292 -0.10071,0.61938c-0.16114,0.93326 -0.32899,1.86317 -0.50356,2.78972c-0.07553,0.39278 -0.14603,0.78555 -0.2266,1.1733c-0.09568,0.48845 -0.19639,0.9618 -0.2971,1.46536c-0.16114,0.77548 -0.33235,1.55097 -0.50356,2.32141c-0.08057,0.35249 -0.16617,0.70498 -0.25178,1.05748c-0.17121,0.68484 -0.33235,1.34954 -0.50356,2.01424l-0.2115,0.85605c-0.49685,1.91689 -1.03566,3.81866 -1.61643,5.70534c-0.30885,1.00712 -0.63112,2.01424 -0.96684,3.02136v0.04028c-0.33906,1.00712 -0.68484,2.01424 -1.03733,3.02136c-1.53499,-1.92689 -2.79578,-4.05703 -3.74649,-6.32975c-0.93569,-2.3132 -1.57198,-4.73649 -1.89339,-7.21098c-0.36256,-2.49766 -0.64456,-5.01546 -1.80778,-7.26134c-0.96684,0.78052 -2.22574,1.22365 -3.1825,0.09568c-0.69491,-0.81577 -0.94669,-2.03438 -1.40997,-2.99115c-0.56793,-1.16239 -1.21746,-2.2831 -1.94374,-3.35371c-0.8208,-1.20854 -1.67686,-2.85015 -3.30335,-2.64873c-0.94166,0.11582 -1.57111,0.46328 -2.55305,0.141c-0.65017,-0.21785 -1.22716,-0.61181 -1.66678,-1.13805c-0.50278,1.83387 -1.45068,3.51518 -2.75951,4.8946c-1.1028,1.08769 -2.45234,1.75742 -3.28825,3.10193c-0.6659,1.16995 -1.11297,2.45147 -1.31933,3.78174c-0.85102,4.45651 -0.57909,10.37334 -5.38306,12.67461c-0.37831,0.20996 -0.85483,0.08584 -1.08265,-0.28199c-2.01424,-3.80188 -4.02848,-7.6239 -5.41831,-11.70274c-1.09273,-3.17746 -1.20854,-6.92395 -2.5178,-10.0712c-0.08561,0.4532 -0.17121,0.91144 -0.25178,1.36465c-0.06999,0.27173 -0.28218,0.48392 -0.55392,0.55392c-1.73225,0.23667 -2.81994,-0.7503 -3.74649,-2.11999c-1.28911,-1.90849 -2.40198,-3.94791 -3.56521,-5.96215l-0.12589,0.02518c-2.60341,0.27696 -5.20681,0.57909 -7.81525,0.83591c-1.66175,0.1561 -3.29832,0.20646 -4.68311,-0.85102c-0.83087,-0.61434 -1.40997,-1.53586 -2.34155,-1.98403c-0.2972,-0.13908 -0.60994,-0.24221 -0.93159,-0.30717c1.83296,2.50773 2.38184,6.72756 5.63484,7.37716c0.41965,0.11757 0.66661,0.55088 0.55392,0.97187c-3.74649,9.31083 -13.95869,12.04516 -22.84149,13.98387c-0.2388,0.0617 -0.49271,0.01063 -0.68907,-0.13862c-0.19636,-0.14924 -0.31355,-0.38019 -0.31805,-0.62679c-0.3676,-3.95295 -4.62268,-6.28443 -6.26932,-9.68346c-0.99705,-2.04949 -1.53586,-4.25005 -2.6588,-6.26429c-0.92655,-1.65168 -3.23286,-5.65498 -5.56434,-5.23703c-0.41948,0.10152 -0.84545,-0.14126 -0.97187,-0.55392c-0.57406,-2.19552 -3.50981,-3.49471 -2.62858,-6.10315c0.44313,-1.3294 1.76246,-2.27609 2.5178,-3.42421c0.83095,-1.28845 1.36581,-2.74513 1.56607,-4.26515c-2.99115,-0.08057 -5.98229,-0.15107 -8.97344,-0.23667c-2.10488,-0.04028 -3.82202,-0.36256 -4.62268,-2.5178c-0.33739,-0.91144 -0.35753,-1.9236 -0.70498,-2.83001c-0.27696,-0.73016 -1.33443,-2.4473 -2.23077,-0.93662c-0.28199,0.43306 -0.05036,1.4704 0,1.94374c0.15107,1.40493 0.141,3.32853 -1.31429,4.12919c-1.70707,0.94166 -2.93072,-0.89634 -3.45442,-2.24084c-0.5237,-1.34451 -0.69491,-2.83001 -1.31933,-4.13423c-0.6647,-1.38479 -1.88331,-2.20559 -3.08682,-3.07675l-3.95295,-2.86022c-0.24171,-0.17625 -1.58118,-1.39486 -1.83799,-1.30926c-0.98194,0.32228 0.10575,1.20351 0.39781,1.54593c1.91999,2.19186 4.28343,3.95113 6.93402,5.16149c0.2665,0.16551 0.41177,0.4714 0.37167,0.78253c-0.04011,0.31114 -0.25823,0.57018 -0.55798,0.66269c-1.2589,0.23667 -1.54593,1.86821 -2.01424,2.87533c-0.38594,0.90487 -1.05583,1.6596 -1.90849,2.1502c-1.80633,0.96729 -4.0358,0.61321 -5.45356,-0.86612c-0.21625,-0.2294 -0.27778,-0.56434 -0.15714,-0.85561c0.12064,-0.29127 0.40096,-0.48463 0.71609,-0.49393c0.52786,-0.01318 1.05283,-0.0824 1.56607,-0.20646c0.49495,-0.09166 0.93426,-0.37368 1.22365,-0.78555l-0.42299,-1.29919c-0.44313,-0.38271 -1.54089,-0.32228 -2.11495,-0.68988c-1.13301,-0.7352 -1.70707,-2.02431 -2.21063,-3.21775c-0.27365,-0.81845 -0.69523,-1.57969 -1.24379,-2.24588c-0.33491,-0.3981 -0.76926,-0.70041 -1.2589,-0.87619c-0.90137,-0.24171 -1.14812,0.39278 -1.65168,0.96684c-0.68988,0.77548 -1.46536,1.51068 -2.59837,1.00712c-1.0323,-0.46328 -1.47543,-1.73728 -1.57111,-2.78469c-0.04028,-0.42803 0.13093,-2.47248 -0.27192,-2.68901c-0.29206,-0.15107 -0.41795,1.46536 -0.41795,1.63153c0,0.94669 0.05539,2.05956 -0.50356,2.88036c-0.21889,0.33521 -0.53521,0.59531 -0.90641,0.74527c-0.18619,0.06647 -0.38152,0.10383 -0.57909,0.11078l0.50356,0.27696c0.2372,0.14563 0.38175,0.40399 0.38175,0.68232c0,0.27833 -0.14455,0.53669 -0.38175,0.68232c-1.23176,0.86928 -2.35438,1.88371 -3.34364,3.02136c-0.94669,1.17833 -1.08769,2.41709 -1.6265,3.75152c-0.83087,1.98906 -3.96302,2.61348 -5.86648,2.63866c-2.32645,0.05036 -4.13926,-1.40997 -4.99028,-3.52492c-0.95676,-2.3768 -0.41795,-4.93993 0.24674,-7.33184h-0.44817c-1.00712,-0.04028 -1.00712,-1.62146 0,-1.58118c1.6836,0.08562 3.37154,-0.00723 5.0356,-0.27696c1.34451,-0.2266 3.112,-0.48342 4.14934,-1.43011c1.61643,-1.46032 0.09064,-2.80483 -1.00712,-3.88245l-3.35371,-3.30335c-0.21625,-0.2294 -0.27778,-0.56434 -0.15714,-0.85561c0.12064,-0.29127 0.40096,-0.48463 0.71609,-0.49393c2.13006,0 4.33062,-0.04028 6.37507,-0.71002c2.43723,-0.79563 3.58535,-2.44227 4.62268,-4.68311c1.56104,-3.38896 4.81404,-5.56434 8.49002,-4.53204c0.21591,-0.08262 0.45946,-0.04426 0.63952,0.10071c0.94669,0.68988 1.81785,1.1884 2.88036,0.43306c0.3676,-0.26689 0.63449,-0.6647 1.0323,-0.92152c0.91804,-0.52714 1.94109,-0.84523 2.99618,-0.93159c1.21862,-0.16114 2.51277,-0.15107 3.68102,-0.56399c1.97396,-0.69491 2.33652,-2.30127 2.01424,-4.16948c-0.41795,-2.4473 1.09273,-4.03352 3.43932,-4.46154c1.49054,-0.27696 2.99618,-0.15107 4.44644,-0.65463c1.15295,-0.42162 2.18872,-1.11214 3.02136,-2.01424c-2.55869,-0.58891 -5.24244,-0.27214 -7.59369,0.89634c-0.79059,0.39781 -1.51572,0.92152 -2.42716,0.54888c-0.76774,-0.39358 -1.36699,-1.05186 -1.68693,-1.8531c-0.75534,-1.60132 -0.54384,-3.49974 0.09064,-5.10106c0.34582,-0.87607 0.81739,-1.6971 1.3999,-2.43723c0.65463,-0.84598 1.67182,-1.79771 1.87324,-2.80483c0.20142,-1.00712 -0.60427,-2.0797 -1.68189,-1.51068c-0.56138,0.36755 -1.00122,0.89325 -1.26394,1.51068c-0.43049,0.95639 -0.93561,1.87739 -1.51068,2.75447c-0.72009,0.97691 -1.64161,1.81785 -2.26099,2.86526c-0.85102,1.43515 -0.72513,2.59333 0.06546,3.99827c1.08769,1.93871 0.16114,3.32853 -0.16617,5.37299c-0.32228,1.84807 -0.71002,3.65081 -2.5178,4.56729c-1.37975,0.69995 -2.96597,0.37263 -3.66088,-1.07258c-0.44817,-0.94166 -0.42299,-2.05453 -0.68484,-3.06165c-0.22742,-0.87864 -0.56585,-1.72471 -1.00712,-2.5178c-1.37975,1.73728 -2.35163,4.29537 -4.90468,4.20976c-2.76958,-0.09064 -4.42629,-3.52492 -4.96007,-5.84633c-0.63952,-2.77462 0.69995,-4.65793 3.07675,-5.9269c3.01633,-1.61139 5.07085,-3.68102 7.19084,-6.34486c2.34495,-2.87237 4.53034,-5.8714 6.54628,-8.98351c1.45025,-2.28616 3.20768,-4.3004 6.17868,-4.02848c3.19257,0.28703 6.12833,2.45737 9.14969,3.39903c2.60341,0.8057 5.74562,1.04237 7.97639,2.74944c0.81073,0.63952 1.79267,1.56607 1.415,2.65376c-0.35298,0.86079 -1.05357,1.53212 -1.92864,1.84807c-2.45737,1.01216 -4.63779,-0.35753 -6.98941,-0.86109c0.93405,2.2118 2.95668,3.77413 5.3327,4.11912c0.72046,0.11273 1.45599,0.08365 2.16531,-0.08561c1.16826,-0.2971 1.54089,-1.26897 2.01424,-2.27609l2.2912,-4.81404c0.38774,-0.8057 1.76246,-0.22157 1.44522,0.60931c-0.03016,0.06062 -0.05707,0.12282 -0.08057,0.18632v0.03525c-0.24171,0.68988 0.28199,1.01719 1.58118,0.97691c0.09568,-0.1561 0.19639,-0.31221 0.2971,-0.46831c0.18012,-0.36231 0.31217,-0.74658 0.39278,-1.14308c0.1719,-0.58544 0.42986,-1.14207 0.76541,-1.65168c0.71552,-0.92138 1.68806,-1.61005 2.79476,-1.97899c3.31343,-1.27904 7.14048,-1.68693 10.6654,-2.23581c0.03021,-1.51572 1.33443,-2.47752 2.91058,-2.42212c1.17221,0.13381 2.32684,0.39208 3.44435,0.77045l3.19257,0.77548c-1.04741,-2.01928 -2.10992,-4.03855 -3.02136,-6.10315c-0.63952,-1.45025 -0.8913,-3.37889 0.64456,-4.38601c1.69196,-1.1179 3.29328,0.48845 4.02848,1.90346c0.59924,1.15315 1.10783,2.10992 2.22574,2.85519c0.58444,0.37793 1.20319,0.69996 1.84807,0.9618c-0.15107,-1.67182 0.19639,-3.48967 1.7826,-3.95295c-0.17664,-0.65589 -0.24301,-1.33659 -0.19639,-2.01424c0.00546,-0.28066 0.15753,-0.53797 0.40075,-0.67813c0.24322,-0.14017 0.54208,-0.14271 0.78766,-0.00671c1.70203,0.99705 3.54506,2.03438 5.51398,1.96892c-1.50564,-1.50061 -3.65585,-2.72426 -3.39903,-5.12121c0.24674,-2.11999 2.1502,-3.06165 4.02848,-3.52492c-0.73016,-1.46536 -0.17121,-3.3386 0.97691,-4.57736c1.91856,-2.07467 4.8795,-3.29328 7.43255,-4.3558c0.78555,-0.32228 1.58118,-0.63449 2.37177,-0.94166c1.02726,-0.39278 1.85814,-0.8057 1.89339,-1.95381c0.02518,-0.90641 -0.17625,-1.91856 0.32731,-2.73937c0.30352,-0.6184 0.94898,-0.99375 1.63657,-0.95173c0.81241,0.67141 1.61979,1.34283 2.42212,2.01424c0.78892,0.67141 1.57111,1.34283 2.34659,2.01424l0.05539,0.04532c0.76877,0.68148 1.53082,1.37136 2.28616,2.06963l0.05539,0.05036c0.7587,0.70498 1.50901,1.41668 2.25091,2.1351c0.32731,0.34242 0.66974,0.66974 1.00712,1.00712c7.14338,7.06071 13.49866,14.87649 18.954,23.3098c0.60427,0.92991 1.19511,1.86653 1.77253,2.80987c-0.00096,0.01173 -0.00096,0.02352 0,0.03525c0.5707,0.93662 1.13134,1.87828 1.68189,2.82497l0.04532,0.0705c0.53881,0.93159 1.08769,1.87828 1.59125,2.82497l0.06546,0.11078c0.50356,0.93662 1.00712,1.87828 1.51068,2.82497l0.08561,0.1561c0.47838,0.93159 0.94669,1.87324 1.40997,2.8149l0.10071,0.20646c0.44984,0.93326 0.88963,1.86821 1.31933,2.80483c0.04028,0.09064 0.08561,0.17625 0.12589,0.26185c0.41795,0.92152 0.82584,1.8531 1.22869,2.78469l0.141,0.32228c0.38774,0.91144 0.76038,1.82792 1.13301,2.74944l0.1561,0.39278c0.36256,0.90137 0.70498,1.81282 1.04741,2.72426c0.05539,0.15107 0.11582,0.30214 0.17121,0.45824c0.33235,0.8913 0.64456,1.78764 0.95676,2.68901l0.18632,0.52874c0.29543,0.8829 0.58413,1.7675 0.86612,2.65376c0.06546,0.20142 0.13596,0.39781 0.19639,0.59924c0.28199,0.86612 0.52874,1.74232 0.78555,2.61348c0.06546,0.2266 0.13596,0.44817 0.19639,0.66974c0.24674,0.85102 0.47335,1.70707 0.69995,2.56816c0.0705,0.25178 0.141,0.49852 0.20646,0.75534c0.21653,0.83591 0.41795,1.67686 0.61938,2.5178c0.06546,0.27696 0.13596,0.55392 0.20142,0.83087c0.19135,0.82584 0.3676,1.65168 0.54384,2.48255c0.06546,0.30214 0.13596,0.59924 0.19639,0.89634c0.16617,0.81073 0.31724,1.62146 0.47335,2.43723c0.06043,0.32228 0.12589,0.64959 0.18632,0.97691c0.141,0.79059 0.27192,1.59125 0.39781,2.39191c0.05539,0.34746 0.12085,0.69491 0.17625,1.04237c0.11582,0.78555 0.22157,1.57614 0.33235,2.36673c0.05036,0.3676 0.10575,0.73016 0.15107,1.09776c0.10071,0.78555 0.18632,1.57111 0.27192,2.35666c0.04532,0.37767 0.09064,0.75534 0.13093,1.13301c0.08057,0.78555 0.14603,1.57614 0.2115,2.3617c0.03021,0.38774 0.0705,0.77045 0.10071,1.15819c0.06546,0.81577 0.11078,1.64161 0.16114,2.46744c0.02014,0.35753 0.06546,0.71002 0.06546,1.06755c0.04532,0.8913 0.10071,1.7826 0.10071,2.6739c0.01007,0.2971 0.03525,0.5942 0.03525,0.88627c0,1.20854 0.00167,2.40366 0.00504,3.58535zM399.74038,46.83959c-0.54099,-0.65034 -1.26041,-1.1282 -2.06963,-1.37472c-0.55392,-0.20646 -1.13805,-0.32731 -1.697,-0.53377c-0.43846,-0.13527 -0.84579,-0.35605 -1.19847,-0.64959c-0.14503,-0.12716 -0.22818,-0.31068 -0.22818,-0.50356c0,-0.19288 0.08315,-0.3764 0.22818,-0.50356c0.26689,-1.1028 1.60132,-2.93576 -0.41292,-3.253c-1.09273,-0.1561 -2.43723,0.30717 -3.52492,0.50356c-1.15148,0.20813 -2.30127,0.42803 -3.44939,0.65966c-0.194,-0.18447 -0.46694,-0.26053 -0.72837,-0.203c-0.26144,0.05753 -0.47722,0.24117 -0.57585,0.49003c-0.92152,2.48759 -2.17538,5.33774 -2.4322,8.00157c-0.16617,1.74735 1.27904,2.70915 2.90554,2.04445c1.17833,-0.47838 2.06963,-1.34451 3.33357,-1.7121c1.44522,-0.41292 2.69908,-0.4532 3.90763,0.50356c1.3294,1.05244 3.66592,0.93662 5.1766,0.25178c1.50061,-0.68988 1.74735,-2.4473 0.76541,-3.72131zM410.40578,51.77448c0.18128,1.81282 1.76246,3.23789 3.24796,4.12416c1.28408,0.76541 3.08179,1.09273 4.18458,-0.29206c1.1028,-1.38479 0.141,-2.60341 -0.74023,-3.69613c-0.34746,-0.42803 -0.53881,-0.08561 -0.24674,-0.71506c0.09568,-0.16114 0.38774,-0.33235 0.50356,-0.47838c0.23136,-0.27934 0.40277,-0.6033 0.50356,-0.95173c0.20102,-0.67405 0.0064,-1.40389 -0.50356,-1.88835c-0.86109,-0.76038 -1.97396,-0.80066 -2.70412,-1.83799c-0.70294,-1.11269 -1.02137,-2.42531 -0.90641,-3.73642c0.78781,-0.63719 1.02838,-1.73551 0.57909,-2.64369c-0.63952,-1.38479 -2.41205,-1.7675 -3.78677,-1.38479c-3.85727,1.07762 -3.98316,5.46363 -1.90346,8.20803c0.53881,0.70498 2.53794,2.14013 2.34659,3.14725c-0.15107,0.78052 -0.64959,1.24379 -0.57406,2.14517zM422.50129,70.81912h-0.141c-1.79596,0.0974 -3.59048,-0.21604 -5.2471,-0.91648c-1.8531,-0.86109 -2.87029,-2.2207 -4.2148,-3.66088c-0.34242,-0.3676 -1.1028,-1.18337 -1.70203,-0.84598c-0.69491,0.38774 0.06043,1.54089 0.28703,1.96892c0.49267,0.95547 1.06897,1.86543 1.72218,2.71922c1.25386,1.55097 2.95086,2.93576 5.0356,3.02136c1.74735,0.0705 3.56521,-0.67981 4.26012,-2.28616z" fill="#74b140" fill-rule="nonzero"/></g><path d="M222.53756,63.53765c0,-76.34637 61.89096,-138.23733 138.23733,-138.23733c76.34637,0 138.23733,61.89096 138.23733,138.23733c0,76.34637 -61.89096,138.23733 -138.23733,138.23733c-76.34637,0 -138.23733,-61.89096 -138.23733,-138.23733z" fill="url(#color-3)" fill-rule="nonzero" stroke="none" stroke-width="0"/><path d="M-30.45358,364.68104v-8c0,0 7.98339,-35.91877 57.89292,-42.6631c17.00707,-2.29818 39.535,-2.20639 61.86731,-0.90813c2.51413,0.14616 5.2291,-3.87666 8.85732,-5.47987c3.93494,-1.73874 8.79866,-1.0677 11.74467,-0.84801c8.41084,0.62721 12.89273,8.79319 20.89895,9.59597c43.58575,4.37033 85.17331,10.59948 113.02913,10.59948c15.3235,0 45.74288,-0.82865 78.41785,-1.23524c3.90754,-0.04862 4.80527,-2.86651 9.8118,-4.80251c4.76296,-1.84181 13.6363,-2.80711 17.39396,-2.8232c5.53474,-0.02371 6.92317,7.39855 12.35588,7.42082c24.0931,0.09877 46.58868,0.7076 62.21648,2.33984c21.6125,2.25731 37.76388,5.25575 52.28623,8.46558c42.00784,9.28486 58.2275,20.33839 58.2275,20.33839v8z" fill="#737a5c" fill-rule="nonzero" stroke="none" stroke-width="0"/><path d="M-30.45358,363.85594v-8h565v8z" fill="#9aa37a" fill-rule="nonzero" stroke="none" stroke-width="0"/><path d="M-2.33931,361.53155l16.4458,-33.37201c0,0 30.86872,-8.64235 52.24905,-9.39363c24.10321,-0.84696 56.04622,9.98008 56.04622,9.98008l18.15943,32.71485z" fill="#9aa37a" fill-rule="nonzero" stroke="none" stroke-width="0"/><path d="M-2.33931,364.06905l16.4458,-33.37201c0,0 30.86872,-8.64235 52.24905,-9.39363c24.10321,-0.84696 56.04622,9.98008 56.04622,9.98008l18.15943,32.71485z" fill="#757c5d" fill-rule="nonzero" stroke="none" stroke-width="0"/><text transform="translate(226.00002,241.66668) scale(0.5,0.5)" font-size="40" xml:space="preserve" fill="url(#color-4)" fill-rule="nonzero" stroke="url(#color-5)" stroke-width="1" stroke-linecap="butt" stroke-linejoin="miter" stroke-miterlimit="10" stroke-dasharray="" stroke-dashoffset="0" font-family="Sans Serif" font-weight="normal" text-anchor="start" style="mix-blend-mode: normal"><tspan x="0" dy="0">    MADE BY DOGEISCUT</tspan><tspan x="0" dy="46.150000000000006px"> </tspan><tspan x="0" dy="46.150000000000006px">YOU FIND IT ON SCRATCH</tspan></text></g></g></svg>