<svg version="1.1" xmlns="http://www.w3.org/2000/svg" xmlns:xlink="http://www.w3.org/1999/xlink" width="24.53646" height="86.01109" viewBox="0,0,24.53646,86.01109"><g transform="translate(-222.43617,-141.2899)"><g data-paper-data="{&quot;isPaintingLayer&quot;:true}" fill-rule="nonzero" stroke="none" stroke-linecap="butt" stroke-linejoin="miter" stroke-miterlimit="10" stroke-dasharray="" stroke-dashoffset="0" style="mix-blend-mode: normal"><path d="M241.02648,197.22692c-0.17418,0 -0.33623,-0.01214 -0.48699,-0.03472c1.2296,1.96273 2.54979,3.63924 3.92905,5.54021c0.76601,1.05574 2.00115,2.03234 2.04539,3.33595c0.13274,3.91148 -2.83223,5.96883 -6.36869,7.28314c0.0474,2.55439 0.65191,5.75973 0.37226,8.16607c-0.05554,0.47792 -0.7603,0.69184 -0.85381,1.1638c-0.05008,0.25278 0.43628,-0.31082 0.69165,-0.34533c0.71843,-0.09709 1.44965,-0.02801 2.17448,-0.04201h0.18792c0,0 2.5,0 2.5,2.5c0,2.5 -2.5,2.5 -2.5,2.5h-0.18792c-2.49172,-0.03391 -5.52704,0.39464 -7.28152,-2.26654c-0.68476,-1.03864 0.29381,-2.47822 0.27371,-3.72211c-0.03477,-2.15137 -0.25997,-4.32803 -0.34451,-6.51088c-1.31147,0.32207 -2.54244,0.61173 -3.56347,0.92589l-0.36902,0.13483c-0.09114,1.3 -0.27611,2.5952 -0.56109,3.86338l-0.40801,1.44009c0,0 -0.6868,2.40381 -3.09061,1.71701l0.00001,-0.00001c-2.40381,-0.6868 -1.71701,-3.09061 -1.71701,-3.09061l0.34367,-1.19078c0.32813,-1.37647 0.48864,-2.80099 0.49961,-4.21739c-0.12878,-0.76095 0.10087,-1.33321 0.42591,-1.74713c0.2783,-0.44755 0.73851,-0.85945 1.49953,-0.99791l1.90659,-0.69037c1.60068,-0.49252 3.20904,-0.96808 4.81485,-1.4515c-0.10677,-3.32374 -0.08707,-6.65539 -0.18878,-9.97598c-0.02469,-0.80606 -0.07316,-1.60692 -0.13468,-2.4048c-0.37018,0.21638 -0.85548,0.34468 -1.49134,0.29926c-2.49365,-0.17812 -2.31553,-2.67176 -2.31553,-2.67176l0.18792,-2.63087c0.60955,-8.48219 2.24868,-16.7115 2.24868,-25.19101c0,0 0,-0.27801 0.09271,-0.64861c-1.16428,-0.2633 -2.34159,-0.73814 -3.74951,-1.42027c-6.66598,-3.22966 -8.59164,-9.66478 -6.16573,-16.41235c0.368,-1.02359 0.43857,-2.20086 1.08014,-3.07924c2.81706,-3.8568 7.57033,-4.08218 11.80615,-4.05362c2.6325,0.01775 4.23477,-0.29202 6.5959,1.45635c1.53367,1.13565 2.64624,3.81708 3.46129,5.45938c1.5609,6.66281 0.12211,13.32693 -5.68697,16.39871c0.19689,0.52489 0.19689,0.98422 0.19689,0.98422c-0.01432,9.56145 2.61322,18.96319 2.63087,28.56376v0.56376c0,0 0,2.5 -2.5,2.5zM241.55243,206.68749c-0.23767,-0.80817 -0.96162,-1.31555 -1.67656,-1.84032c0.01277,1.03403 0.02609,2.06809 0.04822,3.10173c0.52818,-0.14287 1.83911,-0.54468 1.62834,-1.26141zM235.78097,161.57891l0.73705,-0.67052c5.29265,-0.98783 6.19057,-6.4431 5.16267,-10.99988c-0.17888,-0.35381 -1.34436,-2.81316 -1.80045,-3.18492c-0.89077,-0.72606 -2.64846,-0.43029 -3.55175,-0.42285c-2.37243,0.01956 -6.10669,-0.42881 -7.73748,1.95981c-2.90044,4.24827 -1.20841,9.9972 3.18287,12.07888c1.744,0.82674 2.64356,1.3117 4.00709,1.23948z" fill="#370000" stroke-width="0.5"/><path d="M231.75375,160.3852c-4.39128,-2.08168 -6.09961,-7.91062 -3.19917,-12.15889c1.63079,-2.38862 5.41254,-1.95477 7.78497,-1.97433c0.90329,-0.00744 2.67952,-0.29475 3.57029,0.43131c0.45609,0.37176 1.6355,2.8468 1.81438,3.20061c1.0279,4.55678 0.09966,10.08488 -5.19299,11.07271l-0.74266,0.67171c-1.36353,0.07222 -2.29082,-0.41639 -4.03482,-1.24313z" data-paper-data="{&quot;noHover&quot;:false,&quot;origItem&quot;:[&quot;Path&quot;,{&quot;applyMatrix&quot;:true,&quot;segments&quot;:[[[235.78097,161.57891],[-1.36353,0.07222],[0,0]],[[236.51802,160.90839],[0,0],[5.29265,-0.98783]],[[241.68069,149.90851],[1.0279,4.55678],[-0.17888,-0.35381]],[[239.88024,146.72359],[0.45609,0.37176],[-0.89077,-0.72606]],[[236.32849,146.30074],[0.90329,-0.00744],[-2.37243,0.01956]],[[228.59101,148.26055],[1.63079,-2.38862],[-2.90044,4.24827]],[[231.77388,160.33943],[-4.39128,-2.08168],[1.744,0.82674]]],&quot;closed&quot;:true,&quot;fillColor&quot;:[0.21569,0,0],&quot;strokeWidth&quot;:0.5}]}" fill="#ffffff" stroke-width="0.25"/></g></g></svg>