<svg version="1.1" xmlns="http://www.w3.org/2000/svg" xmlns:xlink="http://www.w3.org/1999/xlink" width="60.57851" height="76.2582" viewBox="0,0,60.57851,76.2582"><g transform="translate(-210.3269,-130.4626)"><g data-paper-data="{&quot;isPaintingLayer&quot;:true}" fill-rule="nonzero" stroke="none" stroke-linecap="butt" stroke-linejoin="miter" stroke-miterlimit="10" stroke-dasharray="" stroke-dashoffset="0" style="mix-blend-mode: normal"><path d="M256.37498,149.91406c2.5,0 2.5,2.5 2.5,2.5l-0.01027,0.77366c0.06553,0.72803 0.20037,1.77166 0.31841,2.91664c1.91723,-0.13036 3.85497,-0.42866 5.69552,-0.42813c0.44236,0.00013 0.8112,0.64682 1.22886,0.50107c0.277,-0.09667 -0.16052,-0.5645 -0.23103,-0.84929c-0.34845,-1.40726 -0.72792,-2.80742 -1.14605,-4.19558l-0.10543,-1.46837c0,0 0,-2.5 2.5,-2.5c2.5,0 2.5,2.5 2.5,2.5l-0.10543,0.03163c0.96115,3.21566 2.74703,7.52998 -0.37708,10.45514c-0.92567,0.86672 -2.5189,0.30117 -3.77114,0.50107c-1.73513,0.27698 -3.48925,0.50809 -5.24634,0.51217c-0.27344,0.00063 -0.54287,0.00393 -0.8091,0.00962c-0.07143,0.57146 -0.1927,1.06826 -0.3812,1.44709c-0.72109,1.44916 -1.99584,2.72759 -3.46923,3.39778c-1.55652,0.708 -4.43255,-0.45221 -6.08681,-0.61666c-3.15032,-0.31316 -6.21921,-0.36024 -9.30578,-0.8525c-0.06975,6.40852 -0.11855,12.68888 0.52612,19.22901c4.56382,-0.96111 9.02433,-2.27081 13.59688,-3.07724c2.61382,-0.46098 5.30639,-1.17026 7.93883,-1.48856c0.4606,-0.05569 0.97955,0.2428 1.39155,0.02947c0.71736,-0.37146 -0.05946,-1.63531 -0.30862,-2.40376c-0.31333,-0.96638 -0.68671,-1.91226 -1.03006,-2.86839l-0.30017,-2.80711c0,0 -0.24876,-2.48759 2.23883,-2.73635c2.48759,-0.24876 2.73635,2.23883 2.73635,2.23883l0.19983,2.19289c1.22958,3.33606 2.90791,7.14442 -0.33868,10.22785c-1.34109,1.27369 -6.73052,1.6883 -8.64804,2.03705c-5.95376,1.08285 -11.71286,2.64602 -17.6495,3.79279c-0.73905,1.7052 -1.49861,3.4546 -1.84886,5.23397c-0.56957,2.89361 -1.18251,7.19663 -4.33431,8.75027c-1.18395,0.58361 -2.63125,0.26165 -3.95123,0.26255c-3.01779,0.00204 -6.14812,-0.46683 -9.15436,-0.75993c-2.71991,-0.26518 -3.11677,-1.0009 -4.58423,1.35253l-1.79677,2.05504c0,0 -1.64626,1.88144 -3.5277,0.23518c-1.88144,-1.64626 -0.23518,-3.5277 -0.23518,-3.5277l1.70323,-1.94496c0.82311,-0.94902 1.3694,-2.24019 2.46933,-2.84707c3.00593,-1.6585 8.43404,-0.06296 11.66644,0.19692c1.72743,0.13888 3.56525,1.14868 5.17441,0.5053c1.0221,-0.40866 1.16827,-1.89922 1.46654,-2.9588c0.82188,-2.91963 1.46118,-5.71162 2.45783,-8.56753c-0.30634,-0.62084 -0.30634,-1.2376 -0.30634,-1.2376l0.01241,-1.25124c-0.89325,-8.93246 -0.52368,-17.4296 -0.51266,-26.35028c-2.97258,-0.62157 -5.74544,-2.08159 -7.63388,-4.2553c-5.24709,-6.03972 -3.50211,-14.96398 1.61636,-20.16095c0,0 0.66634,-0.66634 1.58991,-0.77171c0.34543,-0.96439 1.30982,-1.44659 1.30982,-1.44659l3.10832,-0.96538c4.97798,1.00196 10.69489,2.00154 13.84681,6.57522c1.52216,2.20878 1.40446,3.89038 1.6629,6.37623c-0.36369,3.80972 -0.33568,8.54279 -3.23223,11.51777c-0.57696,0.59258 -1.21694,1.10572 -1.90512,1.5421c2.88883,-0.24522 5.85925,-0.29437 8.68183,-0.30507c-0.1011,-0.89202 -0.21343,-1.7581 -0.28421,-2.52846l-0.01027,-1.22634c0,0 0,-2.5 2.5,-2.5zM233.2749,136.16415c-0.22868,0.61419 -0.63215,1.01767 -0.63215,1.01767c-3.36728,3.30234 -4.85988,9.31092 -1.38364,13.33905c2.90322,3.36413 9.35864,3.94791 12.59811,0.87542c1.79156,-1.69922 1.53595,-5.78569 1.76777,-7.98223c-0.58254,-6.22601 -6.32048,-7.02059 -11.49029,-8.04855l0.10832,0.53462c0,0 -0.41072,0.20536 -0.96811,0.26403z" fill="#370000" stroke-width="0.5"/><path d="M233.25227,136.11958c0.55739,-0.05867 0.97307,-0.26622 0.97307,-0.26622l-0.10789,-0.53478c5.16981,1.02796 10.97465,1.86358 11.55719,8.08959c-0.23182,2.19654 0.00787,6.32581 -1.78369,8.02503c-3.23947,3.07249 -9.76413,2.487 -12.66735,-0.87713c-3.47624,-4.02813 -1.97589,-10.1135 1.39139,-13.41584c0,0 0.40859,-0.40647 0.63727,-1.02066z" data-paper-data="{&quot;noHover&quot;:false,&quot;origItem&quot;:[&quot;Path&quot;,{&quot;applyMatrix&quot;:true,&quot;segments&quot;:[[[233.2749,136.16415],[0,0],[-0.22868,0.61419]],[[232.64275,137.18182],[0,0],[-3.36728,3.30234]],[[231.25911,150.52087],[-3.47624,-4.02813],[2.90322,3.36413]],[[243.85722,151.39629],[-3.23947,3.07249],[1.79156,-1.69922]],[[245.62499,143.41406],[-0.23182,2.19654],[-0.58254,-6.22601]],[[234.1347,135.36551],[5.16981,1.02796],[0,0]],[234.24302,135.90013],[[233.27491,136.16416],[0.55739,-0.05867],[0,0]]],&quot;closed&quot;:true,&quot;fillColor&quot;:[0.21569,0,0],&quot;strokeWidth&quot;:0.5}]}" fill="#ffffff" stroke-width="0.25"/></g></g></svg>