<svg version="1.1" xmlns="http://www.w3.org/2000/svg" xmlns:xlink="http://www.w3.org/1999/xlink" width="38.83481" height="46.75234" viewBox="0,0,38.83481,46.75234"><g transform="translate(-222.603,-155.83014)"><g data-paper-data="{&quot;isPaintingLayer&quot;:true}" fill-rule="nonzero" stroke="none" stroke-linecap="butt" stroke-linejoin="miter" stroke-miterlimit="10" stroke-dasharray="" stroke-dashoffset="0" style="mix-blend-mode: normal"><path d="M259.92999,189.86757c-0.61216,0.65058 -1.26172,0.85826 -1.839,0.86032c-0.04709,0.48945 -0.302,1.02395 -0.96194,1.52492c-1.97131,1.49643 -3.61407,-0.29929 -3.61407,-0.29929l0.17909,-0.28195c-0.42326,-0.30307 -0.76933,-1.09001 -1.26978,-0.90921c-0.62617,0.22622 -0.45338,1.17263 -0.84368,1.67277c-1.66658,2.13558 -5.0033,5.31495 -8.31039,4.78664c-1.54239,-0.2464 -1.83878,-2.31641 -2.61271,-3.55646c-1.07841,-1.72791 -2.17496,-3.6124 -3.17768,-5.52523c-1.44297,2.30724 -3.08803,4.51282 -4.9249,6.67814c-1.88818,2.2258 -3.02664,4.47795 -5.18998,6.53399l0.11529,-0.1078c0,0 -1.14758,2.09073 -3.44276,1.04537c-2.29517,-1.04536 -1.14758,-3.1361 -1.14758,-3.1361l0.65892,-0.93224c2.17281,-1.95616 3.12428,-4.09607 4.96092,-6.28029c2.54624,-3.02811 4.71797,-6.11368 6.43227,-9.50388c-0.08028,-0.59363 -0.01753,-1.55655 1.01412,-2.16773c0.17177,-0.39885 0.33747,-0.80227 0.49699,-1.21059c-0.40081,-0.27661 -0.77681,-0.57051 -1.12433,-0.88122c-5.33046,-4.7657 -3.86817,-18.24929 3.71455,-20.78665c0.51407,-0.17202 2.15066,-0.07275 3.71177,0.0722l2.55316,-1.63314c6.27531,0.47824 14.38668,4.9122 15.87825,11.02985c0.33367,1.36856 0.16752,2.79965 0.25129,4.19947c-0.42936,3.3562 -0.02663,4.36932 -2.57726,7.13452c-3.06044,3.31789 -8.77067,4.44105 -14.07759,3.78583c1.17506,1.45251 2.42148,2.80594 3.4573,4.44089c0.1981,0.31268 -0.22985,0.79896 0.01482,1.08297c0.19919,0.23122 -0.03974,-0.64494 0.1704,-0.86796c0.63058,-0.66925 1.39604,-1.25073 2.23727,-1.68733c1.24614,-0.64675 2.53197,-1.63665 3.96137,-1.52976c1.44121,0.10777 2.44961,1.4005 3.67441,2.10076l1.35311,1.05219c0,0 1.94831,1.52123 0.27833,3.296zM244.19509,189.29778c-0.02319,-0.02277 -0.04631,-0.04555 -0.06937,-0.06835c0.46342,0.83895 1.01141,1.65406 1.2354,2.5657c0.0863,0.35123 -0.76921,1.2288 -0.4738,0.98978c0.433,-0.35035 0.82834,-0.80504 1.20933,-1.31236c-0.70359,-0.61402 -1.24199,-1.52705 -1.90157,-2.17477zM247.92717,160.9332c-0.59768,1.72749 -2.72227,1.4998 -2.72227,1.4998c-1.55226,-0.16675 -3.14449,-0.96971 -4.64633,-0.57528c-1.11301,0.2923 -1.9905,2.18414 -2.25174,2.90917c-0.93741,2.60156 -1.91132,7.96426 0.61902,10.07626c3.62516,3.02581 12.59383,3.90093 16.03806,0.30847c1.45429,-1.51687 1.15537,-2.27974 1.34407,-4.23108c-0.16331,-4.57098 -3.60623,-8.66915 -8.38079,-9.98733z" fill="#000000" stroke-width="0.5"/><path d="M247.93387,160.88365c4.77456,1.31818 8.26001,5.47473 8.42332,10.04571c-0.1887,1.95134 0.10143,2.7348 -1.35286,4.25167c-3.44423,3.59246 -12.49402,2.71696 -16.11918,-0.30885c-2.53034,-2.112 -1.56003,-7.52693 -0.62262,-10.12849c0.26124,-0.72503 1.15066,-2.63179 2.26367,-2.92409c1.50184,-0.39443 3.11493,0.39798 4.66719,0.56473c0,0 2.14279,0.22679 2.74047,-1.5007z" data-paper-data="{&quot;noHover&quot;:false,&quot;origItem&quot;:[&quot;Path&quot;,{&quot;applyMatrix&quot;:true,&quot;segments&quot;:[[[247.92717,160.9332],[0,0],[-0.59768,1.72749]],[[245.2049,162.433],[0,0],[-1.55226,-0.16675]],[[240.55857,161.85772],[1.50184,-0.39443],[-1.11301,0.2923]],[[238.30683,164.76689],[0.26124,-0.72503],[-0.93741,2.60156]],[[238.92585,174.84315],[-2.53034,-2.112],[3.62516,3.02581]],[[254.96391,175.15162],[-3.44423,3.59246],[1.45429,-1.51687]],[[256.30798,170.92054],[-0.1887,1.95134],[-0.16331,-4.57098]],[[247.92719,160.93321],[4.77456,1.31818],[0,0]]],&quot;closed&quot;:true,&quot;fillColor&quot;:[0,0,0],&quot;strokeWidth&quot;:0.5}]}" fill="#ffffff" stroke-width="0.25"/></g></g></svg>