<svg version="1.1" xmlns="http://www.w3.org/2000/svg" xmlns:xlink="http://www.w3.org/1999/xlink" width="117.20889" height="117.20889" viewBox="0,0,117.20889,117.20889"><defs><radialGradient cx="240.90612" cy="173.27443" r="58.60445" gradientUnits="userSpaceOnUse" id="color-1"><stop offset="0" stop-color="#ff0000" stop-opacity="0.46598"/><stop offset="1" stop-color="#ff0000" stop-opacity="0"/></radialGradient></defs><g transform="translate(-182.30167,-114.66998)"><g data-paper-data="{&quot;isPaintingLayer&quot;:true}" fill-rule="nonzero" stroke="none" stroke-linecap="butt" stroke-linejoin="miter" stroke-miterlimit="10" stroke-dasharray="" stroke-dashoffset="0" style="mix-blend-mode: normal"><path d="M182.30168,173.27443c0,-32.36634 26.2381,-58.60444 58.60444,-58.60444c32.36634,0 58.60445,26.2381 58.60445,58.60444c0,32.36634 -26.23811,58.60445 -58.60444,58.60445c-32.36634,0 -58.60444,-26.2381 -58.60444,-58.60444z" fill="url(#color-1)" stroke-width="0"/><path d="M256.14664,195.78479c-2.18539,1.21411 -3.3995,-0.97129 -3.3995,-0.97129l-0.91365,-1.6457c-3.04343,-5.23263 -6.71868,-10.46172 -10.21272,-15.40707c-0.7185,-1.01695 -1.48331,-1.95363 -2.25018,-2.87278c0.11063,0.89852 0.23576,1.80886 0.36972,2.74237c0.88927,6.19708 -0.76915,12.74181 0,18.97987c0.16739,1.35762 1.24902,2.43559 1.93909,3.61667c1.88123,3.21983 3.91668,6.56724 4.71288,10.20943c1.12588,2.20334 2.4398,4.29228 3.47934,6.54075c0.3412,0.73799 0.77684,1.45113 1.00798,2.22725c0.39214,-0.52115 0.91069,-0.94989 1.34557,-1.43979l1.97455,-1.78175c0,0 1.85823,-1.67241 3.53064,0.18582l0.00001,0.00002c1.67241,1.85824 -0.18582,3.53064 -0.18582,3.53064l-1.78384,1.60081c-1.43818,1.57906 -3.69285,4.57803 -6.27759,4.05044c-1.51887,-0.31002 -2.12956,-2.27341 -2.98481,-3.56632c-1.85985,-2.81158 -3.32365,-6.6433 -4.82417,-9.69283c-1.13174,-5.39666 -5.99026,-9.32394 -6.87823,-14.73765c-1.01702,-6.20049 0.94612,-12.82467 0,-18.97987c-0.05288,-0.34404 -0.10401,-0.68567 -0.15322,-1.02529c-0.25344,0.51144 -0.50688,1.02626 -0.75816,1.54706c-2.41425,5.00362 -4.25592,10.5003 -7.31482,15.15097l-0.0155,0.84685c0,0 -0.54233,2.44047 -2.98279,1.89814c-2.44047,-0.54233 -1.89814,-2.98279 -1.89814,-2.98279l0.73618,-2.5357c1.55507,-2.2937 2.143,-4.68702 3.44716,-7.12315c2.94036,-5.49252 5.94726,-11.1465 7.91227,-17.08604c0,0 0.04659,-0.13978 0.15109,-0.34016c0.00585,-0.20064 0.01296,-0.40208 0.02135,-0.60438c-0.2491,-0.05564 -0.4027,-0.09426 -0.42226,-0.09972c-2.42672,-0.67825 -3.55201,-1.43519 -5.45413,-3.0818c-2.93837,-2.54367 -3.68798,-5.01209 -4.47204,-8.81974c-0.5133,-9.78809 7.81254,-16.39198 16.73471,-15.28129l-0.16563,-0.02651c0,0 0.91878,0 1.64236,0.58792c9.99615,4.16924 12.15418,21.18434 1.22739,26.29213c-0.51353,0.24006 -1.87744,0.69957 -3.60924,0.8812c1.64472,3.2036 4.20182,5.37393 6.27149,8.28938c3.59201,5.05991 7.327,10.43366 10.45842,15.78756l0.96554,1.73685c0,0 1.21411,2.18539 -0.97129,3.3995zM228.54312,153.37539c0.49652,2.49566 0.73809,3.84466 2.6689,5.46146c1.37261,1.14938 1.85086,1.62099 3.566,2.0753c1.82519,0.48346 4.4855,0.75255 6.27257,-0.06739c6.83839,-3.1376 4.99397,-14.75313 -1.43593,-16.67528c0,0 -0.16117,-0.05234 -0.38691,-0.17402c-5.15229,-0.73135 -11.23711,3.52661 -10.68463,9.37993z" fill="#000426" stroke-width="0.5"/><path d="M239.24052,143.94711c0.22574,0.12168 0.38917,0.17467 0.38917,0.17467c6.4299,1.92215 8.28167,13.63008 1.44328,16.76768c-1.78707,0.81994 -4.48243,0.5545 -6.30762,0.07104c-1.71514,-0.45431 -2.21468,-0.93759 -3.58729,-2.08697c-1.93081,-1.6168 -2.18823,-2.99815 -2.68475,-5.49381c-0.55248,-5.85332 5.59491,-10.16397 10.7472,-9.43262z" data-paper-data="{&quot;noHover&quot;:false,&quot;origItem&quot;:[&quot;Path&quot;,{&quot;applyMatrix&quot;:true,&quot;segments&quot;:[[[228.54312,153.37538],[-0.55248,-5.85332],[0.49652,2.49566]],[[231.21202,158.83684],[-1.93081,-1.6168],[1.37261,1.14938]],[[234.77802,160.91214],[-1.71514,-0.45431],[1.82519,0.48346]],[[241.05059,160.84475],[-1.78707,0.81994],[6.83839,-3.1376]],[[239.61466,144.16947],[6.4299,1.92215],[0,0]],[[239.22775,143.99545],[0.22574,0.12168],[-5.15229,-0.73135]]],&quot;closed&quot;:true,&quot;fillColor&quot;:[0,0,0,1],&quot;strokeWidth&quot;:0.5}]}" fill="#ffffff" stroke-width="0.25"/><path d="M229.31119,225.18883c-1.89814,1.62698 -3.52512,-0.27116 -3.52512,-0.27116l-1.08761,-1.27c-1.17102,-1.32678 -2.16628,-2.82576 -2.9668,-4.40798c-0.27017,-0.33873 -0.46483,-0.80308 -0.4908,-1.43962c-0.04514,-0.45393 0.00362,-1.01486 0.34428,-1.52436c0.31985,-0.52282 0.80871,-0.80216 1.23978,-0.95139c0.03232,-0.01335 0.06439,-0.02602 0.0962,-0.03803c1.1771,-1.17606 2.49898,-2.22708 3.94945,-3.0267c1.60942,-0.88726 4.57299,-1.61544 5.65617,-3.27543c0.5247,-0.8041 0.49713,-3.36585 0.56427,-3.99972c0.38536,-3.63808 0.72565,-7.04521 1.55319,-10.63172c0,0 0.56215,-2.43598 2.99813,-1.87383c2.43598,0.56215 1.87383,2.99813 1.87383,2.99813c-0.78407,3.39714 -1.07998,6.58828 -1.45353,10.03942c-0.23823,2.20099 -0.00304,4.13588 -1.31493,6.14793c-2.27368,3.48717 -6.75402,4.14609 -9.79983,6.70863c0.43009,0.6878 0.92022,1.33801 1.46705,1.92986l1.16742,1.36087c0,0 1.62698,1.89814 -0.27116,3.52512z" fill="#000426" stroke-width="0.5"/><path d="M247.11855,151.59472c-2.5,0 -2.5,-2.5 -2.5,-2.5l0.00635,-0.35814c0.13386,-1.82643 0.4381,-3.63784 0.74603,-5.4431c0.20941,-1.22768 1.0144,-2.74203 0.25308,-3.72765c-0.85149,-1.10237 -2.56856,-1.1238 -3.71183,-1.91953c-0.6426,-0.44725 -1.13051,-1.10371 -1.80155,-1.50704c-2.89866,-1.7422 -5.54129,0.09432 -8.39623,0.7957c-1.48579,0.36502 -3.09,-0.06262 -4.58147,0.27845c-0.6774,0.15491 -0.03095,1.4035 0.12354,2.08099c0.56606,2.48245 0.88868,4.98744 1.42355,7.47623c0,0 0.52382,2.44451 -1.92068,2.96833c-2.44451,0.52382 -2.96833,-1.92068 -2.96833,-1.92068c-0.53729,-2.51426 -1.08725,-5.10359 -1.45687,-7.64597c-0.16921,-1.16392 -0.689,-2.3901 -0.33696,-3.51234c1.66199,-5.29801 4.52147,-3.55932 8.48086,-4.56974c4.48081,-1.14348 7.5686,-2.68413 12.12675,-0.28446c0.81667,0.42994 1.40126,1.20656 2.15902,1.73344c1.03326,0.71842 4.39278,2.29987 4.92942,3.12121c2.32853,3.56383 0.1836,8.61475 -0.08104,12.43239l0.00635,0.00191c0,0 0,2.5 -2.5,2.5z" fill="#4986b7" stroke-width="0.5"/><path d="M226.88483,149.61223c-0.27631,0.00146 -0.55276,0.00221 -0.82935,0.00221c0,0 -2.5,0 -2.5,-2.5c0,-2.5 2.5,-2.5 2.5,-2.5c7.97651,0 15.89084,-0.45307 23.85436,-0.71852c1.6843,-0.05614 6.1764,-0.79713 7.12572,0.8129c2.25164,3.81876 -1.50601,6.91131 -4.31028,7.72112c-1.67761,0.48446 -5.36206,-0.60094 -6.91978,-0.86955c-3.75931,-0.64824 -7.57653,-0.4501 -11.3668,-0.68699c-1.65424,0.00082 -3.30848,0.00122 -4.96272,0.00122h-0.36005c0,0 -1.58529,0 -2.23109,-1.26239z" fill="#000000" stroke-width="0.5"/><path d="M243.13589,135.31711c2.43598,-0.56215 2.99813,1.87383 2.99813,1.87383l0.6041,2.90249c0,0.90013 0,1.80026 0,2.70039c0,0 0,2.5 -2.5,2.5c-2.5,0 -2.5,-2.5 -2.5,-2.5c0,-0.90013 0,-1.80026 0,-2.70039l-0.47606,-1.77819c0,0 -0.56215,-2.43598 1.87383,-2.99813z" fill="#dfff00" stroke-width="0.5"/></g></g></svg>