<svg version="1.1" xmlns="http://www.w3.org/2000/svg" xmlns:xlink="http://www.w3.org/1999/xlink" width="1060" height="177" viewBox="0,0,1060,177"><g transform="translate(290,-91.5)"><g data-paper-data="{&quot;isPaintingLayer&quot;:true}" fill-rule="nonzero" stroke="none" stroke-linecap="butt" stroke-linejoin="miter" stroke-miterlimit="10" stroke-dasharray="" stroke-dashoffset="0" style="mix-blend-mode: normal"><path d="M-290,268.5v-177h1060v177z" fill="none" stroke-width="0"/><path d="M124.71198,209.95649v-33.88202h235.66831v33.88202z" fill="#000000" stroke-width="0"/><path d="M106.41068,205.95488l-3.14819,-22.78646l4.98705,-2.59c0,0 0.74028,-15.85545 6.26343,-23.87837c10.14279,-14.73338 25.73298,-19.51906 25.73298,-19.51906c0,0 48.29656,-10.35802 94.03661,-6.3637c33.50253,2.92566 41.94212,15.74909 65.1343,25.3217c7.90259,3.26181 47.45409,5.15785 66.72864,18.85227c4.47151,3.17698 7.59756,11.06639 7.59756,11.06639l2.44688,2.74214l0.54759,4.39651l-1.49221,1.82623l0.48875,12.6497l-18.39398,1.17313c0,0 1.24176,-25.60581 -23.2674,-26.51169c-29.13277,-1.07677 -29.79918,27.66675 -29.79918,27.66675l-124.49983,-1.05366c0,0 -2.93569,-27.21457 -28.12822,-27.31692c-19.04954,-0.0774 -26.47475,27.58997 -26.47475,27.58997z" fill="#ffd1d1" stroke-width="0"/><path d="M148.70477,135.70986c0,0 -0.55893,-8.74624 49.28183,-9.56215c48.02821,-0.78624 51.85626,7.35549 51.85626,7.35549l-12.52339,-1.41613c0,0 -8.95735,-2.97298 -39.69693,-2.90692c-37.22991,0.08001 -39.72339,6.16194 -39.72339,6.16194z" fill="#cccccc" stroke-width="0"/><path d="M177.75899,210.0004c0,13.20256 -10.94978,23.90537 -24.45703,23.90537c-13.50724,0 -24.45703,-10.7028 -24.45703,-23.90537c0,-13.20256 10.94978,-23.90537 24.45703,-23.90537c13.50724,0 24.45703,10.7028 24.45703,23.90537z" fill="#4a4a4a" stroke-width="0"/><path d="M356.86535,210.0004c0,13.20256 -10.94978,23.90537 -24.45703,23.90537c-13.50724,0 -24.45703,-10.7028 -24.45703,-23.90537c0,-13.20256 10.94978,-23.90537 24.45703,-23.90537c13.50724,0 24.45703,10.7028 24.45703,23.90537z" fill="#4a4a4a" stroke-width="0"/><path d="M173.99637,210.0004c0,11.17141 -9.2652,20.22763 -20.69441,20.22763c-11.42922,0 -20.69441,-9.05621 -20.69441,-20.22763c0,-11.17141 9.2652,-20.22763 20.69441,-20.22763c11.42922,0 20.69441,9.05621 20.69441,20.22763z" fill="#848484" stroke-width="0"/><path d="M353.10275,210.0004c0,11.17141 -9.2652,20.22763 -20.69441,20.22763c-11.42922,0 -20.69441,-9.05621 -20.69441,-20.22763c0,-11.17141 9.2652,-20.22763 20.69441,-20.22763c11.42922,0 20.69441,9.05621 20.69441,20.22763z" fill="#848484" stroke-width="0"/><path d="M225.56974,160.8105c1.37916,0 1.37916,1.37916 1.37916,1.37916v0.73554c0,5.6023 0.36778,11.25719 0.36778,16.91764c0,5.21026 -0.08404,10.47926 -0.74588,15.61506c-0.28724,2.22895 0.49698,4.13561 0.73554,6.28294c0.24336,2.19036 0.01033,4.58287 0.01033,6.78846c0,0 0,1.37916 -1.37916,1.37916c-1.37916,0 -1.37916,-1.37916 -1.37916,-1.37916c0,-3.9927 -0.73949,-7.84437 -0.73554,-11.76879c0.00564,-5.62495 0.73554,-11.24154 0.73554,-16.91764c0,-5.6627 -0.36778,-11.31181 -0.36778,-16.91764v-0.73554c0,0 0,-1.37916 1.37916,-1.37916z" fill="#9c7b7b" stroke-width="0.5"/><path d="M295.04972,163.24877c1.14753,-0.76502 1.91255,0.38251 1.91255,0.38251l0.92598,1.53384c1.36141,5.58866 1.51228,10.66727 1.51228,16.51658c0,5.73291 -1.01404,11.63303 -2.24025,17.22022c-0.71342,3.25071 -2.1995,6.66033 -2.17305,9.99513c0,0 0,1.37916 -1.37916,1.37916c-1.37916,0 -1.37916,-1.37916 -1.37916,-1.37916c0.02254,-3.57815 1.45594,-7.11953 2.24025,-10.60027c1.21084,-5.37367 2.17305,-11.09593 2.17305,-16.61508c0,-5.6221 -0.06677,-10.50722 -1.42992,-15.84759l-0.54511,-0.6728c0,0 -0.76502,-1.14753 0.38251,-1.91255z" fill="#9c7b7b" stroke-width="0.5"/><path d="M367.80667,173.95845c0,1.37916 -1.37916,1.37916 -1.37916,1.37916h-1.47111c-2.58165,-0.02046 -7.42596,1.27416 -9.39406,2.97271c-0.77418,0.66814 -1.04043,1.78842 -1.7673,2.50774c-2.22478,2.20167 -4.774,2.71029 -4.74491,6.38029c0,0 0,1.37916 -1.37916,1.37916c-1.37916,0 -1.37916,-1.37916 -1.37916,-1.37916c0.01582,-2.50867 0.87384,-4.53058 2.52696,-6.40033c0.79244,-0.8963 2.18615,-1.07819 3.02583,-1.93039c0.76262,-0.77397 1.0839,-1.93585 1.91045,-2.64109c2.45908,-2.09819 7.99775,-3.62705 11.20131,-3.64724h1.47111c0,0 1.37916,0 1.37916,1.37916z" fill="#9c7b7b" stroke-width="0.5"/><path d="M117.04667,168.39763c1.14753,-0.76502 1.91255,0.38251 1.91255,0.38251l0.92598,1.53384c0.60075,2.46609 2.94443,7.53022 5.44198,8.62246c0.78937,0.34521 1.72768,-0.19859 2.58294,-0.09466c2.41081,0.29305 4.7254,0.35744 7.18699,0.35744c0.68928,0 3.25762,-0.04577 3.66728,0.20599c0.98581,0.60588 1.26,1.96513 2.08902,2.7724c0,0 0.9752,0.9752 0,1.95043c-0.9752,0.9752 -1.95043,0 -1.95043,0c-0.66701,-0.68049 -0.854,-1.7697 -1.58873,-2.37646c-0.156,-0.12883 -3.30717,0.20597 -3.68823,0.20597c-2.56521,0 -6.99782,0.5279 -9.35439,-0.47276c-3.399,-1.44331 -6.21987,-7.20122 -7.06237,-10.50182l-0.54511,-0.6728c0,0 -0.76502,-1.14753 0.38251,-1.91255z" fill="#9c7b7b" stroke-width="0.5"/><path d="M110.08842,175.42956c0,0 -0.05638,-6.13208 0.40263,-8.82063c0.38663,-2.26458 2.17179,-6.25812 2.17179,-6.25812l6.61995,0.73554c0,0 0.4657,2.33074 0.33865,3.60128c-0.11737,1.17358 -1.0742,3.75422 -1.0742,3.75422z" fill="#ff0000" stroke-width="0"/><path d="M181.1992,167.9553c-0.61678,1.23355 -1.85032,0.61678 -1.85032,0.61678l-0.67622,-0.38702c-0.32008,0.69886 -0.9606,1.31542 -1.70526,1.82471c-1.86897,1.27822 -6.03651,1.54247 -8.20353,1.27201c-2.32741,-0.29048 -7.23717,-1.73015 -5.86555,-5.25508c0.30533,-0.78467 1.37795,-0.9721 2.1073,-1.39282c1.89574,-1.0935 4.38394,-1.89055 6.50118,-1.98447c0,0 0.84128,0 1.20972,0.65709c2.48888,-0.79156 5.87668,1.15854 7.48874,2.68907l0.37712,0.10943c0,0 1.23355,0.61678 0.61678,1.85032zM175.30358,167.57996c-0.09662,0.01178 -0.19438,0.01982 -0.29271,0.02521c0.00809,0.02235 0.01561,0.04496 0.02254,0.06784c0.08826,-0.02975 0.17934,-0.06121 0.27016,-0.09302z" fill="#7b9c9c" stroke-width="0.5"/><path d="M181.1992,167.9553c-0.61678,1.23355 -1.85032,0.61678 -1.85032,0.61678l-0.67622,-0.38702c-0.32008,0.69886 -0.9606,1.31542 -1.70526,1.82471c-1.86897,1.27822 -6.03651,1.54247 -8.20353,1.27201c-2.32741,-0.29048 -7.23717,-1.73015 -5.86555,-5.25508c0.30533,-0.78467 1.37795,-0.9721 2.1073,-1.39282c1.89574,-1.0935 4.38394,-1.89055 6.50118,-1.98447c0,0 0.84128,0 1.20972,0.65709c2.48888,-0.79156 5.87668,1.15854 7.48874,2.68907l0.37712,0.10943c0,0 1.23355,0.61678 0.61678,1.85032zM175.30358,167.57996c-0.09662,0.01178 -0.19438,0.01982 -0.29271,0.02521c0.00809,0.02235 0.01561,0.04496 0.02254,0.06784c0.08826,-0.02975 0.17934,-0.06121 0.27016,-0.09302z" fill="#7b9c9c" stroke-width="0.5"/><path d="M181.1992,167.9553c-0.61678,1.23355 -1.85032,0.61678 -1.85032,0.61678l-0.67622,-0.38702c-0.32008,0.69886 -0.9606,1.31542 -1.70526,1.82471c-1.86897,1.27822 -6.03651,1.54247 -8.20353,1.27201c-2.32741,-0.29048 -7.23717,-1.73015 -5.86555,-5.25508c0.30533,-0.78467 1.37795,-0.9721 2.1073,-1.39282c1.89574,-1.0935 4.38394,-1.89055 6.50118,-1.98447c0,0 0.84128,0 1.20972,0.65709c2.48888,-0.79156 5.87668,1.15854 7.48874,2.68907l0.37712,0.10943c0,0 1.23355,0.61678 0.61678,1.85032zM175.30358,167.57996c-0.09662,0.01178 -0.19438,0.01982 -0.29271,0.02521c0.00809,0.02235 0.01561,0.04496 0.02254,0.06784c0.08826,-0.02975 0.17934,-0.06121 0.27016,-0.09302z" fill="#9c7b7b" stroke-width="0.5"/><path d="M246.62891,171.14914c-0.54403,1.08809 -1.63212,0.54403 -1.63212,0.54403l-0.59647,-0.34137c-0.28235,0.61644 -0.84732,1.1603 -1.50415,1.60951c-1.64856,1.12747 -5.32462,1.36056 -7.23607,1.122c-2.05293,-0.25623 -6.38367,-1.5261 -5.17381,-4.63535c0.26933,-0.69215 1.21545,-0.85746 1.85879,-1.22856c1.67218,-0.96454 3.86693,-1.66761 5.73448,-1.75045c0,0 0.74208,0 1.06707,0.57959c2.19536,-0.69821 5.18362,1.0219 6.60559,2.37193l0.33264,0.09652c0,0 1.08809,0.54403 0.54403,1.63212zM241.42857,170.81809c-0.08522,0.01037 -0.17144,0.01749 -0.2582,0.02223c0.00713,0.01972 0.01377,0.03966 0.01988,0.05984c0.07785,-0.02625 0.15818,-0.05401 0.23831,-0.08206z" fill="#7b9c9c" stroke-width="0.5"/><path d="M246.62891,171.14914c-0.54403,1.08809 -1.63212,0.54403 -1.63212,0.54403l-0.59647,-0.34137c-0.28235,0.61644 -0.84732,1.1603 -1.50415,1.60951c-1.64856,1.12747 -5.32462,1.36056 -7.23607,1.122c-2.05293,-0.25623 -6.38367,-1.5261 -5.17381,-4.63535c0.26933,-0.69215 1.21545,-0.85746 1.85879,-1.22856c1.67218,-0.96454 3.86693,-1.66761 5.73448,-1.75045c0,0 0.74208,0 1.06707,0.57959c2.19536,-0.69821 5.18362,1.0219 6.60559,2.37193l0.33264,0.09652c0,0 1.08809,0.54403 0.54403,1.63212zM241.42857,170.81809c-0.08522,0.01037 -0.17144,0.01749 -0.2582,0.02223c0.00713,0.01972 0.01377,0.03966 0.01988,0.05984c0.07785,-0.02625 0.15818,-0.05401 0.23831,-0.08206z" fill="#9c7b7b" stroke-width="0.5"/><path d="M134.73803,152.25973l9.92993,-11.76879c0,0 12.96481,-4.06856 31.63757,-5.78742c23.97859,-2.20729 56.41499,-1.97202 72.76946,0.53818c15.22841,2.33739 39.43217,16.78942 50.07533,24.71862c3.86708,2.88099 4.02863,5.5393 4.02863,5.5393c0,0 -72.8034,-4.60302 -103.39363,-6.33066c-63.80929,-3.60375 -65.04726,-6.90925 -65.04726,-6.90925z" fill="#000000" stroke-width="0"/><path d="M156.51997,181.68174c0,-0.51649 0.19342,-0.83955 0.43541,-1.04164c0.20643,-1.71852 0.82652,-3.25854 1.04604,-5.01128c0.87774,-7.00836 -1.43667,-15.41502 4.07135,-21.03432c0,0 0.9752,-0.9752 1.95043,0c0.9752,0.9752 0,1.95043 0,1.95043c-4.88959,4.76127 -2.52702,13.35462 -3.28414,19.42091c-0.24741,1.98234 -1.10904,3.69352 -1.09299,5.7159l-1.74693,1.37916c0,0 -1.37916,0 -1.37916,-1.37916z" fill="#9c7b7b" stroke-width="0.5"/><path d="M166.87629,136.26309c1.41175,0 1.41175,1.41175 1.41175,1.41175l-0.01058,1.67836c-0.83453,3.33808 -1.0395,7.11822 -1.50586,10.54107c-0.35079,2.57462 -2.33061,4.77951 -2.24822,7.35685c0,0 0,1.41175 -1.41175,1.41175c-1.41175,0 -1.41175,-1.41175 -1.41175,-1.41175c0.0588,-2.84922 1.96448,-4.95746 2.26938,-7.70184c0.37507,-3.37596 0.68488,-7.25711 1.50586,-10.54107l-0.01058,-1.33337c0,0 0,-1.41175 1.41175,-1.41175z" fill="#9c7b7b" stroke-width="0.5"/><path d="M225.60513,132.12196c1.41175,0 1.41175,1.41175 1.41175,1.41175v1.1294c0,9.70499 2.26667,19.09536 -0.04215,28.57742c0,0 -0.3424,1.3696 -1.712,1.0272c-1.3696,-0.3424 -1.0272,-1.712 -1.0272,-1.712c2.36068,-9.14423 -0.04215,-18.49133 -0.04215,-27.89262v-1.1294c0,0 0,-1.41175 1.41175,-1.41175z" fill="#9c7b7b" stroke-width="0.5"/><path d="M256.6582,141.09295c-0.65119,0.42708 -1.33843,0.513 -1.33843,0.513c-4.76842,0.54525 -6.21763,2.14952 -6.18545,6.98644c0.00417,0.62716 -0.20374,3.68067 0.32089,4.52243c0.31559,0.50637 3.65074,2.30659 3.76121,2.36178c6.04165,3.01813 15.84704,0.87356 13.43897,-7.71384c-2.65978,-4.58516 -5.37676,-4.72977 -9.99718,-6.6698zM254.59404,136.0059c0.73552,-0.40163 1.50492,-0.40163 1.50492,-0.40163l2.6181,0.2283c3.03968,1.31503 6.33805,1.63573 8.98381,3.81952c1.98999,1.64252 2.96484,3.83218 4.19436,6.00526c0.60918,2.58854 0.87253,5.44683 0.05583,7.97757c-3.04401,9.43264 -13.26739,10.89155 -21.25182,6.89661c-1.72129,-0.86122 -5.01124,-2.75513 -6.02692,-4.41462c-3.03676,-4.96169 -1.71457,-14.56392 2.96299,-18.07071c2.32497,-1.74305 4.28518,-1.68613 6.95875,-2.04029z" fill="#370000" stroke-width="0.5"/><path d="M266.71133,147.75514c2.40807,8.58739 -7.48688,10.78496 -13.52853,7.76683c-0.11047,-0.05518 -3.46281,-1.87612 -3.7784,-2.38247c-0.52462,-0.84175 -0.32235,-3.92209 -0.32652,-4.54925c-0.03218,-4.83692 1.45365,-6.49193 6.22207,-7.03718c0,0 0.69708,-0.0886 1.34827,-0.5157c4.62042,1.94003 7.40331,2.13261 10.0631,6.71778z" data-paper-data="{&quot;noHover&quot;:false,&quot;origItem&quot;:[&quot;Path&quot;,{&quot;applyMatrix&quot;:true,&quot;segments&quot;:[[[256.3285,151.35981],[4.09104,1.71775],[-0.57658,0.37815]],[[255.14342,151.81403],[0,0],[-4.22208,0.48278]],[[249.66667,158],[-0.02849,-4.28273],[0.00369,0.5553]],[[249.95078,162.00427],[-0.46451,-0.74531],[0.27943,0.44835]],[[253.28106,164.09545],[-0.09781,-0.04886],[5.34943,2.67233]],[[265.18026,157.26542],[2.13217,7.60349],[-2.35504,-4.05982]]],&quot;closed&quot;:true}]}" fill="#ffffff" stroke-width="0.5"/></g></g></svg>