<svg version="1.1" xmlns="http://www.w3.org/2000/svg" xmlns:xlink="http://www.w3.org/1999/xlink" width="100.83334" height="92.2384" viewBox="0,0,100.83334,92.2384"><g transform="translate(-189.58333,-257.54747)"><g data-paper-data="{&quot;isPaintingLayer&quot;:true}" fill-rule="nonzero" stroke-linecap="butt" stroke-linejoin="miter" stroke-miterlimit="10" stroke-dasharray="" stroke-dashoffset="0" style="mix-blend-mode: normal"><path d="M198.17827,303.66667c0,-25.47093 20.64827,-46.1192 46.1192,-46.1192c25.47093,0 46.1192,20.64827 46.1192,46.1192c0,25.47093 -20.64827,46.1192 -46.1192,46.1192c-25.47093,0 -46.1192,-20.64827 -46.1192,-46.1192z" fill="#ffffff" stroke="none" stroke-width="0"/><path d="M212.01403,303.66667c0,-17.82965 14.45379,-32.28344 32.28344,-32.28344c17.82965,0 32.28344,14.45379 32.28344,32.28344c0,17.82965 -14.45379,32.28344 -32.28344,32.28344c-17.82965,0 -32.28344,-14.45379 -32.28344,-32.28344z" fill="#000000" stroke="none" stroke-width="0"/><path d="M196.92047,313.93868v-20.544h47.377v20.544z" fill="#000000" stroke="none" stroke-width="0"/><path d="M207.19248,302.82813l-17.60915,-18.86694l39.83022,-1.2578z" fill="#ffffff" stroke="none" stroke-width="0"/><text transform="translate(215.16582,311.22679) scale(0.63001,0.63001)" font-size="40" xml:space="preserve" fill="#ffffff" fill-rule="nonzero" stroke="#ffffff" stroke-width="2" stroke-linecap="butt" stroke-linejoin="miter" stroke-miterlimit="10" stroke-dasharray="" stroke-dashoffset="0" font-family="Sans Serif" font-weight="normal" text-anchor="start" style="mix-blend-mode: normal"><tspan x="0" dy="0">retry</tspan></text></g></g></svg>