<svg version="1.1" xmlns="http://www.w3.org/2000/svg" xmlns:xlink="http://www.w3.org/1999/xlink" width="90.37832" height="111.30543" viewBox="0,0,90.37832,111.30543"><g transform="translate(-194.81084,-124.34729)"><g data-paper-data="{&quot;isPaintingLayer&quot;:true}" fill-rule="nonzero" stroke="none" stroke-linecap="butt" stroke-linejoin="miter" stroke-miterlimit="10" stroke-dasharray="" stroke-dashoffset="0" style="mix-blend-mode: normal"><path d="M256.82932,204.7352c-0.04344,-0.04344 -0.08475,-0.08688 -0.124,-0.1303c-1.34534,1.45753 -2.11122,3.84901 -2.78705,5.54101c-1.51779,3.79991 -3.44448,8.89526 -0.57532,12.56603c3.68017,4.70836 9.29242,5.7885 14.8953,5.28137c4.25087,-0.83622 8.21482,-3.37949 10.42941,-7.2507c1.1739,-2.05204 0.86889,-4.39188 1.20694,-6.64515c0.42598,-2.83943 0.79641,-5.91307 -0.87997,-8.52735c-1.8476,-2.8813 -6.25861,-4.65378 -9.51967,-4.85566c-1.59273,-0.0986 -3.26295,0.49539 -4.82142,1.09259c2.04713,3.6942 3.20581,7.85266 4.76472,11.73192l0.60416,2.32214c0,0 0.60634,2.42536 -1.81902,3.0317c-2.42536,0.60634 -3.0317,-1.81902 -3.0317,-1.81902l-0.39584,-1.67786c-1.4105,-3.54102 -2.44148,-7.40293 -4.28108,-10.79537l-0.12996,0.13466c0,0 -1.76777,1.76777 -3.53553,0zM269.7192,195.72041c4.83943,0.20317 10.75699,2.95777 13.48033,7.14434c2.34628,3.60691 2.21788,7.98638 1.62003,11.97265c-0.45197,3.01364 -0.26644,5.55344 -1.79306,8.35485c-2.88654,5.2969 -8.3688,8.59486 -14.07059,9.7493c-7.35472,0.67105 -14.88611,-0.95596 -19.6047,-7.21863c-0.97866,-1.29891 -1.61734,-2.67042 -1.99088,-4.08346c-0.62352,1.32797 -2.26325,1.32797 -2.26325,1.32797h-1.5c-1.06146,0 -2.10937,-0.00085 -3.154,-0.01909c-1.94471,2.53775 -6.41535,3.37301 -8.92893,1.88411c-1.04878,-0.62124 -1.83092,-1.46278 -2.34869,-2.41325c-0.01948,0.0371 -0.03825,0.07458 -0.05622,0.11247c-1.06938,2.25534 -0.20564,3.31883 -2.10885,5.55669c-0.77463,0.91083 -2.02316,1.27614 -3.00834,1.9537c-2.37357,1.63242 -4.22408,3.36705 -6.78245,4.77188c-2.70228,0.55615 -6.0581,1.18846 -8.83529,0.60839c-5.5858,-1.1667 -11.29687,-7.18168 -12.92359,-12.49252c-0.85056,-2.77686 -0.61026,-5.60818 -0.60364,-8.46237c0.01333,-5.74999 2.77883,-12.70138 8.47958,-15.28227c2.08701,-0.94485 4.81844,-0.98251 7.21244,-0.97263c0.70859,-0.4951 1.55798,-0.4951 1.55798,-0.4951c3.04052,0.0036 5.70312,0.55674 8.01401,1.61378c0.9077,-1.96672 1.71347,-3.9814 2.34142,-6.08214l0.51627,-1.72091c-0.24603,-0.43478 -0.32316,-0.82043 -0.32316,-0.82043c-0.49392,-2.46962 -1.36508,-5.04274 -1.75089,-7.50449c-0.06095,-0.38891 0.16199,-0.81585 0.18842,-1.2035c-0.20086,-0.01128 -0.40426,-0.02315 -0.6106,-0.0354c-0.99942,-0.05936 -2.15197,0.45124 -3.00257,-0.07683c-0.17949,-0.11143 -0.35152,-0.23198 -0.51729,-0.36017l-0.06972,0.12549l-2.20635,-1.22575c-0.7909,-0.41981 -1.32954,-1.25182 -1.32954,-2.20964c0,-1.38071 1.11929,-2.5 2.5,-2.5h2.5v0.15338l0.36303,-0.12688c1.19855,0.35474 2.75709,0.70566 4.1145,1.32254c1.57787,0.0659 3.00218,0.0653 4.78217,-0.30049l0.44972,-0.17026c0,0 2.37171,-0.79057 3.16228,1.58114c0.79057,2.37171 -1.58114,3.16228 -1.58114,3.16228l-1.05028,0.32974c-0.99343,0.19419 -1.92002,0.31016 -2.82659,0.37171c0.01125,0.0643 0.02404,0.12802 0.03864,0.19105c0.47655,2.05633 1.00779,4.07986 1.46305,6.13986c3.6145,0.59301 7.31688,1.42238 10.95914,1.59904c5.48306,0.26595 10.91985,-0.432 16.39306,-0.49547c-1.45329,-4.21642 -2.2741,-9.32156 4.3102,-9.48605c1.03301,-0.02581 1.80694,0.89803 2.64402,1.59035c0.73842,0.20329 1.77818,0.7758 1.77818,2.38806c0,2.5 -2.5,2.5 -2.5,2.5l-1.75,-0.5c-0.06902,-0.08518 -0.16565,-0.21049 -0.27073,-0.34978c0.49028,1.46004 0.76386,2.99375 1.34193,4.42131c0,0 0.0547,0.13676 0.10436,0.35716c0.15589,0.28407 0.26841,0.63622 0.31204,1.07256c0.11637,1.16368 -0.36606,1.83743 -0.91252,2.22498c0.6898,1.36194 1.45431,2.58248 2.27188,3.83591c2.49567,-0.95686 5.06246,-1.92303 7.77516,-1.80914zM249.2759,208.28895c0.47241,-1.17951 0.97172,-2.45792 1.57542,-3.68791c-2.09599,3.05465 -3.97729,6.36571 -6.47103,8.86858c-1.49089,1.49635 -2.98719,2.47666 -4.35163,3.86855c0.21472,0.1979 0.41733,0.40141 0.59653,0.61578c0.98389,0.01503 1.97104,0.01348 2.97189,0.01348h1.5c0,0 1.10452,0 1.84524,0.73416c-0.11255,-3.49729 1.0116,-7.112 2.33356,-10.41264zM256.59262,198.39075c-0.5155,0.34912 -1.0045,0.73174 -1.47143,1.14216c0.54061,-0.30311 1.11428,-0.54999 1.70168,-0.7647c-0.07728,-0.1256 -0.15403,-0.25138 -0.23025,-0.37745zM231.56405,213.94085c0.10994,-0.06359 0.22349,-0.11522 0.34008,-0.15682c-0.17453,-0.36001 -0.33956,-0.72293 -0.45161,-1.09823c-1.2969,-4.34398 -3.25319,-8.59691 -4.92936,-12.79675c-0.18342,-0.45957 -0.40566,-0.94078 -0.61833,-1.42752c-0.50035,1.2374 -1.0481,2.4504 -1.62681,3.64787c2.29973,2.122 4.08459,4.97328 5.4047,8.4665c0.46338,1.22618 0.90394,2.51441 1.18433,3.8291c0.21796,-0.16625 0.4503,-0.32146 0.697,-0.46416zM240.81389,209.96524c4.84999,-4.82803 7.30559,-11.42331 12.73259,-15.46627c-5.19392,0.1511 -10.36674,0.7325 -15.57392,0.46536c-2.66912,-0.13693 -5.36009,-0.58826 -8.03157,-1.05795c0.46996,1.37061 0.88354,3.27525 1.23003,4.13944c1.73639,4.33085 3.72081,8.72286 5.07064,13.20325c0.14923,0.49532 0.4143,1.31142 0.66971,2.21215c1.2597,-1.17768 2.59278,-2.19216 3.90252,-3.49597zM215.33589,219.72119c-0.44921,0.61807 -1.37637,1.4338 -2.91728,0.81744c-2.32119,-0.92848 -1.39272,-3.24967 -1.39272,-3.24967c1.88662,-4.71324 4.48397,-9.05258 6.84701,-13.49237c-1.03409,-0.45348 -2.17673,-0.76649 -3.44404,-0.93438c-0.65104,0.35523 -1.33178,0.35523 -1.33178,0.35523h-1.25c-1.91465,-0.0025 -4.65812,-0.24952 -6.47958,0.53227c-3.89859,1.67332 -5.52998,6.98435 -5.52042,10.71773c0.00602,2.35279 -0.26911,4.74535 0.39636,7.03763c0.99488,3.42696 5.37776,8.32046 9.07641,9.00748c1.88872,0.35083 4.30303,-0.03716 6.16471,-0.39161c2.11756,-1.19945 3.6719,-2.91428 5.71755,-4.22812c0.63099,-0.40526 1.48336,-0.49492 1.99166,-1.0463c0.98444,-1.06788 0.76329,-2.79982 1.27494,-4.16745c-3.04584,-0.36239 -6.01791,-0.90745 -9.13282,-0.95787zM217.59906,214.83603c2.87078,0.23035 5.65431,0.73879 8.52925,1.00375c-0.22857,-1.26584 -0.75808,-2.54816 -1.11685,-3.48082c-0.85761,-2.22951 -1.88025,-4.09418 -3.14775,-5.57099c-1.43813,2.66764 -2.92431,5.31545 -4.26465,8.04807z" fill="#000000" stroke-width="0.5"/><path d="M234.82494,214.23784c-2.46598,-0.411 -2.05499,-2.87698 -2.05499,-2.87698l0.20862,-1.25051c0.8072,-5.08859 3.52957,-9.60814 4.50382,-14.63013c0.73609,-3.79434 0.40034,-8.4674 -0.39593,-12.21913c-1.57785,-1.65796 -3.26187,-2.97759 -5.46904,-3.73216c-3.94447,-1.3485 -7.35139,-0.47957 -9.77499,-4.97773c-0.71357,-1.32437 -0.02075,-5.3644 0.26035,-6.81714c0.92703,-4.7909 3.13092,-7.41913 6.41195,-10.86396c3.25316,-3.41557 5.93142,-6.18342 9.44611,-7.79012c-7.21168,-9.02471 1.25738,-21.71631 10.31213,-24.62045c0,0 2.01333,-0.61722 3.03004,1.04323h0.00001c2.12302,0.20991 4.05177,0.28061 6.04235,1.35952c3.32781,1.80367 6.87402,8.30217 7.18938,12.22395c0.10827,1.34644 -0.46606,2.65967 -0.69908,3.9895c-4.01102,7.4643 -10.57789,11.65937 -19.11495,9.82055c-0.3744,-0.08064 -0.73623,-0.16481 -1.08681,-0.25615c-5.21489,0.55703 -7.71475,3.70501 -11.50055,7.68039c-1.75669,1.84466 -3.75672,3.39339 -4.56702,5.91105c-0.35191,1.09342 -1.67021,5.19599 -1.14719,6.30631c0.78575,1.66806 5.66815,1.85884 6.88272,2.28333c3.55192,1.24137 5.77675,3.3213 8.19883,6.09162c1.30746,4.83558 1.83897,10.55128 0.88543,15.54372c-0.94578,4.95179 -3.72525,9.41308 -4.46572,14.41409l-0.2185,1.31222c0,0 -0.411,2.46598 -2.87698,2.05499zM247.09379,131.04405c-4.77347,3.01364 -8.75009,9.81813 -4.68883,14.80269c1.31357,1.61219 3.84845,1.73398 5.69722,1.82894c4.92325,0.25287 8.25934,-2.23707 10.63141,-6.51639c0.58106,-2.34354 -1.53888,-8.30641 -3.83782,-9.33828c-1.55131,-0.6963 -2.80811,-0.66447 -4.48149,-0.82673l-0.88544,0.46239c0,0 -1.39256,0.40657 -2.43505,-0.41262z" fill="#370000" stroke-width="0.5"/><path d="M249.52727,131.40669l0.89082,-0.46227c1.67338,0.16226 2.9545,0.13895 4.50581,0.83525c2.29894,1.03187 4.43976,7.04601 3.8587,9.38955c-2.37207,4.27932 -5.76702,6.80835 -10.69027,6.55548c-1.84877,-0.09496 -4.41129,-0.23269 -5.72486,-1.84488c-4.06126,-4.98456 -0.06252,-11.8697 4.71095,-14.88334c1.04249,0.81919 2.44886,0.41022 2.44886,0.41022z" data-paper-data="{&quot;noHover&quot;:false,&quot;origItem&quot;:[&quot;Path&quot;,{&quot;applyMatrix&quot;:true,&quot;segments&quot;:[[[247.09379,131.04405],[1.04249,0.81919],[-4.77347,3.01364]],[[242.40496,145.84674],[-4.06126,-4.98456],[1.31357,1.61219]],[[248.10218,147.67568],[-1.84877,-0.09496],[4.92325,0.25287]],[[258.73359,141.15929],[-2.37207,4.27932],[0.58106,-2.34354]],[[254.89577,131.82101],[2.29894,1.03187],[-1.55131,-0.6963]],[[250.41428,130.99428],[1.67338,0.16226],[0,0]],[249.52884,131.45667]],&quot;closed&quot;:true,&quot;fillColor&quot;:[0,0,0,1],&quot;strokeWidth&quot;:0.5}]}" fill="#ffffff" stroke-width="0.25"/><path d="M209.53819,159.8072c-0.04545,0.53212 -0.35694,2.35591 -2.49224,2.35591c-2.5,0 -2.5,-2.5 -2.5,-2.5l0.65015,-2.53592c8.27788,-9.05297 21.49449,-11.32038 33.22142,-10.42118c0,0 2.49264,0.19174 2.30089,2.68438c-0.19174,2.49264 -2.68438,2.30089 -2.68438,2.30089c-7.25708,-0.56007 -12.01294,0.08184 -18.81563,2.63335c-4.07407,1.52808 -6.74761,2.49141 -9.68021,5.48256z" fill="#370000" stroke-width="0.5"/><path d="M259.89767,184.49929c-0.49029,2.45145 -2.94174,1.96116 -2.94174,1.96116l-3.20705,-0.9264c-3.143,-2.54069 -5.11682,-5.57421 -7.49673,-8.79577c-5.65534,-7.65535 -13.65947,-18.20952 -4.77538,-26.41831c0,0 1.86853,-1.66091 3.52944,0.20762c1.66091,1.86853 -0.20762,3.52943 -0.20762,3.52943c-3.77799,3.16297 -2.65358,6.8595 -0.35053,10.76215c3.36825,5.70768 7.16001,12.65254 12.4243,16.81054l1.06416,-0.07216c0,0 2.45145,0.4903 1.96116,2.94174z" fill="#370000" stroke-width="0.5"/><path d="M226.98221,127.45068c-0.24876,-2.48759 2.23883,-2.73636 2.23883,-2.73636l2.59198,-0.21733c0.85424,0.07118 1.70848,0.14238 2.56273,0.21356c0,0 2.49137,0.20761 2.28375,2.69898c-0.20762,2.49137 -2.69898,2.28375 -2.69898,2.28375c-0.85424,-0.07118 -1.70848,-0.14238 -2.56273,-0.21356l-1.67923,0.20978c0,0 -2.48759,0.24877 -2.73635,-2.23883z" fill="#370000" stroke-width="0.5"/><path d="M221.30427,143.74654c-2.23607,-1.11803 -1.11803,-3.3541 -1.11803,-3.3541l1.321,-1.84536c0.78305,-0.49831 1.56611,-0.99662 2.34916,-1.49492c0,0 2.10915,-1.34219 3.45134,0.76696c1.34219,2.10915 -0.76696,3.45134 -0.76696,3.45134c-0.78305,0.49831 -1.56611,0.99662 -2.34916,1.49492l0.46676,-0.13688c0,0 -1.11803,2.23607 -3.3541,1.11803z" fill="#370000" stroke-width="0.5"/></g></g></svg>