<svg version="1.1" xmlns="http://www.w3.org/2000/svg" xmlns:xlink="http://www.w3.org/1999/xlink" width="117.20888" height="117.20888" viewBox="0,0,117.20888,117.20888"><defs><radialGradient cx="240.90612" cy="173.27443" r="58.60444" gradientUnits="userSpaceOnUse" id="color-1"><stop offset="0" stop-color="#ff0000" stop-opacity="0.46598"/><stop offset="1" stop-color="#ff0000" stop-opacity="0"/></radialGradient></defs><g transform="translate(-182.30168,-114.66999)"><g data-paper-data="{&quot;isPaintingLayer&quot;:true}" fill-rule="nonzero" stroke="none" stroke-linecap="butt" stroke-linejoin="miter" stroke-miterlimit="10" stroke-dasharray="" stroke-dashoffset="0" style="mix-blend-mode: normal"><path d="M182.30168,173.27443c0,-32.36634 26.2381,-58.60444 58.60444,-58.60444c32.36634,0 58.60444,26.2381 58.60444,58.60444c0,32.36634 -26.2381,58.60444 -58.60444,58.60444c-32.36634,0 -58.60444,-26.2381 -58.60444,-58.60444z" fill="url(#color-1)" stroke-width="0"/><path d="M269.80616,142.84739c1.784,1.75138 0.03261,3.53538 0.03261,3.53538l-1.2774,1.26126c-3.06421,4.22961 -6.30612,9.83615 -10.3035,13.21555c-4.76506,4.0284 -13.22028,6.9178 -19.32501,7.51726c0,0 -2.48935,0.23059 -2.71993,-2.25875c-0.23059,-2.48935 2.25875,-2.71993 2.25875,-2.71993c5.02901,-0.43138 12.54211,-2.93983 16.47117,-6.28164c3.70453,-3.15085 6.72516,-8.4714 9.568,-12.40389l1.75992,-1.83262c0,0 1.75138,-1.784 3.53538,-0.03261z" fill="#000426" stroke-width="0.5"/><path d="M231.52712,145.50966c-0.15165,0.24881 -0.28619,0.3957 -0.28619,0.3957c-1.07272,1.15571 -3.32059,3.31484 -3.35382,5.1362c-0.07336,4.02187 2.48285,6.53697 5.2742,9.01531c1.04576,0.9285 1.94178,2.13167 3.47791,2.16072c2.1661,0.04097 4.21826,-1.48803 5.95093,-2.5323c3.52637,-2.12533 4.59506,-3.84394 4.00364,-8.00938c-1.46538,-6.15932 -7.71068,-7.89801 -13.26802,-7.28695l-1.70086,1.06857c0,0 -0.03467,0.02058 -0.09779,0.05212zM228.17198,142.04192c0.37686,-0.57285 0.89997,-0.8835 0.89997,-0.8835l2.61056,-1.49171c8.88667,-1.33052 17.07942,1.80684 19.81031,11.00948c0.33476,2.58042 0.74365,3.74523 -0.03295,6.37873c-1.54147,5.22723 -9.59548,10.49731 -15.08398,10.15573c-3.19232,-0.19868 -4.19907,-1.42428 -6.49751,-3.38254c-3.86595,-3.29377 -7.34731,-7.60376 -6.98372,-13.06112c0.21516,-3.22936 2.63335,-6.00304 4.65917,-8.23884c0,0 0.23211,-0.25339 0.61815,-0.48624z" fill="#000426" stroke-width="0.5"/><path d="M231.49716,145.46962c0.06312,-0.03154 0.09825,-0.05246 0.09825,-0.05246l1.70982,-1.07379c5.55734,-0.61106 11.87248,1.16487 13.33786,7.32419c0.59142,4.16544 -0.49489,5.93108 -4.02126,8.05641c-1.73267,1.04427 -3.82028,2.58445 -5.98638,2.54348c-1.53613,-0.02905 -2.45443,-1.23939 -3.50019,-2.16789c-2.79135,-2.47834 -5.37021,-5.04751 -5.29685,-9.06938c0.03323,-1.82136 2.29791,-4.00763 3.37063,-5.16334c0,0 0.13646,-0.1484 0.28811,-0.39721z" data-paper-data="{&quot;noHover&quot;:false,&quot;origItem&quot;:[&quot;Path&quot;,{&quot;applyMatrix&quot;:true,&quot;segments&quot;:[[[231.52712,145.50966],[0,0],[-0.15165,0.24881]],[[231.24093,145.90536],[0,0],[-1.07272,1.15571]],[[227.88711,151.04156],[0.03323,-1.82136],[-0.07336,4.02187]],[[233.16131,160.05687],[-2.79135,-2.47834],[1.04576,0.9285]],[[236.63922,162.21759],[-1.53613,-0.02905],[2.1661,0.04097]],[[242.59015,159.68529],[-1.73267,1.04427],[3.52637,-2.12533]],[[246.59379,151.67591],[0.59142,4.16544],[-1.46538,-6.15932]],[[233.32577,144.38896],[5.55734,-0.61106],[0,0]],[231.62491,145.45753],[[231.52712,145.50965],[0.06312,-0.03154],[0,0]]],&quot;closed&quot;:true,&quot;fillColor&quot;:[0,0,0,1],&quot;strokeWidth&quot;:0.5}]}" fill="#ffffff" stroke-width="0.25"/><path d="M253.31037,227.39807c0,2.5 -2.5,2.5 -2.5,2.5h-0.93959c-3.39103,-0.15957 -4.61388,0.5322 -6.75611,-3.09342c-0.54394,-0.92059 -0.13759,-2.14405 -0.38204,-3.18501c-0.41093,-1.7499 -0.90741,-3.4864 -1.16248,-5.26571c-0.85319,-5.95159 -2.58009,-11.84292 -4.34292,-17.57985c-0.37994,-0.66404 -0.37994,-1.37601 -0.37994,-1.37601v-0.18792c0.00609,-11.20864 -0.98202,-22.48846 -1.68641,-33.66956c0,0 -0.15595,-2.49513 2.33918,-2.65107c2.49513,-0.15595 2.65108,2.33918 2.65108,2.33918c0.69187,11.16409 1.66857,22.41477 1.69559,33.60737c0.05376,0.12414 0.07791,0.20262 0.07791,0.20262c1.86669,6.06674 3.69884,12.31094 4.59574,18.61157c0.23501,1.65092 0.75529,3.24884 1.09256,4.88194c0.14001,0.67794 -0.14614,1.39878 -0.0062,2.07673c0.1876,0.90884 2.2502,0.29045 2.26403,0.28913h0.93959c0,0 2.5,0 2.5,2.5z" fill="#000426" stroke-width="0.5"/><path d="M242.58688,228.71351c0,2.5 -2.5,2.5 -2.5,2.5l-1.87759,-0.06402c-1.3336,-0.55824 -3.2107,-0.464 -4.0008,-1.67473c-1.00338,-1.53758 0.70708,-8.05022 0.95599,-9.9134c0.9882,-7.39694 0.31645,-15.36504 2.33067,-22.54136c0,0 0.6868,-2.40381 3.09061,-1.71701c2.40381,0.6868 1.71701,3.09061 1.71701,3.09061c-1.31343,4.50039 -0.59165,8.89631 -1.04524,13.48262c-0.18687,1.88948 -0.75033,3.72896 -0.93764,5.61839c-0.26001,2.62273 -0.18876,6.08272 -0.95449,8.57758c-0.11602,0.378 -0.85639,0.36182 -0.91692,0.75256c-0.0531,0.34278 0.59007,-0.36482 0.88511,-0.54722l0.75329,-0.06402c0,0 2.5,0 2.5,2.5z" fill="#000426" stroke-width="0.5"/><path d="M244.62434,144.95856c-2.01562,1.47894 -3.49456,-0.53668 -3.49456,-0.53668l-0.20675,-0.29251c-0.97255,-1.55175 -1.79884,-3.19218 -2.61852,-4.82982c-0.55742,-1.1137 -0.80425,-2.81085 -2.00114,-3.15512c-1.33864,-0.38506 -2.73571,0.61344 -4.12821,0.64821c-0.78268,0.01954 -1.5644,-0.22108 -2.34403,-0.1493c-3.36768,0.31012 -4.41187,3.35415 -6.29875,5.60855c-0.98199,1.17325 -2.52834,1.77748 -3.52908,2.93479c-0.45451,0.52563 0.80532,1.14987 1.33067,1.60471c1.92495,1.6666 3.66695,3.4954 5.5705,5.18556c0,0 1.86844,1.661 0.20744,3.52945c-1.661,1.86844 -3.52945,0.20744 -3.52945,0.20744c-1.92057,-1.70927 -3.89576,-3.47156 -5.69777,-5.30271c-0.82497,-0.83831 -1.96944,-1.51943 -2.34948,-2.63249c-1.7942,-5.25471 1.53982,-5.54449 4.13433,-8.70142c2.93619,-3.57267 4.51432,-6.64149 9.6089,-7.40324c0.91278,-0.13648 1.84354,0.14384 2.76617,0.12036c1.25807,-0.03203 4.90223,-0.7444 5.82078,-0.39967c3.98565,1.49583 5.24431,6.83702 7.28937,10.07155l0.00624,-0.00222c0,0 1.47894,2.01562 -0.53668,3.49456z" fill="#4986b7" stroke-width="0.5"/><path d="M227.13814,155.32996c-0.22191,0.16464 -0.44435,0.32878 -0.66736,0.49241c0,0 -2.01562,1.47894 -3.49456,-0.53668c-1.47894,-2.01562 0.53668,-3.49456 0.53668,-3.49456c6.43106,-4.71871 12.54395,-9.76593 18.80751,-14.69097c1.32475,-1.04165 4.50815,-4.2965 6.22599,-3.56001c4.07447,1.74686 2.87435,6.46316 1.09247,8.77501c-1.06598,1.38303 -4.67867,2.68756 -6.09348,3.39251c-3.41442,1.70128 -6.37484,4.1192 -9.57087,6.17044c-1.33324,0.97927 -2.66674,1.9582 -4.00047,2.93681l-0.2903,0.213c0,0 -1.27814,0.93782 -2.54561,0.30206z" fill="#000000" stroke-width="0.5"/><path d="M231.78389,134.19078c1.63145,-1.8943 3.52575,-0.26285 3.52575,-0.26285l2.2041,1.98276c0.5325,0.72573 1.06499,1.45146 1.59749,2.17719c0,0 1.47894,2.01562 -0.53668,3.49456c-2.01562,1.47894 -3.49456,-0.53668 -3.49456,-0.53668c-0.5325,-0.72573 -1.06499,-1.45146 -1.59749,-2.17719l-1.43576,-1.15204c0,0 -1.8943,-1.63145 -0.26285,-3.52575z" fill="#dfff00" stroke-width="0.5"/><path d="M267.60694,156.70145c-0.06989,0.07648 -0.14654,0.15279 -0.2304,0.22874c-1.85312,1.67807 -3.53119,-0.17504 -3.53119,-0.17504c-2.36406,-2.62463 -5.41547,-4.58247 -7.36663,-7.58578c-0.72782,-1.12027 -1.88577,-2.16247 -1.95904,-3.4964c-0.07412,-1.34936 0.93158,-2.54582 1.56148,-3.74143c1.90511,-3.61611 5.4411,-7.7915 8.46618,-10.50564c1.01788,-0.91325 1.93607,-2.27505 3.2927,-2.44726c2.38612,-0.3029 6.72294,2.66987 7.11207,5.11502c0.24453,1.53653 -0.73219,3.08888 -1.58482,4.39033c-0.57288,0.87444 -1.7533,1.15704 -2.51708,1.87083c-1.30089,1.21572 -2.30818,2.71405 -3.53431,4.00514c-0.21876,0.26373 -1.13865,1.38423 -2.01006,2.41601c0.00816,0.02478 0.01663,0.04955 0.02543,0.07432c0.46785,1.31952 2.19946,1.76471 3.08895,2.84584c0.62775,0.76301 0.99005,1.71021 1.48508,2.56532l-1.44666,3.92931c0,0 -0.33612,0.30437 -0.85169,0.5107z" fill="#313241" stroke-width="0.5"/><path d="M266.67971,147.73934c1.784,1.75138 0.03261,3.53538 0.03261,3.53538l-1.2774,1.26126c-3.06421,4.22961 -6.30612,9.83615 -10.3035,13.21555c-4.76506,4.0284 -13.22028,6.9178 -19.32501,7.51726c0,0 -2.48935,0.23059 -2.71993,-2.25875c-0.23059,-2.48935 2.25875,-2.71993 2.25875,-2.71993c5.02901,-0.43138 12.54211,-2.93983 16.47117,-6.28164c3.70453,-3.15085 6.72516,-8.4714 9.568,-12.40389l1.75992,-1.83262c0,0 1.75138,-1.784 3.53538,-0.03261z" fill="#000426" stroke-width="0.5"/></g></g></svg>