<svg version="1.1" xmlns="http://www.w3.org/2000/svg" xmlns:xlink="http://www.w3.org/1999/xlink" width="136.59801" height="130.16303" viewBox="0,0,136.59801,130.16303"><g transform="translate(-181.33483,-116.11516)"><g data-paper-data="{&quot;isPaintingLayer&quot;:true}" fill-rule="nonzero" stroke="none" stroke-linecap="butt" stroke-linejoin="miter" stroke-miterlimit="10" stroke-dasharray="" stroke-dashoffset="0" style="mix-blend-mode: normal"><path d="M247.61797,189.96528c0.49937,-0.08114 1.00609,-0.14577 1.5202,-0.1931c9.46131,-0.87119 21.04428,6.85026 23.34558,16.30541c1.95594,3.67172 2.68926,8.03435 1.59234,12.37114c-0.24231,0.95799 -1.00292,1.71006 -1.38214,2.62255c-2.59229,6.23755 -4.6674,10.83258 -11.28215,13.51184c-8.53916,3.10291 -19.28726,5.82315 -27.38614,0.86601l-1.79963,-0.51008c-3.58414,-1.99473 -6.51228,-3.93615 -9.06592,-7.17439c-6.6098,-7.7301 -4.0025,-17.15474 -0.07651,-25.44234c1.37398,-2.90042 2.3917,-5.6921 4.91183,-7.89249c4.50718,-3.93533 12.16114,-4.39101 17.87264,-4.91264c0,0 0.96652,-0.08787 1.7499,0.44809z" data-paper-data="{&quot;index&quot;:null}" fill="#71492b" stroke-width="0.5"/><path d="M217.4641,196.85667c5.7115,0.52163 13.36546,0.97732 17.87264,4.91264c2.52013,2.20038 3.53785,4.99207 4.91183,7.89249c3.92599,8.28761 6.53329,17.71224 -0.07651,25.44234c-2.55364,3.23824 -5.48179,5.17966 -9.06592,7.17439l-1.79963,0.51008c-8.09888,4.95713 -18.84698,2.2369 -27.38614,-0.86601c-6.61475,-2.67927 -8.68987,-7.27429 -11.28215,-13.51184c-0.37923,-0.91249 -1.13984,-1.66456 -1.38214,-2.62255c-1.09691,-4.33679 -0.3636,-8.69942 1.59234,-12.37114c2.3013,-9.45516 13.88427,-17.17661 23.34558,-16.30541c0.51411,0.04734 1.02083,0.11196 1.5202,0.1931c0.78339,-0.53595 1.7499,-0.44809 1.7499,-0.44809z" fill="#c27d49" stroke-width="0.5"/><path d="M283.26629,197.61592c5.7115,0.52163 13.36546,0.97732 17.87264,4.91264c2.52013,2.20038 3.53785,4.99207 4.91183,7.89249c3.92599,8.28761 6.53329,17.71224 -0.07651,25.44234c-2.55364,3.23824 -5.48179,5.17966 -9.06592,7.17439l-1.79963,0.51008c-8.09888,4.95713 -18.84698,2.2369 -27.38614,-0.86601c-6.61475,-2.67927 -8.68987,-7.27429 -11.28215,-13.51184c-0.37923,-0.91249 -1.13984,-1.66456 -1.38214,-2.62255c-1.09691,-4.33679 -0.3636,-8.69942 1.59234,-12.37114c2.3013,-9.45516 13.88427,-17.17661 23.34558,-16.30541c0.51411,0.04734 1.02083,0.11196 1.5202,0.1931c0.78339,-0.53595 1.7499,-0.44809 1.7499,-0.44809z" fill="#c27d49" stroke-width="0.5"/><path d="M296.31719,184.62657l-0.78082,2.59917c-1.59857,4.36741 -3.85502,9.8123 -7.63523,12.7999c-2.59049,2.04734 -3.08722,1.58094 -6.07976,2.265c-6.64183,1.51823 -13.96874,1.42344 -20.7731,0.81092c-9.48291,-0.86214 -18.95758,-1.48427 -28.42591,-2.31497c-11.10312,-0.97414 -22.21768,-1.84691 -28.20892,-12.64424c0,0 -1.07903,-1.97822 0.68987,-3.20287l0.1786,-0.29014c-2.13714,-0.9653 -1.24801,-3.18813 -1.24801,-3.18813c0.44975,-1.04103 0.6498,-2.23046 1.34924,-3.12309c0.77947,-0.99477 1.81089,-1.77976 2.98991,-2.40476c4.43743,-4.59215 10.39195,-5.73716 16.67529,-6.09847c7.32494,-3.53729 14.39564,-4.0079 22.6842,-3.6087c0.5876,0.0283 5.07731,-0.04662 5.55329,0.0234c6.23999,0.91789 12.01382,3.65892 18.36095,4.28836c0,0 0.43414,0.04341 0.92156,0.27534c0.44775,0.08526 0.8945,0.17391 1.34016,0.26608c7.22497,1.49419 13.87825,6.27114 20.68951,8.98914c0,0 1.9054,0.76216 1.57301,2.63174c0.45173,0.9078 0.14616,1.92633 0.14616,1.92633z" fill="#c39797" stroke-width="0.5"/><path d="M293.63867,182.1366l-0.17881,1.18156c-2.47335,6.05883 -6.65044,8.87901 -12.43281,11.47554c-9.77159,4.38787 -19.09704,7.29189 -29.87587,7.30579c-5.68645,-0.02085 -10.86899,-1.57684 -16.38815,-2.57056c-7.73631,-1.39291 -15.06013,-3.23378 -21.87663,-7.42006c-2.97877,-1.82938 -5.4964,-4.42327 -8.42424,-6.37363c0,0 -2.08013,-1.38675 -0.69338,-3.46688c0.12174,-0.18261 0.24882,-0.3385 0.37937,-0.47096c-0.02115,-0.10696 -0.02758,-0.1713 -0.02758,-0.1713c-1.60897,-16.08966 -3.68263,-32.68548 2.58595,-48.04127c4.8283,-6.42296 12.49942,-9.59451 19.73302,-12.48795c12.11782,-4.84713 25.14547,-6.56998 37.98018,-3.3109c4.44088,2.19379 9.96627,4.34453 13.53909,7.90098c3.70656,3.68958 5.55805,8.79419 7.40812,13.52368c2.02855,5.18575 4.32968,10.35276 5.66916,15.75753c1.10611,4.46314 1.16084,9.21974 1.57891,13.77044c0.34143,3.45468 0.2644,6.89162 0.2644,10.36096l0.15925,1.34055c0.6,0.73098 0.6,1.69647 0.6,1.69647zM215.51507,187.85562c6.32623,3.84261 12.98714,5.4413 20.13553,6.75272c5.21187,0.95615 10.12382,2.5147 15.5006,2.49115c10.03625,0.01173 18.73173,-2.76546 27.82759,-6.86699c4.20468,-1.89598 7.45458,-3.66481 9.40537,-7.76602c-0.19497,-0.44053 -0.23636,-0.81305 -0.23636,-0.81305l-0.26838,-2.55385c0,-3.30846 0.09176,-6.59267 -0.24177,-9.88586c-0.38742,-4.30313 -0.39471,-8.84517 -1.45812,-13.0566c-1.30897,-5.18399 -3.51592,-10.13542 -5.4666,-15.11888c-1.58655,-4.05321 -3.08992,-8.59597 -6.25849,-11.78486c-3.03423,-3.05369 -7.99806,-4.86467 -11.76944,-6.77797c-11.63436,-2.85068 -23.47114,-1.10311 -34.40222,3.26932c-5.92058,2.36823 -13.24135,4.96708 -17.21743,10.28973c-5.61013,14.39984 -3.47078,30.08215 -1.96959,45.09413c0,0 0.08149,0.81489 -0.31522,1.55852c2.25108,1.72488 4.34937,3.71976 6.73451,5.16852z" fill="#150c0c" stroke-width="0.5"/><path d="M315.67208,199.17272c2.45145,0.49029 1.96116,2.94174 1.96116,2.94174l-0.25308,1.26542c-2.43902,11.9631 -14.9209,16.49979 -25.16415,20.09207c-5.75042,2.01666 -11.01819,4.07474 -17.15025,4.69221c-9.91831,-0.03376 -19.44774,3.50104 -29.47569,2.52179c-9.59742,-0.9372 -18.34663,-3.91127 -27.52193,-6.66463c-8.36539,-2.28084 -16.68675,-4.59377 -24.31599,-8.82294c-2.38996,-1.32484 -5.2045,-2.53563 -7.26763,-4.35522c-2.0105,-1.77318 -5.77376,-6.72855 -5.06116,-9.64094c0.57102,-2.33378 5.92738,-4.88449 7.86934,-5.86351c0,0 2.23606,-1.11804 3.3541,1.11803c1.11803,2.23607 -1.11803,3.35411 -1.11803,3.35411c-1.46068,0.72328 -2.73712,1.77759 -4.17357,2.54787c-0.33318,0.17866 -1.01203,-0.16952 -1.11753,0.19351c-0.10477,0.36053 0.62231,0.44252 0.84481,0.74494c2.20522,2.99737 3.48922,4.41622 6.82013,6.26499c8.15133,4.52426 16.58584,7.2091 25.54182,9.65229c8.90604,2.67109 17.33655,5.54155 26.63833,6.49581c9.7251,0.99769 19.08259,-2.50982 28.73394,-2.53992c5.63597,-0.5587 10.4683,-2.57337 15.75084,-4.41886c8.29226,-2.89695 19.98243,-6.48764 21.90973,-16.35221l0.25308,-1.26542c0,0 0.49029,-2.45145 2.94174,-1.96116z" fill="#ffd1d1" stroke-width="0.5"/><path d="M227.34988,134.14046c-0.00235,-3.59088 4.40462,-4.81391 6.91299,-3.9145c1.05813,0.37941 1.4981,1.67633 2.24715,2.5145l0.47728,1.95819c0,0 0.05812,1.54807 -1.21766,2.10323l0.22423,0.59703c1.37846,3.68341 2.33578,7.29923 2.969,11.17649c0,0 0.35693,2.18554 -1.82861,2.54247c-2.18554,0.35693 -2.54247,-1.82861 -2.54247,-1.82861c-0.58598,-3.58804 -1.45848,-6.92363 -2.74411,-10.33311l-0.16119,-0.42918c-2.04668,-0.60952 -4.33465,-1.3885 -4.33661,-4.38651z" fill="#003c20" stroke-width="0.5"/><path d="M256.66632,138.27389l-0.16119,0.42918c-1.28563,3.40948 -2.15813,6.74507 -2.74411,10.33311c0,0 -0.35693,2.18554 -2.54247,1.82861c-2.18554,-0.35693 -1.82861,-2.54247 -1.82861,-2.54247c0.63322,-3.87726 1.59054,-7.49308 2.969,-11.17649l0.22423,-0.59703c-1.27578,-0.55516 -1.21766,-2.10323 -1.21766,-2.10323l0.47728,-1.95819c0.74905,-0.83817 1.18902,-2.13509 2.24715,-2.5145c2.50837,-0.89941 6.91534,0.32362 6.91299,3.9145c-0.00196,2.99801 -2.28993,3.77699 -4.33661,4.38651z" data-paper-data="{&quot;index&quot;:null}" fill="#003c20" stroke-width="0.5"/><path d="M272.50266,137.76627c0.06669,-0.03217 0.06292,-0.08495 0.02537,-0.14882c-0.03971,0.06585 -0.08237,0.12971 -0.1278,0.19142c0.03441,-0.0121 0.06856,-0.02626 0.10243,-0.0426zM262.75345,123.81014c1.84451,-0.11446 3.78285,0.2863 5.10946,0.8716c1.65043,0.72816 3.28332,2.55021 4.54362,3.80461c2.73745,2.76176 7.65909,8.99556 3.45474,12.98393c-1.06996,1.01499 -2.858,0.85891 -4.33228,0.8981c-3.65197,0.09707 -8.01631,-3.32048 -10.50364,-5.79096c-2.44584,-2.42927 -8.46108,-8.57901 -4.80862,-12.39352c1.11131,-1.16062 3.16732,-0.78201 4.77139,-0.68712c0.58162,0.03441 1.17235,0.14403 1.76532,0.31337z" fill="#d0d0d0" stroke-width="0.5"/><path d="M246.84875,197.54395c-2.5,0 -2.5,-2.5 -2.5,-2.5l0.04855,-0.01588c-1.14267,-5.84401 -0.82785,-11.9716 -0.80868,-17.92765c-5.53317,-0.78497 -10.71757,-4.06186 -12.96291,-9.43015c-2.40216,-5.74321 -2.7056,-16.88419 3.72857,-20.17082c0.17841,-0.09113 0.36157,-0.1717 0.54868,-0.2429c0.56628,-0.72686 1.46914,-0.95257 1.46914,-0.95257l1.12839,-0.27918c5.71578,-1.13659 12.42307,-0.78472 17.24648,3.03764c6.49569,5.14756 10.48414,15.34327 4.65076,22.52793c-0.66886,0.8238 -3.95175,2.92542 -4.88496,3.54768c-1.8205,1.04956 -3.84199,1.70429 -5.92458,1.98583c-0.0259,5.59398 -0.41161,11.45381 0.71203,16.92361l0.04855,0.99646c0,0 0,2.5 -2.5,2.5zM242.77673,150.42467c-0.62952,1.31084 -2.25511,1.31084 -2.25511,1.31084c-0.67058,-0.00357 -3.14481,-0.13804 -3.95607,0.24839c-3.41578,1.62708 -2.46999,8.82935 -1.94124,11.7089c1.33822,7.28783 11.19396,11.0545 17.2147,7.2202c1.24725,-0.83132 2.77406,-1.3636 3.71994,-2.52637c4.10291,-5.04362 0.18729,-11.94261 -3.95414,-15.43486c-2.39032,-2.01563 -5.66727,-2.61346 -8.82808,-2.5271z" fill="#003c20" stroke-width="0.5"/><path d="M251.63342,152.91076c4.14143,3.49225 8.0693,10.46107 3.96639,15.50469c-0.94588,1.16277 -2.48636,1.70819 -3.73361,2.53951c-6.02074,3.8343 -15.95265,0.03569 -17.29087,-7.25214c-0.52875,-2.87955 -1.46031,-10.1278 1.95547,-11.75488c0.81126,-0.38643 3.2967,-0.26012 3.96728,-0.25655c0,0 1.63632,-0.00422 2.26584,-1.31506c3.16081,-0.08636 6.47918,0.51879 8.8695,2.53442z" data-paper-data="{&quot;noHover&quot;:false,&quot;origItem&quot;:[&quot;Path&quot;,{&quot;applyMatrix&quot;:true,&quot;segments&quot;:[[[242.77673,150.42467],[3.16081,-0.08636],[-0.62952,1.31084]],[[240.52162,151.73551],[0,0],[-0.67058,-0.00357]],[[236.56555,151.9839],[0.81126,-0.38643],[-3.41578,1.62708]],[[234.62431,163.6928],[-0.52875,-2.87955],[1.33822,7.28783]],[[251.83901,170.913],[-6.02074,3.8343],[1.24725,-0.83132]],[[255.55895,168.38663],[-0.94588,1.16277],[4.10291,-5.04362]],[[251.60481,152.95177],[4.14143,3.49225],[-2.39032,-2.01563]]],&quot;closed&quot;:true,&quot;fillColor&quot;:[0,0,0,1],&quot;strokeWidth&quot;:0.5}]}" fill="#000000" stroke-width="0.25"/><path d="M293.42825,222.12692c-5.31716,2.1262 -10.61444,2.88663 -16.13173,4.19967c-2.78064,0.66175 -5.14497,1.68688 -8.05172,1.83759c-4.39416,0.22782 -8.78181,-0.28467 -13.15642,-0.50617c-0.45761,-0.02317 -0.91482,-0.04391 -1.37168,-0.06279c-0.43536,0.09489 -0.87124,0.186 -1.30809,0.27133c-3.50252,0.68411 -7.31379,0.3025 -10.8623,0.30074c-9.4512,-0.00469 -20.2074,-1.53806 -28.31838,-6.84658c-2.58875,-0.91144 -5.17455,-1.90371 -7.78896,-2.94947c-6.56484,-2.62593 -12.56985,-4.55804 -17.40351,-10.03908c0,0 -0.62752,-0.71717 -0.66493,-1.65338c-0.05192,-0.06322 -0.10358,-0.12663 -0.15499,-0.19024c-1.19825,-1.48249 -3.47006,-4.43881 -3.33174,-6.3543c0.22466,-3.11118 4.3863,-5.06337 6.22469,-7.04331c4.09922,-4.41482 8.43118,-8.68677 12.71958,-12.97517c0,0 1.76777,-1.76776 3.53554,0c0.24061,0.24061 0.41573,0.48123 0.53871,0.71739c0.10708,0.11324 0.19776,0.2342 0.27457,0.35786c1.05246,1.11076 1.9729,2.35281 3.11675,3.36851c2.46649,2.19018 6.15713,3.16968 9.15037,4.36697c6.59035,2.63614 13.69663,4.31318 20.80829,4.893c3.82832,0.31213 7.71014,-0.51461 11.54596,-0.51317c8.225,-0.82642 16.08355,-2.57334 23.97238,-4.79708c2.77276,-1.72719 5.51687,-3.53382 8.39308,-5.04068c2.42115,-1.26845 5.65781,-4.6684 8.67465,-3.99218c0.52871,0.11851 3.69891,3.9592 4.44072,4.74856c4.27259,4.54644 9.10642,7.9781 14.01337,11.79375c1.52447,0.91381 5.41681,2.93345 5.62885,4.83922c0.16589,1.49101 -1.49932,2.60055 -2.31593,3.85904c-1.96785,3.03267 -3.88616,6.37411 -6.56928,8.86374c-2.7083,2.51298 -6.0389,3.53389 -9.31894,4.93969c-2.04877,1.26615 -4.10642,2.51675 -6.2889,3.60656z" fill="#ffd1d1" stroke-width="0.5"/><path d="M234.15123,190.99891c0.24876,2.48759 -2.23883,2.73635 -2.23883,2.73635l-2.77961,0.26549c-1.14619,-0.14123 -2.53474,0.29516 -3.43858,-0.4237c-0.17733,-0.14104 -0.34314,-0.29271 -0.4994,-0.45321l-0.09287,0.12383l-2.00141,-1.50106c-0.62044,-0.45492 -1.02328,-1.18914 -1.02328,-2.01746c0,-1.38071 1.11929,-2.5 2.5,-2.5c0.27016,0 0.53031,0.04285 0.77403,0.12213l2.37447,0.71234c0.87117,0.15709 1.74234,0.31419 2.61351,0.47128c0,0 0.33469,0.06085 0.7347,0.26112l0.34092,-0.03596c0,0 2.48759,-0.24876 2.73635,2.23883z" fill="#003c20" stroke-width="0.5"/><path d="M275.37903,188.53716c0.05944,0.12253 0.11384,0.25604 0.1623,0.40143c0.79057,2.37171 -1.58114,3.16228 -1.58114,3.16228l-0.83146,0.27594c-0.96206,0.2794 -1.89393,0.97622 -2.88619,0.83819c-0.12183,-0.01695 -0.24281,-0.03724 -0.36303,-0.06055v0.08705h-2.53085v0c-1.38071,0 -2.5,-1.11929 -2.5,-2.5c0,-1.06038 0.66018,-1.96657 1.59194,-2.32997l2.98355,-1.24315l0.03629,0.08709l0.19579,-0.17061c0.92334,-0.1888 1.84668,-0.37761 2.77003,-0.56641c0,0 2.45145,-0.49029 2.94174,1.96116c0.00386,0.0193 0.00754,0.03849 0.01104,0.05755z" fill="#003c20" stroke-width="0.5"/><path d="M244.25437,206.0737c0.14947,-0.19719 0.31521,-0.38359 0.49783,-0.55746c0.98498,-0.93785 2.64255,-0.69447 3.9967,-0.82108c8.62755,-0.80668 11.55061,12.25781 3.86518,15.68926c-7.92906,3.54023 -16.17626,-8.66917 -8.9105,-14.01579c0.17159,-0.12627 0.35632,-0.22195 0.55079,-0.29493z" fill="#ff0000" stroke-width="0.5"/><path d="M203.25676,194.71501l0.05137,-0.13089c1.37121,-0.5955 2.6293,-1.96435 4.11362,-1.7865c9.36059,1.12163 2.36098,13.35187 -2.9704,14.53672c-3.02573,0.67245 -6.25836,-0.05908 -7.35369,-3.5805c-0.41651,-1.33904 0.38601,-2.80148 0.88004,-4.1139c1.33033,-3.53411 1.88089,-3.1338 4.9816,-4.80738c0,0 0.11162,-0.05581 0.29746,-0.11755z" fill="#ff0000" stroke-width="0.5"/><path d="M296.63897,194.57948c3.10071,1.67358 3.65127,1.27327 4.9816,4.80738c0.49403,1.31242 1.29655,2.77486 0.88004,4.1139c-1.09533,3.52142 -4.32797,4.25295 -7.3537,3.5805c-5.33139,-1.18486 -12.33099,-13.41509 -2.9704,-14.53672c1.48431,-0.17785 2.74242,1.191 4.11362,1.7865l0.05138,0.13089c0.18584,0.06175 0.29746,0.11755 0.29746,0.11755z" data-paper-data="{&quot;index&quot;:null}" fill="#ff0000" stroke-width="0.5"/></g></g></svg>