<svg version="1.1" xmlns="http://www.w3.org/2000/svg" xmlns:xlink="http://www.w3.org/1999/xlink" width="1052.55255" height="767.26727" viewBox="0,0,1052.55255,767.26727"><g transform="translate(286.27627,203.63364)"><g data-paper-data="{&quot;isPaintingLayer&quot;:true}" fill-rule="nonzero" stroke-linejoin="miter" stroke-miterlimit="10" stroke-dasharray="" stroke-dashoffset="0" style="mix-blend-mode: normal"><path d="M220.08333,187.58333c0,0 -2.16667,-1.59994 -2.16667,-3.5c0,-3.65105 2.16667,-16.83333 2.16667,-16.83333c0,0 0.17135,-1.5 2.16667,-1.5c0.96609,0 3.43711,-1.46019 5.50194,-1.39354c3.81956,0.12328 -0.00727,1.69947 5.04992,2.17315c2.60382,0.24389 10.07188,-0.43288 14.27344,0.37c2.78381,0.53196 2.31038,2.69524 4.60539,2.66998c0.99894,-0.011 0.69426,-3.01481 1.5599,-3.0065c4.50816,0.04328 6.17607,0.68691 6.17607,0.68691c0,0 3,0.73708 3,1.66667c0,0.73204 0.17166,2.27056 0.34622,4.16548c0.30316,3.29108 0.61505,7.65722 0.05149,10.74055c-0.42087,2.30267 -3.39771,3.76064 -3.39771,3.76064c0,0 -3.08944,1.66667 -5.83333,1.66667c-0.90222,0 -1.76726,0.93323 -3.8665,0.85147c-4.20768,-0.16388 -10.85917,-1.38799 -15.10445,-1.2553c-0.36147,0.0113 -2.44461,-2.9702 -2.75389,-2.94599c-1.77525,0.13895 -0.59487,2.2743 -1.16246,3.33129c-0.44997,0.83794 -2.60223,0.67308 -3.93103,0.59536c-4.03265,-0.23586 -6.68167,-2.24349 -6.68167,-2.24349z" fill="#e06446" stroke="#a02222" stroke-width="4" stroke-linecap="butt"/><path d="M233.6875,178.5625l2.125,-0.125" fill="none" stroke="#d64a42" stroke-width="4" stroke-linecap="round"/><path d="M250.1875,174.6875l3,-0.375" fill="none" stroke="#d64a42" stroke-width="4" stroke-linecap="round"/><path d="M225.4375,171.4375l2.125,0.75" fill="none" stroke="#d64a42" stroke-width="4" stroke-linecap="round"/><path d="M224.8125,180.0625l2.125,0.125" fill="none" stroke="#d64a42" stroke-width="4" stroke-linecap="round"/><path d="M240.3125,183.5625l-1.625,-0.125" fill="none" stroke="#d64a42" stroke-width="4" stroke-linecap="round"/><path d="M254.3125,181.3125l-1.125,-0.5" fill="none" stroke="#d64a42" stroke-width="4" stroke-linecap="round"/><path d="M241.8125,173.5625l0.375,-0.125" fill="none" stroke="#d64a42" stroke-width="4" stroke-linecap="round"/><path d="M255.1875,171.8125l1.5,0.375" fill="none" stroke="#d64a42" stroke-width="4" stroke-linecap="round"/><path d="M242.4375,168.6875l5,0.5" fill="none" stroke="#a02222" stroke-width="4" stroke-linecap="round"/><path d="M232.4375,168.5625l2.625,0.5" fill="none" stroke="#a02222" stroke-width="4" stroke-linecap="round"/><path d="M244.3125,186.5625l2.625,0.375" fill="none" stroke="#a02222" stroke-width="4" stroke-linecap="round"/><path d="M220.5625,182.6875l3.5,-0.125" fill="none" stroke="#a02222" stroke-width="4" stroke-linecap="round"/><path d="M259.6875,175.3125l3.375,-0.25" fill="none" stroke="#a02222" stroke-width="4" stroke-linecap="round"/><path d="M232.6875,174.4375l1.625,-0.125" fill="none" stroke="#a02222" stroke-width="4" stroke-linecap="round"/><path d="M247.6875,181.1875l-1.75,0.125" fill="none" stroke="#a02222" stroke-width="4" stroke-linecap="round"/><path d="M223.0625,175.5625l-1.625,0.5" fill="none" stroke="#a02222" stroke-width="4" stroke-linecap="round"/><path d="M-286.27627,563.63364v-767.26727h1052.55255v767.26727z" fill="none" stroke="none" stroke-width="0" stroke-linecap="butt"/></g></g></svg>