<svg version="1.1" xmlns="http://www.w3.org/2000/svg" xmlns:xlink="http://www.w3.org/1999/xlink" width="38.18222" height="19.75" viewBox="0,0,38.18222,19.75"><defs><linearGradient x1="211.16325" y1="179.625" x2="248.05482" y2="179.625" gradientUnits="userSpaceOnUse" id="color-1"><stop offset="0" stop-color="#000000" stop-opacity="0"/><stop offset="1" stop-color="#000000"/></linearGradient><linearGradient x1="210.73304" y1="180.875" x2="247.62461" y2="180.875" gradientUnits="userSpaceOnUse" id="color-2"><stop offset="0" stop-color="#000000" stop-opacity="0"/><stop offset="1" stop-color="#000000"/></linearGradient><linearGradient x1="212.02368" y1="179.125" x2="248.91525" y2="179.125" gradientUnits="userSpaceOnUse" id="color-3"><stop offset="0" stop-color="#000000" stop-opacity="0"/><stop offset="1" stop-color="#000000"/></linearGradient></defs><g transform="translate(-210.73303,-170.125)"><g data-paper-data="{&quot;isPaintingLayer&quot;:true}" fill-rule="nonzero" stroke="none" stroke-width="0" stroke-linecap="butt" stroke-linejoin="miter" stroke-miterlimit="10" stroke-dasharray="" stroke-dashoffset="0" style="mix-blend-mode: normal"><path d="M237.72966,188.625c-5.70243,0 -26.56641,-3.48495 -26.56641,-8.45551c0,-4.97056 20.86398,-9.54449 26.56641,-9.54449c5.70243,0 10.32516,4.02944 10.32516,9c0,4.97056 -4.62274,9 -10.32516,9z" fill="url(#color-1)"/><path d="M237.29944,189.875c-5.70243,0 -26.56641,-3.48495 -26.56641,-8.45551c0,-4.97056 20.86398,-9.54449 26.56641,-9.54449c5.70243,0 10.32516,4.02944 10.32516,9c0,4.97056 -4.62274,9 -10.32516,9z" fill="url(#color-2)"/><path d="M238.59009,188.125c-5.70243,0 -26.56641,-3.48495 -26.56641,-8.45551c0,-4.97056 20.86398,-9.54449 26.56641,-9.54449c5.70243,0 10.32516,4.02944 10.32516,9c0,4.97056 -4.62274,9 -10.32516,9z" fill="url(#color-3)"/></g></g></svg>