<svg version="1.1" xmlns="http://www.w3.org/2000/svg" xmlns:xlink="http://www.w3.org/1999/xlink" width="52.54134" height="108.33581" viewBox="0,0,52.54134,108.33581"><g transform="translate(-218.37498,-118.32825)"><g data-paper-data="{&quot;isPaintingLayer&quot;:true}" fill-rule="nonzero" stroke="none" stroke-linecap="butt" stroke-linejoin="miter" stroke-miterlimit="10" stroke-dasharray="" stroke-dashoffset="0" style="mix-blend-mode: normal"><path d="M255.62498,155.66406c2.5,0 2.5,2.5 2.5,2.5v0.5c0,0.56271 0.05245,1.34793 0.10971,2.22657c0.7992,-0.0634 1.59653,-0.13448 2.39153,-0.21416c1.5254,-0.15289 3.04095,-0.3918 4.56235,-0.58041c0.27615,-0.03424 0.83152,0.24919 0.83429,-0.02906c0.00442,-0.44425 -0.66641,-0.63238 -0.82357,-1.04794c-0.51969,-1.37419 -0.77872,-2.86648 -1.5097,-4.14089l-0.31461,-1.71411c0,0 0,-2.5 2.5,-2.5c2.15704,0 2.45295,1.86113 2.49355,2.37176c1.128,2.20368 3.18017,6.82254 2.35858,8.7253c-1.24737,2.88883 -4.50163,3.24103 -7.00386,3.62856c-1.78589,0.27659 -3.60224,0.4811 -5.43646,0.63184c-0.07268,0.58029 -0.19424,1.07403 -0.38522,1.42558c-0.74557,1.37236 -2.07527,2.49265 -3.51493,3.09811c-0.65139,0.27395 -4.82902,-0.33139 -5.88618,-0.38426c-2.89953,-0.145 -5.76558,0.01333 -8.65493,-0.14731c0.13858,7.24419 1.24987,14.36039 1.27947,21.65042v0.62646c0.76061,7.7455 0.24531,15.37824 0.25,23.12354c0.00106,1.75 0.33878,3.5331 0,5.25c-0.06738,0.3415 -0.971,0.67048 -0.65394,0.81415c0.41677,0.18886 0.80522,-0.53383 1.26277,-0.53827c1.64829,-0.016 3.24955,0.57455 4.88993,0.73652l0.75124,-0.01241c0,0 2.5,0 2.5,2.5c0,2.5 -2.5,2.5 -2.5,2.5l-1.24876,-0.01241c-1.92015,-0.19421 -8.15648,-0.52987 -9.3473,-1.80175c-1.32296,-1.41301 -0.65508,-7.46839 -0.65394,-9.43585c0.0044,-7.61828 0.5245,-15.133 -0.23759,-22.75124c0,0 -0.00453,-0.04534 -0.00626,-0.12438c-0.00615,-0.07882 -0.00615,-0.12438 -0.00615,-0.12438v-0.75c0.0166,-3.4163 -0.82373,-6.70303 -0.9969,-10.12547c-0.32638,-6.45059 -0.62847,-12.91882 0.0093,-19.37329c0,0 0.00702,-0.07021 0.0305,-0.18586c-6.90901,-1.99929 -11.26877,-8.17638 -10.53074,-16.06173c0.15057,-1.60872 1.087,-5.30069 1.97966,-6.4927c0.75255,-1.00491 1.8586,-1.74441 2.98775,-2.29322c1.49764,-0.72792 4.00561,-0.69348 5.65046,-0.94021c3.0585,-0.45878 5.75791,-1.34115 8.82667,-0.08723c2.02249,0.82641 3.84965,2.78086 5.39573,4.20702c1.64817,4.95707 3.30994,10.49348 -0.06229,15.2976c-1.55736,2.21864 -4.65219,3.70029 -6.79015,5.30508l-0.3528,0.0588c-0.04471,0.16065 -0.10256,0.30604 -0.17064,0.43762c3.70966,-0.01061 7.44547,-0.05249 11.16185,-0.2171c-0.07068,-0.87929 -0.13841,-1.7429 -0.13841,-2.52932v-0.5c0,0 0,-2.5 2.5,-2.5zM237.52994,157.44754c0.70771,-1.03348 2.09504,-1.03348 2.09504,-1.03348v0.5c1.64787,-1.23494 4.50036,-2.49902 5.70985,-4.19492c2.09955,-2.9439 0.68242,-6.66795 -0.06229,-9.7024c-3.51693,-2.77334 -4.95707,-2.52829 -9.27759,-1.88021c-1.22587,0.18388 -4.50815,-0.13158 -5.36179,1.26657c-3.89222,6.37495 0.46366,13.69638 6.89678,15.04444z" fill="#003c20" stroke-width="0.5"/><path d="M230.59659,142.369c0.85364,-1.39815 4.16143,-1.09736 5.3873,-1.28124c4.32052,-0.64808 5.81055,-0.87587 9.32748,1.89747c0.74471,3.03445 2.16804,6.81174 0.06849,9.75564c-1.20949,1.6959 -4.09565,2.98694 -5.74352,4.22188l0.00073,-0.50018c0,0 -1.40102,0.00146 -2.10873,1.03494c-6.43312,-1.34806 -10.82397,-8.75356 -6.93175,-15.12851z" data-paper-data="{&quot;noHover&quot;:false,&quot;origItem&quot;:[&quot;Path&quot;,{&quot;applyMatrix&quot;:true,&quot;segments&quot;:[[[237.52994,157.44754],[-6.43312,-1.34806],[0.70771,-1.03348]],[239.62498,156.41406],[[239.62498,156.91406],[0,0],[1.64787,-1.23494]],[[245.33483,152.71914],[-1.20949,1.6959],[2.09955,-2.9439]],[[245.27254,143.01674],[0.74471,3.03445],[-3.51693,-2.77334]],[[235.99495,141.13653],[4.32052,-0.64808],[-1.22587,0.18388]],[[230.63316,142.4031],[0.85364,-1.39815],[-3.89222,6.37495]]],&quot;closed&quot;:true,&quot;fillColor&quot;:[0.21569,0,0]}]}" fill="#000000" stroke-width="0.5"/><path d="M237.62498,223.91406v-33c0,0 10.54291,3.11906 15.35648,2.22622c5.44237,-1.00947 15.64352,-7.97622 15.64352,-7.97622c0,0 -0.58901,16.3497 -9.67683,26.90854c-9.39742,10.91854 -21.32317,11.84146 -21.32317,11.84146z" fill="#003c20" stroke-width="0"/><path d="M224.37498,218.41406c-4.94152,-5.12918 -6,-15.25 -6,-15.25c0,0 8.09972,4.67974 11.48695,4.76549c3.18345,0.08059 8.26305,-4.26549 8.26305,-4.26549v20c0,0 -8.80848,-0.12082 -13.75,-5.25z" fill="#003c20" stroke-width="0"/><path d="M222.02892,123.47385c-0.00235,-3.59088 4.40462,-4.81391 6.91299,-3.9145c1.05813,0.37941 1.4981,1.67633 2.24715,2.5145l0.47728,1.95819c0,0 0.05812,1.54807 -1.21766,2.10323l0.22423,0.59703c1.37846,3.68341 2.33578,7.29923 2.969,11.17649c0,0 0.35693,2.18554 -1.82861,2.54247c-2.18554,0.35693 -2.54247,-1.82861 -2.54247,-1.82861c-0.58598,-3.58804 -1.45848,-6.92363 -2.74411,-10.33311l-0.16119,-0.42918c-2.04668,-0.60952 -4.33465,-1.3885 -4.33661,-4.38651z" fill="#003c20" stroke-width="0.5"/><path d="M238.23994,121.40144c0.89893,-3.55916 5.57322,-3.66509 7.83327,-2.1442c0.95338,0.64157 1.06388,2.03725 1.59582,3.05588l-0.0185,2.06035c0,0 -0.33094,1.54873 -1.73458,1.77869l0.07237,0.64793c0.44157,3.99624 0.48275,7.81979 0.13713,11.82109c0,0 -0.19483,2.25546 -2.45028,2.06064c-2.25546,-0.19482 -2.06063,-2.45028 -2.06063,-2.45028c0.31984,-3.70282 0.29238,-7.22738 -0.12595,-10.92886l-0.05203,-0.46577c-1.87528,-1.11772 -3.94715,-2.46394 -3.19663,-5.43546z" fill="#003c20" stroke-width="0.5"/></g></g></svg>