<svg version="1.1" xmlns="http://www.w3.org/2000/svg" xmlns:xlink="http://www.w3.org/1999/xlink" width="37.83481" height="50.00234" viewBox="0,0,37.83481,50.00234"><g transform="translate(-221.853,-153.08015)"><g data-paper-data="{&quot;isPaintingLayer&quot;:true}" fill-rule="nonzero" stroke="none" stroke-linecap="butt" stroke-linejoin="miter" stroke-miterlimit="10" stroke-dasharray="" stroke-dashoffset="0" style="mix-blend-mode: normal"><path d="M258.21882,189.4837c-0.5964,0.6958 -1.22923,0.91792 -1.79165,0.92013c-0.04588,0.52347 -0.29422,1.09513 -0.93717,1.63092c-1.92055,1.60046 -3.52101,-0.32009 -3.52101,-0.32009l0.17448,-0.30155c-0.41236,-0.32414 -0.74952,-1.16578 -1.23708,-0.97241c-0.61005,0.24195 -0.44171,1.25415 -0.82196,1.78905c-1.62367,2.28404 -4.87446,5.68442 -8.0964,5.11938c-1.50267,-0.26353 -1.79143,-2.47744 -2.54543,-3.80369c-1.05064,-1.84803 -2.11895,-3.86352 -3.09585,-5.90932c-1.40581,2.46763 -3.00851,4.82653 -4.79808,7.14237c-1.83956,2.38053 -2.9487,4.78924 -5.05634,6.9882l0.11232,-0.11529c0,0 -1.11803,2.23607 -3.35411,1.11804c-2.23607,-1.11803 -1.11803,-3.35411 -1.11803,-3.35411l0.64195,-0.99704c2.11686,-2.09214 3.04383,-4.38081 4.83318,-6.71687c2.48067,-3.23861 4.59648,-6.53867 6.26664,-10.16454c-0.07821,-0.6349 -0.01708,-1.66475 0.98801,-2.31842c0.16735,-0.42658 0.32878,-0.85804 0.48419,-1.29474c-0.39049,-0.29584 -0.75681,-0.61017 -1.09538,-0.94248c-5.1932,-5.09699 -3.76856,-19.51789 3.6189,-22.23164c0.50083,-0.18398 2.09528,-0.07781 3.61619,0.07722l2.48742,-1.74667c6.11372,0.51148 14.01622,5.25367 15.46938,11.79659c0.32508,1.4637 0.16321,2.99427 0.24482,4.4914c-0.4183,3.58951 -0.02594,4.67305 -2.5109,7.63048c-2.98163,3.54853 -8.54482,4.74977 -13.71509,4.049c1.1448,1.55348 2.35913,3.001 3.36827,4.7496c0.193,0.33442 -0.22393,0.8545 0.01444,1.15825c0.19406,0.24729 -0.03872,-0.68977 0.16601,-0.9283c0.61434,-0.71577 1.36009,-1.33768 2.17966,-1.80463c1.21405,-0.69171 2.46677,-1.75042 3.85936,-1.6361c1.4041,0.11526 2.38653,1.49786 3.57979,2.24679l1.31827,1.12533c0,0 1.89814,1.62698 0.27116,3.52512zM242.88909,188.8743c-0.02259,-0.02435 -0.04512,-0.04872 -0.06758,-0.0731c0.45149,0.89727 0.98537,1.76904 1.20359,2.74405c0.08408,0.37565 -0.7494,1.31422 -0.4616,1.05858c0.42185,-0.37471 0.80701,-0.861 1.17819,-1.40359c-0.68547,-0.6567 -1.21001,-1.6332 -1.8526,-2.32595zM246.52507,158.53794c-0.58229,1.84758 -2.65217,1.60406 -2.65217,1.60406c-1.51229,-0.17834 -3.06352,-1.03712 -4.52669,-0.61527c-1.08435,0.31262 -1.93924,2.33597 -2.19376,3.1114c-0.91327,2.78241 -1.8621,8.5179 0.60308,10.77671c3.53181,3.23615 12.26954,4.1721 15.62508,0.32991c1.41684,-1.62232 1.12562,-2.43822 1.30946,-4.5252c-0.1591,-4.88873 -3.51337,-9.27179 -8.16498,-10.6816z" fill="#000000" stroke-width="0.5"/><path d="M246.53119,158.48833c4.65161,1.40981 8.04884,5.85216 8.20794,10.74089c-0.18384,2.08698 0.09738,2.92443 -1.31946,4.54675c-3.35554,3.84219 -12.17169,2.90586 -15.7035,-0.33029c-2.46518,-2.25881 -1.52035,-8.05004 -0.60708,-10.83245c0.25452,-0.77543 1.12216,-2.81342 2.20651,-3.12604c1.46317,-0.42185 3.03446,0.42759 4.54675,0.60593c0,0 2.08651,0.24277 2.6688,-1.60481z" data-paper-data="{&quot;noHover&quot;:false,&quot;origItem&quot;:[&quot;Path&quot;,{&quot;applyMatrix&quot;:true,&quot;segments&quot;:[[[246.52507,158.53794],[0,0],[-0.58229,1.84758]],[[243.8729,160.142],[0,0],[-1.51229,-0.17834]],[[239.34621,159.52673],[1.46317,-0.42185],[-1.08435,0.31262]],[[237.15245,162.63813],[0.25452,-0.77543],[-0.91327,2.78241]],[[237.75553,173.41485],[-2.46518,-2.25881],[3.53181,3.23615]],[[253.38061,173.74476],[-3.35554,3.84219],[1.41684,-1.62232]],[[254.69007,169.21956],[-0.18384,2.08698],[-0.1591,-4.88873]],[[246.52509,158.53795],[4.65161,1.40981],[0,0]]],&quot;closed&quot;:true,&quot;fillColor&quot;:[0,0,0],&quot;strokeWidth&quot;:0.5}]}" fill="#ffffff" stroke-width="0.25"/></g></g></svg>