<svg version="1.1" xmlns="http://www.w3.org/2000/svg" xmlns:xlink="http://www.w3.org/1999/xlink" width="1052.55255" height="767.26727" viewBox="0,0,1052.55255,767.26727"><g transform="translate(286.27628,203.63365)"><g data-paper-data="{&quot;isPaintingLayer&quot;:true}" fill-rule="nonzero" stroke-linejoin="miter" stroke-miterlimit="10" stroke-dasharray="" stroke-dashoffset="0" style="mix-blend-mode: normal"><path d="M-286.27627,563.63363v-767.26727h1052.55255v767.26727z" fill="none" stroke="none" stroke-width="0" stroke-linecap="butt"/><path d="M236.27285,176.53222c0.99894,-0.011 0.69426,-3.01481 1.5599,-3.0065c4.50816,0.04328 6.17607,0.68691 6.17607,0.68691c0,0 3,0.73708 3,1.66667c0,0.73204 0.17166,2.27056 0.34622,4.16548c0.1742,1.89115 0.35129,4.13728 0.3635,6.29101c-1.20627,-0.58424 -2.46995,-0.98138 -3.73446,-1.14712c-1.12554,-0.14753 -4.45864,1.73819 -5.29395,1.18303c-1.28001,-0.85072 -1.61321,-3.15515 -2.944,-4.06679c-0.78894,-0.54046 -1.71737,-1.39454 -2.44607,-1.80393c-0.30491,-0.1713 -1.1543,-0.00352 -1.00005,-0.31741c0.71924,-1.46359 1.4729,-2.90979 2.23359,-4.35244c0.40139,0.4085 0.87321,0.71062 1.73925,0.70109z" fill="#e06446" stroke="#a02222" stroke-width="4" stroke-linecap="butt"/><path d="M234.86219,181.63981l2.91747,-0.36468" fill="none" stroke="#d64a42" stroke-width="4" stroke-linecap="round"/><path d="M239.77966,178.77513l1.5,0.375" fill="none" stroke="#d64a42" stroke-width="4" stroke-linecap="round"/><path d="M244.27966,182.27513l3.375,-0.25" fill="none" stroke="#a02222" stroke-width="4" stroke-linecap="round"/></g></g></svg>