<svg version="1.1" xmlns="http://www.w3.org/2000/svg" xmlns:xlink="http://www.w3.org/1999/xlink" width="85.1" height="31.72491" viewBox="0,0,85.1,31.72491"><g transform="translate(-188.61613,-199.08917)"><g data-paper-data="{&quot;isPaintingLayer&quot;:true}" fill-rule="nonzero" stroke="none" stroke-linecap="butt" stroke-linejoin="miter" stroke-miterlimit="10" stroke-dasharray="" stroke-dashoffset="0" style="mix-blend-mode: normal"><path d="M197.81613,223.31408c0,-2.48528 16.25206,-4.5 36.3,-4.5c20.04794,0 36.3,2.01472 36.3,4.5c0,2.48528 -16.25206,4.5 -36.3,4.5c-20.04794,0 -36.3,-2.01472 -36.3,-4.5z" data-paper-data="{&quot;index&quot;:null}" fill="#ef0000" stroke-width="0"/><path d="M249.18007,214.9321c-1.11804,-2.23607 1.11803,-3.3541 1.11803,-3.3541l2.88018,-0.79991c2.89073,0.6814 4.55303,1.36883 6.10661,2.60382l0.19092,-0.32728l2.35903,1.3761c0.76447,0.42763 1.28129,1.24513 1.28129,2.18334c0,0.91789 -0.49467,1.72025 -1.23198,2.15502c2.61879,0.16248 5.52383,0.94855 7.73198,0.94498h1.6c0,0 2.5,0 2.5,2.5c0,2.5 -2.5,2.5 -2.5,2.5h-1.6c-3.17736,-0.00462 -6.22662,-0.34445 -9.36685,-0.82706c-0.99872,-0.1535 -2.12584,0.0307 -2.99138,-0.4907c-0.11126,-0.06702 -0.22094,-0.13621 -0.32919,-0.20738l-0.0306,0.06121l-3.15156,-1.57578c-0.06893,-0.03268 -0.13612,-0.06841 -0.20141,-0.10703c-7.45145,0.48014 -14.97927,-0.13589 -22.44684,0.05494c-0.39137,0.51726 -0.88504,0.78654 -0.88504,0.78654c-6.30551,3.29075 -13.58045,0.95465 -20.31349,0.08516c-1.20167,-0.15518 -2.407,-0.2854 -3.61468,-0.38334c-0.62981,-0.05107 -1.26681,-0.13536 -1.89458,-0.06344c-0.48559,0.05564 -1.65442,0.21724 -1.34126,0.5925c0.16708,0.2002 0.44521,0.29756 0.70132,0.34659c2.72606,0.52192 5.51008,0.32779 8.26556,0.32779h0.4c0,0 2.5,0 2.5,2.5c0,2.5 -2.5,2.5 -2.5,2.5h-0.4c-3.06612,0 -7.80305,0.66312 -10.53444,-0.87221c-3.94312,-2.21645 -3.99441,-5.6928 -1.85514,-8.06461c-0.49247,-0.17524 -0.9457,-0.38696 -1.3414,-0.64694c-1.0649,-0.69967 -1.64338,-1.94769 -2.46507,-2.92153c-1.16373,-3.46868 -1.9097,-6.75418 0.0066,-10.20147c2.70914,-4.87354 10.96627,-8.77852 16.06611,-5.01054c2.69445,1.99078 3.26965,5.18688 3.39275,8.24401c2.63414,-1.88703 5.57209,-3.17181 9.02957,-2.227c4.33531,1.18469 6.95851,5.86004 6.0391,10.05467c7.67475,-0.20802 15.40252,0.4289 23.0615,-0.10229c0.08521,-0.13252 0.17995,-0.25172 0.27692,-0.35758c-0.49957,-0.2164 -1.04026,-0.42403 -1.63865,-0.55853l0.48018,0.40009c0,0 -2.23607,1.11804 -3.3541,-1.11803zM223.52404,217.13121c0.39857,-0.0464 0.79739,-0.08887 1.19643,-0.12769c0.13317,-0.13743 0.25205,-0.29609 0.35391,-0.47895c1.07398,-1.92806 0.06323,-4.53241 -2.15721,-5.11018c-2.10262,-0.54712 -3.87789,0.73139 -5.33929,1.95187c0,0 -1.072,0.85759 -2.26273,0.50739c-1.07941,0.29146 -2.08576,-0.37944 -2.08576,-0.37944l-2.91325,-3.28013c0.01817,-1.6947 0.20197,-4.34811 -1.37665,-5.5827c-0.75364,-0.5894 -2.68384,-0.26118 -3.31037,-0.15165c-4.69184,0.82022 -6.87518,4.50766 -5.41693,8.93963c1.14363,1.67821 3.25848,1.57972 5.2429,1.93355c4.76579,0.84975 9.36113,2.19948 14.23448,2.36224c0.66835,0.02232 1.4909,0.12398 2.30385,0.1273c0.65057,-0.60772 1.53061,-0.71125 1.53061,-0.71125z" data-paper-data="{&quot;index&quot;:null}" fill="#000426" stroke-width="0.5"/><path d="M216.01613,206.41408c1.87777,0 3.4,2.32812 3.4,5.2c0,2.87188 -1.52223,5.2 -3.4,5.2c-1.87777,0 -3.4,-2.32812 -3.4,-5.2c0,-2.87188 1.52223,-5.2 3.4,-5.2z" data-paper-data="{&quot;index&quot;:null}" fill="#ef0000" stroke-width="0"/><path d="M216.81613,207.71408c0,0.82843 -1.65655,1.5 -3.7,1.5c-2.04345,0 -3.7,-0.67157 -3.7,-1.5c0,-0.82843 1.65655,-1.5 3.7,-1.5c2.04345,0 3.7,0.67157 3.7,1.5z" data-paper-data="{&quot;index&quot;:null}" fill="#ef0000" stroke-width="0"/><path d="M237.21613,228.11408c0,-1.49117 5.86507,-2.7 13.1,-2.7c7.23493,0 13.1,1.20883 13.1,2.7c0,1.49117 -5.86507,2.7 -13.1,2.7c-7.23493,0 -13.1,-1.20883 -13.1,-2.7z" data-paper-data="{&quot;index&quot;:null}" fill="#ef0000" stroke-width="0"/><path d="M193.01613,223.01408c2.43005,0 4.4,0.53726 4.4,1.2c0,0.66274 -1.96995,1.2 -4.4,1.2c-2.43005,0 -4.4,-0.53726 -4.4,-1.2c0,-0.66274 1.96995,-1.2 4.4,-1.2z" data-paper-data="{&quot;index&quot;:null}" fill="#ef0000" stroke-width="0"/></g></g></svg>